<svg xmlns="http://www.w3.org/2000/svg" xmlns:xlink="http://www.w3.org/1999/xlink" viewBox="0 0 136.06 136.06"><defs><style>.cls-1{fill:none;clip-rule:evenodd;}.cls-2{fill:#bdd7ee;}.cls-3{fill:#64b747;}.cls-4{clip-path:url(#clip-path);}.cls-5{clip-path:url(#clip-path-2);}.cls-6{clip-path:url(#clip-path-3);}.cls-7{clip-path:url(#clip-path-4);}.cls-8{clip-path:url(#clip-path-5);}.cls-9{clip-path:url(#clip-path-6);}.cls-10{clip-path:url(#clip-path-7);}.cls-11{clip-path:url(#clip-path-8);}.cls-12{clip-path:url(#clip-path-9);}.cls-13{clip-path:url(#clip-path-10);}.cls-14{clip-path:url(#clip-path-11);}.cls-15{clip-path:url(#clip-path-12);}.cls-16{clip-path:url(#clip-path-13);}.cls-17{clip-path:url(#clip-path-14);}.cls-18{clip-path:url(#clip-path-15);}.cls-19{clip-path:url(#clip-path-16);}.cls-20{clip-path:url(#clip-path-17);}.cls-21{clip-path:url(#clip-path-18);}.cls-22{clip-path:url(#clip-path-19);}.cls-23{clip-path:url(#clip-path-20);}.cls-24{clip-path:url(#clip-path-21);}</style><clipPath id="clip-path"><polygon class="cls-1" points="-64.93 -146.84 -90.92 -175.62 -93.38 -142.18 -76.66 -125.46 -64.93 -123.33 -64.93 -124.06 -64.93 -146.84"/></clipPath><clipPath id="clip-path-2"><polygon class="cls-1" points="-90.92 -175.62 -93.38 -142.18 -123.12 -136.72 -116.85 -164.53 -90.92 -175.62"/></clipPath><clipPath id="clip-path-3"><polygon class="cls-1" points="-123.13 -136.72 -115.41 -131.89 -87.92 -136.72 -93.38 -142.18 -123.13 -136.72"/></clipPath><clipPath id="clip-path-4"><polygon class="cls-1" points="-115.41 -131.89 -116.13 -125.96 -89.37 -128.54 -87.92 -136.72 -115.41 -131.89"/></clipPath><clipPath id="clip-path-5"><polygon class="cls-1" points="-87.92 -136.72 -89.37 -128.54 -76.67 -125.46 -87.92 -136.72"/></clipPath><clipPath id="clip-path-6"><path class="cls-1" d="M-95.68-166.07l.07-1.09c0-.15.13-.2.26-.2a.22.22,0,0,1,.23.23l-.06.9c0,.07,0,.09.08.1a8,8,0,0,0,1.2,0,.17.17,0,0,1,.18.19c0,.12,0,.22-.15.23a11.82,11.82,0,0,1-1.51,0C-95.62-165.75-95.7-165.83-95.68-166.07Zm.55,2.14c-.24,0-.32-.1-.3-.34l.05-.76c0-.24.1-.31.35-.29l1.61.1c.25,0,.32.1.31.34l-.06.76c0,.24-.1.31-.34.29Zm1.4-.32c.06,0,.09,0,.09-.08l0-.4c0-.07,0-.09-.09-.1l-1.11-.07c-.07,0-.09,0-.1.08l0,.4c0,.07,0,.09.08.1Zm1.09-2.3c.12,0,.17.11.16.23s-.07.21-.19.2l-.36,0,0,.6a.22.22,0,0,1-.26.19.22.22,0,0,1-.23-.23l.1-1.6a.22.22,0,0,1,.26-.19c.13,0,.25.08.24.22l0,.58Z"/></clipPath><clipPath id="clip-path-7"><path class="cls-1" d="M-96-160.85c-.12,0-.16-.11-.16-.22a.19.19,0,0,1,.19-.2l2.89.19a.18.18,0,0,1,.16.22c0,.12-.07.21-.18.2l-1.21-.08-.06,1a.22.22,0,0,1-.26.19c-.13,0-.24-.08-.23-.23l.06-1Zm2.72-.89c0,.24-.1.31-.35.3l-1.75-.12c-.24,0-.32-.1-.3-.34l.07-1.07c0-.14.13-.19.25-.19a.22.22,0,0,1,.22.22v.26l1.45.09v-.25a.21.21,0,0,1,.25-.19c.13,0,.24.08.23.22Zm-.53-.13s.06,0,.06,0l0-.26-1.45-.09,0,.25a.05.05,0,0,0,.06.06Z"/></clipPath><clipPath id="clip-path-8"><path class="cls-1" d="M-96-158.44a.17.17,0,0,1-.16-.21c0-.1.07-.2.19-.19l.9.06c.24,0,.32.1.3.34l0,.38c0,.52-.16.68-1.19,1.12a.22.22,0,0,1-.28-.1.2.2,0,0,1,.08-.29,2.63,2.63,0,0,0,.88-.45h-.81c-.12,0-.17-.09-.17-.2a.17.17,0,0,1,.17-.2l.88,0v-.16c0-.06,0-.09-.08-.09Zm.5,3c-.25,0-.33-.1-.31-.34l0-.73c0-.25.1-.32.35-.3l1.74.11c.25,0,.32.1.31.35l0,.73c0,.24-.1.31-.34.29Zm1.52-.31c.07,0,.09,0,.1-.08l0-.38c0-.06,0-.09-.08-.09l-1.25-.09c-.07,0-.09,0-.1.08l0,.38c0,.07,0,.09.08.1Zm0-2.33.33,0,0-.63c0-.13.12-.18.24-.18a.21.21,0,0,1,.21.21l-.11,1.65a.2.2,0,0,1-.24.18.21.21,0,0,1-.21-.21l0-.61-.33,0,0,.6a.2.2,0,0,1-.23.18c-.12,0-.22-.08-.21-.21l.1-1.62a.2.2,0,0,1,.24-.17c.11,0,.22.07.21.2Z"/></clipPath><clipPath id="clip-path-9"><path class="cls-1" d="M-96.65-152.54a.17.17,0,0,1,.18-.19h.21l.09-1.41h-.18c-.12,0-.17-.1-.16-.21s.07-.2.19-.19l1.65.11a.18.18,0,0,1,.16.21c0,.11-.07.2-.19.19h-.15l-.09,1.36h.2a.18.18,0,0,1,.19.18c0,.12,0,.22-.16.23a14.37,14.37,0,0,1-1.78,0A.18.18,0,0,1-96.65-152.54Zm1.24-.14.1-1.39-.4,0-.09,1.4Zm.89-.47a.18.18,0,0,1-.16-.22c0-.12.07-.21.19-.2l.33,0,.06-.91a.21.21,0,0,1,.25-.19c.13,0,.24.08.23.22l-.19,2.93c0,.15-.13.2-.26.19a.21.21,0,0,1-.23-.22l.11-1.6Z"/></clipPath><clipPath id="clip-path-10"><path class="cls-1" d="M-96.87-147.56c-.12,0-.16-.1-.16-.21s.07-.21.19-.2l2.89.19a.18.18,0,0,1,.16.22c0,.11-.07.21-.19.2Zm2.85-.93a.22.22,0,0,1-.29.07c-.24-.15-.45-.3-.65-.44a.87.87,0,0,1-.34-.4h0c0,.1-.15.22-.39.36s-.44.23-.7.36a.21.21,0,0,1-.28-.12.21.21,0,0,1,.06-.29l.7-.36a.7.7,0,0,0,.4-.62l0-.2c0-.15.13-.21.26-.2a.22.22,0,0,1,.23.23v.2a.69.69,0,0,0,.33.67c.22.17.43.31.64.45S-94-148.58-94-148.49Z"/></clipPath><clipPath id="clip-path-11"><path class="cls-1" d="M-101.67-169.74c0,.14,0,.27-.1.33l-1.55.65.46,1.3a1.46,1.46,0,0,1,.71-.61,1.27,1.27,0,0,1,1.76.73l0,.06a1.41,1.41,0,0,1-.88,1.93,2.38,2.38,0,0,1-1.37.18.27.27,0,0,1-.23-.34.25.25,0,0,1,.31-.23,2,2,0,0,0,1.07-.13.84.84,0,0,0,.52-1.18v0a.79.79,0,0,0-1.17-.44,1.18,1.18,0,0,0-.61.57.41.41,0,0,1-.21.22c-.15.06-.28,0-.33-.1l-.61-1.74c-.13-.36-.08-.48.25-.62l1.65-.7c.14-.06.25,0,.31.16"/></clipPath><clipPath id="clip-path-12"><path class="cls-1" d="M-98.15-168.09a1.16,1.16,0,0,1-1.16-1.15,1.16,1.16,0,0,1,1.16-1.16A1.16,1.16,0,0,1-97-169.24a1.16,1.16,0,0,1-1.16,1.15m0-1.74a.58.58,0,0,0-.58.59.58.58,0,0,0,.58.58.58.58,0,0,0,.58-.58.58.58,0,0,0-.58-.59"/></clipPath><clipPath id="clip-path-13"><path class="cls-1" d="M-98.56-167h0a2.08,2.08,0,0,1-1.83-1.84.28.28,0,0,1,.25-.32.29.29,0,0,1,.32.26,1.52,1.52,0,0,0,1.33,1.32.28.28,0,0,1,.25.32.28.28,0,0,1-.28.26"/></clipPath><clipPath id="clip-path-14"><path class="cls-1" d="M-100.14-169.37h0a.28.28,0,0,1-.25-.32,2.06,2.06,0,0,1,1.83-1.83.28.28,0,0,1,.32.25.28.28,0,0,1-.25.32,1.52,1.52,0,0,0-1.33,1.33.28.28,0,0,1-.28.25"/></clipPath><clipPath id="clip-path-15"><path class="cls-1" d="M-96.16-169.37a.28.28,0,0,1-.28-.25,1.51,1.51,0,0,0-1.33-1.33.28.28,0,0,1-.25-.32.27.27,0,0,1,.31-.25,2.07,2.07,0,0,1,1.84,1.83.29.29,0,0,1-.25.32h0"/></clipPath><clipPath id="clip-path-16"><path class="cls-1" d="M-97.74-167a.28.28,0,0,1-.28-.26.28.28,0,0,1,.25-.32,1.5,1.5,0,0,0,1.33-1.32.3.3,0,0,1,.32-.26.29.29,0,0,1,.25.32A2.09,2.09,0,0,1-97.7-167h0"/></clipPath><clipPath id="clip-path-17"><path class="cls-1" d="M-94.94-170.16a.27.27,0,0,1-.26-.17.28.28,0,0,1,.14-.38l2.68-1.16a.29.29,0,0,1,.38.15.28.28,0,0,1-.15.38l-2.67,1.16-.12,0"/></clipPath><clipPath id="clip-path-18"><path class="cls-1" d="M-93.51-169.28a.28.28,0,0,1-.28-.27l-.19-2.91a.29.29,0,0,1,.27-.31.28.28,0,0,1,.3.27l.19,2.91a.29.29,0,0,1-.27.31h0"/></clipPath><clipPath id="clip-path-19"><polygon class="cls-1" points="-68.73 -142.9 -89.89 -163.04 -89.37 -168.66 -67.63 -145.95 -67.63 -142.18 -68.73 -142.9"/></clipPath><clipPath id="clip-path-20"><polygon class="cls-1" points="-69.38 -134.5 -90.53 -154.64 -90.02 -160.25 -68.27 -137.54 -68.27 -133.78 -69.38 -134.5"/></clipPath><clipPath id="clip-path-21"><polygon class="cls-1" points="-70.12 -126.31 -91.28 -146.45 -90.76 -152.06 -69.01 -129.36 -69.01 -125.58 -70.12 -126.31"/></clipPath></defs><title>서울새활용과학관</title><g id="Layer_1" data-name="Layer 1"><circle class="cls-2" cx="68.03" cy="68.03" r="57.59"/><path class="cls-3" d="M50.47,44.05v5.53a.48.48,0,0,1-.48.48H43.38a1,1,0,0,0-.84.46,1.06,1.06,0,0,0-.09.91,1.37,1.37,0,0,0,1.07.87c1.67.29,6.78,1.43,8.27,4.57l0,0c.17.44,4.12,10.54-7.45,11.86h0c-.29,0-4.62.18-6.71.2a.47.47,0,0,1-.48-.47V63.15a.47.47,0,0,1,.48-.48h6.64s2.25,0,2.22-1.91c0,0,.31-1.6-2.89-1.83,0,0-5.85-.65-7.53-6v0a7.43,7.43,0,0,1,4.71-8.74,7.24,7.24,0,0,1,2.6-.5l6.62-.1A.47.47,0,0,1,50.47,44.05Z"/><path class="cls-3" d="M57.26,43.58h5.22a.57.57,0,0,1,.58.57V59.78a3,3,0,0,0,3.17,2.79,2.73,2.73,0,0,0,2.64-1.21,3.69,3.69,0,0,0,.69-2.21V44.2a.5.5,0,0,0-.5-.5H67.38a.25.25,0,0,1-.21-.38l5.2-8.21a.24.24,0,0,1,.42,0l5.15,8.09a.25.25,0,0,1-.21.38H76.31a.5.5,0,0,0-.5.5v15a10.16,10.16,0,0,1-1.26,5,8.9,8.9,0,0,1-5.07,4.19s-8,2.76-11.82-4.8a8.19,8.19,0,0,1-.86-3.64l-.12-15.68A.57.57,0,0,1,57.26,43.58Z"/><path class="cls-3" d="M98.9,47.83s-2.33-4.36-8.67-4.16H81.91a.77.77,0,0,0-.77.77V68a.78.78,0,0,0,.78.78h4.81a.78.78,0,0,0,.78-.77V61.25s6.93.83,9.84-2.25A9,9,0,0,0,98.9,47.83Zm-5.46,6.52a3.06,3.06,0,0,1-.79.64,3.15,3.15,0,0,1-1.57.38h-3a.56.56,0,0,1-.56-.55V50.05a.56.56,0,0,1,.56-.55h3.29a3,3,0,0,1,2.54,1.57A3,3,0,0,1,93.44,54.35Z"/><path d="M37.57,84.42v2.33a3.71,3.71,0,0,0,1.18,2.94c.6.64,1.22,1.24,1.73,1.71a.7.7,0,0,1-1,1c-.47-.42-1-.94-1.55-1.54-.87-.91-1.08-1.27-1.16-1.59h0c-.08.35-.29.71-1.16,1.62-.57.61-1.09,1.13-1.74,1.72A.71.71,0,0,1,33,91.56c.66-.61,1.29-1.23,1.89-1.87a3.75,3.75,0,0,0,1.19-2.94V84.42c0-.44.36-.63.75-.63S37.57,84,37.57,84.42ZM44,83.71V95.42c0,.44-.36.63-.75.63s-.74-.19-.74-.63v-7H40.18c-.38,0-.54-.29-.54-.63s.16-.65.54-.65h2.28V83.71a.66.66,0,0,1,.74-.63C43.59,83.08,44,83.28,44,83.71Z"/><path d="M57.09,92.51v1.11c0,.86-.28,1.13-1.15,1.13H49.59c-.17,0-.24.06-.24.22v.62c0,.15.07.22.24.22h7.34c.33,0,.49.29.49.59s-.16.58-.49.58H49.05c-.87,0-1.16-.26-1.16-1.12V94.75c0-.86.29-1.13,1.16-1.13H55.4c.16,0,.24-.07.24-.22v-.6c0-.17-.08-.24-.24-.24H48.34c-.33,0-.48-.27-.48-.59s.15-.58.48-.58h3.42V90.15H46.7c-.34,0-.51-.27-.51-.61s.17-.6.51-.6H58.29c.35,0,.52.27.52.6s-.17.61-.52.61h-5v1.24h2.7C56.81,91.39,57.09,91.65,57.09,92.51Zm0-6.88c0,1.69-1.68,2.42-4.56,2.42s-4.56-.73-4.56-2.42,1.68-2.4,4.56-2.4S57.06,84,57.06,85.63Zm-7.64,0c0,.78.93,1.24,3.08,1.24s3.08-.46,3.08-1.24-.93-1.21-3.08-1.21S49.42,84.85,49.42,85.63Z"/><path d="M67.79,84.51v2.24a3.87,3.87,0,0,0,.93,2.83c.52.63,1.06,1.22,1.46,1.65a.69.69,0,0,1-.07,1,.7.7,0,0,1-1,0c-.29-.32-.77-.83-1.2-1.37a3.19,3.19,0,0,1-.9-1.49h0a3.32,3.32,0,0,1-.91,1.55c-.44.53-.93,1.07-1.4,1.56a.68.68,0,0,1-1,0,.7.7,0,0,1-.07-1c.57-.61,1.14-1.23,1.65-1.86a3.83,3.83,0,0,0,.93-2.83V84.51c0-.44.36-.63.75-.63S67.79,84.07,67.79,84.51Zm7.57-.84v11.8c0,.4-.34.58-.7.58s-.7-.18-.7-.58V89h-1.6v5.87c0,.4-.35.58-.71.58a.61.61,0,0,1-.69-.58v-11a.62.62,0,0,1,.69-.59c.36,0,.71.18.71.59v3.87H74v-4c0-.41.35-.59.7-.59S75.36,83.26,75.36,83.67Z"/><path d="M84.8,87.54c0,1-.87,1.64-2.4,1.77v.87c1,0,2-.1,3-.19a.5.5,0,0,1,.56.51.51.51,0,0,1-.44.61c-2.31.2-5,.28-7.79.28a.58.58,0,0,1,0-1.15h3.21v-.92c-1.53-.15-2.4-.78-2.4-1.77,0-1.14,1.16-1.79,3.14-1.79S84.8,86.4,84.8,87.54Zm-2.39-4.28V84h2.66a.5.5,0,0,1,.5.57c0,.32-.15.57-.5.57h-7c-.33,0-.48-.25-.48-.57s.15-.57.48-.57h2.81v-.72c0-.42.35-.61.75-.61S82.41,82.84,82.41,83.26Zm5.78,10V94c0,.84-.27,1.1-1.14,1.1H80.91a.19.19,0,0,0-.21.21v.39a.19.19,0,0,0,.21.21h7.15c.31,0,.46.25.46.54s-.15.56-.46.56H80.43c-.87,0-1.14-.26-1.14-1.12v-.7c0-.86.27-1.11,1.14-1.11h6.14c.14,0,.21-.06.21-.2v-.4c0-.14-.07-.2-.21-.2H79.73c-.32,0-.47-.25-.47-.55a.48.48,0,0,1,.47-.54h7.32C87.92,92.14,88.19,92.39,88.19,93.23Zm-8.28-5.69c0,.48.55.78,1.77.78s1.77-.3,1.77-.78-.56-.78-1.77-.78S79.91,87.06,79.91,87.54Zm8.28-3.84v3h1.46c.39,0,.55.29.55.65S90,88,89.65,88H88.19v2.85c0,.42-.36.61-.75.61s-.73-.19-.73-.61V83.7a.65.65,0,0,1,.73-.62C87.83,83.08,88.19,83.28,88.19,83.7Z"/><path d="M101.79,85.92A2.24,2.24,0,0,1,100,88.1v1.78h3c.35,0,.51.29.51.62s-.16.63-.51.63H91.43c-.34,0-.51-.29-.51-.63s.17-.62.51-.62h3V88.1a2.23,2.23,0,0,1-1.76-2.18c0-1.76,1.68-2.55,4.57-2.55S101.79,84.16,101.79,85.92Zm0,8.71c0,1.76-1.7,2.55-4.59,2.55s-4.6-.79-4.6-2.55,1.7-2.55,4.6-2.55S101.82,92.87,101.82,94.63Zm-7.7,0c0,.87.95,1.35,3.11,1.35s3.1-.48,3.1-1.35-.94-1.35-3.1-1.35S94.12,93.76,94.12,94.63Zm0-8.71c0,.87.93,1.34,3.08,1.34s3.07-.47,3.07-1.34-.93-1.34-3.07-1.34S94.15,85.05,94.15,85.92Zm1.71,2.49v1.47h2.73V88.41a15.56,15.56,0,0,1-2.73,0Z"/><path d="M52.09,106.75v3.59c1.34,0,2.69-.09,4.09-.22.34,0,.52.21.55.57a.55.55,0,0,1-.45.67c-2.29.21-5,.29-7.72.29-.36,0-.52-.3-.52-.65s.16-.63.52-.63h2.06v-3.62c0-.42.36-.61.74-.61S52.09,106.33,52.09,106.75Zm2.53-4.58c.87,0,1.15.27,1.15,1.13v1a15.46,15.46,0,0,1-.43,3.88c-.09.35-.45.51-.89.44s-.63-.33-.55-.72a16.31,16.31,0,0,0,.38-3.56v-.49c0-.23-.08-.32-.31-.32H49.33c-.36,0-.53-.29-.53-.65s.17-.66.53-.66Zm4.38-.46v4.37h1.46c.39,0,.55.28.55.64s-.16.66-.55.66H59v6.07c0,.42-.36.61-.75.61s-.74-.19-.74-.61V101.71c0-.42.36-.62.74-.62S59,101.29,59,101.71Z"/><path d="M66.55,101.57v1h2.69c.36,0,.52.3.52.64s-.16.64-.52.64h-7c-.36,0-.53-.31-.53-.64s.17-.64.53-.64h2.84v-1a.66.66,0,0,1,.75-.63C66.19,100.94,66.55,101.14,66.55,101.57ZM69,107c0,1.47-1.2,2.41-3.19,2.41s-3.2-.94-3.2-2.41,1.2-2.4,3.2-2.4S69,105.49,69,107Zm3.41,4.58v2.89c0,.43-.36.63-.75.63a.65.65,0,0,1-.73-.63V112c0-.22-.09-.3-.32-.3H64.05c-.37,0-.54-.3-.54-.63s.17-.64.54-.64h7.2C72.12,110.42,72.4,110.69,72.4,111.54ZM64,107c0,.72.65,1.23,1.85,1.23s1.84-.51,1.84-1.23-.63-1.23-1.84-1.23S64,106.24,64,107Zm8.45-5.24v2.9h1.67c.38,0,.54.3.54.65s-.16.66-.54.66H72.4v3.21c0,.42-.36.62-.75.62a.65.65,0,0,1-.73-.62v-7.42a.65.65,0,0,1,.73-.63C72,101.09,72.4,101.29,72.4,101.72Z"/><path d="M79.47,105.63V108c1.31,0,2.66-.11,4-.23.35,0,.53.21.56.57s-.12.65-.45.68c-2.3.2-5,.27-7.72.27-.36,0-.52-.28-.52-.63s.16-.63.52-.63H78v-2.43a.65.65,0,0,1,.73-.62C79.11,105,79.47,105.21,79.47,105.63Zm2.46-3.77c.87,0,1.16.27,1.16,1.12v1.08a8.78,8.78,0,0,1-.27,2.27.71.71,0,0,1-.92.45c-.39-.09-.63-.34-.52-.76a8.7,8.7,0,0,0,.22-2v-.54c0-.24-.09-.32-.31-.32H76.77c-.36,0-.53-.3-.53-.64s.17-.66.53-.66Zm-3,9.28v2c0,.23.07.32.31.32h6.94c.36,0,.53.29.53.63s-.17.65-.53.65H78.54c-.87,0-1.16-.27-1.16-1.13v-2.52c0-.44.36-.63.77-.63S78.9,110.7,78.9,111.14Zm7.42-9.43v3.56h1.45c.39,0,.56.3.56.66s-.17.66-.56.66H86.32v4.28c0,.42-.36.61-.75.61s-.74-.19-.74-.61v-9.16c0-.42.36-.62.74-.62S86.32,101.29,86.32,101.71Z"/></g></svg>