<svg xmlns="http://www.w3.org/2000/svg" xmlns:xlink="http://www.w3.org/1999/xlink" viewBox="0 0 136.06 136.06"><defs><style>.cls-1{fill:none;clip-rule:evenodd;}.cls-2{fill:#c6e0b4;}.cls-3{fill:#e5e5e5;}.cls-4{fill:#fff;}.cls-5{fill:#a8531a;}.cls-6{fill:#009647;}.cls-7{clip-path:url(#clip-path);}.cls-8{clip-path:url(#clip-path-2);}.cls-9{clip-path:url(#clip-path-3);}.cls-10{clip-path:url(#clip-path-4);}.cls-11{clip-path:url(#clip-path-5);}.cls-12{clip-path:url(#clip-path-6);}.cls-13{clip-path:url(#clip-path-7);}.cls-14{clip-path:url(#clip-path-8);}.cls-15{clip-path:url(#clip-path-9);}.cls-16{clip-path:url(#clip-path-10);}.cls-17{clip-path:url(#clip-path-11);}.cls-18{clip-path:url(#clip-path-12);}.cls-19{clip-path:url(#clip-path-13);}.cls-20{clip-path:url(#clip-path-14);}.cls-21{clip-path:url(#clip-path-15);}.cls-22{clip-path:url(#clip-path-16);}.cls-23{clip-path:url(#clip-path-17);}.cls-24{clip-path:url(#clip-path-18);}.cls-25{clip-path:url(#clip-path-19);}.cls-26{clip-path:url(#clip-path-20);}.cls-27{clip-path:url(#clip-path-21);}</style><clipPath id="clip-path"><polygon class="cls-1" points="254.02 -342.22 228.03 -371 225.56 -337.56 242.28 -320.83 254.02 -318.7 254.02 -319.43 254.02 -342.22"/></clipPath><clipPath id="clip-path-2"><polygon class="cls-1" points="228.03 -371 225.56 -337.55 195.82 -332.09 202.09 -359.9 228.03 -371"/></clipPath><clipPath id="clip-path-3"><polygon class="cls-1" points="195.82 -332.09 203.54 -327.27 231.03 -332.09 225.56 -337.55 195.82 -332.09"/></clipPath><clipPath id="clip-path-4"><polygon class="cls-1" points="203.54 -327.27 202.82 -321.33 229.57 -323.91 231.03 -332.09 203.54 -327.27"/></clipPath><clipPath id="clip-path-5"><polygon class="cls-1" points="231.03 -332.09 229.57 -323.91 242.28 -320.84 231.03 -332.09"/></clipPath><clipPath id="clip-path-6"><path class="cls-1" d="M223.26-361.45l.08-1.09c0-.14.13-.2.26-.19s.24.08.23.23l-.06.9c0,.06,0,.09.08.09a9.52,9.52,0,0,0,1.19,0,.17.17,0,0,1,.19.19c0,.12,0,.22-.15.22a9.78,9.78,0,0,1-1.51,0C223.32-361.12,223.25-361.21,223.26-361.45Zm.56,2.14c-.24,0-.32-.1-.3-.33l0-.76c0-.24.1-.31.34-.3l1.62.11c.25,0,.32.1.3.34l-.05.75c0,.24-.1.32-.34.3Zm1.39-.31c.07,0,.09,0,.1-.08l0-.41c0-.06,0-.09-.08-.09l-1.11-.08c-.07,0-.1,0-.1.09l0,.4c0,.07,0,.09.09.09Zm1.09-2.3c.13,0,.17.11.17.22s-.07.21-.19.21l-.36,0,0,.6a.22.22,0,0,1-.26.19c-.13,0-.24-.08-.23-.22l.1-1.6a.22.22,0,0,1,.26-.19c.13,0,.24.08.23.22l0,.58Z"/></clipPath><clipPath id="clip-path-7"><path class="cls-1" d="M223-356.23c-.12,0-.17-.1-.16-.21s.07-.21.19-.2l2.89.19a.18.18,0,0,1,.16.22c0,.11-.07.2-.19.19l-1.2-.07-.06,1c0,.15-.13.2-.26.2a.22.22,0,0,1-.23-.23l.06-1Zm2.72-.88c0,.24-.1.31-.35.29l-1.75-.11c-.24,0-.32-.1-.31-.34l.07-1.07a.22.22,0,0,1,.25-.19c.13,0,.24.08.23.22v.25l1.44.1,0-.26a.21.21,0,0,1,.25-.18c.12,0,.24.08.23.21Zm-.53-.13s.06,0,.06-.05l0-.26-1.45-.1,0,.26a.05.05,0,0,0,.06.06Z"/></clipPath><clipPath id="clip-path-8"><path class="cls-1" d="M222.91-353.81a.18.18,0,0,1-.16-.21c0-.11.07-.2.18-.19l.91.06c.24,0,.31.1.3.34l0,.38c0,.52-.16.68-1.19,1.11a.21.21,0,0,1-.28-.1.19.19,0,0,1,.08-.28,2.63,2.63,0,0,0,.88-.45h-.81c-.12,0-.18-.09-.18-.21s0-.2.17-.19l.88,0v-.16c0-.07,0-.09-.08-.1Zm.49,3c-.24,0-.32-.09-.3-.34l.05-.73c0-.24.1-.31.34-.3l1.75.12c.25,0,.32.1.31.34l-.05.73c0,.24-.1.32-.35.3Zm1.53-.3c.07,0,.09,0,.09-.09l0-.37c0-.07,0-.09-.08-.1l-1.25-.08c-.07,0-.09,0-.1.08l0,.38c0,.06,0,.09.08.09Zm-.05-2.34.33,0,0-.64c0-.13.12-.18.24-.17s.22.07.21.2l-.11,1.66c0,.13-.12.18-.24.18a.21.21,0,0,1-.21-.21l0-.62-.33,0,0,.6c0,.13-.12.18-.24.17a.19.19,0,0,1-.21-.2l.11-1.62c0-.13.12-.18.24-.17a.2.2,0,0,1,.21.2Z"/></clipPath><clipPath id="clip-path-9"><path class="cls-1" d="M222.29-347.91c0-.11.08-.2.19-.19h.21l.09-1.41h-.18a.18.18,0,0,1-.16-.21c0-.11.07-.2.18-.2l1.66.11a.18.18,0,0,1,.16.22c0,.1-.07.2-.19.19h-.15L224-348h.2a.18.18,0,0,1,.19.18c0,.12,0,.22-.16.22a11.39,11.39,0,0,1-1.79,0C222.34-347.7,222.29-347.81,222.29-347.91Zm1.25-.14.1-1.39-.4,0-.09,1.41Zm.89-.47a.18.18,0,0,1-.16-.22c0-.12.07-.21.19-.2l.32,0,.06-.92a.22.22,0,0,1,.26-.18c.13,0,.24.08.23.22l-.19,2.93a.22.22,0,0,1-.26.19c-.13,0-.24-.08-.23-.22l.11-1.6Z"/></clipPath><clipPath id="clip-path-10"><path class="cls-1" d="M222.08-342.93c-.12,0-.16-.11-.16-.21s.07-.21.19-.2l2.89.19a.18.18,0,0,1,.16.22c0,.11-.07.2-.19.19Zm2.85-.93a.22.22,0,0,1-.29.07,7.31,7.31,0,0,1-.65-.45c-.22-.16-.33-.31-.34-.39h0a.85.85,0,0,1-.39.36l-.7.35a.23.23,0,0,1-.29-.11c0-.1,0-.25.07-.3s.45-.22.69-.35a.71.71,0,0,0,.41-.62v-.21a.23.23,0,0,1,.27-.19c.13,0,.24.08.23.23v.2a.72.72,0,0,0,.32.67c.23.17.44.3.65.44A.22.22,0,0,1,224.93-343.86Z"/></clipPath><clipPath id="clip-path-11"><path class="cls-1" d="M217.27-365.11c.06.14,0,.27-.09.33l-1.55.65.46,1.29a1.45,1.45,0,0,1,.71-.6,1.26,1.26,0,0,1,1.76.72l0,.07a1.4,1.4,0,0,1-.88,1.92,2.4,2.4,0,0,1-1.37.19.28.28,0,0,1-.23-.34.26.26,0,0,1,.31-.24,1.76,1.76,0,0,0,1.06-.13.82.82,0,0,0,.53-1.17v0a.8.8,0,0,0-1.17-.45,1.23,1.23,0,0,0-.61.58.4.4,0,0,1-.22.22.22.22,0,0,1-.32-.11l-.62-1.73c-.12-.36-.07-.49.26-.63l1.65-.69c.14-.06.25,0,.3.16"/></clipPath><clipPath id="clip-path-12"><path class="cls-1" d="M220.8-363.46a1.16,1.16,0,0,1-1.16-1.16,1.16,1.16,0,0,1,1.16-1.16,1.16,1.16,0,0,1,1.16,1.16,1.16,1.16,0,0,1-1.16,1.16m0-1.74a.58.58,0,0,0-.58.58.58.58,0,0,0,.58.58.58.58,0,0,0,.58-.58.58.58,0,0,0-.58-.58"/></clipPath><clipPath id="clip-path-13"><path class="cls-1" d="M220.39-362.34h0a2.06,2.06,0,0,1-1.83-1.83.28.28,0,0,1,.25-.32.29.29,0,0,1,.32.25,1.53,1.53,0,0,0,1.33,1.33.28.28,0,0,1,.25.32.29.29,0,0,1-.28.25"/></clipPath><clipPath id="clip-path-14"><path class="cls-1" d="M218.81-364.74h0a.27.27,0,0,1-.25-.31,2.07,2.07,0,0,1,1.83-1.84.3.3,0,0,1,.32.26.29.29,0,0,1-.25.32,1.51,1.51,0,0,0-1.33,1.32.29.29,0,0,1-.28.26"/></clipPath><clipPath id="clip-path-15"><path class="cls-1" d="M222.79-364.74a.3.3,0,0,1-.29-.26,1.48,1.48,0,0,0-1.32-1.32.3.3,0,0,1-.26-.32.3.3,0,0,1,.32-.26,2.08,2.08,0,0,1,1.84,1.84.29.29,0,0,1-.26.31h0"/></clipPath><clipPath id="clip-path-16"><path class="cls-1" d="M221.21-362.34a.3.3,0,0,1-.29-.25.3.3,0,0,1,.26-.32,1.5,1.5,0,0,0,1.32-1.33.3.3,0,0,1,.32-.25.29.29,0,0,1,.26.32,2.07,2.07,0,0,1-1.84,1.83h0"/></clipPath><clipPath id="clip-path-17"><path class="cls-1" d="M224-365.53a.3.3,0,0,1-.27-.18.3.3,0,0,1,.15-.38l2.68-1.15a.28.28,0,0,1,.38.15.28.28,0,0,1-.15.38l-2.68,1.15a.2.2,0,0,1-.11,0"/></clipPath><clipPath id="clip-path-18"><path class="cls-1" d="M225.44-364.65a.28.28,0,0,1-.28-.28l-.19-2.91a.28.28,0,0,1,.27-.3.28.28,0,0,1,.3.26l.19,2.92a.28.28,0,0,1-.27.3h0"/></clipPath><clipPath id="clip-path-19"><polygon class="cls-1" points="250.21 -338.28 229.06 -358.42 229.57 -364.04 251.32 -341.33 251.32 -337.55 250.21 -338.28"/></clipPath><clipPath id="clip-path-20"><polygon class="cls-1" points="249.57 -329.87 228.41 -350.01 228.93 -355.63 250.68 -332.92 250.68 -329.15 249.57 -329.87"/></clipPath><clipPath id="clip-path-21"><polygon class="cls-1" points="248.83 -321.68 227.67 -341.82 228.19 -347.44 249.94 -324.73 249.94 -320.96 248.83 -321.68"/></clipPath></defs><title>서울로7017</title><g id="Layer_1" data-name="Layer 1"><circle class="cls-2" cx="68.03" cy="68.03" r="57.59"/><ellipse class="cls-3" cx="49.04" cy="72.68" rx="6.97" ry="3.27"/><rect class="cls-3" x="42.07" y="65.4" width="13.94" height="7.28"/><ellipse class="cls-4" cx="49.04" cy="65.4" rx="6.97" ry="3.27"/><rect class="cls-5" x="47.6" y="55.39" width="2.88" height="12.01" rx="1.27" ry="1.27"/><circle class="cls-6" cx="45.44" cy="58.71" r="3.72"/><circle class="cls-6" cx="49.16" cy="54.27" r="3.72"/><circle class="cls-6" cx="52.64" cy="58.71" r="3.72"/><path class="cls-6" d="M45.44,59.66s3.28,4.84,7.44,0"/><ellipse class="cls-3" cx="62.52" cy="50.24" rx="5.24" ry="2.46"/><rect class="cls-3" x="57.28" y="44.76" width="10.49" height="5.47"/><ellipse class="cls-4" cx="62.52" cy="44.76" rx="5.24" ry="2.46"/><rect class="cls-5" x="61.44" y="37.23" width="2.17" height="9.03" rx="1.08" ry="1.08"/><circle class="cls-6" cx="59.82" cy="39.72" r="2.8"/><circle class="cls-6" cx="62.62" cy="36.39" r="2.8"/><circle class="cls-6" cx="65.23" cy="39.72" r="2.8"/><path class="cls-6" d="M59.82,40.44s2.47,3.64,5.6,0"/><ellipse class="cls-3" cx="78.81" cy="38.89" rx="4.58" ry="2.15"/><rect class="cls-3" x="74.23" y="34.11" width="9.16" height="4.78"/><ellipse class="cls-4" cx="78.81" cy="34.11" rx="4.58" ry="2.15"/><rect class="cls-5" x="77.87" y="27.53" width="1.89" height="7.89" rx="0.95" ry="0.95"/><circle class="cls-6" cx="76.45" cy="29.71" r="2.45"/><circle class="cls-6" cx="78.89" cy="26.79" r="2.45"/><circle class="cls-6" cx="81.18" cy="29.71" r="2.45"/><path class="cls-6" d="M76.45,30.33s2.15,3.19,4.89,0"/><ellipse class="cls-3" cx="77.17" cy="76.74" rx="6.14" ry="2.88"/><rect class="cls-3" x="71.03" y="70.32" width="12.29" height="6.41"/><ellipse class="cls-4" cx="77.17" cy="70.32" rx="6.14" ry="2.88"/><rect class="cls-5" x="75.9" y="61.5" width="2.54" height="10.59" rx="1.27" ry="1.27"/><circle class="cls-6" cx="74" cy="64.42" r="3.28"/><circle class="cls-6" cx="77.28" cy="60.51" r="3.28"/><circle class="cls-6" cx="80.34" cy="64.42" r="3.28"/><path class="cls-6" d="M74,65.26s2.89,4.27,6.56,0"/><ellipse class="cls-3" cx="88.56" cy="57.37" rx="4.58" ry="2.15"/><rect class="cls-3" x="83.98" y="52.59" width="9.16" height="4.78"/><ellipse class="cls-4" cx="88.56" cy="52.59" rx="4.58" ry="2.15"/><rect class="cls-5" x="87.62" y="46.01" width="1.89" height="7.89" rx="0.95" ry="0.95"/><circle class="cls-6" cx="86.2" cy="48.19" r="2.45"/><circle class="cls-6" cx="88.65" cy="45.27" r="2.45"/><circle class="cls-6" cx="90.93" cy="48.19" r="2.45"/><path class="cls-6" d="M86.2,48.81s2.16,3.19,4.89,0"/><path d="M53.1,86.29v2.33a3.72,3.72,0,0,0,1.19,2.94c.6.65,1.21,1.25,1.72,1.71a.64.64,0,0,1,0,.93.67.67,0,0,1-.92.08c-.46-.42-1-.93-1.54-1.53-.88-.92-1.09-1.28-1.16-1.6h0c-.07.35-.28.71-1.15,1.63-.57.6-1.1,1.12-1.74,1.71a.67.67,0,0,1-.95-.12.64.64,0,0,1,0-.93c.66-.62,1.29-1.23,1.89-1.88a3.78,3.78,0,0,0,1.18-2.94V86.29c0-.44.36-.63.75-.63S53.1,85.85,53.1,86.29Zm6.38-.71V97.3c0,.43-.36.63-.75.63A.66.66,0,0,1,58,97.3v-7H55.71c-.37,0-.54-.29-.54-.63s.17-.65.54-.65H58V85.58a.66.66,0,0,1,.74-.63C59.12,85,59.48,85.15,59.48,85.58Z"/><path d="M72.63,94.38v1.11c0,.86-.29,1.13-1.16,1.13H65.12c-.16,0-.24.06-.24.22v.62a.21.21,0,0,0,.24.23h7.34a.52.52,0,0,1,.5.58c0,.32-.17.59-.5.59H64.58c-.87,0-1.16-.27-1.16-1.13V96.62c0-.86.29-1.13,1.16-1.13h6.35c.17,0,.24-.07.24-.22v-.6c0-.17-.07-.24-.24-.24H63.88c-.33,0-.48-.27-.48-.59s.15-.58.48-.58H67.3V92H62.24c-.35,0-.51-.28-.51-.62s.16-.6.51-.6H73.83c.35,0,.51.27.51.6s-.16.62-.51.62H68.77v1.23h2.7C72.34,93.26,72.63,93.53,72.63,94.38Zm0-6.87c0,1.68-1.68,2.41-4.57,2.41s-4.56-.73-4.56-2.41S65.15,85.1,68,85.1,72.6,85.84,72.6,87.51Zm-7.64,0c0,.78.93,1.23,3.07,1.23s3.08-.45,3.08-1.23-.93-1.22-3.08-1.22S65,86.73,65,87.51Z"/><path d="M86.23,86.86v2c0,.84-.29,1.11-1.16,1.11H78.93c-.23,0-.32.09-.32.31v1.13c0,.22.09.3.32.3H86c.36,0,.53.3.53.65S86.39,93,86,93H82.44v2.35h5c.36,0,.53.29.53.63s-.17.65-.53.65H75.91c-.36,0-.52-.3-.52-.65s.16-.63.52-.63h5V93H78.3c-.87,0-1.16-.27-1.16-1.13v-2c0-.85.29-1.11,1.16-1.11h6.14c.23,0,.32-.09.32-.31V87.33c0-.23-.09-.32-.32-.32h-6.8c-.36,0-.53-.28-.53-.63s.17-.65.53-.65h7.43C85.94,85.73,86.23,86,86.23,86.86Z"/><path d="M58.08,104.72a2.81,2.81,0,0,1-.39,1.2l-3.78,8.35a.66.66,0,0,1-.95.3.65.65,0,0,1-.36-.92l3.89-8.45H51c-.36,0-.52-.3-.52-.64s.16-.65.52-.65h6C57.8,103.91,58.08,104.17,58.08,104.72Z"/><path d="M67.3,108.88v.74c0,3.31-1.14,5.13-3.84,5.13s-3.85-1.82-3.85-5.13v-.74c0-3.32,1.14-5.13,3.85-5.13S67.3,105.56,67.3,108.88Zm-6.17.12v.5c0,2.67.55,3.84,2.33,3.84s2.32-1.17,2.32-3.84V109c0-2.67-.55-3.84-2.32-3.84S61.13,106.33,61.13,109Z"/><path d="M74.38,104.48V114c0,.44-.34.63-.75.63s-.75-.19-.75-.63v-8.42L70.63,107a.68.68,0,0,1-.95-.3.66.66,0,0,1,.23-.92l2.69-1.6a2,2,0,0,1,1-.34C74.05,103.83,74.38,104,74.38,104.48Z"/><path d="M85.55,104.72a2.81,2.81,0,0,1-.39,1.2l-3.78,8.35a.66.66,0,0,1-.95.3.65.65,0,0,1-.36-.92L84,105.2H78.48c-.36,0-.53-.3-.53-.64s.17-.65.53-.65h6C85.27,103.91,85.55,104.17,85.55,104.72Z"/></g></svg>