<svg xmlns="http://www.w3.org/2000/svg" xmlns:xlink="http://www.w3.org/1999/xlink" viewBox="0 0 136.06 136.06"><defs><style>.cls-1{fill:none;clip-rule:evenodd;}.cls-2{fill:#bdd7ee;}.cls-3{fill:#84817b;}.cls-4{fill:#d4e7f4;}.cls-5{fill:#b7b7b7;}.cls-6{fill:#595753;}.cls-7{clip-path:url(#clip-path);}.cls-8{clip-path:url(#clip-path-2);}.cls-9{clip-path:url(#clip-path-3);}.cls-10{clip-path:url(#clip-path-4);}.cls-11{clip-path:url(#clip-path-5);}.cls-12{clip-path:url(#clip-path-6);}.cls-13{clip-path:url(#clip-path-7);}.cls-14{clip-path:url(#clip-path-8);}.cls-15{clip-path:url(#clip-path-9);}.cls-16{clip-path:url(#clip-path-10);}.cls-17{clip-path:url(#clip-path-11);}.cls-18{clip-path:url(#clip-path-12);}.cls-19{clip-path:url(#clip-path-13);}.cls-20{clip-path:url(#clip-path-14);}.cls-21{clip-path:url(#clip-path-15);}.cls-22{clip-path:url(#clip-path-16);}.cls-23{clip-path:url(#clip-path-17);}.cls-24{clip-path:url(#clip-path-18);}.cls-25{clip-path:url(#clip-path-19);}.cls-26{clip-path:url(#clip-path-20);}.cls-27{clip-path:url(#clip-path-21);}</style><clipPath id="clip-path"><polygon class="cls-1" points="96.64 -146.84 70.66 -175.62 68.19 -142.18 84.91 -125.46 96.64 -123.33 96.64 -124.06 96.64 -146.84"/></clipPath><clipPath id="clip-path-2"><polygon class="cls-1" points="70.66 -175.62 68.19 -142.18 38.45 -136.72 44.72 -164.53 70.66 -175.62"/></clipPath><clipPath id="clip-path-3"><polygon class="cls-1" points="38.45 -136.72 46.16 -131.89 73.66 -136.72 68.19 -142.18 38.45 -136.72"/></clipPath><clipPath id="clip-path-4"><polygon class="cls-1" points="46.16 -131.89 45.45 -125.96 72.2 -128.54 73.66 -136.72 46.16 -131.89"/></clipPath><clipPath id="clip-path-5"><polygon class="cls-1" points="73.66 -136.72 72.2 -128.54 84.91 -125.46 73.66 -136.72"/></clipPath><clipPath id="clip-path-6"><path class="cls-1" d="M65.89-166.07l.07-1.09c0-.15.13-.2.26-.2a.22.22,0,0,1,.23.23l-.06.9c0,.07,0,.09.09.1a7.87,7.87,0,0,0,1.19,0c.12,0,.18.08.18.19s0,.22-.15.23a11.82,11.82,0,0,1-1.51,0C66-165.75,65.87-165.83,65.89-166.07Zm.56,2.14c-.25,0-.32-.1-.31-.34l0-.76c0-.24.1-.31.35-.29l1.61.1c.25,0,.32.1.31.34l0,.76c0,.24-.1.31-.35.29Zm1.39-.32c.06,0,.09,0,.09-.08l0-.4c0-.07,0-.09-.08-.1l-1.12-.07c-.07,0-.09,0-.09.08l0,.4c0,.07,0,.09.08.1Zm1.09-2.3c.12,0,.17.11.16.23s-.07.21-.19.2l-.36,0,0,.6a.22.22,0,0,1-.26.19.23.23,0,0,1-.23-.23l.11-1.6a.22.22,0,0,1,.26-.19c.12,0,.24.08.23.22l0,.58Z"/></clipPath><clipPath id="clip-path-7"><path class="cls-1" d="M65.58-160.85a.18.18,0,0,1-.15-.22.18.18,0,0,1,.18-.2l2.89.19a.18.18,0,0,1,.16.22c0,.12-.06.21-.18.2l-1.2-.08-.07,1a.22.22,0,0,1-.26.19c-.12,0-.24-.08-.23-.23l.07-1Zm2.72-.89c0,.24-.1.31-.34.3l-1.76-.12c-.24,0-.32-.1-.3-.34L66-163c0-.14.13-.19.25-.19a.22.22,0,0,1,.23.22l0,.26,1.45.09v-.25a.22.22,0,0,1,.25-.19c.13,0,.24.08.23.22Zm-.53-.13s.06,0,.06,0l0-.26-1.45-.09v.25s0,.06,0,.06Z"/></clipPath><clipPath id="clip-path-8"><path class="cls-1" d="M65.53-158.44c-.12,0-.16-.1-.16-.21s.07-.2.19-.19l.9.06c.24,0,.32.1.3.34l0,.38c0,.52-.17.68-1.19,1.12a.23.23,0,0,1-.29-.1.2.2,0,0,1,.08-.29c.59-.24.8-.34.88-.45h-.81c-.12,0-.17-.09-.17-.2s.05-.2.17-.2l.88,0v-.16c0-.06,0-.09-.09-.09Zm.5,3c-.25,0-.32-.1-.31-.34l0-.73c0-.25.1-.32.35-.3l1.75.11c.24,0,.32.1.3.35l0,.73c0,.24-.1.31-.34.29Zm1.52-.31c.07,0,.09,0,.1-.08l0-.38c0-.06,0-.09-.08-.09l-1.25-.09c-.07,0-.09,0-.09.08l0,.38c0,.07,0,.09.08.1Zm0-2.33.33,0,0-.63a.21.21,0,0,1,.24-.18c.12,0,.22.08.21.21L68.21-157a.2.2,0,0,1-.23.18c-.12,0-.23-.08-.22-.21l0-.61-.33,0,0,.6a.2.2,0,0,1-.23.18.21.21,0,0,1-.21-.21l.1-1.62a.2.2,0,0,1,.24-.17c.11,0,.22.07.21.2Z"/></clipPath><clipPath id="clip-path-9"><path class="cls-1" d="M64.92-152.54c0-.11.07-.2.19-.19h.2l.09-1.41h-.18c-.12,0-.16-.1-.16-.21s.07-.2.19-.19l1.65.11a.18.18,0,0,1,.16.21c0,.11-.06.2-.18.19h-.16l-.09,1.36h.2a.17.17,0,0,1,.19.18c0,.12,0,.22-.15.23a14.5,14.5,0,0,1-1.79,0A.18.18,0,0,1,64.92-152.54Zm1.25-.14.09-1.39-.39,0-.1,1.4Zm.88-.47c-.12,0-.16-.11-.16-.22s.07-.21.19-.2l.33,0,.06-.91a.22.22,0,0,1,.26-.19c.12,0,.24.08.23.22l-.2,2.93a.21.21,0,0,1-.25.19.22.22,0,0,1-.24-.22l.11-1.6Z"/></clipPath><clipPath id="clip-path-10"><path class="cls-1" d="M64.7-147.56c-.11,0-.16-.1-.15-.21s.07-.21.18-.2l2.9.19c.12,0,.16.11.15.22s-.06.21-.18.2Zm2.86-.93a.23.23,0,0,1-.3.07c-.24-.15-.45-.3-.65-.44a.87.87,0,0,1-.34-.4h0c0,.1-.15.22-.39.36s-.44.23-.7.36a.21.21,0,0,1-.28-.12.22.22,0,0,1,.06-.29l.7-.36a.71.71,0,0,0,.41-.62v-.2a.22.22,0,0,1,.26-.2c.13,0,.25.09.24.23l0,.2a.71.71,0,0,0,.33.67c.22.17.43.31.64.45S67.61-148.58,67.56-148.49Z"/></clipPath><clipPath id="clip-path-11"><path class="cls-1" d="M59.9-169.74c.05.14,0,.27-.1.33l-1.55.65.47,1.3a1.41,1.41,0,0,1,.71-.61,1.26,1.26,0,0,1,1.75.73l0,.06a1.4,1.4,0,0,1-.88,1.93,2.37,2.37,0,0,1-1.37.18.27.27,0,0,1-.23-.34.25.25,0,0,1,.31-.23,2,2,0,0,0,1.07-.13.85.85,0,0,0,.53-1.18l0,0a.79.79,0,0,0-1.16-.44,1.16,1.16,0,0,0-.62.57.38.38,0,0,1-.21.22c-.14.06-.28,0-.32-.1l-.62-1.74c-.13-.36-.08-.48.25-.62l1.65-.7c.15-.06.25,0,.31.16"/></clipPath><clipPath id="clip-path-12"><path class="cls-1" d="M63.42-168.09a1.16,1.16,0,0,1-1.16-1.15,1.16,1.16,0,0,1,1.16-1.16,1.16,1.16,0,0,1,1.16,1.16,1.16,1.16,0,0,1-1.16,1.15m0-1.74a.58.58,0,0,0-.58.59.58.58,0,0,0,.58.58.59.59,0,0,0,.59-.58.59.59,0,0,0-.59-.59"/></clipPath><clipPath id="clip-path-13"><path class="cls-1" d="M63-167h0a2.09,2.09,0,0,1-1.84-1.84.29.29,0,0,1,.26-.32.28.28,0,0,1,.31.26A1.52,1.52,0,0,0,63-167.54a.28.28,0,0,1,.25.32A.28.28,0,0,1,63-167"/></clipPath><clipPath id="clip-path-14"><path class="cls-1" d="M61.43-169.37h0a.29.29,0,0,1-.25-.32A2.06,2.06,0,0,1,63-171.52a.28.28,0,0,1,.32.25.3.3,0,0,1-.26.32,1.52,1.52,0,0,0-1.33,1.33.28.28,0,0,1-.28.25"/></clipPath><clipPath id="clip-path-15"><path class="cls-1" d="M65.42-169.37a.28.28,0,0,1-.29-.25,1.51,1.51,0,0,0-1.33-1.33.28.28,0,0,1-.25-.32.28.28,0,0,1,.32-.25,2.06,2.06,0,0,1,1.83,1.83.28.28,0,0,1-.25.32h0"/></clipPath><clipPath id="clip-path-16"><path class="cls-1" d="M63.84-167a.28.28,0,0,1-.29-.26.28.28,0,0,1,.25-.32,1.5,1.5,0,0,0,1.33-1.32.3.3,0,0,1,.32-.26.28.28,0,0,1,.25.32A2.08,2.08,0,0,1,63.87-167h0"/></clipPath><clipPath id="clip-path-17"><path class="cls-1" d="M66.63-170.16a.28.28,0,0,1-.26-.17.29.29,0,0,1,.15-.38l2.68-1.16a.29.29,0,0,1,.38.15.29.29,0,0,1-.15.38l-2.68,1.16-.12,0"/></clipPath><clipPath id="clip-path-18"><path class="cls-1" d="M68.07-169.28a.29.29,0,0,1-.29-.27l-.19-2.91a.29.29,0,0,1,.27-.31.29.29,0,0,1,.31.27l.18,2.91a.29.29,0,0,1-.26.31h0"/></clipPath><clipPath id="clip-path-19"><polygon class="cls-1" points="92.84 -142.9 71.68 -163.04 72.2 -168.66 93.95 -145.95 93.95 -142.18 92.84 -142.9"/></clipPath><clipPath id="clip-path-20"><polygon class="cls-1" points="92.19 -134.5 71.04 -154.64 71.55 -160.25 93.3 -137.54 93.3 -133.78 92.19 -134.5"/></clipPath><clipPath id="clip-path-21"><polygon class="cls-1" points="91.45 -126.31 70.3 -146.45 70.81 -152.06 92.56 -129.36 92.56 -125.58 91.45 -126.31"/></clipPath></defs><title>서울시립과학관</title><g id="Layer_1" data-name="Layer 1"><circle class="cls-2" cx="68.03" cy="68.03" r="57.59"/><path class="cls-3" d="M39.08,34.44c-.43,6.3-1.82,28.36-2.23,34.86a1.71,1.71,0,0,0,1.71,1.81h58a1.71,1.71,0,0,0,1.71-1.8L96.59,37.62A1.72,1.72,0,0,0,95,36L40.89,32.85A1.7,1.7,0,0,0,39.08,34.44Z"/><path class="cls-2" d="M61.12,38.51a2,2,0,1,1,2-2A2,2,0,0,1,61.12,38.51Zm0-3.32a1.3,1.3,0,1,0,1.29,1.3A1.3,1.3,0,0,0,61.12,35.19Z"/><path class="cls-2" d="M62.78,39.76h0l-21-1.25a.37.37,0,0,1-.34-.39.35.35,0,0,1,.38-.33L62.8,39a.36.36,0,0,1,.34.38A.37.37,0,0,1,62.78,39.76Z"/><path class="cls-2" d="M58.08,41.35a.38.38,0,0,1-.26-.11.36.36,0,0,1,0-.51l1-1a.35.35,0,0,1,.51,0l.91.91a.36.36,0,0,1-.51.51l-.66-.66-.75.75A.36.36,0,0,1,58.08,41.35Z"/><path class="cls-4" d="M41.41,59.94l.38-18.47a1.36,1.36,0,0,1,1.51-1.33l50.14,5.37a1.36,1.36,0,0,1,1.22,1.31l.4,13.1a1.36,1.36,0,0,1-1.36,1.41H42.78A1.37,1.37,0,0,1,41.41,59.94Z"/><path class="cls-5" d="M47.62,61.87a.19.19,0,0,1-.19-.18V40.84a.19.19,0,0,1,.19-.18.19.19,0,0,1,.18.18V61.69A.19.19,0,0,1,47.62,61.87Z"/><path class="cls-5" d="M53.4,61.87a.18.18,0,0,1-.18-.18V41.42a.18.18,0,1,1,.36,0V61.69A.18.18,0,0,1,53.4,61.87Z"/><path class="cls-5" d="M59.18,61.87a.18.18,0,0,1-.18-.18V42.08a.18.18,0,1,1,.36,0V61.69A.18.18,0,0,1,59.18,61.87Z"/><path class="cls-5" d="M65,61.87a.18.18,0,0,1-.18-.18V42.77a.18.18,0,1,1,.36,0V61.69A.18.18,0,0,1,65,61.87Z"/><path class="cls-5" d="M71.16,61.87a.18.18,0,0,1-.18-.18V43.4a.18.18,0,1,1,.36,0V61.69A.18.18,0,0,1,71.16,61.87Z"/><path class="cls-5" d="M76.94,61.87a.18.18,0,0,1-.18-.18V44a.18.18,0,1,1,.36,0V61.69A.18.18,0,0,1,76.94,61.87Z"/><path class="cls-5" d="M82.73,61.87a.19.19,0,0,1-.19-.18v-17a.19.19,0,0,1,.19-.18.19.19,0,0,1,.18.18v17A.19.19,0,0,1,82.73,61.87Z"/><path class="cls-5" d="M88.51,61.87a.18.18,0,0,1-.18-.18V45.22a.18.18,0,1,1,.36,0V61.69A.18.18,0,0,1,88.51,61.87Z"/><rect class="cls-6" x="39.99" y="59.89" width="56.56" height="2.83" rx="0.75" ry="0.75"/><path d="M46.27,84.42v2.33a3.72,3.72,0,0,0,1.19,2.94c.6.64,1.21,1.24,1.72,1.71a.64.64,0,0,1,0,.93.67.67,0,0,1-.92.08c-.46-.42-1-.94-1.54-1.54-.88-.91-1.09-1.27-1.16-1.59h0c-.07.35-.28.71-1.15,1.62-.57.61-1.1,1.13-1.74,1.72a.67.67,0,0,1-1-.12.66.66,0,0,1,0-.94c.66-.61,1.29-1.23,1.89-1.87a3.78,3.78,0,0,0,1.18-2.94V84.42c0-.44.36-.63.75-.63S46.27,84,46.27,84.42Zm6.38-.71V95.42c0,.44-.36.63-.75.63a.66.66,0,0,1-.74-.63v-7H48.88c-.37,0-.54-.29-.54-.63s.17-.65.54-.65h2.28V83.71a.66.66,0,0,1,.74-.63C52.29,83.08,52.65,83.28,52.65,83.71Z"/><path d="M65.8,92.51v1.11c0,.86-.29,1.13-1.16,1.13H58.29c-.16,0-.24.06-.24.22v.62c0,.15.08.22.24.22h7.34a.53.53,0,0,1,.5.59.51.51,0,0,1-.5.58H57.75c-.87,0-1.15-.26-1.15-1.12V94.75c0-.86.28-1.13,1.15-1.13H64.1c.17,0,.24-.07.24-.22v-.6c0-.17-.07-.24-.24-.24h-7c-.34,0-.48-.27-.48-.59s.14-.58.48-.58h3.42V90.15H55.41c-.35,0-.51-.27-.51-.61s.16-.6.51-.6H67c.35,0,.51.27.51.6s-.16.61-.51.61H61.94v1.24h2.7C65.51,91.39,65.8,91.65,65.8,92.51Zm0-6.88c0,1.69-1.68,2.42-4.57,2.42s-4.56-.73-4.56-2.42,1.68-2.4,4.56-2.4S65.77,84,65.77,85.63Zm-7.64,0c0,.78.93,1.24,3.07,1.24s3.08-.46,3.08-1.24-.93-1.21-3.08-1.21S58.13,84.85,58.13,85.63Z"/><path d="M73.74,84.4v2.27a3.75,3.75,0,0,0,1.21,3c.6.64,1.22,1.24,1.73,1.72a.65.65,0,0,1,0,.94.67.67,0,0,1-.93.07c-.47-.43-1-1-1.55-1.55-.87-.9-1.12-1.29-1.18-1.62h0c-.07.36-.31.75-1.19,1.65-.57.6-1.11,1.13-1.75,1.73a.71.71,0,0,1-1-1c.68-.63,1.32-1.25,1.92-1.89a3.78,3.78,0,0,0,1.2-3V84.4c0-.43.38-.63.77-.63S73.74,84,73.74,84.4Zm6.14-.69V95.42c0,.44-.36.63-.77.63s-.75-.19-.75-.63V83.71a.67.67,0,0,1,.75-.63C79.52,83.08,79.88,83.28,79.88,83.71Z"/><path d="M89.24,84.85v1.8c0,.86-.28,1.13-1.15,1.13H84.86c-.23,0-.32.08-.32.32v1c0,.23.09.3.32.3a40,40,0,0,0,5.43-.31.52.52,0,0,1,.6.52c0,.35-.09.68-.42.72a44.09,44.09,0,0,1-6.24.33c-.87,0-1.16-.27-1.16-1.12V87.72c0-.85.29-1.12,1.16-1.12h3.22c.23,0,.32-.09.32-.32v-1c0-.24-.09-.31-.32-.31H83.57c-.35,0-.5-.3-.5-.63s.15-.63.5-.63h4.52C89,83.73,89.24,84,89.24,84.85Zm-3,7.36v1.05h5.86V92.21a.65.65,0,0,1,.72-.6c.38,0,.74.2.74.6v3.51c0,.86-.29,1.13-1.16,1.13H85.92c-.87,0-1.15-.27-1.15-1.13V92.21a.65.65,0,0,1,.72-.6C85.86,91.61,86.22,91.81,86.22,92.21Zm.24,3.42h5.38c.16,0,.24-.06.24-.22v-1H86.22v1C86.22,95.57,86.3,95.63,86.46,95.63Zm7.08-11.92v6.62c0,.44-.36.62-.76.62s-.75-.18-.75-.62V83.71c0-.43.36-.63.75-.63S93.54,83.28,93.54,83.71Z"/><path d="M52.09,106.75v3.59c1.34,0,2.69-.09,4.09-.22.34,0,.52.21.55.57a.55.55,0,0,1-.45.67c-2.29.21-5,.29-7.72.29-.36,0-.52-.3-.52-.65s.16-.63.52-.63h2.06v-3.62c0-.42.36-.61.74-.61S52.09,106.33,52.09,106.75Zm2.53-4.58c.87,0,1.15.27,1.15,1.13v1a15.46,15.46,0,0,1-.43,3.88c-.09.35-.45.51-.89.44s-.63-.33-.55-.72a16.31,16.31,0,0,0,.38-3.56v-.49c0-.23-.08-.32-.31-.32H49.33c-.36,0-.53-.29-.53-.65s.17-.66.53-.66Zm4.38-.46v4.37h1.46c.39,0,.55.28.55.64s-.16.66-.55.66H59v6.07c0,.42-.36.61-.75.61s-.74-.19-.74-.61V101.71c0-.42.36-.62.74-.62S59,101.29,59,101.71Z"/><path d="M66.55,101.57v1h2.69c.36,0,.52.3.52.64s-.16.64-.52.64h-7c-.36,0-.53-.31-.53-.64s.17-.64.53-.64h2.84v-1a.66.66,0,0,1,.75-.63C66.19,100.94,66.55,101.14,66.55,101.57ZM69,107c0,1.47-1.2,2.41-3.19,2.41s-3.2-.94-3.2-2.41,1.2-2.4,3.2-2.4S69,105.49,69,107Zm3.41,4.58v2.89c0,.43-.36.63-.75.63a.65.65,0,0,1-.73-.63V112c0-.22-.09-.3-.32-.3H64.05c-.37,0-.54-.3-.54-.63s.17-.64.54-.64h7.2C72.12,110.42,72.4,110.69,72.4,111.54ZM64,107c0,.72.65,1.23,1.85,1.23s1.84-.51,1.84-1.23-.63-1.23-1.84-1.23S64,106.24,64,107Zm8.45-5.24v2.9h1.67c.38,0,.54.3.54.65s-.16.66-.54.66H72.4v3.21c0,.42-.36.62-.75.62a.65.65,0,0,1-.73-.62v-7.42a.65.65,0,0,1,.73-.63C72,101.09,72.4,101.29,72.4,101.72Z"/><path d="M79.47,105.63V108c1.31,0,2.66-.11,4-.23.35,0,.53.21.56.57s-.12.65-.45.68c-2.3.2-5,.27-7.72.27-.36,0-.52-.28-.52-.63s.16-.63.52-.63H78v-2.43a.65.65,0,0,1,.73-.62C79.11,105,79.47,105.21,79.47,105.63Zm2.46-3.77c.87,0,1.16.27,1.16,1.12v1.08a8.78,8.78,0,0,1-.27,2.27.71.71,0,0,1-.92.45c-.39-.09-.63-.34-.52-.76a8.7,8.7,0,0,0,.22-2v-.54c0-.24-.09-.32-.31-.32H76.77c-.36,0-.53-.3-.53-.64s.17-.66.53-.66Zm-3,9.28v2c0,.23.07.32.31.32h6.94c.36,0,.53.29.53.63s-.17.65-.53.65H78.54c-.87,0-1.16-.27-1.16-1.13v-2.52c0-.44.36-.63.77-.63S78.9,110.7,78.9,111.14Zm7.42-9.43v3.56h1.45c.39,0,.56.3.56.66s-.17.66-.56.66H86.32v4.28c0,.42-.36.61-.75.61s-.74-.19-.74-.61v-9.16c0-.42.36-.62.74-.62S86.32,101.29,86.32,101.71Z"/></g></svg>