<svg xmlns="http://www.w3.org/2000/svg" xmlns:xlink="http://www.w3.org/1999/xlink" viewBox="0 0 136.06 136.06"><defs><style>.cls-1{fill:none;clip-rule:evenodd;}.cls-2{clip-path:url(#clip-path);}.cls-3{clip-path:url(#clip-path-2);}.cls-4{clip-path:url(#clip-path-3);}.cls-5{clip-path:url(#clip-path-4);}.cls-6{clip-path:url(#clip-path-5);}.cls-7{clip-path:url(#clip-path-6);}.cls-8{clip-path:url(#clip-path-7);}.cls-9{clip-path:url(#clip-path-8);}.cls-10{clip-path:url(#clip-path-9);}.cls-11{clip-path:url(#clip-path-10);}.cls-12{clip-path:url(#clip-path-11);}.cls-13{clip-path:url(#clip-path-12);}.cls-14{clip-path:url(#clip-path-13);}.cls-15{clip-path:url(#clip-path-14);}.cls-16{clip-path:url(#clip-path-15);}.cls-17{clip-path:url(#clip-path-16);}.cls-18{clip-path:url(#clip-path-17);}.cls-19{clip-path:url(#clip-path-18);}.cls-20{clip-path:url(#clip-path-19);}.cls-21{clip-path:url(#clip-path-20);}.cls-22{clip-path:url(#clip-path-21);}.cls-23{fill:#ffdebb;}.cls-24{fill:#d6bc7b;}.cls-25{fill:#e8cf87;}.cls-26{fill:#baa36e;}.cls-27{fill:#efd79a;}</style><clipPath id="clip-path"><polygon class="cls-1" points="-64.93 54.26 -90.92 25.48 -93.38 58.92 -76.66 75.64 -64.93 77.77 -64.93 77.04 -64.93 54.26"/></clipPath><clipPath id="clip-path-2"><polygon class="cls-1" points="-90.92 25.48 -93.38 58.92 -123.12 64.39 -116.85 36.57 -90.92 25.48"/></clipPath><clipPath id="clip-path-3"><polygon class="cls-1" points="-123.13 64.39 -115.41 69.21 -87.92 64.39 -93.38 58.92 -123.13 64.39"/></clipPath><clipPath id="clip-path-4"><polygon class="cls-1" points="-115.41 69.21 -116.13 75.14 -89.37 72.56 -87.92 64.39 -115.41 69.21"/></clipPath><clipPath id="clip-path-5"><polygon class="cls-1" points="-87.92 64.39 -89.37 72.56 -76.67 75.64 -87.92 64.39"/></clipPath><clipPath id="clip-path-6"><path class="cls-1" d="M-95.68,35l.07-1.09c0-.15.13-.2.26-.19s.24.08.23.22l-.06.9c0,.07,0,.09.08.1a8,8,0,0,0,1.2,0,.18.18,0,0,1,.18.2.18.18,0,0,1-.15.22,13.37,13.37,0,0,1-1.51,0C-95.62,35.35-95.7,35.27-95.68,35Zm.55,2.14c-.24,0-.32-.1-.3-.34l.05-.76c0-.24.1-.31.35-.29l1.61.1c.25,0,.32.1.31.34l-.06.76c0,.24-.1.31-.34.29Zm1.4-.32c.06,0,.09,0,.09-.08l0-.4c0-.07,0-.09-.09-.1l-1.11-.07c-.07,0-.09,0-.1.08l0,.41c0,.06,0,.08.08.09Zm1.09-2.29c.12,0,.17.1.16.22s-.07.21-.19.2L-93,35l0,.6a.22.22,0,0,1-.26.19c-.13,0-.24-.08-.23-.22l.1-1.61a.22.22,0,0,1,.26-.19c.13,0,.25.08.24.22l0,.58Z"/></clipPath><clipPath id="clip-path-7"><path class="cls-1" d="M-96,40.25c-.12,0-.16-.11-.16-.22s.07-.2.19-.19l2.89.19a.17.17,0,0,1,.16.21c0,.12-.07.21-.18.2l-1.21-.08-.06,1a.22.22,0,0,1-.26.19c-.13,0-.24-.08-.23-.22l.06-1Zm2.72-.89c0,.24-.1.31-.35.3l-1.75-.12c-.24,0-.32-.1-.3-.34l.07-1.07a.21.21,0,0,1,.25-.18.2.2,0,0,1,.22.21v.26l1.45.09v-.25c0-.14.13-.19.25-.19s.24.08.23.22Zm-.53-.13s.06,0,.06,0l0-.26-1.45-.09,0,.26s0,0,.06.06Z"/></clipPath><clipPath id="clip-path-8"><path class="cls-1" d="M-96,42.66c-.12,0-.17-.1-.16-.21a.19.19,0,0,1,.19-.19l.9.06c.24,0,.32.1.3.34l0,.38c0,.53-.16.68-1.19,1.12a.21.21,0,0,1-.28-.1.2.2,0,0,1,.08-.29,2.63,2.63,0,0,0,.88-.45h-.81c-.12,0-.17-.09-.17-.2a.17.17,0,0,1,.17-.2l.88,0V42.8c0-.06,0-.09-.08-.09Zm.5,3c-.25,0-.33-.1-.31-.34l0-.73c0-.24.1-.32.35-.3l1.74.12c.25,0,.32.1.31.34l0,.73c0,.24-.1.31-.34.29Zm1.52-.31c.07,0,.09,0,.1-.08l0-.38c0-.06,0-.09-.08-.09l-1.25-.08c-.07,0-.09,0-.1.08l0,.37c0,.07,0,.09.08.1Zm0-2.33.33,0,0-.63c0-.13.12-.18.24-.18a.21.21,0,0,1,.21.21l-.11,1.66c0,.13-.12.18-.24.17s-.22-.07-.21-.2l0-.62-.33,0,0,.6a.2.2,0,0,1-.23.18c-.12,0-.22-.07-.21-.21l.1-1.61a.21.21,0,0,1,.24-.18c.11,0,.22.07.21.2Z"/></clipPath><clipPath id="clip-path-9"><path class="cls-1" d="M-96.65,48.56a.18.18,0,0,1,.18-.19l.21,0,.09-1.41-.18,0c-.12,0-.17-.1-.16-.21s.07-.2.19-.19l1.65.11a.18.18,0,0,1,.16.21c0,.11-.07.2-.19.19h-.15l-.09,1.36h.2a.18.18,0,0,1,.19.19c0,.11,0,.21-.16.22a14.37,14.37,0,0,1-1.78,0A.18.18,0,0,1-96.65,48.56Zm1.24-.14.1-1.39-.4,0-.09,1.4A2.57,2.57,0,0,0-95.41,48.42Zm.89-.47a.18.18,0,0,1-.16-.22.19.19,0,0,1,.19-.2l.33,0,.06-.92a.21.21,0,0,1,.25-.19c.13,0,.24.08.23.22l-.19,2.93c0,.15-.13.2-.26.2a.23.23,0,0,1-.23-.23l.11-1.6Z"/></clipPath><clipPath id="clip-path-10"><path class="cls-1" d="M-96.87,53.55c-.12,0-.16-.11-.16-.22s.07-.21.19-.2l2.89.19a.18.18,0,0,1,.16.22c0,.11-.07.21-.19.2Zm2.85-.94a.21.21,0,0,1-.29.07c-.24-.15-.45-.29-.65-.44a.87.87,0,0,1-.34-.4h0c0,.1-.15.23-.39.36s-.44.24-.7.36a.21.21,0,0,1-.28-.12.21.21,0,0,1,.06-.29c.22-.11.45-.22.7-.36a.7.7,0,0,0,.4-.62l0-.2c0-.15.13-.2.26-.19A.21.21,0,0,1-95,51v.2a.69.69,0,0,0,.33.67c.22.17.43.31.64.45S-94,52.52-94,52.61Z"/></clipPath><clipPath id="clip-path-11"><path class="cls-1" d="M-101.67,31.37c0,.13,0,.27-.1.33l-1.55.65.46,1.29a1.46,1.46,0,0,1,.71-.61,1.27,1.27,0,0,1,1.76.73l0,.06a1.41,1.41,0,0,1-.88,1.93,2.38,2.38,0,0,1-1.37.18.27.27,0,0,1-.23-.34.25.25,0,0,1,.31-.23,1.88,1.88,0,0,0,1.07-.13.84.84,0,0,0,.52-1.18v0a.8.8,0,0,0-1.17-.44,1.18,1.18,0,0,0-.61.57.41.41,0,0,1-.21.22c-.15.06-.28,0-.33-.1l-.61-1.73c-.13-.37-.08-.49.25-.63l1.65-.69c.14-.06.25,0,.31.16"/></clipPath><clipPath id="clip-path-12"><path class="cls-1" d="M-98.15,33a1.16,1.16,0,0,1-1.16-1.16,1.16,1.16,0,0,1,1.16-1.16A1.16,1.16,0,0,1-97,31.86,1.16,1.16,0,0,1-98.15,33m0-1.74a.58.58,0,0,0-.58.58.58.58,0,0,0,.58.58.58.58,0,0,0,.58-.58.58.58,0,0,0-.58-.58"/></clipPath><clipPath id="clip-path-13"><path class="cls-1" d="M-98.56,34.14h0a2.07,2.07,0,0,1-1.83-1.84.28.28,0,0,1,.25-.32.3.3,0,0,1,.32.26,1.51,1.51,0,0,0,1.33,1.32.29.29,0,0,1,.25.32.28.28,0,0,1-.28.26"/></clipPath><clipPath id="clip-path-14"><path class="cls-1" d="M-100.14,31.73h0a.28.28,0,0,1-.25-.32,2.07,2.07,0,0,1,1.83-1.83.28.28,0,0,1,.32.25.28.28,0,0,1-.25.32,1.53,1.53,0,0,0-1.33,1.33.28.28,0,0,1-.28.25"/></clipPath><clipPath id="clip-path-15"><path class="cls-1" d="M-96.16,31.73a.28.28,0,0,1-.28-.25,1.51,1.51,0,0,0-1.33-1.33.28.28,0,0,1-.25-.32.27.27,0,0,1,.31-.25,2.07,2.07,0,0,1,1.84,1.83.29.29,0,0,1-.25.32h0"/></clipPath><clipPath id="clip-path-16"><path class="cls-1" d="M-97.74,34.14a.28.28,0,0,1-.28-.26.29.29,0,0,1,.25-.32,1.5,1.5,0,0,0,1.33-1.32.3.3,0,0,1,.32-.26.29.29,0,0,1,.25.32,2.08,2.08,0,0,1-1.83,1.84h0"/></clipPath><clipPath id="clip-path-17"><path class="cls-1" d="M-94.94,30.94a.27.27,0,0,1-.26-.17.28.28,0,0,1,.14-.38l2.68-1.16a.29.29,0,0,1,.38.15.28.28,0,0,1-.15.38l-2.67,1.16-.12,0"/></clipPath><clipPath id="clip-path-18"><path class="cls-1" d="M-93.51,31.82a.28.28,0,0,1-.28-.27L-94,28.64a.29.29,0,0,1,.27-.31.28.28,0,0,1,.3.27l.19,2.91a.29.29,0,0,1-.27.31h0"/></clipPath><clipPath id="clip-path-19"><polygon class="cls-1" points="-68.73 58.2 -89.89 38.06 -89.37 32.44 -67.63 55.15 -67.63 58.92 -68.73 58.2"/></clipPath><clipPath id="clip-path-20"><polygon class="cls-1" points="-69.38 66.61 -90.53 46.47 -90.02 40.85 -68.27 63.56 -68.27 67.33 -69.38 66.61"/></clipPath><clipPath id="clip-path-21"><polygon class="cls-1" points="-70.12 74.79 -91.28 54.65 -90.76 49.04 -69.01 71.75 -69.01 75.52 -70.12 74.79"/></clipPath></defs><title>여의도지하비밀벙커</title><g id="Layer_1" data-name="Layer 1"><circle class="cls-23" cx="68.03" cy="68.03" r="57.59"/><path d="M42.09,87.5c0,2.91-1.17,4.47-3.44,4.47s-3.42-1.56-3.42-4.47S36.39,83,38.65,83,42.09,84.58,42.09,87.5Zm-5.4,0c0,2,.55,3.15,2,3.15s2-1.11,2-3.15-.55-3.16-2-3.16S36.69,85.45,36.69,87.5Zm9.51-4.63V94.58c0,.44-.36.63-.75.63a.65.65,0,0,1-.73-.63v-4.8H43c-.36,0-.53-.29-.53-.65s.17-.63.53-.63h1.71v-2H43c-.36,0-.53-.29-.53-.65s.17-.63.53-.63h1.71V82.87a.66.66,0,0,1,.73-.63C45.84,82.24,46.2,82.44,46.2,82.87Z"/><path d="M57.76,91.85c0,.35-.1.66-.45.69-2.4.23-5.21.32-8.15.32-.36,0-.53-.3-.53-.65s.17-.65.53-.65c2.66,0,5.27,0,8.05-.28C57.55,91.25,57.75,91.49,57.76,91.85Zm-1-5.56c0,1.88-1.23,3.29-3.63,3.29s-3.64-1.41-3.64-3.29S50.67,83,53.08,83,56.71,84.43,56.71,86.29Zm-5.84,0a2.21,2.21,0,1,0,2.21-2A1.95,1.95,0,0,0,50.87,86.29ZM60,82.87V94.58c0,.44-.36.63-.75.63a.65.65,0,0,1-.73-.63V82.87a.65.65,0,0,1,.73-.63C59.68,82.24,60,82.44,60,82.87Z"/><path d="M73,83.73c0,.34-.17.64-.53.64h-6.8c-.23,0-.32.08-.32.3v3.41c0,.23.09.3.32.3h7c.36,0,.53.3.53.65s-.17.64-.53.64H69.17v3h5c.36,0,.52.29.52.63s-.16.65-.52.65H62.64c-.36,0-.53-.3-.53-.65s.17-.63.53-.63h5v-3H65c-.87,0-1.14-.27-1.14-1.12V84.21c0-.86.27-1.13,1.14-1.13h7.48C72.8,83.08,73,83.38,73,83.73Z"/><path d="M87.72,83.92c0,.35-.17.65-.53.65H84.73V86a3.51,3.51,0,0,0,1.16,2.91c.63.65,1.26,1.25,1.75,1.67a.7.7,0,0,1-.94,1c-.44-.39-1-.92-1.59-1.52-.86-.87-1.07-1.23-1.13-1.54h0c-.08.34-.27.7-1.15,1.57-.6.6-1.17,1.16-1.8,1.72a.66.66,0,0,1-.94-.14.64.64,0,0,1,0-.93c.69-.62,1.3-1.2,1.93-1.85A3.51,3.51,0,0,0,83.2,86V84.57H80.66c-.37,0-.54-.3-.54-.65s.17-.64.54-.64h6.53C87.55,83.28,87.72,83.58,87.72,83.92Zm3.12-1V94.58c0,.44-.36.63-.76.63s-.75-.19-.75-.63V82.87a.66.66,0,0,1,.75-.63C90.48,82.24,90.84,82.44,90.84,82.87Z"/><path d="M98,82.84v1.29h2.7c.36,0,.53.29.53.63s-.17.65-.53.65H93.66c-.36,0-.53-.3-.53-.65s.17-.63.53-.63h2.87V82.84a.66.66,0,0,1,.75-.63C97.67,82.21,98,82.41,98,82.84Zm2.48,6.5a3.24,3.24,0,1,1-3.23-3A2.9,2.9,0,0,1,100.51,89.34Zm-5.09,0a1.86,1.86,0,1,0,1.86-1.74A1.69,1.69,0,0,0,95.42,89.34Zm8.44-6.47v4.06h1.65c.39,0,.55.28.55.64s-.16.66-.55.66h-1.65v6.35c0,.44-.37.63-.76.63a.65.65,0,0,1-.73-.63V82.87a.65.65,0,0,1,.73-.63C103.49,82.24,103.86,82.44,103.86,82.87Z"/><path d="M45.8,101.75v2.6h3.52v-2.6a.75.75,0,0,1,1.48,0v6.93c0,.85-.29,1.12-1.16,1.12H45.47c-.88,0-1.16-.27-1.16-1.12v-6.93a.66.66,0,0,1,.74-.63A.67.67,0,0,1,45.8,101.75Zm.31,6.77H49c.22,0,.31-.07.31-.31v-2.58H45.8v2.58C45.8,108.45,45.87,108.52,46.11,108.52Zm8.71-7.64v11.71c0,.44-.36.63-.77.63s-.75-.19-.75-.63V100.88a.67.67,0,0,1,.75-.63C54.46,100.25,54.82,100.45,54.82,100.88Z"/><path d="M64.42,102v3.55c0,.85-.28,1.12-1.15,1.12H59.11c-.87,0-1.16-.27-1.16-1.12V102c0-.85.29-1.12,1.16-1.12h4.16C64.14,100.84,64.42,101.11,64.42,102Zm-5,.44v2.69c0,.22.07.3.31.3h2.87c.23,0,.32-.08.32-.3V102.4c0-.23-.09-.32-.32-.32H59.75C59.51,102.08,59.44,102.17,59.44,102.4Zm9,6.71v1.38c0,.86-.29,1.13-1.16,1.13H61.51c-.22,0-.31.07-.31.31v.65c0,.22.09.31.31.31h6.8c.35,0,.5.29.5.6s-.15.61-.5.61H60.9c-.87,0-1.16-.28-1.16-1.13v-1.38c0-.86.29-1.13,1.16-1.13h5.79c.24,0,.32-.07.32-.31v-.65c0-.22-.08-.3-.32-.3H60.2c-.34,0-.49-.28-.49-.62s.15-.6.49-.6h7.12C68.19,108,68.48,108.25,68.48,109.11Zm0-8.23v5.83c0,.43-.36.63-.75.63s-.75-.2-.75-.63v-5.83c0-.43.36-.63.75-.63S68.48,100.45,68.48,100.88Z"/><path d="M82.23,100.88V108c0,.42-.36.62-.74.62s-.75-.2-.75-.62v-3.12H77.9v1.53c0,.86-.28,1.13-1.15,1.13H72.69c-.87,0-1.15-.27-1.15-1.13V101.5a.65.65,0,0,1,.73-.63c.38,0,.75.19.75.63v1.66h3.4V101.5a.65.65,0,0,1,.73-.63c.38,0,.75.19.75.63v2.06h2.84v-2.68c0-.43.36-.63.75-.63A.66.66,0,0,1,82.23,100.88Zm-8.89,5.36H76.1c.23,0,.32-.07.32-.3v-1.53H73v1.53C73,106.17,73.1,106.24,73.34,106.24Zm9,5.26c0,1.84-1.62,2.79-4.4,2.79s-4.4-1-4.4-2.79,1.62-2.8,4.4-2.8S82.3,109.65,82.3,111.5Zm-7.31,0c0,1,.87,1.57,2.91,1.57s2.92-.61,2.92-1.57-.89-1.58-2.92-1.58S75,110.54,75,111.5Z"/><path d="M95.88,100.88v11.71c0,.44-.36.63-.75.63a.65.65,0,0,1-.73-.63v-6.45H91.24c-.45,1.42-1.72,2.34-5,4.28a.66.66,0,0,1-.9-.26.65.65,0,0,1,.16-.94c3.16-1.81,4.13-2.48,4.43-3.52l-4.35.26c-.36,0-.54-.26-.57-.62s.12-.66.49-.67l4.55-.21v-1.6c0-.24-.09-.31-.31-.31H85.87c-.38,0-.54-.3-.54-.65s.16-.64.54-.64h4.44c.88,0,1.16.27,1.16,1.12v1.91c0,.21,0,.39,0,.57H94.4v-4a.65.65,0,0,1,.73-.63C95.52,100.25,95.88,100.45,95.88,100.88Z"/><path class="cls-24" d="M64.45,24.78S67,77.29,67.32,78.47h-7.4L61.2,26.94Z"/><path class="cls-25" d="M73.2,28.22l-8.75-3.44,1.47,53.69h9.25C74.68,77.2,73.2,28.22,73.2,28.22Z"/><path class="cls-26" d="M61.92,26.06c0-.12.78-.45.78-.45l1.43,52.86H61.92S62.22,29.06,61.92,26.06Z"/><polygon class="cls-27" points="72.73 29.37 64.86 28.12 64.94 27.34 72.82 28.59 72.73 29.37"/><polygon class="cls-27" points="72.73 31.4 64.86 30.15 64.94 29.37 72.82 30.61 72.73 31.4"/><polygon class="cls-27" points="73.03 33.72 65.15 32.48 65.23 31.69 73.11 32.94 73.03 33.72"/><polygon class="cls-27" points="73.03 35.75 65.15 34.51 65.23 33.72 73.11 34.97 73.03 35.75"/><polygon class="cls-27" points="73.26 37.78 65.38 36.54 65.47 35.75 73.34 37 73.26 37.78"/><polygon class="cls-27" points="73.26 39.81 65.38 38.56 65.47 37.78 73.34 39.03 73.26 39.81"/><polygon class="cls-27" points="73.03 42.14 65.15 40.89 65.23 40.11 73.11 41.36 73.03 42.14"/><polygon class="cls-27" points="73.03 44.17 65.15 42.92 65.23 42.14 73.11 43.39 73.03 44.17"/><polygon class="cls-27" points="73.26 46.2 65.38 44.95 65.47 44.17 73.34 45.41 73.26 46.2"/><polygon class="cls-27" points="73.26 48.23 65.38 46.98 65.47 46.2 73.34 47.45 73.26 48.23"/><polygon class="cls-27" points="73.55 50.55 65.67 49.31 65.76 48.52 73.64 49.77 73.55 50.55"/><polygon class="cls-27" points="73.55 52.58 65.67 51.34 65.76 50.55 73.64 51.8 73.55 52.58"/><polygon class="cls-27" points="73.26 54.61 65.38 53.37 65.47 52.58 73.34 53.83 73.26 54.61"/><polygon class="cls-27" points="73.26 56.64 65.38 55.4 65.47 54.61 73.34 55.86 73.26 56.64"/><polygon class="cls-27" points="73.55 58.97 65.67 57.72 65.76 56.94 73.64 58.19 73.55 58.97"/><polygon class="cls-27" points="73.55 61 65.67 59.75 65.76 58.97 73.64 60.22 73.55 61"/><polygon class="cls-27" points="73.78 63.03 65.9 61.78 65.99 61 73.86 62.25 73.78 63.03"/><polygon class="cls-27" points="73.78 65.06 65.9 63.81 65.99 63.03 73.86 64.28 73.78 65.06"/><polygon class="cls-27" points="74.07 67.38 66.2 66.14 66.28 65.36 74.16 66.6 74.07 67.38"/><polygon class="cls-27" points="74.07 69.41 66.2 68.17 66.28 67.38 74.16 68.63 74.07 69.41"/><polygon class="cls-27" points="74.3 71.44 66.43 70.2 66.51 69.41 74.39 70.66 74.3 71.44"/><polygon class="cls-27" points="74.3 73.47 66.43 72.23 66.51 71.44 74.39 72.69 74.3 73.47"/><polygon class="cls-27" points="74.6 75.8 66.72 74.55 66.81 73.77 74.68 75.02 74.6 75.8"/><polygon class="cls-27" points="74.6 77.83 66.72 76.58 66.81 75.8 74.68 77.05 74.6 77.83"/></g></svg>