<svg xmlns="http://www.w3.org/2000/svg" xmlns:xlink="http://www.w3.org/1999/xlink" viewBox="0 0 136.06 136.06"><defs><style>.cls-1,.cls-2{fill:none;}.cls-1{clip-rule:evenodd;}.cls-3{fill:#ffdebb;}.cls-4{clip-path:url(#clip-path);}.cls-5{clip-path:url(#clip-path-2);}.cls-6{fill:#53a1c4;}.cls-7{clip-path:url(#clip-path-3);}.cls-8{fill:#63b3e0;}.cls-9{clip-path:url(#clip-path-5);}.cls-10{fill:#4488a0;}.cls-11{clip-path:url(#clip-path-7);}.cls-12{fill:#83cced;}.cls-13{clip-path:url(#clip-path-9);}.cls-14{clip-path:url(#clip-path-11);}.cls-15{fill:#fff;}.cls-16{clip-path:url(#clip-path-13);}.cls-17{clip-path:url(#clip-path-15);}.cls-18{clip-path:url(#clip-path-17);}.cls-19{clip-path:url(#clip-path-19);}.cls-20{clip-path:url(#clip-path-21);}.cls-21{clip-path:url(#clip-path-23);}.cls-22{fill:#bbe6f9;}.cls-23{clip-path:url(#clip-path-25);}.cls-24{clip-path:url(#clip-path-27);}.cls-25{clip-path:url(#clip-path-29);}.cls-26{clip-path:url(#clip-path-31);}.cls-27{clip-path:url(#clip-path-33);}.cls-28{clip-path:url(#clip-path-35);}.cls-29{clip-path:url(#clip-path-37);}.cls-30{fill:#6cc6e5;}.cls-31{clip-path:url(#clip-path-39);}.cls-32{clip-path:url(#clip-path-41);}</style><clipPath id="clip-path"><polygon class="cls-1" points="96.64 54.26 70.66 25.48 68.19 58.92 84.91 75.64 96.64 77.77 96.64 77.04 96.64 54.26"/></clipPath><clipPath id="clip-path-2"><rect class="cls-2" x="-267.88" y="-811.62" width="906.77" height="1289.59"/></clipPath><clipPath id="clip-path-3"><polygon class="cls-1" points="70.66 25.48 68.19 58.92 38.45 64.39 44.72 36.57 70.66 25.48"/></clipPath><clipPath id="clip-path-5"><polygon class="cls-1" points="38.45 64.39 46.16 69.21 73.66 64.39 68.19 58.92 38.45 64.39"/></clipPath><clipPath id="clip-path-7"><polygon class="cls-1" points="46.16 69.21 45.45 75.14 72.2 72.56 73.66 64.39 46.16 69.21"/></clipPath><clipPath id="clip-path-9"><polygon class="cls-1" points="73.66 64.39 72.2 72.56 84.91 75.64 73.66 64.39"/></clipPath><clipPath id="clip-path-11"><path class="cls-1" d="M65.89,35,66,33.94c0-.15.13-.2.26-.19s.24.08.23.22l-.06.9c0,.07,0,.09.09.1a7.87,7.87,0,0,0,1.19,0,.18.18,0,0,1,.18.2.18.18,0,0,1-.15.22,13.37,13.37,0,0,1-1.51,0C66,35.35,65.87,35.27,65.89,35Zm.56,2.14c-.25,0-.32-.1-.31-.34l0-.76c0-.24.1-.31.35-.29l1.61.1c.25,0,.32.1.31.34l0,.76c0,.24-.1.31-.35.29Zm1.39-.32c.06,0,.09,0,.09-.08l0-.4c0-.07,0-.09-.08-.1l-1.12-.07c-.07,0-.09,0-.09.08l0,.41c0,.06,0,.08.08.09Zm1.09-2.29c.12,0,.17.1.16.22S69,35,68.9,35l-.36,0,0,.6a.22.22,0,0,1-.26.19c-.12,0-.24-.08-.23-.22l.11-1.61a.22.22,0,0,1,.26-.19c.12,0,.24.08.23.22l0,.58Z"/></clipPath><clipPath id="clip-path-13"><path class="cls-1" d="M65.58,40.25a.18.18,0,0,1-.15-.22c0-.11.06-.2.18-.19L68.5,40a.17.17,0,0,1,.16.21c0,.12-.06.21-.18.2l-1.2-.08-.07,1a.22.22,0,0,1-.26.19c-.12,0-.24-.08-.23-.22l.07-1Zm2.72-.89c0,.24-.1.31-.34.3l-1.76-.12c-.24,0-.32-.1-.3-.34L66,38.13a.25.25,0,0,1,.48,0l0,.26,1.45.09v-.25a.22.22,0,0,1,.25-.19c.13,0,.24.08.23.22Zm-.53-.13s.06,0,.06,0l0-.26-1.45-.09v.26s0,0,0,.06Z"/></clipPath><clipPath id="clip-path-15"><path class="cls-1" d="M65.53,42.66c-.12,0-.16-.1-.16-.21a.19.19,0,0,1,.19-.19l.9.06c.24,0,.32.1.3.34l0,.38c0,.53-.17.68-1.19,1.12a.22.22,0,0,1-.29-.1.2.2,0,0,1,.08-.29c.59-.24.8-.34.88-.45h-.81c-.12,0-.17-.09-.17-.2s.05-.2.17-.2l.88,0V42.8c0-.06,0-.09-.09-.09Zm.5,3c-.25,0-.32-.1-.31-.34l0-.73c0-.24.1-.32.35-.3l1.75.12c.24,0,.32.1.3.34l0,.73c0,.24-.1.31-.34.29Zm1.52-.31c.07,0,.09,0,.1-.08l0-.38c0-.06,0-.09-.08-.09l-1.25-.08c-.07,0-.09,0-.09.08l0,.37c0,.07,0,.09.08.1Zm0-2.33.33,0,0-.63a.21.21,0,0,1,.24-.18c.12,0,.22.08.21.21l-.11,1.66a.19.19,0,0,1-.23.17c-.12,0-.23-.07-.22-.2l0-.62-.33,0,0,.6a.2.2,0,0,1-.23.18c-.11,0-.22-.07-.21-.21l.1-1.61a.21.21,0,0,1,.24-.18c.11,0,.22.07.21.2Z"/></clipPath><clipPath id="clip-path-17"><path class="cls-1" d="M64.92,48.56c0-.1.07-.2.19-.19l.2,0L65.4,47l-.18,0c-.12,0-.16-.1-.16-.21s.07-.2.19-.19l1.65.11a.18.18,0,0,1,.16.21c0,.11-.06.2-.18.19h-.16l-.09,1.36h.2a.18.18,0,0,1,.19.19c0,.11,0,.21-.15.22a14.5,14.5,0,0,1-1.79,0A.18.18,0,0,1,64.92,48.56Zm1.25-.14L66.26,47l-.39,0-.1,1.4A2.71,2.71,0,0,0,66.17,48.42Zm.88-.47c-.12,0-.16-.11-.16-.22a.19.19,0,0,1,.19-.2l.33,0,.06-.92a.22.22,0,0,1,.26-.19c.12,0,.24.08.23.22l-.2,2.93c0,.15-.13.2-.25.2a.23.23,0,0,1-.24-.23l.11-1.6Z"/></clipPath><clipPath id="clip-path-19"><path class="cls-1" d="M64.7,53.55a.18.18,0,0,1-.15-.22c0-.11.07-.21.18-.2l2.9.19c.12,0,.16.11.15.22s-.06.21-.18.2Zm2.86-.94a.22.22,0,0,1-.3.07c-.24-.15-.45-.29-.65-.44a.87.87,0,0,1-.34-.4h0c0,.1-.15.23-.39.36s-.44.24-.7.36a.21.21,0,0,1-.28-.12.22.22,0,0,1,.06-.29c.22-.11.45-.22.7-.36a.71.71,0,0,0,.41-.62V51c0-.15.13-.2.26-.19a.22.22,0,0,1,.24.22l0,.2a.71.71,0,0,0,.33.67c.22.17.43.31.64.45S67.61,52.52,67.56,52.61Z"/></clipPath><clipPath id="clip-path-21"><path class="cls-1" d="M59.9,31.37c.05.13,0,.27-.1.33l-1.55.65.47,1.29a1.41,1.41,0,0,1,.71-.61,1.26,1.26,0,0,1,1.75.73l0,.06a1.4,1.4,0,0,1-.88,1.93,2.37,2.37,0,0,1-1.37.18.27.27,0,0,1-.23-.34.25.25,0,0,1,.31-.23,1.88,1.88,0,0,0,1.07-.13.85.85,0,0,0,.53-1.18l0,0a.79.79,0,0,0-1.16-.44,1.16,1.16,0,0,0-.62.57.38.38,0,0,1-.21.22c-.14.06-.28,0-.32-.1l-.62-1.73c-.13-.37-.08-.49.25-.63l1.65-.69c.15-.06.25,0,.31.16"/></clipPath><clipPath id="clip-path-23"><path class="cls-1" d="M63.42,33a1.16,1.16,0,1,1,1.16-1.16A1.16,1.16,0,0,1,63.42,33m0-1.74a.58.58,0,0,0,0,1.16.58.58,0,1,0,0-1.16"/></clipPath><clipPath id="clip-path-25"><path class="cls-1" d="M63,34.14h0a2.08,2.08,0,0,1-1.84-1.84A.29.29,0,0,1,61.4,32a.28.28,0,0,1,.31.26A1.51,1.51,0,0,0,63,33.56a.29.29,0,0,1,.25.32.28.28,0,0,1-.28.26"/></clipPath><clipPath id="clip-path-27"><path class="cls-1" d="M61.43,31.73h0a.29.29,0,0,1-.25-.32A2.07,2.07,0,0,1,63,29.58a.28.28,0,0,1,.32.25.3.3,0,0,1-.26.32,1.53,1.53,0,0,0-1.33,1.33.28.28,0,0,1-.28.25"/></clipPath><clipPath id="clip-path-29"><path class="cls-1" d="M65.42,31.73a.28.28,0,0,1-.29-.25,1.51,1.51,0,0,0-1.33-1.33.29.29,0,1,1,.07-.57,2.06,2.06,0,0,1,1.83,1.83.28.28,0,0,1-.25.32h0"/></clipPath><clipPath id="clip-path-31"><path class="cls-1" d="M63.84,34.14a.28.28,0,0,1-.29-.26.29.29,0,0,1,.25-.32,1.5,1.5,0,0,0,1.33-1.32.3.3,0,0,1,.32-.26.28.28,0,0,1,.25.32,2.07,2.07,0,0,1-1.83,1.84h0"/></clipPath><clipPath id="clip-path-33"><path class="cls-1" d="M66.63,30.94a.28.28,0,0,1-.26-.17.29.29,0,0,1,.15-.38l2.68-1.16a.29.29,0,0,1,.23.53l-2.68,1.16-.12,0"/></clipPath><clipPath id="clip-path-35"><path class="cls-1" d="M68.07,31.82a.29.29,0,0,1-.29-.27l-.19-2.91a.29.29,0,0,1,.58,0l.18,2.91a.29.29,0,0,1-.26.31h0"/></clipPath><clipPath id="clip-path-37"><polygon class="cls-1" points="92.84 58.2 71.68 38.06 72.2 32.44 93.95 55.15 93.95 58.92 92.84 58.2"/></clipPath><clipPath id="clip-path-39"><polygon class="cls-1" points="92.19 66.61 71.04 46.47 71.55 40.85 93.3 63.56 93.3 67.33 92.19 66.61"/></clipPath><clipPath id="clip-path-41"><polygon class="cls-1" points="91.45 74.79 70.3 54.65 70.81 49.04 92.56 71.75 92.56 75.52 91.45 74.79"/></clipPath></defs><title>50+남부캠퍼스</title><g id="Layer_1" data-name="Layer 1"><circle class="cls-3" cx="68.03" cy="68.03" r="57.59"/><path d="M62.13,84.13c0,.36-.14.65-.52.65H57.54l-.18,3.32a3.54,3.54,0,0,1,2.16-.69,3.08,3.08,0,0,1,3.25,3.27v.17A3.4,3.4,0,0,1,59,94.33a5.79,5.79,0,0,1-3.25-.87.68.68,0,0,1-.19-1,.6.6,0,0,1,.91-.22A4.56,4.56,0,0,0,59,93a2,2,0,0,0,2.28-2.13v-.1a1.91,1.91,0,0,0-2.17-2.09,2.86,2.86,0,0,0-1.91.7,1,1,0,0,1-.69.29c-.38,0-.65-.2-.63-.53l.25-4.46c.06-.91.29-1.15,1.16-1.15h4.34C62,83.49,62.13,83.79,62.13,84.13Z"/><path d="M72,88.46v.73c0,3.32-1.14,5.14-3.85,5.14s-3.84-1.82-3.84-5.14v-.73c0-3.32,1.14-5.14,3.84-5.14S72,85.14,72,88.46Zm-6.18.12v.49c0,2.68.56,3.85,2.33,3.85s2.33-1.17,2.33-3.85v-.49c0-2.67-.56-3.85-2.33-3.85S65.79,85.91,65.79,88.58Z"/><path d="M77.85,85.56v2.67h2.66c.34,0,.51.27.51.6s-.17.62-.51.62H77.85v2.9a.59.59,0,0,1-.66.57c-.35,0-.68-.18-.68-.57v-2.9H73.85c-.34,0-.51-.27-.51-.62s.17-.6.51-.6h2.66V85.56c0-.39.33-.57.68-.57A.59.59,0,0,1,77.85,85.56Z"/><path d="M36.51,101.81v3.92c0,.23.09.3.32.3a38.22,38.22,0,0,0,5.21-.31.54.54,0,0,1,.6.55c0,.36-.09.69-.42.72a42.5,42.5,0,0,1-6.07.33c-.87,0-1.15-.26-1.15-1.12v-4.39c0-.45.36-.64.75-.64S36.51,101.36,36.51,101.81ZM43.93,109c.87,0,1.16.27,1.16,1.13v3c0,.85-.29,1.12-1.16,1.12H37.62c-.87,0-1.15-.27-1.15-1.12v-3c0-.86.28-1.13,1.15-1.13Zm-5.66,1.26c-.23,0-.32.09-.32.32v2.15c0,.22.09.31.32.31h5c.23,0,.32-.09.32-.31V110.6c0-.23-.09-.32-.32-.32Zm6.82-9.1v2.54h1.65c.39,0,.55.3.55.65s-.16.66-.55.66H45.09v2.72c0,.43-.36.63-.75.63s-.76-.2-.76-.63v-6.57c0-.43.37-.63.76-.63S45.09,100.75,45.09,101.18Z"/><path d="M60.68,109.22c0,.34-.16.63-.52.63h-5V114c0,.43-.36.63-.75.63s-.76-.2-.76-.63v-4.1h-5c-.36,0-.52-.29-.52-.63s.16-.65.52-.65H60.16C60.52,108.57,60.68,108.87,60.68,109.22Zm-9.43-7.65v1.33H57.5v-1.33a.64.64,0,0,1,.72-.61c.37,0,.75.19.75.61v4.31c0,.86-.29,1.13-1.16,1.13H50.94c-.87,0-1.14-.27-1.14-1.13v-4.31a.64.64,0,0,1,.72-.61C50.89,101,51.25,101.15,51.25,101.57Zm.24,4.18h5.77a.21.21,0,0,0,.24-.23v-1.35H51.25v1.35A.21.21,0,0,0,51.49,105.75Z"/><path d="M67.51,102.51V104c0,2.07-.5,2.62-4.48,4.67a.67.67,0,0,1-.88-.26.63.63,0,0,1,.18-.9c2.63-1.31,3.42-1.77,3.66-2.43l-3.56.24c-.36,0-.54-.26-.57-.6s.12-.63.5-.65l3.74-.12v-1c0-.23-.09-.3-.32-.3h-3a.56.56,0,0,1-.53-.62c0-.33.17-.63.53-.63h3.6C67.22,101.38,67.51,101.65,67.51,102.51Zm6,7.73v3c0,.85-.28,1.12-1.15,1.12H65.5c-.88,0-1.16-.27-1.16-1.12v-3c0-.86.28-1.13,1.16-1.13h6.83C73.2,109.11,73.48,109.38,73.48,110.24Zm-7.65.45v2.06c0,.22.09.31.31.31h5.54c.23,0,.32-.09.32-.31v-2.06c0-.23-.09-.32-.32-.32H66.14C65.92,110.37,65.83,110.46,65.83,110.69Zm7.65-9.55v6.74a.7.7,0,0,1-1.39,0v-2.76h-1.7v2.69c0,.39-.34.58-.7.58a.62.62,0,0,1-.7-.58v-6.6c0-.4.35-.58.7-.58s.7.18.7.58v2.66h1.7v-2.73a.61.61,0,0,1,.69-.59C73.14,100.55,73.48,100.73,73.48,101.14Z"/><path d="M83.82,109.13a.58.58,0,0,1-.42.72,52.28,52.28,0,0,1-7.23.33c-.36,0-.53-.3-.53-.63s.17-.63.53-.63h1v-6h-1c-.37,0-.54-.3-.54-.63s.17-.64.54-.64H83c.36,0,.52.3.52.64s-.16.63-.52.63h-.89v5.84c.38,0,.74-.08,1.11-.14A.53.53,0,0,1,83.82,109.13Zm-3.13-.29V102.9h-2v6C79.35,108.9,80,108.89,80.69,108.84Zm6.11-7.66v11.71c0,.44-.36.64-.75.64a.66.66,0,0,1-.74-.64v-6.54H83.64c-.37,0-.54-.3-.54-.65s.17-.64.54-.64h1.67v-3.88a.66.66,0,0,1,.74-.63C86.44,100.55,86.8,100.75,86.8,101.18Z"/><path d="M101.66,111.57c0,.35-.17.65-.53.65H89.57c-.36,0-.53-.3-.53-.65s.17-.64.53-.64h11.56C101.49,110.93,101.66,111.21,101.66,111.57Zm-5.54-9.74v.87a2.78,2.78,0,0,0,1.47,2.7c.9.59,1.84,1.13,2.82,1.68a.65.65,0,0,1,.13.89.66.66,0,0,1-.88.3c-1-.52-1.92-1.09-2.76-1.65-1-.65-1.45-1.16-1.53-1.53h0c-.11.4-.54.91-1.55,1.56-.84.54-1.8,1.13-2.76,1.65a.73.73,0,0,1-.75-1.22c1-.55,1.92-1.09,2.82-1.68a2.78,2.78,0,0,0,1.47-2.7v-.87c0-.45.37-.65.77-.65S96.12,101.38,96.12,101.83Z"/><g class="cls-4"><g class="cls-5"><rect class="cls-6" x="58.52" y="15.81" width="47.79" height="71.63"/></g></g><g class="cls-7"><g class="cls-5"><rect class="cls-8" x="28.78" y="15.81" width="51.54" height="58.24"/></g></g><g class="cls-9"><g class="cls-5"><rect class="cls-10" x="28.78" y="49.25" width="54.54" height="29.62"/></g></g><g class="cls-11"><g class="cls-5"><rect class="cls-12" x="35.78" y="54.72" width="47.54" height="30.09"/></g></g><g class="cls-13"><g class="cls-5"><rect class="cls-10" x="62.53" y="54.72" width="32.04" height="30.59"/></g></g><g class="cls-14"><g class="cls-5"><rect class="cls-15" x="56.22" y="24.06" width="22.54" height="22.88"/></g></g><g class="cls-16"><g class="cls-5"><rect class="cls-15" x="55.76" y="28.28" width="22.57" height="22.91"/></g></g><g class="cls-17"><g class="cls-5"><rect class="cls-15" x="55.57" y="32.52" width="22.42" height="22.91"/></g></g><g class="cls-18"><g class="cls-5"><rect class="cls-15" x="55.25" y="36.78" width="22.37" height="22.68"/></g></g><g class="cls-19"><g class="cls-5"><rect class="cls-15" x="54.88" y="41.11" width="22.57" height="22.3"/></g></g><g class="cls-20"><g class="cls-5"><rect class="cls-15" x="47.96" y="21.52" width="23.04" height="24.11"/></g></g><g class="cls-21"><g class="cls-5"><rect class="cls-22" x="52.6" y="21.03" width="21.65" height="21.65"/></g></g><g class="cls-23"><g class="cls-5"><rect class="cls-22" x="51.47" y="22.31" width="21.49" height="21.49"/></g></g><g class="cls-24"><g class="cls-5"><rect class="cls-22" x="51.47" y="19.91" width="21.49" height="21.49"/></g></g><g class="cls-25"><g class="cls-5"><rect class="cls-22" x="53.88" y="19.91" width="21.49" height="21.49"/></g></g><g class="cls-26"><g class="cls-5"><rect class="cls-22" x="53.88" y="22.31" width="21.49" height="21.49"/></g></g><g class="cls-27"><g class="cls-5"><rect class="cls-15" x="56.68" y="19.54" width="22.59" height="21.07"/></g></g><g class="cls-28"><g class="cls-5"><rect class="cls-15" x="57.92" y="18.66" width="20.1" height="22.82"/></g></g><g class="cls-29"><g class="cls-5"><rect class="cls-30" x="62.02" y="22.77" width="41.6" height="45.82"/></g></g><g class="cls-31"><g class="cls-5"><rect class="cls-30" x="61.37" y="31.18" width="41.6" height="45.81"/></g></g><g class="cls-32"><g class="cls-5"><rect class="cls-30" x="60.63" y="39.37" width="41.6" height="45.81"/></g></g></g></svg>