<svg xmlns="http://www.w3.org/2000/svg" xmlns:xlink="http://www.w3.org/1999/xlink" viewBox="0 0 136.06 136.06"><defs><style>.cls-1{fill:none;clip-rule:evenodd;}.cls-2{fill:#bdd7ee;}.cls-3{fill:#605f5b;}.cls-4{fill:#898883;}.cls-5{fill:#78caea;}.cls-6{fill:#9e9d95;}.cls-7{fill:#8e8d87;}.cls-8{clip-path:url(#clip-path);}.cls-9{clip-path:url(#clip-path-2);}.cls-10{clip-path:url(#clip-path-3);}.cls-11{clip-path:url(#clip-path-4);}.cls-12{clip-path:url(#clip-path-5);}.cls-13{clip-path:url(#clip-path-6);}.cls-14{clip-path:url(#clip-path-7);}.cls-15{clip-path:url(#clip-path-8);}.cls-16{clip-path:url(#clip-path-9);}.cls-17{clip-path:url(#clip-path-10);}.cls-18{clip-path:url(#clip-path-11);}.cls-19{clip-path:url(#clip-path-12);}.cls-20{clip-path:url(#clip-path-13);}.cls-21{clip-path:url(#clip-path-14);}.cls-22{clip-path:url(#clip-path-15);}.cls-23{clip-path:url(#clip-path-16);}.cls-24{clip-path:url(#clip-path-17);}.cls-25{clip-path:url(#clip-path-18);}.cls-26{clip-path:url(#clip-path-19);}.cls-27{clip-path:url(#clip-path-20);}.cls-28{clip-path:url(#clip-path-21);}</style><clipPath id="clip-path"><polygon class="cls-1" points="-226.32 -146.84 -252.31 -175.62 -254.78 -142.18 -238.06 -125.46 -226.32 -123.33 -226.32 -124.06 -226.32 -146.84"/></clipPath><clipPath id="clip-path-2"><polygon class="cls-1" points="-252.31 -175.62 -254.78 -142.18 -284.52 -136.72 -278.25 -164.53 -252.31 -175.62"/></clipPath><clipPath id="clip-path-3"><polygon class="cls-1" points="-284.52 -136.72 -276.8 -131.89 -249.31 -136.72 -254.78 -142.18 -284.52 -136.72"/></clipPath><clipPath id="clip-path-4"><polygon class="cls-1" points="-276.8 -131.89 -277.52 -125.96 -250.77 -128.54 -249.31 -136.72 -276.8 -131.89"/></clipPath><clipPath id="clip-path-5"><polygon class="cls-1" points="-249.31 -136.72 -250.77 -128.54 -238.06 -125.46 -249.31 -136.72"/></clipPath><clipPath id="clip-path-6"><path class="cls-1" d="M-257.08-166.07l.07-1.09c0-.15.13-.2.26-.2s.25.09.24.23l-.06.9c0,.07,0,.09.08.1a7.87,7.87,0,0,0,1.19,0c.12,0,.18.08.19.19s0,.22-.15.23a11.82,11.82,0,0,1-1.51,0C-257-165.75-257.09-165.83-257.08-166.07Zm.56,2.14c-.24,0-.32-.1-.3-.34l0-.76c0-.24.11-.31.35-.29l1.62.1c.24,0,.32.1.3.34l-.05.76c0,.24-.1.31-.34.29Zm1.39-.32c.07,0,.09,0,.1-.08l0-.4c0-.07,0-.09-.08-.1l-1.12-.07c-.06,0-.09,0-.09.08l0,.4c0,.07,0,.09.09.1Zm1.09-2.3c.13,0,.17.11.16.23s-.06.21-.19.2l-.35,0,0,.6a.22.22,0,0,1-.26.19.23.23,0,0,1-.24-.23l.11-1.6a.22.22,0,0,1,.26-.19c.13,0,.24.08.23.22l0,.58Z"/></clipPath><clipPath id="clip-path-7"><path class="cls-1" d="M-257.38-160.85a.18.18,0,0,1-.16-.22.19.19,0,0,1,.19-.2l2.89.19c.12,0,.16.11.16.22s-.07.21-.19.2l-1.2-.08-.06,1a.22.22,0,0,1-.26.19c-.13,0-.24-.08-.23-.23l.06-1Zm2.72-.89c0,.24-.1.31-.35.3l-1.75-.12c-.25,0-.33-.1-.31-.34L-257-163a.22.22,0,0,1,.25-.19c.13,0,.24.09.23.22v.26l1.44.09,0-.25a.21.21,0,0,1,.25-.19c.12,0,.24.08.23.22Zm-.53-.13s.06,0,.06,0v-.26l-1.44-.09,0,.25a.05.05,0,0,0,.06.06Z"/></clipPath><clipPath id="clip-path-8"><path class="cls-1" d="M-257.43-158.44a.17.17,0,0,1-.16-.21.17.17,0,0,1,.18-.19l.9.06c.25,0,.32.1.31.34l0,.38c0,.52-.16.68-1.19,1.12a.22.22,0,0,1-.28-.1.2.2,0,0,1,.07-.29c.59-.24.8-.34.88-.45h-.81a.18.18,0,0,1-.17-.2c0-.1.05-.2.17-.2l.88,0v-.16c0-.06,0-.09-.08-.09Zm.49,3c-.24,0-.32-.1-.3-.34l0-.73c0-.25.11-.32.35-.3l1.75.11c.24,0,.32.1.3.35l0,.73c0,.24-.1.31-.35.29Zm1.53-.31c.06,0,.09,0,.09-.08l0-.38c0-.06,0-.09-.09-.09l-1.25-.09c-.06,0-.09,0-.09.08l0,.38c0,.07,0,.09.08.1Zm-.06-2.33.33,0,0-.63c0-.13.12-.18.23-.18s.23.08.22.21l-.11,1.65a.2.2,0,0,1-.24.18.21.21,0,0,1-.21-.21l0-.61-.33,0,0,.6a.21.21,0,0,1-.24.18.21.21,0,0,1-.21-.21l.11-1.62a.19.19,0,0,1,.23-.17c.12,0,.22.07.21.2Z"/></clipPath><clipPath id="clip-path-9"><path class="cls-1" d="M-258-152.54c0-.11.07-.2.19-.19h.2l.1-1.41h-.18c-.12,0-.17-.1-.16-.21s.06-.2.18-.19l1.66.11c.12,0,.16.11.16.21s-.07.2-.19.19h-.15l-.1,1.36h.21a.16.16,0,0,1,.18.18c0,.12,0,.22-.15.23a14.55,14.55,0,0,1-1.79,0C-258-152.33-258-152.43-258-152.54Zm1.25-.14.09-1.39-.39,0-.09,1.4Zm.89-.47a.18.18,0,0,1-.16-.22c0-.12.06-.21.18-.2l.33,0,.06-.91a.22.22,0,0,1,.26-.19c.12,0,.24.08.23.22l-.19,2.93a.21.21,0,0,1-.26.19.21.21,0,0,1-.23-.22l.11-1.6Z"/></clipPath><clipPath id="clip-path-10"><path class="cls-1" d="M-258.26-147.56c-.12,0-.17-.1-.16-.21s.07-.21.19-.2l2.89.19a.18.18,0,0,1,.16.22c0,.11-.07.21-.19.2Zm2.85-.93a.22.22,0,0,1-.29.07c-.24-.15-.46-.3-.65-.44s-.33-.31-.34-.4h0c0,.1-.14.22-.38.36l-.71.36a.22.22,0,0,1-.28-.12.21.21,0,0,1,.07-.29l.69-.36a.71.71,0,0,0,.41-.62v-.2a.23.23,0,0,1,.27-.2.22.22,0,0,1,.23.23v.2a.69.69,0,0,0,.32.67c.23.17.44.31.65.45S-255.35-148.58-255.41-148.49Z"/></clipPath><clipPath id="clip-path-11"><path class="cls-1" d="M-263.07-169.74c.06.14.05.27-.1.33l-1.54.65.46,1.3a1.41,1.41,0,0,1,.71-.61,1.27,1.27,0,0,1,1.76.73l0,.06a1.41,1.41,0,0,1-.88,1.93,2.38,2.38,0,0,1-1.37.18.29.29,0,0,1-.24-.34.25.25,0,0,1,.32-.23,1.92,1.92,0,0,0,1.06-.13.84.84,0,0,0,.53-1.18l0,0a.78.78,0,0,0-1.16-.44,1.14,1.14,0,0,0-.61.57.4.4,0,0,1-.22.22c-.14.06-.28,0-.32-.1l-.62-1.74c-.12-.36-.07-.48.26-.62l1.65-.7c.14-.06.25,0,.3.16"/></clipPath><clipPath id="clip-path-12"><path class="cls-1" d="M-259.54-168.09a1.16,1.16,0,0,1-1.16-1.15,1.16,1.16,0,0,1,1.16-1.16,1.16,1.16,0,0,1,1.16,1.16,1.16,1.16,0,0,1-1.16,1.15m0-1.74a.58.58,0,0,0-.59.59.58.58,0,0,0,.59.58.58.58,0,0,0,.58-.58.58.58,0,0,0-.58-.59"/></clipPath><clipPath id="clip-path-13"><path class="cls-1" d="M-260-167h0a2.08,2.08,0,0,1-1.83-1.84.28.28,0,0,1,.25-.32.29.29,0,0,1,.32.26,1.52,1.52,0,0,0,1.33,1.32.28.28,0,0,1,.25.32.29.29,0,0,1-.29.26"/></clipPath><clipPath id="clip-path-14"><path class="cls-1" d="M-261.54-169.37h0a.28.28,0,0,1-.25-.32,2.05,2.05,0,0,1,1.83-1.83.28.28,0,0,1,.32.25.29.29,0,0,1-.25.32,1.52,1.52,0,0,0-1.33,1.33.29.29,0,0,1-.29.25"/></clipPath><clipPath id="clip-path-15"><path class="cls-1" d="M-257.55-169.37a.29.29,0,0,1-.29-.25,1.5,1.5,0,0,0-1.32-1.33.29.29,0,0,1-.26-.32.28.28,0,0,1,.32-.25,2.07,2.07,0,0,1,1.84,1.83.3.3,0,0,1-.26.32h0"/></clipPath><clipPath id="clip-path-16"><path class="cls-1" d="M-259.13-167a.29.29,0,0,1-.29-.26.29.29,0,0,1,.25-.32,1.49,1.49,0,0,0,1.33-1.32.3.3,0,0,1,.32-.26.3.3,0,0,1,.26.32A2.1,2.1,0,0,1-259.1-167h0"/></clipPath><clipPath id="clip-path-17"><path class="cls-1" d="M-256.33-170.16a.29.29,0,0,1-.27-.17.29.29,0,0,1,.15-.38l2.68-1.16a.29.29,0,0,1,.38.15.29.29,0,0,1-.15.38l-2.68,1.16-.11,0"/></clipPath><clipPath id="clip-path-18"><path class="cls-1" d="M-254.9-169.28a.29.29,0,0,1-.29-.27l-.18-2.91a.29.29,0,0,1,.27-.31.28.28,0,0,1,.3.27l.19,2.91a.29.29,0,0,1-.27.31h0"/></clipPath><clipPath id="clip-path-19"><polygon class="cls-1" points="-230.13 -142.9 -251.28 -163.04 -250.77 -168.66 -229.02 -145.95 -229.02 -142.18 -230.13 -142.9"/></clipPath><clipPath id="clip-path-20"><polygon class="cls-1" points="-230.77 -134.5 -251.93 -154.64 -251.41 -160.25 -229.67 -137.54 -229.67 -133.78 -230.77 -134.5"/></clipPath><clipPath id="clip-path-21"><polygon class="cls-1" points="-231.51 -126.31 -252.67 -146.45 -252.15 -152.06 -230.41 -129.36 -230.41 -125.58 -231.51 -126.31"/></clipPath></defs><title>서울하수도과학관</title><g id="Layer_1" data-name="Layer 1"><circle class="cls-2" cx="68.03" cy="68.03" r="57.59"/><polygon class="cls-3" points="50.46 47.94 45.37 51.85 46.38 67.5 54.14 67.39 55.22 57.08 54.2 49.29 50.46 47.94"/><path class="cls-4" d="M109.34,48.59l-13.19.17-33-1.91L34,44.34l-5.45,1.14-.18,2.33c3,1.78,10.23,7.28,12.61,19.72,1.6,0,3.38,0,5.37,0a17.52,17.52,0,0,0,2.85,0c-1.55-5.82-3.55-16.37,3.56-16,0,0,26.1,3.6,35.33,15.27,4.94.2,12.59-.09,17.37-3.2,0,0,2.5-.43,2.86-5.53Z"/><path class="cls-5" d="M28.4,47.81l-1.3,17s-.87,2.57,15.84,3C40.07,55.24,31.8,49.63,28.4,47.81Z"/><path class="cls-5" d="M51.94,67.42c4.89,0,14.1-.88,17.24-.72,0,0,12.09-.16,22.28.06,0,0,2.33-.1,5.59-.3C86.45,54.64,56,51.79,56,51.79,48,51.33,50.1,61.57,51.94,67.42Z"/><path class="cls-6" d="M26.43,41.4s-4.27.26-2,3.52c0,0,1.86,3.5,18.66,3.21,0,0,12.14.71,16.54.93,0,0,5.33.6,9.65,1.57,0,0,7.81,2.25,14.93.9,0,0,8-.58,11.56-.61a22.32,22.32,0,0,1,8,2.15s5,2,7.56-1.39c0,0,2.68-3,2.07-5,0,0,.31-1.75-8-.09,0,0-17.64.48-24.73-1.13,0,0-24.33-2.87-27.84-2.49,0,0-10,0-15.28-.61C37.57,42.39,29.14,41.23,26.43,41.4Z"/><path class="cls-7" d="M27.4,42.11l-.35,3.37A4.89,4.89,0,0,1,27.4,42.11Z"/><path class="cls-7" d="M30,42.38l-.35,3.38A4.86,4.86,0,0,1,30,42.38Z"/><path class="cls-7" d="M32.43,43l-.35,3.38A4.86,4.86,0,0,1,32.43,43Z"/><path class="cls-7" d="M35,43.29l-.36,3.37A4.86,4.86,0,0,1,35,43.29Z"/><path class="cls-7" d="M37.94,43.59,37.59,47A4.86,4.86,0,0,1,37.94,43.59Z"/><path class="cls-7" d="M40.42,43.47l-.35,3.38A4.86,4.86,0,0,1,40.42,43.47Z"/><path class="cls-7" d="M43,43.75l-.35,3.37A4.83,4.83,0,0,1,43,43.75Z"/><path class="cls-7" d="M45.62,44l-.36,3.38A4.89,4.89,0,0,1,45.62,44Z"/><path class="cls-7" d="M48.22,44.29l-.36,3.38A4.89,4.89,0,0,1,48.22,44.29Z"/><path class="cls-7" d="M50.81,44.57l-.35,3.37A4.89,4.89,0,0,1,50.81,44.57Z"/><path class="cls-7" d="M53.46,44.43l-.36,3.38A4.89,4.89,0,0,1,53.46,44.43Z"/><path class="cls-7" d="M56.08,44.45l-.35,3.38A4.86,4.86,0,0,1,56.08,44.45Z"/><path class="cls-7" d="M58.68,44.72l-.36,3.38A4.89,4.89,0,0,1,58.68,44.72Z"/><path class="cls-7" d="M61.3,44.78l-.36,3.38A4.89,4.89,0,0,1,61.3,44.78Z"/><path class="cls-7" d="M63.87,45.27l-.35,3.38A4.92,4.92,0,0,1,63.87,45.27Z"/><path class="cls-7" d="M66.47,45.54l-.35,3.38A4.92,4.92,0,0,1,66.47,45.54Z"/><path class="cls-7" d="M69.07,45.82l-.35,3.37A4.83,4.83,0,0,1,69.07,45.82Z"/><path class="cls-7" d="M71.67,46.09l-.36,3.38A4.89,4.89,0,0,1,71.67,46.09Z"/><path class="cls-7" d="M74.24,46.61,73.89,50A4.86,4.86,0,0,1,74.24,46.61Z"/><path class="cls-7" d="M76.87,46.63,76.51,50A4.89,4.89,0,0,1,76.87,46.63Z"/><path class="cls-7" d="M79.44,47.16,79,50.94A6.06,6.06,0,0,1,79.44,47.16Z"/><path class="cls-7" d="M82,47.43l-.36,3.38A4.89,4.89,0,0,1,82,47.43Z"/><path class="cls-7" d="M84.63,47.71l-.35,3.37A4.89,4.89,0,0,1,84.63,47.71Z"/><path class="cls-7" d="M87.26,47.73,86.9,51.1A4.86,4.86,0,0,1,87.26,47.73Z"/><path class="cls-7" d="M89.88,47.78l-.36,3.38A4.89,4.89,0,0,1,89.88,47.78Z"/><path class="cls-7" d="M92.51,47.78l-.36,3.38A4.89,4.89,0,0,1,92.51,47.78Z"/><path class="cls-7" d="M95.13,47.77l-.35,3.37A4.89,4.89,0,0,1,95.13,47.77Z"/><path class="cls-7" d="M97.76,47.79l-.36,3.37A4.86,4.86,0,0,1,97.76,47.79Z"/><path class="cls-7" d="M100.4,47.65,100,51A4.89,4.89,0,0,1,100.4,47.65Z"/><path class="cls-7" d="M103,47.93l-.36,3.37A4.86,4.86,0,0,1,103,47.93Z"/><path class="cls-7" d="M105.62,48l-.35,3.37A4.89,4.89,0,0,1,105.62,48Z"/><path class="cls-7" d="M108.19,48.47l-.35,3.38A4.92,4.92,0,0,1,108.19,48.47Z"/><path class="cls-7" d="M110.79,48.74l-.35,3.38A4.86,4.86,0,0,1,110.79,48.74Z"/><path d="M39.44,84.42v2.33a3.72,3.72,0,0,0,1.19,2.94c.6.64,1.21,1.24,1.72,1.71a.64.64,0,0,1,0,.93.67.67,0,0,1-.92.08c-.46-.42-1-.94-1.54-1.54C39,90,38.77,89.6,38.69,89.28h0c-.08.35-.29.71-1.16,1.62-.57.61-1.1,1.13-1.74,1.72a.67.67,0,0,1-1-.12.66.66,0,0,1,0-.94c.66-.61,1.29-1.23,1.89-1.87a3.78,3.78,0,0,0,1.18-2.94V84.42c0-.44.36-.63.76-.63S39.44,84,39.44,84.42Zm6.38-.71V95.42c0,.44-.36.63-.75.63a.65.65,0,0,1-.73-.63v-7H42.05c-.37,0-.54-.29-.54-.63s.17-.65.54-.65h2.29V83.71a.65.65,0,0,1,.73-.63C45.46,83.08,45.82,83.28,45.82,83.71Z"/><path d="M59,92.51v1.11c0,.86-.29,1.13-1.16,1.13H51.46c-.16,0-.24.06-.24.22v.62c0,.15.08.22.24.22H58.8a.53.53,0,0,1,.5.59.51.51,0,0,1-.5.58H50.92c-.87,0-1.15-.26-1.15-1.12V94.75c0-.86.28-1.13,1.15-1.13h6.35c.17,0,.24-.07.24-.22v-.6c0-.17-.07-.24-.24-.24H50.22c-.33,0-.48-.27-.48-.59s.15-.58.48-.58h3.42V90.15H48.58c-.35,0-.51-.27-.51-.61s.16-.6.51-.6H60.17c.35,0,.51.27.51.6s-.16.61-.51.61H55.11v1.24h2.7C58.68,91.39,59,91.65,59,92.51Zm0-6.88c0,1.69-1.68,2.42-4.56,2.42s-4.57-.73-4.57-2.42,1.68-2.4,4.57-2.4S58.94,84,58.94,85.63Zm-7.64,0c0,.78.93,1.24,3.08,1.24s3.07-.46,3.07-1.24-.93-1.21-3.07-1.21S51.3,84.85,51.3,85.63Z"/><path d="M66.58,83.68V85h2.7c.36,0,.53.29.53.63s-.17.65-.53.65H62.21c-.36,0-.53-.3-.53-.65s.17-.63.53-.63h2.87V83.68a.66.66,0,0,1,.75-.63C66.22,83.05,66.58,83.25,66.58,83.68Zm2.47,6.5a2.89,2.89,0,0,1-3.22,3,2.9,2.9,0,0,1-3.23-3c0-1.75,1.21-3,3.23-3A2.89,2.89,0,0,1,69.05,90.18Zm-5.09,0a1.87,1.87,0,0,0,3.73,0,1.87,1.87,0,0,0-3.73,0Zm8.44-6.47v4.06h1.65c.39,0,.56.28.56.64s-.17.66-.56.66H72.4v6.35c0,.44-.36.63-.75.63a.65.65,0,0,1-.73-.63V83.71a.65.65,0,0,1,.73-.63C72,83.08,72.4,83.28,72.4,83.71Z"/><path d="M88,91.63c0,.34-.17.63-.53.63h-5v4.21c0,.44-.36.64-.75.64s-.75-.2-.75-.64V92.26h-5c-.36,0-.52-.29-.52-.63s.16-.65.52-.65H87.47C87.83,91,88,91.28,88,91.63Zm-5.54-7.56v.75A2.32,2.32,0,0,0,83.9,87c1,.54,1.92,1,2.75,1.36a.65.65,0,0,1,.22.89.64.64,0,0,1-.85.33c-1-.45-1.9-.9-2.78-1.37-1-.55-1.46-1-1.53-1.41h0c-.09.41-.51.89-1.54,1.44s-1.81.92-2.78,1.37a.71.71,0,0,1-.63-1.25c.82-.39,1.72-.82,2.74-1.36a2.33,2.33,0,0,0,1.45-2.14v-.75c0-.45.36-.64.76-.64S82.46,83.62,82.46,84.07Z"/><path d="M99.9,84.57c0,.34-.17.64-.53.64h-6.8c-.22,0-.31.08-.31.3v3.41c0,.23.09.3.31.3h7c.36,0,.53.3.53.65s-.17.64-.53.64H96.1v3h5c.36,0,.53.29.53.63s-.17.65-.53.65H89.57c-.36,0-.53-.3-.53-.65s.17-.63.53-.63h5v-3H91.9c-.87,0-1.14-.27-1.14-1.12V85.05c0-.86.27-1.13,1.14-1.13h7.47C99.73,83.92,99.9,84.22,99.9,84.57Z"/><path d="M52.09,106.75v3.59c1.34,0,2.69-.09,4.09-.22.34,0,.52.21.55.57a.55.55,0,0,1-.45.67c-2.29.21-5,.29-7.72.29-.36,0-.52-.3-.52-.65s.16-.63.52-.63h2.06v-3.62c0-.42.36-.61.74-.61S52.09,106.33,52.09,106.75Zm2.53-4.58c.87,0,1.15.27,1.15,1.13v1a15.46,15.46,0,0,1-.43,3.88c-.09.35-.45.51-.89.44s-.63-.33-.55-.72a16.31,16.31,0,0,0,.38-3.56v-.49c0-.23-.09-.32-.31-.32H49.33c-.36,0-.53-.29-.53-.65s.17-.66.53-.66Zm4.38-.46v4.37h1.46c.39,0,.55.28.55.64s-.16.66-.55.66H59v6.07c0,.42-.36.61-.75.61s-.74-.19-.74-.61V101.71c0-.42.36-.62.74-.62S59,101.29,59,101.71Z"/><path d="M66.55,101.57v1h2.69c.36,0,.52.3.52.64s-.16.64-.52.64h-7c-.36,0-.53-.31-.53-.64s.17-.64.53-.64h2.84v-1a.66.66,0,0,1,.75-.63C66.19,100.94,66.55,101.14,66.55,101.57ZM69,107c0,1.47-1.2,2.41-3.19,2.41s-3.2-.94-3.2-2.41,1.2-2.4,3.2-2.4S69,105.49,69,107Zm3.41,4.58v2.89c0,.43-.36.63-.75.63a.65.65,0,0,1-.73-.63V112c0-.22-.09-.3-.32-.3H64.05c-.37,0-.54-.3-.54-.63s.17-.64.54-.64h7.2C72.12,110.42,72.4,110.69,72.4,111.54ZM64,107c0,.72.65,1.23,1.85,1.23s1.84-.51,1.84-1.23-.63-1.23-1.84-1.23S64,106.24,64,107Zm8.45-5.24v2.9h1.67c.37,0,.54.3.54.65s-.17.66-.54.66H72.4v3.21c0,.42-.36.62-.75.62a.65.65,0,0,1-.73-.62v-7.42a.65.65,0,0,1,.73-.63C72,101.09,72.4,101.29,72.4,101.72Z"/><path d="M79.47,105.63V108c1.31,0,2.66-.11,4-.23.35,0,.53.21.56.57s-.12.65-.45.68c-2.3.2-5,.27-7.72.27-.36,0-.52-.28-.52-.63s.16-.63.52-.63H78v-2.43a.65.65,0,0,1,.73-.62C79.11,105,79.47,105.21,79.47,105.63Zm2.46-3.77c.87,0,1.16.27,1.16,1.12v1.08a8.78,8.78,0,0,1-.27,2.27.71.71,0,0,1-.92.45c-.39-.09-.63-.34-.52-.76a8.7,8.7,0,0,0,.22-2v-.54c0-.24-.09-.32-.31-.32H76.77c-.36,0-.53-.3-.53-.64s.17-.66.53-.66Zm-3,9.28v2c0,.23.07.32.31.32h6.94c.36,0,.53.29.53.63s-.17.65-.53.65H78.54c-.87,0-1.16-.27-1.16-1.13v-2.52c0-.44.36-.63.77-.63S78.9,110.7,78.9,111.14Zm7.42-9.43v3.56h1.45c.39,0,.56.3.56.66s-.17.66-.56.66H86.32v4.28c0,.42-.36.61-.75.61s-.74-.19-.74-.61v-9.16c0-.42.36-.62.74-.62S86.32,101.29,86.32,101.71Z"/></g></svg>