<svg xmlns="http://www.w3.org/2000/svg" xmlns:xlink="http://www.w3.org/1999/xlink" viewBox="0 0 136.06 136.06"><defs><style>.cls-1{fill:none;clip-rule:evenodd;}.cls-2{clip-path:url(#clip-path);}.cls-3{clip-path:url(#clip-path-2);}.cls-4{clip-path:url(#clip-path-3);}.cls-5{clip-path:url(#clip-path-4);}.cls-6{clip-path:url(#clip-path-5);}.cls-7{clip-path:url(#clip-path-6);}.cls-8{clip-path:url(#clip-path-7);}.cls-9{clip-path:url(#clip-path-8);}.cls-10{clip-path:url(#clip-path-9);}.cls-11{clip-path:url(#clip-path-10);}.cls-12{clip-path:url(#clip-path-11);}.cls-13{clip-path:url(#clip-path-12);}.cls-14{clip-path:url(#clip-path-13);}.cls-15{clip-path:url(#clip-path-14);}.cls-16{clip-path:url(#clip-path-15);}.cls-17{clip-path:url(#clip-path-16);}.cls-18{clip-path:url(#clip-path-17);}.cls-19{clip-path:url(#clip-path-18);}.cls-20{clip-path:url(#clip-path-19);}.cls-21{clip-path:url(#clip-path-20);}.cls-22{clip-path:url(#clip-path-21);}.cls-23{fill:#f2eedf;}.cls-24{fill:#c6e0b4;}.cls-25{fill:#fff6d2;}.cls-26{fill:#f2efe4;}.cls-27{fill:#ead694;}</style><clipPath id="clip-path"><polygon class="cls-1" points="96.64 -342.22 70.66 -371 68.19 -337.56 84.91 -320.83 96.64 -318.7 96.64 -319.43 96.64 -342.22"/></clipPath><clipPath id="clip-path-2"><polygon class="cls-1" points="70.66 -371 68.19 -337.55 38.45 -332.09 44.72 -359.9 70.66 -371"/></clipPath><clipPath id="clip-path-3"><polygon class="cls-1" points="38.45 -332.09 46.16 -327.27 73.66 -332.09 68.19 -337.55 38.45 -332.09"/></clipPath><clipPath id="clip-path-4"><polygon class="cls-1" points="46.16 -327.27 45.45 -321.33 72.2 -323.91 73.66 -332.09 46.16 -327.27"/></clipPath><clipPath id="clip-path-5"><polygon class="cls-1" points="73.66 -332.09 72.2 -323.91 84.91 -320.84 73.66 -332.09"/></clipPath><clipPath id="clip-path-6"><path class="cls-1" d="M65.89-361.45l.07-1.09a.22.22,0,0,1,.26-.19c.13,0,.24.08.23.23l-.06.9c0,.06,0,.09.09.09a9.51,9.51,0,0,0,1.19,0c.12,0,.18.08.18.19s0,.22-.15.22a9.78,9.78,0,0,1-1.51,0C66-361.12,65.87-361.21,65.89-361.45Zm.56,2.14c-.25,0-.32-.1-.31-.33l0-.76c0-.24.1-.31.35-.3l1.61.11c.25,0,.32.1.31.34l0,.75c0,.24-.1.32-.35.3Zm1.39-.31c.06,0,.09,0,.09-.08l0-.41c0-.06,0-.09-.08-.09l-1.12-.08c-.07,0-.09,0-.09.09l0,.4c0,.07,0,.09.08.09Zm1.09-2.3a.18.18,0,0,1,.16.22c0,.12-.07.21-.19.21l-.36,0,0,.6a.22.22,0,0,1-.26.19c-.12,0-.24-.08-.23-.22l.11-1.6a.22.22,0,0,1,.26-.19c.12,0,.24.08.23.22l0,.58Z"/></clipPath><clipPath id="clip-path-7"><path class="cls-1" d="M65.58-356.23c-.11,0-.16-.1-.15-.21s.06-.21.18-.2l2.89.19a.18.18,0,0,1,.16.22c0,.11-.06.2-.18.19l-1.2-.07-.07,1c0,.15-.13.2-.26.2a.23.23,0,0,1-.23-.23l.07-1Zm2.72-.88c0,.24-.1.31-.34.29l-1.76-.11c-.24,0-.32-.1-.3-.34l.07-1.07a.21.21,0,0,1,.25-.19c.12,0,.24.08.23.22l0,.25,1.45.1v-.26a.22.22,0,0,1,.25-.18c.13,0,.24.08.23.21Zm-.53-.13s.06,0,.06-.05l0-.26-1.45-.1v.26s0,.06,0,.06Z"/></clipPath><clipPath id="clip-path-8"><path class="cls-1" d="M65.53-353.81c-.12,0-.16-.11-.16-.21s.07-.2.19-.19l.9.06c.24,0,.32.1.3.34l0,.38c0,.52-.17.68-1.19,1.11a.22.22,0,0,1-.29-.1.19.19,0,0,1,.08-.28c.59-.24.8-.34.88-.45h-.81c-.12,0-.17-.09-.17-.21s.05-.2.17-.19l.88,0v-.16c0-.07,0-.09-.09-.1Zm.5,3c-.25,0-.32-.09-.31-.34l0-.73c0-.24.1-.31.35-.3l1.75.12c.24,0,.32.1.3.34l0,.73c0,.24-.1.32-.34.3Zm1.52-.3c.07,0,.09,0,.1-.09l0-.37c0-.07,0-.09-.08-.1l-1.25-.08c-.07,0-.09,0-.09.08l0,.38c0,.06,0,.09.08.09Zm0-2.34.33,0,0-.64a.2.2,0,0,1,.24-.17c.12,0,.22.07.21.2l-.11,1.66a.2.2,0,0,1-.23.18c-.12,0-.23-.08-.22-.21l0-.62-.33,0,0,.6a.19.19,0,0,1-.23.17.19.19,0,0,1-.21-.2l.1-1.62a.2.2,0,0,1,.24-.17.19.19,0,0,1,.21.2Z"/></clipPath><clipPath id="clip-path-9"><path class="cls-1" d="M64.92-347.91c0-.11.07-.2.19-.19h.2l.09-1.41h-.18c-.12,0-.16-.11-.16-.21a.19.19,0,0,1,.19-.2l1.65.11a.18.18,0,0,1,.16.22c0,.1-.06.2-.18.19h-.16L66.63-348h.2a.17.17,0,0,1,.19.18c0,.12,0,.22-.15.22a11.36,11.36,0,0,1-1.79,0A.17.17,0,0,1,64.92-347.91Zm1.25-.14.09-1.39-.39,0-.1,1.41Zm.88-.47c-.12,0-.16-.11-.16-.22s.07-.21.19-.2l.33,0,.06-.92c0-.13.13-.19.26-.18s.24.08.23.22l-.2,2.93a.21.21,0,0,1-.25.19c-.13,0-.24-.08-.24-.22l.11-1.6Z"/></clipPath><clipPath id="clip-path-10"><path class="cls-1" d="M64.7-342.93a.18.18,0,0,1-.15-.21c0-.12.07-.21.18-.2l2.9.19c.12,0,.16.11.15.22s-.06.2-.18.19Zm2.86-.93a.23.23,0,0,1-.3.07c-.24-.15-.45-.3-.65-.45a.86.86,0,0,1-.34-.39h0a.85.85,0,0,1-.39.36c-.21.12-.44.23-.7.35a.22.22,0,0,1-.28-.11.23.23,0,0,1,.06-.3l.7-.35a.71.71,0,0,0,.41-.62v-.21a.22.22,0,0,1,.26-.19c.13,0,.25.08.24.23l0,.2a.73.73,0,0,0,.33.67c.22.17.43.3.64.44A.23.23,0,0,1,67.56-343.86Z"/></clipPath><clipPath id="clip-path-11"><path class="cls-1" d="M59.9-365.11c.05.14,0,.27-.1.33l-1.55.65.47,1.29a1.45,1.45,0,0,1,.71-.6,1.25,1.25,0,0,1,1.75.72l0,.07a1.39,1.39,0,0,1-.88,1.92,2.38,2.38,0,0,1-1.37.19.28.28,0,0,1-.23-.34.26.26,0,0,1,.31-.24,1.79,1.79,0,0,0,1.07-.13.84.84,0,0,0,.53-1.17l0,0a.79.79,0,0,0-1.16-.45,1.22,1.22,0,0,0-.62.58.38.38,0,0,1-.21.22.22.22,0,0,1-.32-.11l-.62-1.73c-.13-.36-.08-.49.25-.63l1.65-.69c.15-.06.25,0,.31.16"/></clipPath><clipPath id="clip-path-12"><path class="cls-1" d="M63.42-363.46a1.16,1.16,0,0,1-1.16-1.16,1.16,1.16,0,0,1,1.16-1.16,1.16,1.16,0,0,1,1.16,1.16,1.16,1.16,0,0,1-1.16,1.16m0-1.74a.58.58,0,0,0-.58.58.58.58,0,0,0,.58.58.59.59,0,0,0,.59-.58.59.59,0,0,0-.59-.58"/></clipPath><clipPath id="clip-path-13"><path class="cls-1" d="M63-362.34h0a2.07,2.07,0,0,1-1.84-1.83.29.29,0,0,1,.26-.32.28.28,0,0,1,.31.25A1.53,1.53,0,0,0,63-362.91a.28.28,0,0,1,.25.32.28.28,0,0,1-.28.25"/></clipPath><clipPath id="clip-path-14"><path class="cls-1" d="M61.43-364.74h0a.28.28,0,0,1-.25-.31A2.08,2.08,0,0,1,63-366.9a.3.3,0,0,1,.32.26.3.3,0,0,1-.26.32A1.51,1.51,0,0,0,61.71-365a.28.28,0,0,1-.28.26"/></clipPath><clipPath id="clip-path-15"><path class="cls-1" d="M65.42-364.74a.28.28,0,0,1-.29-.26,1.5,1.5,0,0,0-1.33-1.32.29.29,0,0,1-.25-.32.3.3,0,0,1,.32-.26,2.07,2.07,0,0,1,1.83,1.84.27.27,0,0,1-.25.31h0"/></clipPath><clipPath id="clip-path-16"><path class="cls-1" d="M63.84-362.34a.28.28,0,0,1-.29-.25.28.28,0,0,1,.25-.32,1.51,1.51,0,0,0,1.33-1.33.29.29,0,0,1,.32-.25.28.28,0,0,1,.25.32,2.06,2.06,0,0,1-1.83,1.83h0"/></clipPath><clipPath id="clip-path-17"><path class="cls-1" d="M66.63-365.53a.29.29,0,0,1-.26-.18.29.29,0,0,1,.15-.38l2.68-1.15a.28.28,0,0,1,.38.15.3.3,0,0,1-.15.38l-2.68,1.15-.12,0"/></clipPath><clipPath id="clip-path-18"><path class="cls-1" d="M68.07-364.65a.29.29,0,0,1-.29-.28l-.19-2.91a.28.28,0,0,1,.27-.3.29.29,0,0,1,.31.26l.18,2.92a.28.28,0,0,1-.26.3h0"/></clipPath><clipPath id="clip-path-19"><polygon class="cls-1" points="92.84 -338.28 71.68 -358.42 72.2 -364.04 93.95 -341.33 93.95 -337.55 92.84 -338.28"/></clipPath><clipPath id="clip-path-20"><polygon class="cls-1" points="92.19 -329.87 71.04 -350.01 71.55 -355.63 93.3 -332.92 93.3 -329.15 92.19 -329.87"/></clipPath><clipPath id="clip-path-21"><polygon class="cls-1" points="91.45 -321.68 70.3 -341.82 70.81 -347.44 92.56 -324.73 92.56 -320.96 91.45 -321.68"/></clipPath></defs><title>다시세운</title><g id="Layer_1" data-name="Layer 1"><rect class="cls-23" x="100.98" y="29.98" width="2.03" height="44.01" rx="0.83" ry="0.83" transform="translate(203.99 103.96) rotate(-180)"/><rect class="cls-23" x="100.98" y="31.9" width="2.03" height="44.01" rx="0.83" ry="0.83" transform="translate(203.99 107.81) rotate(-180)"/><circle class="cls-24" cx="68.03" cy="68.03" r="57.59"/><path d="M46.47,93.25c0,.32-.16.59-.52.59H41.74c-.22,0-.31.08-.31.29v5c0,.21.09.3.31.3A40.15,40.15,0,0,0,47,99.11a.52.52,0,0,1,.6.52c0,.34-.09.65-.42.69a46.79,46.79,0,0,1-6.1.31c-.87,0-1.15-.26-1.15-1.06V93.68c0-.8.28-1.05,1.15-1.05H46C46.31,92.63,46.47,92.91,46.47,93.25Zm3.58-1v3.66H51.7a.53.53,0,0,1,.55.6c0,.34-.16.62-.55.62H50.05v6.1c0,.41-.36.59-.75.59s-.75-.18-.75-.59v-11c0-.41.36-.6.75-.6S50.05,91.87,50.05,92.28Z"/><path d="M58.21,92.92v2.13a3.44,3.44,0,0,0,1.22,2.78c.6.6,1.21,1.16,1.72,1.61a.58.58,0,0,1,0,.88.71.71,0,0,1-.93.07c-.46-.41-1-.89-1.54-1.45-.87-.85-1.13-1.21-1.19-1.52h0c-.07.33-.31.7-1.18,1.55-.57.56-1.11,1-1.76,1.61a.67.67,0,0,1-.94-.11.58.58,0,0,1,0-.87c.67-.59,1.32-1.17,1.92-1.77a3.48,3.48,0,0,0,1.2-2.78V92.92c0-.4.37-.59.76-.59S58.21,92.52,58.21,92.92Zm6.14-.64v11c0,.41-.36.59-.76.59s-.76-.18-.76-.59v-11c0-.41.38-.6.76-.6S64.35,91.87,64.35,92.28Z"/><path d="M68.87,102.15l-.75,2.11a.63.63,0,0,1-.77.42.49.49,0,0,1-.47-.59l.39-2.26a.81.81,0,0,1,1-.57C68.76,101.35,69.05,101.68,68.87,102.15Z"/><path d="M74.6,93v2.16a3.51,3.51,0,0,0,.93,2.66c.51.59,1,1.14,1.46,1.55a.61.61,0,0,1-.08.89.71.71,0,0,1-.93,0c-.3-.29-.76-.77-1.21-1.28a3.14,3.14,0,0,1-.91-1.39h0A3,3,0,0,1,73,99c-.45.49-.93,1-1.41,1.46a.72.72,0,0,1-1,0,.62.62,0,0,1-.06-.92c.57-.57,1.13-1.15,1.65-1.74a3.54,3.54,0,0,0,.92-2.66V93c0-.41.37-.59.75-.59S74.6,92.61,74.6,93Zm4.88-.65v10.34c0,.38-.35.55-.69.55s-.71-.17-.71-.55v-6h-1.5c-.36,0-.52-.27-.52-.61s.16-.6.52-.6h1.5V92.37c0-.38.35-.54.71-.54S79.48,92,79.48,92.37Zm2.7-.14V103.3c0,.38-.34.55-.7.55s-.69-.17-.69-.55V92.23c0-.38.34-.55.69-.55S82.18,91.85,82.18,92.23Z"/><path d="M96.7,98.83a.54.54,0,0,1-.53.59H91.31v2c0,.36-.33.53-.75.53s-.74-.17-.74-.53v-2H84.61a.54.54,0,0,1-.53-.59.53.53,0,0,1,.53-.6H96.17A.53.53,0,0,1,96.7,98.83Zm-9.4,2.32v1.91c0,.22.09.3.31.3h7.1a.52.52,0,0,1,.53.59c0,.33-.16.61-.53.61H86.94c-.87,0-1.14-.26-1.14-1.06v-2.35c0-.41.36-.59.75-.59S87.3,100.74,87.3,101.15ZM95,94.57c0,1.72-1.68,2.56-4.56,2.56s-4.56-.84-4.56-2.56S87.51,92,90.39,92,95,92.85,95,94.57Zm-7.64,0c0,.87.93,1.41,3.08,1.41s3.08-.54,3.08-1.41-.93-1.41-3.08-1.41S87.31,93.7,87.31,94.57Z"/><rect class="cls-25" x="29.96" y="31.04" width="75.17" height="40.76" rx="3.2" ry="3.2"/><rect class="cls-23" x="32.08" y="29.98" width="2.03" height="44.01" rx="0.83" ry="0.83"/><rect class="cls-23" x="79.88" y="29.98" width="2.03" height="44.01" rx="0.83" ry="0.83" transform="translate(161.79 103.96) rotate(-180)"/><rect class="cls-23" x="53.18" y="29.98" width="2.03" height="44.01" rx="0.83" ry="0.83"/><rect class="cls-26" x="29.96" y="54.3" width="75.17" height="1.63"/><rect class="cls-26" x="29.96" y="57.64" width="75.17" height="5.05"/><rect class="cls-26" x="29.96" y="35.09" width="75.17" height="1.63"/><rect class="cls-26" x="29.96" y="38.44" width="75.17" height="5.05"/><path d="M55,35a.47.47,0,0,1,.23.66.4.4,0,0,1-.57.19,2.4,2.4,0,0,0-.9-.2c-.67,0-.89.19-.89.41v0c0,.28.09.37.9.52,1.39.28,1.76.64,1.76,1.53v0c0,.79-.74,1.39-1.91,1.39a3.69,3.69,0,0,1-1.73-.39.47.47,0,0,1-.16-.65.44.44,0,0,1,.62-.21,2.87,2.87,0,0,0,1.26.32c.6,0,.8-.2.8-.46v0c0-.29-.09-.38-1-.56-1.23-.23-1.64-.63-1.64-1.48v0c0-.7.6-1.33,1.86-1.33A3,3,0,0,1,55,35Z"/><path d="M60.48,36.78h0c0,.55-.18.73-.74.73H57.26v0a1,1,0,0,0,1.17,1.06,2.75,2.75,0,0,0,1.21-.24.41.41,0,0,1,.58.22.45.45,0,0,1-.18.61,3.57,3.57,0,0,1-1.66.33,2,2,0,0,1-2.2-2.29V37a2,2,0,0,1,2.2-2.3A1.94,1.94,0,0,1,60.48,36.78Zm-3.22-.14v.06h2.17v-.09a.93.93,0,0,0-1.07-1A1,1,0,0,0,57.26,36.64Z"/><path d="M65,35.29l.72,3.08h0l.69-3.2a.49.49,0,0,1,.65-.4.47.47,0,0,1,.37.65l-.89,3.49a.81.81,0,0,1-1.55,0l-.66-2.69h0l-.67,2.69a.71.71,0,0,1-.78.58.7.7,0,0,1-.77-.58l-.9-3.47a.52.52,0,0,1,.41-.68.53.53,0,0,1,.69.42l.63,3.18h0l.75-3.06a.65.65,0,0,1,.65-.55A.64.64,0,0,1,65,35.29Z"/><path d="M72.65,37v.22a2.26,2.26,0,1,1-4.51,0V37a2.26,2.26,0,1,1,4.51,0Zm-3.4,0v.18c0,.95.36,1.36,1.14,1.36s1.15-.41,1.15-1.36V37c0-.94-.36-1.35-1.15-1.35S69.25,36.08,69.25,37Z"/><path d="M78,37v.22a2.26,2.26,0,1,1-4.52,0V37A2.26,2.26,0,1,1,78,37Zm-3.41,0v.18c0,.95.36,1.36,1.15,1.36s1.14-.41,1.14-1.36V37c0-.94-.35-1.35-1.14-1.35S74.56,36.08,74.56,37Z"/><path d="M83.19,36.49V39c0,.31-.27.46-.56.46a.49.49,0,0,1-.55-.46V36.72c0-.84-.39-1-.91-1a1,1,0,0,0-1,1.12V39a.49.49,0,0,1-.55.46c-.28,0-.56-.15-.56-.46V35.2c0-.3.26-.44.53-.44s.52.14.52.44v.16h0a1.64,1.64,0,0,1,1.42-.66A1.59,1.59,0,0,1,83.19,36.49Z"/><rect class="cls-25" x="29.96" y="32.97" width="75.17" height="40.76" rx="3.2" ry="3.2"/><rect class="cls-23" x="32.08" y="31.9" width="2.03" height="44.01" rx="0.83" ry="0.83"/><rect class="cls-23" x="79.88" y="31.9" width="2.03" height="44.01" rx="0.83" ry="0.83" transform="translate(161.79 107.81) rotate(-180)"/><rect class="cls-23" x="53.18" y="31.9" width="2.03" height="44.01" rx="0.83" ry="0.83"/><rect class="cls-27" x="29.96" y="56.23" width="75.17" height="1.63"/><rect class="cls-27" x="29.96" y="59.57" width="75.17" height="5.05"/><rect class="cls-27" x="29.96" y="37.02" width="75.17" height="1.63"/><rect class="cls-27" x="29.96" y="40.36" width="75.17" height="5.05"/><path d="M55,36.9a.46.46,0,0,1,.23.66.4.4,0,0,1-.57.19,2.4,2.4,0,0,0-.9-.2c-.67,0-.89.19-.89.41v0c0,.28.09.36.9.52,1.39.27,1.76.64,1.76,1.52v0c0,.78-.74,1.39-1.91,1.39a3.57,3.57,0,0,1-1.73-.4.46.46,0,0,1-.16-.64.43.43,0,0,1,.62-.21,2.87,2.87,0,0,0,1.26.32c.6,0,.8-.2.8-.46v0c0-.29-.09-.39-1-.56-1.23-.24-1.64-.64-1.64-1.49v0c0-.7.6-1.33,1.86-1.33A3,3,0,0,1,55,36.9Z"/><path d="M60.48,38.7v0c0,.55-.18.73-.74.73H57.26a1,1,0,0,0,1.17,1.07,2.62,2.62,0,0,0,1.21-.25.42.42,0,0,1,.58.22.46.46,0,0,1-.18.62,3.71,3.71,0,0,1-1.66.33,2,2,0,0,1-2.2-2.29v-.23a2,2,0,0,1,2.2-2.3A1.94,1.94,0,0,1,60.48,38.7Zm-3.22-.14v.06h2.17v-.08a.93.93,0,0,0-1.07-1A1,1,0,0,0,57.26,38.56Z"/><path d="M65,37.22l.72,3.07h0l.69-3.2a.49.49,0,0,1,.65-.39.47.47,0,0,1,.37.65l-.89,3.49a.8.8,0,0,1-1.55,0l-.66-2.68h0l-.67,2.68a.72.72,0,0,1-.78.59.71.71,0,0,1-.77-.59l-.9-3.47a.51.51,0,0,1,.41-.67.53.53,0,0,1,.69.42l.63,3.17h0l.75-3.06a.65.65,0,0,1,.65-.55A.64.64,0,0,1,65,37.22Z"/><path d="M72.65,38.93v.22a2.26,2.26,0,1,1-4.51,0v-.22a2.26,2.26,0,1,1,4.51,0Zm-3.4,0v.18c0,.94.36,1.36,1.14,1.36s1.15-.42,1.15-1.36V39c0-1-.36-1.36-1.15-1.36S69.25,38,69.25,39Z"/><path d="M78,38.93v.22a2.26,2.26,0,1,1-4.52,0v-.22a2.26,2.26,0,1,1,4.52,0Zm-3.41,0v.18c0,.94.36,1.36,1.15,1.36s1.14-.42,1.14-1.36V39c0-1-.35-1.36-1.14-1.36S74.56,38,74.56,39Z"/><path d="M83.19,38.41V41c0,.31-.27.46-.56.46a.49.49,0,0,1-.55-.46V38.65c0-.84-.39-1.06-.91-1.06a1,1,0,0,0-1,1.13V41a.49.49,0,0,1-.55.46c-.28,0-.56-.15-.56-.46V37.13a.47.47,0,0,1,.53-.45.46.46,0,0,1,.52.45v.16h0a1.64,1.64,0,0,1,1.42-.66A1.59,1.59,0,0,1,83.19,38.41Z"/></g></svg>