<svg xmlns="http://www.w3.org/2000/svg" xmlns:xlink="http://www.w3.org/1999/xlink" viewBox="0 0 136.06 136.06"><defs><style>.cls-1{fill:none;clip-rule:evenodd;}.cls-2{fill:#ffdebb;}.cls-3{fill:#b6c849;}.cls-4{fill:#8bb748;}.cls-5{fill:#c4d050;}.cls-6{fill:#4a833a;}.cls-7{fill:#67a07b;}.cls-8{fill:#498339;}.cls-9{fill:#5a9b75;}.cls-10{clip-path:url(#clip-path);}.cls-11{clip-path:url(#clip-path-2);}.cls-12{clip-path:url(#clip-path-3);}.cls-13{clip-path:url(#clip-path-4);}.cls-14{clip-path:url(#clip-path-5);}.cls-15{clip-path:url(#clip-path-6);}.cls-16{clip-path:url(#clip-path-7);}.cls-17{clip-path:url(#clip-path-8);}.cls-18{clip-path:url(#clip-path-9);}.cls-19{clip-path:url(#clip-path-10);}.cls-20{clip-path:url(#clip-path-11);}.cls-21{clip-path:url(#clip-path-12);}.cls-22{clip-path:url(#clip-path-13);}.cls-23{clip-path:url(#clip-path-14);}.cls-24{clip-path:url(#clip-path-15);}.cls-25{clip-path:url(#clip-path-16);}.cls-26{clip-path:url(#clip-path-17);}.cls-27{clip-path:url(#clip-path-18);}.cls-28{clip-path:url(#clip-path-19);}.cls-29{clip-path:url(#clip-path-20);}.cls-30{clip-path:url(#clip-path-21);}</style><clipPath id="clip-path"><polygon class="cls-1" points="408.6 54.26 382.61 25.48 380.14 58.92 396.86 75.64 408.6 77.77 408.6 77.04 408.6 54.26"/></clipPath><clipPath id="clip-path-2"><polygon class="cls-1" points="382.61 25.48 380.14 58.92 350.4 64.39 356.67 36.57 382.61 25.48"/></clipPath><clipPath id="clip-path-3"><polygon class="cls-1" points="350.4 64.39 358.12 69.21 385.61 64.39 380.14 58.92 350.4 64.39"/></clipPath><clipPath id="clip-path-4"><polygon class="cls-1" points="358.12 69.21 357.4 75.14 384.15 72.56 385.61 64.39 358.12 69.21"/></clipPath><clipPath id="clip-path-5"><polygon class="cls-1" points="385.61 64.39 384.15 72.56 396.86 75.64 385.61 64.39"/></clipPath><clipPath id="clip-path-6"><path class="cls-1" d="M377.84,35l.07-1.09c0-.15.13-.2.26-.19s.25.08.24.22l-.06.9c0,.07,0,.09.08.1a7.87,7.87,0,0,0,1.19,0,.19.19,0,0,1,.19.2c0,.11,0,.21-.15.22a13.37,13.37,0,0,1-1.51,0C377.9,35.35,377.83,35.27,377.84,35Zm.56,2.14c-.25,0-.32-.1-.31-.34l.05-.76c0-.24.11-.31.35-.29l1.62.1c.24,0,.32.1.3.34l-.05.76c0,.24-.1.31-.35.29Zm1.39-.32c.07,0,.09,0,.1-.08l0-.4c0-.07,0-.09-.08-.1l-1.12-.07c-.06,0-.09,0-.09.08l0,.41c0,.06,0,.08.08.09Zm1.09-2.29c.12,0,.17.1.16.22s-.06.21-.19.2l-.35,0,0,.6a.22.22,0,0,1-.26.19c-.13,0-.24-.08-.24-.22l.11-1.61a.22.22,0,0,1,.26-.19c.13,0,.24.08.23.22l0,.58Z"/></clipPath><clipPath id="clip-path-7"><path class="cls-1" d="M377.54,40.25a.18.18,0,0,1-.16-.22c0-.11.07-.2.19-.19l2.89.19c.12,0,.16.1.16.21s-.07.21-.19.2l-1.2-.08-.06,1a.22.22,0,0,1-.26.19c-.13,0-.24-.08-.23-.22l.06-1Zm2.72-.89c0,.24-.1.31-.35.3l-1.75-.12c-.25,0-.33-.1-.31-.34l.07-1.07a.21.21,0,0,1,.25-.18.21.21,0,0,1,.23.21v.26l1.44.09,0-.25c0-.14.13-.19.25-.19s.24.08.23.22Zm-.53-.13s.06,0,.06,0v-.26l-1.44-.09,0,.26s0,0,.06.06Z"/></clipPath><clipPath id="clip-path-8"><path class="cls-1" d="M377.49,42.66c-.12,0-.17-.1-.16-.21a.18.18,0,0,1,.18-.19l.9.06c.25,0,.32.1.3.34l0,.38c0,.53-.16.68-1.19,1.12a.21.21,0,0,1-.28-.1.2.2,0,0,1,.07-.29c.59-.24.8-.34.88-.45h-.81a.18.18,0,0,1-.17-.2c0-.1.05-.2.17-.2l.88,0V42.8c0-.06,0-.09-.08-.09Zm.49,3c-.24,0-.32-.1-.3-.34l0-.73c0-.24.11-.32.35-.3l1.75.12c.24,0,.32.1.3.34l0,.73c0,.24-.1.31-.35.29Zm1.53-.31c.06,0,.09,0,.09-.08l0-.38c0-.06,0-.09-.09-.09l-1.25-.08c-.06,0-.09,0-.09.08l0,.37c0,.07,0,.09.08.1ZM379.45,43l.33,0,0-.63a.21.21,0,0,1,.24-.18c.12,0,.23.08.22.21l-.11,1.66c0,.13-.12.18-.24.17s-.22-.07-.21-.2l0-.62-.33,0,0,.6a.21.21,0,0,1-.24.18c-.11,0-.22-.07-.21-.21l.11-1.61a.2.2,0,0,1,.23-.18c.12,0,.22.07.21.2Z"/></clipPath><clipPath id="clip-path-9"><path class="cls-1" d="M376.87,48.56c0-.1.07-.2.19-.19l.2,0,.09-1.41-.17,0c-.12,0-.17-.1-.16-.21s.06-.2.18-.19l1.66.11c.12,0,.16.11.16.21s-.07.2-.19.19h-.15l-.1,1.36h.21a.17.17,0,0,1,.18.19.18.18,0,0,1-.15.22,14.55,14.55,0,0,1-1.79,0C376.91,48.77,376.87,48.67,376.87,48.56Zm1.25-.14.09-1.39-.39,0-.09,1.4A2.54,2.54,0,0,0,378.12,48.42ZM379,48a.18.18,0,0,1-.16-.22c0-.11.06-.2.18-.2l.33,0,.06-.92a.22.22,0,0,1,.26-.19c.12,0,.24.08.23.22l-.19,2.93c0,.15-.14.2-.26.2a.22.22,0,0,1-.23-.23l.1-1.6Z"/></clipPath><clipPath id="clip-path-10"><path class="cls-1" d="M376.66,53.55a.18.18,0,0,1-.16-.22c0-.11.07-.21.19-.2l2.89.19a.18.18,0,0,1,.16.22c0,.11-.07.21-.19.2Zm2.85-.94a.21.21,0,0,1-.29.07c-.24-.15-.46-.29-.66-.44s-.32-.31-.33-.4h0c0,.1-.14.23-.38.36s-.45.24-.71.36a.22.22,0,0,1-.28-.12.21.21,0,0,1,.07-.29c.22-.11.45-.22.69-.36a.71.71,0,0,0,.41-.62V51c0-.15.14-.2.27-.19a.21.21,0,0,1,.23.22v.2a.69.69,0,0,0,.32.67c.23.17.44.31.65.45S379.57,52.52,379.51,52.61Z"/></clipPath><clipPath id="clip-path-11"><path class="cls-1" d="M371.85,31.37c.06.13,0,.27-.1.33l-1.55.65.47,1.29a1.41,1.41,0,0,1,.71-.61,1.27,1.27,0,0,1,1.76.73l0,.06a1.4,1.4,0,0,1-.87,1.93,2.38,2.38,0,0,1-1.37.18.29.29,0,0,1-.24-.34.25.25,0,0,1,.32-.23,1.83,1.83,0,0,0,1.06-.13.84.84,0,0,0,.53-1.18l0,0a.79.79,0,0,0-1.16-.44,1.14,1.14,0,0,0-.61.57.4.4,0,0,1-.22.22c-.14.06-.28,0-.32-.1l-.62-1.73c-.12-.37-.07-.49.26-.63l1.65-.69c.14-.06.25,0,.3.16"/></clipPath><clipPath id="clip-path-12"><path class="cls-1" d="M375.38,33a1.16,1.16,0,1,1,1.16-1.16A1.16,1.16,0,0,1,375.38,33m0-1.74a.58.58,0,1,0,.58.58.58.58,0,0,0-.58-.58"/></clipPath><clipPath id="clip-path-13"><path class="cls-1" d="M375,34.14h0a2.07,2.07,0,0,1-1.83-1.84.28.28,0,0,1,.25-.32.3.3,0,0,1,.32.26A1.51,1.51,0,0,0,375,33.56a.29.29,0,0,1,0,.58"/></clipPath><clipPath id="clip-path-14"><path class="cls-1" d="M373.38,31.73h0a.28.28,0,0,1-.25-.32,2.06,2.06,0,0,1,1.83-1.83.28.28,0,0,1,.32.25.29.29,0,0,1-.25.32,1.53,1.53,0,0,0-1.33,1.33.29.29,0,0,1-.29.25"/></clipPath><clipPath id="clip-path-15"><path class="cls-1" d="M377.37,31.73a.29.29,0,0,1-.29-.25,1.5,1.5,0,0,0-1.33-1.33.29.29,0,0,1-.25-.32.28.28,0,0,1,.32-.25,2.08,2.08,0,0,1,1.84,1.83.3.3,0,0,1-.26.32h0"/></clipPath><clipPath id="clip-path-16"><path class="cls-1" d="M375.79,34.14a.29.29,0,0,1-.29-.26.3.3,0,0,1,.25-.32,1.49,1.49,0,0,0,1.33-1.32.29.29,0,1,1,.58.06,2.09,2.09,0,0,1-1.84,1.84h0"/></clipPath><clipPath id="clip-path-17"><path class="cls-1" d="M378.59,30.94a.28.28,0,0,1-.27-.17.29.29,0,0,1,.15-.38l2.68-1.16a.29.29,0,1,1,.23.53l-2.68,1.16-.11,0"/></clipPath><clipPath id="clip-path-18"><path class="cls-1" d="M380,31.82a.29.29,0,0,1-.29-.27l-.18-2.91a.29.29,0,1,1,.57,0l.19,2.91a.29.29,0,0,1-.27.31h0"/></clipPath><clipPath id="clip-path-19"><polygon class="cls-1" points="404.79 58.2 383.64 38.06 384.15 32.44 405.9 55.15 405.9 58.92 404.79 58.2"/></clipPath><clipPath id="clip-path-20"><polygon class="cls-1" points="404.15 66.61 382.99 46.47 383.51 40.85 405.25 63.56 405.25 67.33 404.15 66.61"/></clipPath><clipPath id="clip-path-21"><polygon class="cls-1" points="403.41 74.79 382.25 54.65 382.77 49.04 404.51 71.75 404.51 75.52 403.41 74.79"/></clipPath></defs><title>서울식물원</title><g id="Layer_1" data-name="Layer 1"><circle class="cls-2" cx="68.03" cy="68.03" r="57.59"/><path d="M39.44,92v2.33a3.72,3.72,0,0,0,1.19,2.94c.6.65,1.21,1.25,1.73,1.71a.65.65,0,0,1,0,.93.67.67,0,0,1-.92.08c-.46-.42-1-.93-1.54-1.53-.87-.92-1.08-1.28-1.16-1.59h0c-.08.34-.29.7-1.16,1.62-.57.6-1.1,1.12-1.74,1.71a.66.66,0,0,1-1-.12.64.64,0,0,1,0-.93c.66-.62,1.29-1.23,1.89-1.88a3.75,3.75,0,0,0,1.19-2.94V92c0-.43.36-.63.75-.63S39.44,91.57,39.44,92Zm6.38-.7V103c0,.43-.36.63-.75.63a.65.65,0,0,1-.73-.63V96H42.05c-.37,0-.54-.28-.54-.63s.17-.65.54-.65h2.29V91.3a.65.65,0,0,1,.73-.63C45.46,90.67,45.82,90.86,45.82,91.3Z"/><path d="M59,100.1v1.11c0,.85-.28,1.12-1.16,1.12H51.46c-.16,0-.24.06-.24.23v.61a.21.21,0,0,0,.24.23h7.35a.51.51,0,0,1,.49.58c0,.32-.16.59-.49.59H50.92c-.87,0-1.15-.27-1.15-1.13v-1.11c0-.85.28-1.12,1.15-1.12h6.35c.17,0,.24-.08.24-.23v-.6c0-.16-.07-.24-.24-.24H50.22c-.33,0-.48-.27-.48-.59s.15-.58.48-.58h3.42V97.74H48.58c-.34,0-.51-.27-.51-.62s.17-.6.51-.6H60.17c.35,0,.51.27.51.6s-.16.62-.51.62H55.11V99h2.7C58.69,99,59,99.24,59,100.1Zm0-6.88c0,1.68-1.68,2.42-4.56,2.42s-4.57-.74-4.57-2.42,1.68-2.4,4.57-2.4S58.94,91.55,58.94,93.22Zm-7.64,0c0,.78.93,1.23,3.08,1.23s3.08-.45,3.08-1.23S56.52,92,54.38,92,51.3,92.44,51.3,93.22Z"/><path d="M70.66,91.75v1.36a2.67,2.67,0,0,0,1,2.23c.7.58,1.33,1.06,1.83,1.42a.69.69,0,0,1-.81,1.1c-.41-.29-1-.75-1.65-1.28s-1-1-1.11-1.29h0c-.07.35-.4.77-1.14,1.35s-1.25,1-1.88,1.46a.68.68,0,0,1-.93-.18.67.67,0,0,1,.12-1c.71-.51,1.34-1,2-1.58a2.64,2.64,0,0,0,1-2.22V91.75c0-.44.38-.63.77-.63S70.66,91.31,70.66,91.75Zm5,7.68c.87,0,1.15.27,1.15,1.13V104c0,.43-.36.63-.75.63s-.75-.2-.75-.63v-3c0-.23-.09-.31-.31-.31H68.3c-.37,0-.54-.29-.54-.64s.17-.65.54-.65ZM76.8,91.3v6.86c0,.43-.36.63-.75.63s-.75-.2-.75-.63V91.3c0-.44.36-.63.75-.63S76.8,90.86,76.8,91.3Z"/><path d="M90,100.1v1.11c0,.85-.28,1.12-1.15,1.12H82.53c-.16,0-.24.06-.24.23v.61a.21.21,0,0,0,.24.23h7.35a.51.51,0,0,1,.49.58c0,.32-.16.59-.49.59H82c-.87,0-1.15-.27-1.15-1.13v-1.11c0-.85.28-1.12,1.15-1.12h6.35c.17,0,.24-.08.24-.23v-.6c0-.16-.07-.24-.24-.24h-7c-.33,0-.48-.27-.48-.59S81,99,81.29,99h3.42V97.74H79.65c-.35,0-.51-.27-.51-.62s.16-.6.51-.6H91.24c.35,0,.51.27.51.6s-.16.62-.51.62H86.18V99h2.71C89.76,99,90,99.24,90,100.1Zm0-8v2.23c0,.86-.29,1.13-1.16,1.13H82c-.87,0-1.14-.27-1.14-1.13V92.11c0-.86.27-1.13,1.14-1.13h6.85C89.74,91,90,91.25,90,92.11Zm-7.66.4v1.43c0,.24.07.31.31.31h5.53c.24,0,.31-.07.31-.31V92.51c0-.24-.07-.31-.31-.31H82.68C82.44,92.2,82.37,92.27,82.37,92.51Z"/><path d="M102.11,97.11a.55.55,0,0,1-.45.67c-1,.14-2.26.23-3.55.29v1.77c0,.4-.33.59-.75.59s-.73-.19-.73-.59V98.11c-1,0-2.12,0-3.13,0-.36,0-.52-.27-.52-.62s.16-.63.52-.63a69.22,69.22,0,0,0,8-.36C101.88,96.51,102.09,96.75,102.11,97.11Zm-1-3.68c0,1.48-1.17,2.51-3.56,2.51S94,94.91,94,93.43s1.18-2.51,3.55-2.51S101.06,91.94,101.06,93.43ZM96.7,101.3v1.47c0,.22.08.31.32.31h7.2c.36,0,.53.29.53.63s-.17.65-.53.65H96.34c-.87,0-1.15-.27-1.15-1.13V101.3c0-.44.36-.63.76-.63S96.7,100.86,96.7,101.3Zm-1.33-7.87c0,.76.66,1.32,2.13,1.32s2.14-.56,2.14-1.32S99,92.11,97.5,92.11,95.37,92.66,95.37,93.43Zm9-2.13v9.34c0,.43-.36.63-.75.63a.66.66,0,0,1-.74-.63v-.7h-2.4c-.34,0-.51-.27-.51-.6s.17-.61.51-.61h2.4V91.3c0-.44.36-.63.74-.63S104.39,90.86,104.39,91.3Z"/><path class="cls-3" d="M64.66,49.57s8.85-15.41,20.68-9.81c.22.11.44.22.67.31,1.51.63,8.14,3.62,6.65,7a2.83,2.83,0,0,1-.83,1,11.94,11.94,0,0,1-9.58,2.29,9.81,9.81,0,0,1-2.1-.65c-2-.81-7.85-3-11.8-1.78A11.14,11.14,0,0,0,64.66,49.57Z"/><path class="cls-4" d="M63.6,59.77S60,57.06,55.29,48.24A15.82,15.82,0,0,0,50.82,43c-1.86-1.38-4.25-2.53-6.67-1.94a2.35,2.35,0,0,0-1.65,1.5,7.94,7.94,0,0,0,.31,5.1A16.28,16.28,0,0,0,52,57.59,30.35,30.35,0,0,0,63.6,59.77Z"/><path class="cls-5" d="M71,60.62s-4.31,2.45-15.36.59c0,0-6.74-1.33-9.66,5.9a1.89,1.89,0,0,0,.32,2c1.23,1.42,7.53,3.51,12.12,2.18a16.85,16.85,0,0,0,4.92-2.33A37.73,37.73,0,0,0,71,60.62Z"/><path class="cls-6" d="M73.33,49c1.35.5,2.79,2.06,3.82,3.06A22,22,0,0,1,80.39,56a15.69,15.69,0,0,1,2.66,9.52A16.24,16.24,0,0,1,78,75.73a10.1,10.1,0,0,1-4,2.59,3.54,3.54,0,0,1-2.34,0A3.47,3.47,0,0,1,70,76.77c-1.36-2.38-1-5.39-.06-8s2.47-4.89,3.45-7.45a17.32,17.32,0,0,0,1.17-6.12,15.09,15.09,0,0,0-.3-3.15C74.08,51.05,73.51,50.05,73.33,49Z"/><path class="cls-7" d="M70.67,50.33s-3.24.61-2.32,5a4.4,4.4,0,0,1-1.09,3.91,4.78,4.78,0,0,0,3-1.73,5.39,5.39,0,0,0,1.15-4.17A12.22,12.22,0,0,0,70.67,50.33Z"/><path class="cls-8" d="M66.07,51.5s-2.89,2.88-.73,5.82c0,0,1.75-.58.73-3.49A3.31,3.31,0,0,1,66.07,51.5Z"/><path class="cls-9" d="M61.31,54.23s-6.9-11.12-2.54-19.41c0,0,5.63-10,11.41-10.1a1.49,1.49,0,0,1,1.15.51c1.14,1.3,3.78,5.17.78,10.76a13.85,13.85,0,0,1-1.92,2.69C68.08,41,61.69,48.59,61.31,54.23Z"/></g></svg>