<svg xmlns="http://www.w3.org/2000/svg" xmlns:xlink="http://www.w3.org/1999/xlink" viewBox="0 0 136.06 136.06"><defs><style>.cls-1{fill:none;clip-rule:evenodd;}.cls-2{fill:#ffdebb;}.cls-3{fill:#99d3ff;}.cls-4{fill:#638ea8;}.cls-5{fill:#960;}.cls-6{fill:#ff8366;}.cls-7{fill:#91cad8;}.cls-8{fill:#41413f;}.cls-9{fill:#fff;}.cls-10{clip-path:url(#clip-path);}.cls-11{clip-path:url(#clip-path-2);}.cls-12{clip-path:url(#clip-path-3);}.cls-13{clip-path:url(#clip-path-4);}.cls-14{clip-path:url(#clip-path-5);}.cls-15{clip-path:url(#clip-path-6);}.cls-16{clip-path:url(#clip-path-7);}.cls-17{clip-path:url(#clip-path-8);}.cls-18{clip-path:url(#clip-path-9);}.cls-19{clip-path:url(#clip-path-10);}.cls-20{clip-path:url(#clip-path-11);}.cls-21{clip-path:url(#clip-path-12);}.cls-22{clip-path:url(#clip-path-13);}.cls-23{clip-path:url(#clip-path-14);}.cls-24{clip-path:url(#clip-path-15);}.cls-25{clip-path:url(#clip-path-16);}.cls-26{clip-path:url(#clip-path-17);}.cls-27{clip-path:url(#clip-path-18);}.cls-28{clip-path:url(#clip-path-19);}.cls-29{clip-path:url(#clip-path-20);}.cls-30{clip-path:url(#clip-path-21);}</style><clipPath id="clip-path"><polygon class="cls-1" points="254.02 54.26 228.03 25.48 225.56 58.92 242.28 75.64 254.02 77.77 254.02 77.04 254.02 54.26"/></clipPath><clipPath id="clip-path-2"><polygon class="cls-1" points="228.03 25.48 225.56 58.92 195.82 64.39 202.09 36.57 228.03 25.48"/></clipPath><clipPath id="clip-path-3"><polygon class="cls-1" points="195.82 64.39 203.54 69.21 231.03 64.39 225.56 58.92 195.82 64.39"/></clipPath><clipPath id="clip-path-4"><polygon class="cls-1" points="203.54 69.21 202.82 75.14 229.57 72.56 231.03 64.39 203.54 69.21"/></clipPath><clipPath id="clip-path-5"><polygon class="cls-1" points="231.03 64.39 229.57 72.56 242.28 75.64 231.03 64.39"/></clipPath><clipPath id="clip-path-6"><path class="cls-1" d="M223.26,35l.08-1.09c0-.15.13-.2.26-.19s.24.08.23.22l-.06.9c0,.07,0,.09.08.1A7.87,7.87,0,0,0,225,35a.19.19,0,0,1,.19.2c0,.11,0,.21-.15.22a13.37,13.37,0,0,1-1.51,0C223.32,35.35,223.25,35.27,223.26,35Zm.56,2.14c-.24,0-.32-.1-.3-.34l0-.76c0-.24.1-.31.34-.29l1.62.1c.25,0,.32.1.3.34l-.05.76c0,.24-.1.31-.34.29Zm1.39-.32c.07,0,.09,0,.1-.08l0-.4c0-.07,0-.09-.08-.1l-1.11-.07c-.07,0-.1,0-.1.08l0,.41c0,.06,0,.08.09.09Zm1.09-2.29c.13,0,.17.1.17.22s-.07.21-.19.2l-.36,0,0,.6a.22.22,0,0,1-.26.19c-.13,0-.24-.08-.23-.22l.1-1.61a.22.22,0,0,1,.26-.19c.13,0,.24.08.23.22l0,.58Z"/></clipPath><clipPath id="clip-path-7"><path class="cls-1" d="M223,40.25a.18.18,0,0,1-.16-.22c0-.11.07-.2.19-.19l2.89.19a.17.17,0,0,1,.16.21c0,.12-.07.21-.19.2l-1.2-.08-.06,1a.22.22,0,0,1-.26.19c-.13,0-.24-.08-.23-.22l.06-1Zm2.72-.89c0,.24-.1.31-.35.3l-1.75-.12c-.24,0-.32-.1-.31-.34l.07-1.07a.22.22,0,0,1,.25-.18.21.21,0,0,1,.23.21v.26l1.44.09,0-.25c0-.14.13-.19.25-.19s.24.08.23.22Zm-.53-.13s.06,0,.06,0l0-.26-1.45-.09,0,.26s0,0,.06.06Z"/></clipPath><clipPath id="clip-path-8"><path class="cls-1" d="M222.91,42.66c-.12,0-.17-.1-.16-.21a.19.19,0,0,1,.18-.19l.91.06c.24,0,.31.1.3.34l0,.38c0,.53-.16.68-1.19,1.12a.21.21,0,0,1-.28-.1.2.2,0,0,1,.08-.29,2.63,2.63,0,0,0,.88-.45h-.81a.18.18,0,0,1-.18-.2c0-.1,0-.2.17-.2l.88,0V42.8c0-.06,0-.09-.08-.09Zm.49,3c-.24,0-.32-.1-.3-.34l.05-.73c0-.24.1-.32.34-.3l1.75.12c.25,0,.32.1.31.34l-.05.73c0,.24-.1.31-.35.29Zm1.53-.31c.07,0,.09,0,.09-.08l0-.38c0-.06,0-.09-.08-.09l-1.25-.08c-.07,0-.09,0-.1.08l0,.37c0,.07,0,.09.08.1ZM224.88,43l.33,0,0-.63c0-.13.12-.18.24-.18a.21.21,0,0,1,.21.21l-.11,1.66c0,.13-.12.18-.24.17s-.22-.07-.21-.2l0-.62-.33,0,0,.6a.2.2,0,0,1-.24.18c-.11,0-.22-.07-.21-.21l.11-1.61a.23.23,0,0,1,.45,0Z"/></clipPath><clipPath id="clip-path-9"><path class="cls-1" d="M222.29,48.56a.19.19,0,0,1,.19-.19l.21,0,.09-1.41-.18,0c-.12,0-.17-.1-.16-.21s.07-.2.18-.19l1.66.11a.18.18,0,0,1,.16.21c0,.11-.07.2-.19.19h-.15L224,48.42h.2a.18.18,0,0,1,.19.19c0,.11,0,.21-.16.22a14.55,14.55,0,0,1-1.79,0C222.34,48.77,222.29,48.67,222.29,48.56Zm1.25-.14.1-1.39-.4,0-.09,1.4A2.54,2.54,0,0,0,223.54,48.42Zm.89-.47a.18.18,0,0,1-.16-.22.19.19,0,0,1,.19-.2l.32,0,.06-.92a.22.22,0,0,1,.26-.19c.13,0,.24.08.23.22l-.19,2.93c0,.15-.14.2-.26.2a.22.22,0,0,1-.23-.23l.11-1.6Z"/></clipPath><clipPath id="clip-path-10"><path class="cls-1" d="M222.08,53.55c-.12,0-.16-.11-.16-.22s.07-.21.19-.2l2.89.19a.18.18,0,0,1,.16.22c0,.11-.07.21-.19.2Zm2.85-.94a.21.21,0,0,1-.29.07,7.32,7.32,0,0,1-.65-.44c-.22-.17-.33-.31-.34-.4h0c0,.1-.15.23-.39.36l-.7.36a.22.22,0,0,1-.29-.12c0-.1,0-.24.07-.29s.45-.22.69-.36a.71.71,0,0,0,.41-.62V51c0-.15.14-.2.27-.19A.21.21,0,0,1,224,51v.2a.7.7,0,0,0,.32.67c.23.17.44.31.65.45S225,52.52,224.93,52.61Z"/></clipPath><clipPath id="clip-path-11"><path class="cls-1" d="M217.27,31.37c.06.13,0,.27-.09.33l-1.55.65.46,1.29a1.41,1.41,0,0,1,.71-.61,1.27,1.27,0,0,1,1.76.73l0,.06a1.41,1.41,0,0,1-.88,1.93,2.38,2.38,0,0,1-1.37.18.27.27,0,0,1-.23-.34.25.25,0,0,1,.31-.23,1.83,1.83,0,0,0,1.06-.13.83.83,0,0,0,.53-1.18v0a.8.8,0,0,0-1.17-.44,1.18,1.18,0,0,0-.61.57.4.4,0,0,1-.22.22c-.14.06-.27,0-.32-.1l-.62-1.73c-.12-.37-.07-.49.26-.63l1.65-.69c.14-.06.25,0,.3.16"/></clipPath><clipPath id="clip-path-12"><path class="cls-1" d="M220.8,33A1.16,1.16,0,1,1,222,31.86,1.16,1.16,0,0,1,220.8,33m0-1.74a.58.58,0,1,0,.58.58.58.58,0,0,0-.58-.58"/></clipPath><clipPath id="clip-path-13"><path class="cls-1" d="M220.39,34.14h0a2.07,2.07,0,0,1-1.83-1.84.28.28,0,0,1,.25-.32.3.3,0,0,1,.32.26,1.51,1.51,0,0,0,1.33,1.32.29.29,0,0,1,0,.58"/></clipPath><clipPath id="clip-path-14"><path class="cls-1" d="M218.81,31.73h0a.28.28,0,0,1-.25-.32,2.06,2.06,0,0,1,1.83-1.83.29.29,0,0,1,.07.57,1.53,1.53,0,0,0-1.33,1.33.29.29,0,0,1-.28.25"/></clipPath><clipPath id="clip-path-15"><path class="cls-1" d="M222.79,31.73a.3.3,0,0,1-.29-.25,1.49,1.49,0,0,0-1.32-1.33.3.3,0,0,1-.26-.32.28.28,0,0,1,.32-.25,2.07,2.07,0,0,1,1.84,1.83.3.3,0,0,1-.26.32h0"/></clipPath><clipPath id="clip-path-16"><path class="cls-1" d="M221.21,34.14a.3.3,0,0,1-.29-.26.3.3,0,0,1,.26-.32,1.49,1.49,0,0,0,1.32-1.32.3.3,0,0,1,.32-.26.29.29,0,0,1,.26.32,2.08,2.08,0,0,1-1.84,1.84h0"/></clipPath><clipPath id="clip-path-17"><path class="cls-1" d="M224,30.94a.29.29,0,0,1-.12-.55l2.68-1.16a.29.29,0,0,1,.38.15.28.28,0,0,1-.15.38l-2.68,1.16-.11,0"/></clipPath><clipPath id="clip-path-18"><path class="cls-1" d="M225.44,31.82a.28.28,0,0,1-.28-.27L225,28.64a.29.29,0,0,1,.27-.31.28.28,0,0,1,.3.27l.19,2.91a.29.29,0,0,1-.27.31h0"/></clipPath><clipPath id="clip-path-19"><polygon class="cls-1" points="250.21 58.2 229.06 38.06 229.57 32.44 251.32 55.15 251.32 58.92 250.21 58.2"/></clipPath><clipPath id="clip-path-20"><polygon class="cls-1" points="249.57 66.61 228.41 46.47 228.93 40.85 250.68 63.56 250.68 67.33 249.57 66.61"/></clipPath><clipPath id="clip-path-21"><polygon class="cls-1" points="248.83 74.79 227.67 54.65 228.19 49.04 249.94 71.75 249.94 75.52 248.83 74.79"/></clipPath></defs><title>한강함상공원</title><g id="Layer_1" data-name="Layer 1"><circle class="cls-2" cx="68.03" cy="68.03" r="57.59"/><path d="M62,83.26v.95h2.68c.36,0,.53.3.53.64s-.17.65-.53.65h-7c-.37,0-.53-.3-.53-.65s.16-.64.53-.64h2.83v-.95a.67.67,0,0,1,.75-.63C61.58,82.63,62,82.83,62,83.26Zm2.44,5.59c0,1.52-1.2,2.51-3.2,2.51S58,90.37,58,88.85s1.2-2.51,3.19-2.51S64.39,87.33,64.39,88.85Zm-3.69,3.9v2c0,.22.07.3.31.3h6.61c.38,0,.54.3.54.66s-.16.65-.54.65H60.34c-.87,0-1.16-.27-1.16-1.13V92.75c0-.43.36-.63.77-.63A.67.67,0,0,1,60.7,92.75Zm-1.35-3.9c0,.76.64,1.32,1.84,1.32S63,89.61,63,88.85s-.63-1.32-1.85-1.32S59.35,88.07,59.35,88.85Zm8.45-5.56v3.38h1.67c.37,0,.54.29.54.65s-.17.64-.54.64H67.8v4.37c0,.44-.36.63-.75.63s-.74-.19-.74-.63v-9a.66.66,0,0,1,.74-.63C67.44,82.66,67.8,82.86,67.8,83.29Z"/><path d="M76.35,83.43c.87,0,1.16.27,1.16,1.12V85.7c0,2.13-.87,2.73-5.41,4.88a.67.67,0,0,1-.88-.35.64.64,0,0,1,.25-.9C75.63,87.39,76,87,76,85.64V85c0-.22-.08-.31-.32-.31H71.8c-.36,0-.52-.29-.52-.63s.16-.66.52-.66Zm5.18,10.43c0,1.88-1.57,2.84-4.29,2.84S73,95.74,73,93.86,74.52,91,77.24,91,81.53,92,81.53,93.86Zm-7.1,0c0,1,.83,1.63,2.81,1.63s2.81-.64,2.81-1.63-.84-1.62-2.81-1.62S74.43,92.87,74.43,93.86Zm7-10.57V86h1.65c.39,0,.56.3.56.65s-.17.66-.56.66H81.46v3c0,.43-.36.62-.75.62S80,90.7,80,90.27v-7c0-.43.36-.63.75-.63S81.46,82.86,81.46,83.29Z"/><path d="M46.41,101.15v.92H49.1c.36,0,.52.3.52.65s-.16.63-.52.63h-7c-.36,0-.52-.3-.52-.63s.16-.65.52-.65h2.84v-.92a.66.66,0,0,1,.75-.63C46.05,100.52,46.41,100.72,46.41,101.15Zm2.45,5.29c0,1.44-1.2,2.36-3.2,2.36s-3.2-.92-3.2-2.36,1.2-2.36,3.2-2.36S48.86,105,48.86,106.44Zm3.41,4.38v2.5c0,.85-.29,1.12-1.16,1.12H44.8c-.87,0-1.15-.27-1.15-1.12v-2.5c0-.85.28-1.12,1.15-1.12h6.31C52,109.7,52.27,110,52.27,110.82Zm-8.46-4.38c0,.7.65,1.19,1.85,1.19s1.85-.49,1.85-1.19-.63-1.19-1.85-1.19S43.81,105.73,43.81,106.44Zm1.31,4.79v1.67c0,.24.07.31.31.31h5c.22,0,.31-.07.31-.31v-1.67c0-.23-.09-.3-.31-.3h-5C45.19,110.93,45.12,111,45.12,111.23Zm7.15-9.93v2.83h1.66c.38,0,.54.3.54.64s-.16.66-.54.66H52.27v3c0,.42-.36.62-.75.62s-.74-.2-.74-.62V101.3a.66.66,0,0,1,.74-.63C51.91,100.67,52.27,100.87,52.27,101.3Z"/><path d="M60.11,101.75v1.39a2.62,2.62,0,0,0,1,2.2c.71.59,1.34,1.07,1.84,1.43a.62.62,0,0,1,.1.91.63.63,0,0,1-.91.19c-.41-.29-1-.76-1.66-1.28s-1-1-1.09-1.28h0c-.07.33-.39.74-1.12,1.34s-1.25,1-1.88,1.46a.7.7,0,0,1-.81-1.15c.7-.51,1.34-1,2-1.57a2.61,2.61,0,0,0,1-2.22v-1.42c0-.43.38-.63.77-.63S60.11,101.32,60.11,101.75ZM66,111.87c0,1.88-1.58,2.84-4.3,2.84s-4.29-1-4.29-2.84S59,109,61.7,109,66,110,66,111.87Zm-7.1,0c0,1,.82,1.63,2.8,1.63s2.81-.63,2.81-1.63-.84-1.62-2.81-1.62S58.9,110.88,58.9,111.87Zm7-10.57V104h1.66c.39,0,.55.3.55.65s-.16.66-.55.66H65.92v3c0,.42-.36.61-.75.61s-.75-.19-.75-.61v-7c0-.43.36-.63.75-.63S65.92,100.87,65.92,101.3Z"/><path d="M75,104.92v2h6a.54.54,0,0,1,.53.61c0,.35-.17.65-.53.65H69.43c-.36,0-.52-.3-.52-.65s.16-.61.52-.61h4.1v-2c0-.42.36-.61.74-.61S75,104.5,75,104.92Zm3.62-3.69c.87,0,1.15.27,1.15,1.12v1a7.52,7.52,0,0,1-.28,2.19.72.72,0,0,1-.92.47.6.6,0,0,1-.52-.77,8,8,0,0,0,.22-1.93v-.48c0-.23-.09-.3-.31-.3H71c-.36,0-.51-.31-.51-.65s.15-.66.51-.66Zm1.17,10.85c0,1.79-1.7,2.66-4.6,2.66s-4.59-.87-4.59-2.66,1.7-2.65,4.59-2.65S79.81,110.3,79.81,112.08Zm-7.7,0c0,.91.94,1.46,3.1,1.46s3.11-.55,3.11-1.46-.94-1.45-3.11-1.45S72.11,111.18,72.11,112.08Z"/><path d="M91.87,107.11c0,.33-.1.64-.45.68-1,.14-2.25.23-3.54.29v1.77c0,.4-.33.58-.75.58s-.74-.18-.74-.58v-1.73c-1,0-2.11,0-3.12,0-.36,0-.52-.27-.52-.62s.16-.63.52-.63a71.23,71.23,0,0,0,8-.36C91.65,106.51,91.86,106.75,91.87,107.11Zm-1.05-3.67c0,1.48-1.17,2.5-3.55,2.5s-3.55-1-3.55-2.5,1.17-2.51,3.55-2.51S90.82,102,90.82,103.44Zm-4.35,7.86v1.47c0,.23.07.32.31.32H94c.36,0,.53.29.53.63s-.17.65-.53.65H86.11c-.87,0-1.16-.27-1.16-1.13V111.3c0-.43.36-.63.77-.63A.67.67,0,0,1,86.47,111.3Zm-1.34-7.86c0,.76.66,1.32,2.14,1.32s2.14-.56,2.14-1.32-.67-1.33-2.14-1.33S85.13,102.67,85.13,103.44Zm9-2.14v9.34c0,.44-.36.63-.75.63s-.74-.19-.74-.63V110h-2.4c-.35,0-.51-.27-.51-.6s.16-.61.51-.61h2.4V101.3a.66.66,0,0,1,.74-.63C93.8,100.67,94.16,100.87,94.16,101.3Z"/><path class="cls-3" d="M36.19,58.21s3.26,5.27,7.45,8.06c0,0,24.63,9.61,55.26-11V48Z"/><path class="cls-4" d="M36.19,58.21S63.78,67.05,98.9,48C98.9,48,61.77,34.65,36.19,58.21Z"/><path class="cls-5" d="M44.46,57.38a.5.5,0,0,1-.5-.5v-22a.5.5,0,0,1,1,0v22A.49.49,0,0,1,44.46,57.38Z"/><path class="cls-6" d="M44.46,40.59s3.35-1.75,5.76.25a4.08,4.08,0,0,0,4.92,0V35.7a4.06,4.06,0,0,1-4.92,0c-2.41-2-5.76-.24-5.76-.24Z"/><path class="cls-7" d="M82.14,48,81,45.81l-5,.72-.48,2.37a.53.53,0,0,0-.06.32c.1.71,1.71,1.06,3.59.79S82.4,49,82.3,48.24A.65.65,0,0,0,82.14,48Z"/><ellipse class="cls-8" cx="78.52" cy="46.17" rx="2.53" ry="1.29" transform="translate(-5.75 11.6) rotate(-8.15)"/><path class="cls-7" d="M70.44,51.21l-1.12-2.15-5,.72-.47,2.37a.53.53,0,0,0-.06.32c.1.71,1.71,1.06,3.59.79s3.32-1.06,3.22-1.77A.49.49,0,0,0,70.44,51.21Z"/><ellipse class="cls-8" cx="66.82" cy="49.42" rx="2.53" ry="1.29" transform="translate(-6.33 9.98) rotate(-8.15)"/><path class="cls-7" d="M58.39,54.06l-1.11-2.14-5,.72L51.79,55a.53.53,0,0,0-.06.32c.1.71,1.71,1.06,3.59.79s3.33-1.06,3.23-1.77A.65.65,0,0,0,58.39,54.06Z"/><ellipse class="cls-8" cx="54.77" cy="52.28" rx="2.53" ry="1.29" transform="translate(-6.86 8.3) rotate(-8.15)"/><path class="cls-5" d="M44.46,57.38a.5.5,0,0,1-.5-.5v-22a.5.5,0,0,1,1,0v22A.49.49,0,0,1,44.46,57.38Z"/><path class="cls-9" d="M47.75,36.41c.08,0,.09.11,0,.19a.14.14,0,0,1-.18.06.59.59,0,0,0-.38,0c-.27.07-.4.22-.41.34h0c0,.13,0,.12.37.1.5,0,.62.15.58.46v0c0,.28-.32.46-.76.58a2.93,2.93,0,0,1-.65.12c-.07,0-.07-.06,0-.15a.28.28,0,0,1,.21-.17,2,2,0,0,0,.5-.07c.27-.08.39-.17.4-.3h0c0-.15,0-.22-.4-.17s-.61.06-.57-.23v0a1.05,1.05,0,0,1,.77-.77A.69.69,0,0,1,47.75,36.41Z"/><path class="cls-9" d="M49.62,37.6h0c0,.16-.09.19-.25.11a3.76,3.76,0,0,0-.95-.35h0a.54.54,0,0,0,.41.63,1,1,0,0,0,.46.09c.07,0,.13,0,.16.14s0,.15-.07.15a1.34,1.34,0,0,1-.6-.11.89.89,0,0,1-.66-1,.37.37,0,0,0,0-.11c.07-.54.41-.8.87-.63A1,1,0,0,1,49.62,37.6Zm-1.16-.49v0a4.2,4.2,0,0,1,.88.31v0a.56.56,0,0,0-.37-.64A.35.35,0,0,0,48.46,37.11Z"/><path class="cls-9" d="M51.44,38.62l0,.11c-.07.54-.39.7-.86.45a1.19,1.19,0,0,1-.65-1.24l0-.11c.07-.54.39-.66.86-.41A1.14,1.14,0,0,1,51.44,38.62ZM50.23,38v.08a.72.72,0,0,0,.38.81c.29.16.47.06.52-.32v-.09a.7.7,0,0,0-.38-.79C50.46,37.54,50.28,37.62,50.23,38Z"/><path class="cls-9" d="M52.24,38.19c-.05.37-.07.55-.12.91s.09.46.32.48a.46.46,0,0,0,.5-.41c.05-.36.07-.54.12-.9a.18.18,0,0,1,.17-.15c.09,0,.16,0,.15.11-.07.58-.11.87-.19,1.46a.2.2,0,0,1-.17.16c-.08,0-.15,0-.14-.12s0-.07,0-.12h0a.59.59,0,0,1-.57.24.62.62,0,0,1-.52-.77c.05-.39.08-.58.13-1,0-.09.09-.1.17-.08A.16.16,0,0,1,52.24,38.19Z"/><path class="cls-9" d="M54.37,37.19c-.11.85-.17,1.28-.27,2.13a.4.4,0,0,1-.2.24c-.09,0-.16,0-.15-.05.11-.86.16-1.29.27-2.14a.37.37,0,0,1,.19-.22C54.3,37.1,54.38,37.09,54.37,37.19Z"/><path class="cls-6" d="M40.14,63.25a21.11,21.11,0,0,0,3.5,3s24.63,9.61,55.26-11v-3C72.15,70.13,47,65.11,40.14,63.25Z"/></g></svg>