<svg xmlns="http://www.w3.org/2000/svg" viewBox="0 0 136.06 136.06"><defs><style>.cls-1{fill:#bdd7ee;}.cls-2{fill:#a0a1a2;}.cls-3{fill:#001a71;}.cls-4{fill:none;}</style></defs><title>서울혁신파크</title><g id="Layer_1" data-name="Layer 1"><circle class="cls-1" cx="68.03" cy="68.03" r="57.59"/><path d="M32.61,92v2.33a3.72,3.72,0,0,0,1.19,2.94c.6.65,1.21,1.25,1.73,1.71a.65.65,0,0,1-.05.93.67.67,0,0,1-.92.08c-.46-.42-1-.93-1.54-1.53-.87-.92-1.08-1.28-1.16-1.59h0c-.08.34-.29.7-1.16,1.62-.57.6-1.1,1.12-1.74,1.71a.66.66,0,0,1-.95-.12.64.64,0,0,1,0-.93c.66-.62,1.29-1.23,1.89-1.88a3.79,3.79,0,0,0,1.19-2.94V92c0-.43.36-.63.75-.63S32.61,91.57,32.61,92ZM39,91.3V103c0,.43-.36.63-.75.63a.65.65,0,0,1-.73-.63V96H35.22c-.37,0-.54-.28-.54-.63s.17-.65.54-.65h2.29V91.3a.65.65,0,0,1,.73-.63C38.63,90.67,39,90.86,39,91.3Z"/><path d="M52.14,100.1v1.11c0,.85-.28,1.12-1.16,1.12H44.63c-.16,0-.24.06-.24.23v.61a.21.21,0,0,0,.24.23H52a.51.51,0,0,1,.49.58c0,.32-.16.59-.49.59H44.09c-.87,0-1.15-.27-1.15-1.13v-1.11c0-.85.28-1.12,1.15-1.12h6.35c.17,0,.24-.08.24-.23v-.6c0-.16-.07-.24-.24-.24h-7c-.33,0-.48-.27-.48-.59s.15-.58.48-.58h3.42V97.74H41.75c-.34,0-.51-.27-.51-.62s.17-.6.51-.6H53.34c.35,0,.51.27.51.6s-.16.62-.51.62H48.28V99H51C51.86,99,52.14,99.24,52.14,100.1Zm0-6.88c0,1.68-1.68,2.42-4.56,2.42S43,94.9,43,93.22s1.68-2.4,4.57-2.4S52.11,91.55,52.11,93.22Zm-7.64,0c0,.78.93,1.23,3.08,1.23s3.07-.45,3.07-1.23S49.69,92,47.55,92,44.47,92.44,44.47,93.22Z"/><path d="M59.84,91.15v.94h2.61c.36,0,.53.3.53.65s-.17.63-.53.63H55.57c-.36,0-.52-.3-.52-.63s.16-.65.52-.65h2.77v-.94c0-.44.37-.63.75-.63S59.84,90.71,59.84,91.15Zm2.37,5.39c0,1.47-1.17,2.4-3.12,2.4S56,98,56,96.54s1.18-2.41,3.13-2.41S62.21,95.06,62.21,96.54Zm4.1,4.58V104c0,.43-.36.63-.75.63a.66.66,0,0,1-.74-.63v-2.43c0-.23-.09-.3-.31-.3H57.75c-.37,0-.54-.3-.54-.63s.17-.65.54-.65h7.4C66,100,66.31,100.26,66.31,101.12Zm-9-4.58c0,.72.6,1.23,1.77,1.23s1.77-.51,1.77-1.23-.6-1.23-1.77-1.23S57.32,95.82,57.32,96.54Zm9-5.26V98.8c0,.42-.36.62-.74.62a.65.65,0,0,1-.73-.62v-.93H63.32c-.36,0-.49-.28-.49-.63s.13-.61.49-.61h1.52V95.38H63.25c-.36,0-.5-.27-.5-.61s.14-.62.5-.62h1.59V91.28c0-.42.36-.61.73-.61S66.31,90.86,66.31,91.28Z"/><path d="M73.74,91.87v1.5a2.85,2.85,0,0,0,1,2.33c.69.6,1.29,1.08,1.81,1.47a.63.63,0,0,1,.09.93.63.63,0,0,1-.91.18c-.48-.35-1.07-.83-1.7-1.37s-1-1-1-1.29h0c-.08.35-.32.71-1.08,1.37S70.63,98.05,70,98.52a.71.71,0,0,1-.84-1.14,23.25,23.25,0,0,0,2-1.64,2.79,2.79,0,0,0,1-2.31V91.87c0-.44.38-.63.77-.63S73.74,91.43,73.74,91.87Zm-1.11,8.31v2.54c0,.23.07.3.31.3H79.7c.37,0,.54.3.54.66s-.17.65-.54.65H72.27c-.88,0-1.16-.27-1.16-1.13v-3c0-.43.36-.63.76-.63S72.63,99.75,72.63,100.18Zm7.25-8.88v8.88c0,.44-.36.64-.75.64s-.75-.2-.75-.64V91.3c0-.44.36-.63.75-.63S79.88,90.86,79.88,91.3Z"/><path d="M90.44,99.21c0,.34-.09.68-.42.72a52.28,52.28,0,0,1-7.23.33c-.37,0-.53-.3-.53-.63s.16-.63.53-.63h1V93h-1a.55.55,0,0,1-.54-.62c0-.34.17-.63.54-.63h6.79c.36,0,.52.29.52.63S90,93,89.68,93h-.89v5.81c.35,0,.69-.08,1-.14A.53.53,0,0,1,90.44,99.21Zm-3.09-.29V93H85.26v6C86,99,86.67,99,87.35,98.92Zm5.54-7.62v3.9h1.65c.39,0,.56.29.56.65s-.17.66-.56.66H92.89V103c0,.43-.36.63-.75.63s-.75-.2-.75-.63V91.3c0-.44.36-.63.75-.63S92.89,90.86,92.89,91.3Z"/><path d="M108.49,101.69c0,.34-.17.64-.53.64H96.4c-.36,0-.53-.3-.53-.64s.17-.65.53-.65H108C108.32,101,108.49,101.33,108.49,101.69Zm-1.82-8.91v1.28a26.51,26.51,0,0,1-.48,5.55.71.71,0,0,1-.9.5.63.63,0,0,1-.56-.72,21,21,0,0,0,.35-2.49L97.84,97c-.39,0-.56-.27-.56-.63s.15-.67.53-.67l7.34-.08q0-.63,0-1.32v-1c0-.23-.09-.32-.31-.32H98.11c-.37,0-.53-.28-.53-.64s.16-.66.53-.66h7.4C106.38,91.66,106.67,91.93,106.67,92.78Z"/><rect class="cls-2" x="40.2" y="68.03" width="21.29" height="1.16" transform="translate(-33.62 56.01) rotate(-44.97)"/><rect class="cls-2" x="58.79" y="27.37" width="1.17" height="29.08"/><rect class="cls-2" x="63.01" y="59.5" width="29.08" height="1.16"/><rect class="cls-3" x="73.97" y="34.03" width="20.02" height="2.91" transform="translate(-0.5 69.77) rotate(-44.99)"/><rect class="cls-3" x="73.99" y="47.4" width="2.91" height="29.08"/><rect class="cls-3" x="42.98" y="42.56" width="29.08" height="2.91"/><rect class="cls-4" x="34.25" y="18.65" width="66.59" height="66.65"/></g></svg>