<svg xmlns="http://www.w3.org/2000/svg" xmlns:xlink="http://www.w3.org/1999/xlink" viewBox="0 0 136.06 136.06"><defs><style>.cls-1{fill:none;clip-rule:evenodd;}.cls-2{fill:#bdd7ee;}.cls-3{fill:#f28255;}.cls-4{fill:#d86a39;}.cls-5{fill:#fff;}.cls-6{fill:#ce5024;}.cls-7{clip-path:url(#clip-path);}.cls-8{clip-path:url(#clip-path-2);}.cls-9{clip-path:url(#clip-path-3);}.cls-10{clip-path:url(#clip-path-4);}.cls-11{clip-path:url(#clip-path-5);}.cls-12{clip-path:url(#clip-path-6);}.cls-13{clip-path:url(#clip-path-7);}.cls-14{clip-path:url(#clip-path-8);}.cls-15{clip-path:url(#clip-path-9);}.cls-16{clip-path:url(#clip-path-10);}.cls-17{clip-path:url(#clip-path-11);}.cls-18{clip-path:url(#clip-path-12);}.cls-19{clip-path:url(#clip-path-13);}.cls-20{clip-path:url(#clip-path-14);}.cls-21{clip-path:url(#clip-path-15);}.cls-22{clip-path:url(#clip-path-16);}.cls-23{clip-path:url(#clip-path-17);}.cls-24{clip-path:url(#clip-path-18);}.cls-25{clip-path:url(#clip-path-19);}.cls-26{clip-path:url(#clip-path-20);}.cls-27{clip-path:url(#clip-path-21);}</style><clipPath id="clip-path"><polygon class="cls-1" points="254.02 -146.84 228.03 -175.62 225.56 -142.18 242.28 -125.46 254.02 -123.33 254.02 -124.06 254.02 -146.84"/></clipPath><clipPath id="clip-path-2"><polygon class="cls-1" points="228.03 -175.62 225.56 -142.18 195.82 -136.72 202.09 -164.53 228.03 -175.62"/></clipPath><clipPath id="clip-path-3"><polygon class="cls-1" points="195.82 -136.72 203.54 -131.89 231.03 -136.72 225.56 -142.18 195.82 -136.72"/></clipPath><clipPath id="clip-path-4"><polygon class="cls-1" points="203.54 -131.89 202.82 -125.96 229.57 -128.54 231.03 -136.72 203.54 -131.89"/></clipPath><clipPath id="clip-path-5"><polygon class="cls-1" points="231.03 -136.72 229.57 -128.54 242.28 -125.46 231.03 -136.72"/></clipPath><clipPath id="clip-path-6"><path class="cls-1" d="M223.26-166.07l.08-1.09c0-.15.13-.2.26-.2a.23.23,0,0,1,.23.23l-.06.9c0,.07,0,.09.08.1a7.87,7.87,0,0,0,1.19,0,.17.17,0,0,1,.19.19c0,.12,0,.22-.15.23a11.82,11.82,0,0,1-1.51,0C223.32-165.75,223.25-165.83,223.26-166.07Zm.56,2.14c-.24,0-.32-.1-.3-.34l0-.76c0-.24.1-.31.34-.29l1.62.1c.25,0,.32.1.3.34l-.05.76c0,.24-.1.31-.34.29Zm1.39-.32c.07,0,.09,0,.1-.08l0-.4c0-.07,0-.09-.08-.1l-1.11-.07c-.07,0-.1,0-.1.08l0,.4c0,.07,0,.09.09.1Zm1.09-2.3c.13,0,.17.11.17.23s-.07.21-.19.2l-.36,0,0,.6a.22.22,0,0,1-.26.19.22.22,0,0,1-.23-.23l.1-1.6a.22.22,0,0,1,.26-.19c.13,0,.24.08.23.22l0,.58Z"/></clipPath><clipPath id="clip-path-7"><path class="cls-1" d="M223-160.85a.18.18,0,0,1-.16-.22.19.19,0,0,1,.19-.2l2.89.19a.18.18,0,0,1,.16.22c0,.12-.07.21-.19.2l-1.2-.08-.06,1a.22.22,0,0,1-.26.19c-.13,0-.24-.08-.23-.23l.06-1Zm2.72-.89c0,.24-.1.31-.35.3l-1.75-.12c-.24,0-.32-.1-.31-.34l.07-1.07a.22.22,0,0,1,.25-.19c.13,0,.24.09.23.22v.26l1.44.09,0-.25a.21.21,0,0,1,.25-.19c.12,0,.24.08.23.22Zm-.53-.13s.06,0,.06,0l0-.26-1.45-.09,0,.25a.05.05,0,0,0,.06.06Z"/></clipPath><clipPath id="clip-path-8"><path class="cls-1" d="M222.91-158.44a.17.17,0,0,1-.16-.21c0-.1.07-.2.18-.19l.91.06c.24,0,.31.1.3.34l0,.38c0,.52-.16.68-1.19,1.12a.22.22,0,0,1-.28-.1.2.2,0,0,1,.08-.29,2.63,2.63,0,0,0,.88-.45h-.81a.18.18,0,0,1-.18-.2c0-.1,0-.2.17-.2l.88,0v-.16c0-.06,0-.09-.08-.09Zm.49,3c-.24,0-.32-.1-.3-.34l.05-.73c0-.25.1-.32.34-.3l1.75.11c.25,0,.32.1.31.35l-.05.73c0,.24-.1.31-.35.29Zm1.53-.31c.07,0,.09,0,.09-.08l0-.38c0-.06,0-.09-.08-.09l-1.25-.09c-.07,0-.09,0-.1.08l0,.38c0,.07,0,.09.08.1Zm-.05-2.33.33,0,0-.63c0-.13.12-.18.24-.18a.21.21,0,0,1,.21.21l-.11,1.65a.2.2,0,0,1-.24.18.21.21,0,0,1-.21-.21l0-.61-.33,0,0,.6a.2.2,0,0,1-.24.18.21.21,0,0,1-.21-.21l.11-1.62c0-.13.12-.18.24-.17a.2.2,0,0,1,.21.2Z"/></clipPath><clipPath id="clip-path-9"><path class="cls-1" d="M222.29-152.54c0-.11.08-.2.19-.19h.21l.09-1.41h-.18c-.12,0-.17-.1-.16-.21s.07-.2.18-.19l1.66.11a.18.18,0,0,1,.16.21c0,.11-.07.2-.19.19h-.15l-.09,1.36h.2a.18.18,0,0,1,.19.18c0,.12,0,.22-.16.23a14.55,14.55,0,0,1-1.79,0C222.34-152.33,222.29-152.43,222.29-152.54Zm1.25-.14.1-1.39-.4,0-.09,1.4Zm.89-.47a.18.18,0,0,1-.16-.22c0-.12.07-.21.19-.2l.32,0,.06-.91a.22.22,0,0,1,.26-.19c.13,0,.24.08.23.22l-.19,2.93a.21.21,0,0,1-.26.19.21.21,0,0,1-.23-.22l.11-1.6Z"/></clipPath><clipPath id="clip-path-10"><path class="cls-1" d="M222.08-147.56c-.12,0-.16-.1-.16-.21s.07-.21.19-.2l2.89.19a.18.18,0,0,1,.16.22c0,.11-.07.21-.19.2Zm2.85-.93a.22.22,0,0,1-.29.07c-.24-.15-.46-.3-.65-.44s-.33-.31-.34-.4h0c0,.1-.15.22-.39.36l-.7.36a.22.22,0,0,1-.29-.12c0-.1,0-.24.07-.29l.69-.36a.71.71,0,0,0,.41-.62v-.2a.23.23,0,0,1,.27-.2.22.22,0,0,1,.23.23v.2a.7.7,0,0,0,.32.67c.23.17.44.31.65.45S225-148.58,224.93-148.49Z"/></clipPath><clipPath id="clip-path-11"><path class="cls-1" d="M217.27-169.74c.06.14,0,.27-.09.33l-1.55.65.46,1.3a1.41,1.41,0,0,1,.71-.61,1.27,1.27,0,0,1,1.76.73l0,.06a1.41,1.41,0,0,1-.88,1.93,2.38,2.38,0,0,1-1.37.18.27.27,0,0,1-.23-.34.25.25,0,0,1,.31-.23,1.92,1.92,0,0,0,1.06-.13A.83.83,0,0,0,218-167v0a.79.79,0,0,0-1.17-.44,1.18,1.18,0,0,0-.61.57.4.4,0,0,1-.22.22c-.14.06-.27,0-.32-.1l-.62-1.74c-.12-.36-.07-.48.26-.62l1.65-.7c.14-.06.25,0,.3.16"/></clipPath><clipPath id="clip-path-12"><path class="cls-1" d="M220.8-168.09a1.16,1.16,0,0,1-1.16-1.15,1.16,1.16,0,0,1,1.16-1.16,1.16,1.16,0,0,1,1.16,1.16,1.16,1.16,0,0,1-1.16,1.15m0-1.74a.58.58,0,0,0-.58.59.58.58,0,0,0,.58.58.58.58,0,0,0,.58-.58.58.58,0,0,0-.58-.59"/></clipPath><clipPath id="clip-path-13"><path class="cls-1" d="M220.39-167h0a2.08,2.08,0,0,1-1.83-1.84.28.28,0,0,1,.25-.32.29.29,0,0,1,.32.26,1.52,1.52,0,0,0,1.33,1.32.28.28,0,0,1,.25.32.29.29,0,0,1-.28.26"/></clipPath><clipPath id="clip-path-14"><path class="cls-1" d="M218.81-169.37h0a.28.28,0,0,1-.25-.32,2.05,2.05,0,0,1,1.83-1.83.28.28,0,0,1,.32.25.28.28,0,0,1-.25.32,1.52,1.52,0,0,0-1.33,1.33.29.29,0,0,1-.28.25"/></clipPath><clipPath id="clip-path-15"><path class="cls-1" d="M222.79-169.37a.3.3,0,0,1-.29-.25,1.49,1.49,0,0,0-1.32-1.33.3.3,0,0,1-.26-.32.28.28,0,0,1,.32-.25,2.07,2.07,0,0,1,1.84,1.83.3.3,0,0,1-.26.32h0"/></clipPath><clipPath id="clip-path-16"><path class="cls-1" d="M221.21-167a.3.3,0,0,1-.29-.26.3.3,0,0,1,.26-.32,1.49,1.49,0,0,0,1.32-1.32.3.3,0,0,1,.32-.26.29.29,0,0,1,.26.32,2.09,2.09,0,0,1-1.84,1.84h0"/></clipPath><clipPath id="clip-path-17"><path class="cls-1" d="M224-170.16a.29.29,0,0,1-.27-.17.29.29,0,0,1,.15-.38l2.68-1.16a.29.29,0,0,1,.38.15.28.28,0,0,1-.15.38l-2.68,1.16-.11,0"/></clipPath><clipPath id="clip-path-18"><path class="cls-1" d="M225.44-169.28a.28.28,0,0,1-.28-.27l-.19-2.91a.29.29,0,0,1,.27-.31.28.28,0,0,1,.3.27l.19,2.91a.29.29,0,0,1-.27.31h0"/></clipPath><clipPath id="clip-path-19"><polygon class="cls-1" points="250.21 -142.9 229.06 -163.04 229.57 -168.66 251.32 -145.95 251.32 -142.18 250.21 -142.9"/></clipPath><clipPath id="clip-path-20"><polygon class="cls-1" points="249.57 -134.5 228.41 -154.64 228.93 -160.25 250.68 -137.54 250.68 -133.78 249.57 -134.5"/></clipPath><clipPath id="clip-path-21"><polygon class="cls-1" points="248.83 -126.31 227.67 -146.45 228.19 -152.06 249.94 -129.36 249.94 -125.58 248.83 -126.31"/></clipPath></defs><title>서울바이오허브</title><g id="Layer_1" data-name="Layer 1"><circle class="cls-2" cx="68.03" cy="68.03" r="57.59"/><path d="M39.44,85v2.32a3.75,3.75,0,0,0,1.19,3c.6.64,1.21,1.24,1.72,1.71a.64.64,0,0,1,0,.93.66.66,0,0,1-.92.07c-.46-.42-1-.93-1.54-1.53-.87-.91-1.08-1.27-1.16-1.59h0c-.08.35-.29.71-1.16,1.62-.57.6-1.1,1.13-1.74,1.71a.66.66,0,0,1-1-.12.64.64,0,0,1,0-.93c.66-.61,1.29-1.23,1.89-1.87a3.82,3.82,0,0,0,1.19-3V85c0-.44.36-.64.75-.64S39.44,84.59,39.44,85Zm6.38-.71V96c0,.44-.36.63-.75.63a.65.65,0,0,1-.73-.63V89H42.05c-.37,0-.54-.28-.54-.63s.17-.64.54-.64h2.29V84.32a.65.65,0,0,1,.73-.63C45.46,83.69,45.82,83.88,45.82,84.32Z"/><path d="M59,93.12v1.11c0,.86-.28,1.13-1.16,1.13H51.46c-.16,0-.24.06-.24.22v.62c0,.15.08.22.24.22h7.35c.33,0,.49.29.49.59s-.16.58-.49.58H50.92c-.87,0-1.15-.27-1.15-1.12V95.36c0-.86.28-1.13,1.15-1.13h6.35c.17,0,.24-.08.24-.23v-.6c0-.16-.07-.24-.24-.24H50.22c-.33,0-.48-.27-.48-.58s.15-.59.48-.59h3.42V90.76H48.58c-.35,0-.51-.27-.51-.62s.16-.59.51-.59H60.17c.35,0,.51.26.51.59s-.16.62-.51.62H55.11V92h2.7C58.69,92,59,92.26,59,93.12Zm0-6.88c0,1.68-1.68,2.42-4.56,2.42s-4.57-.74-4.57-2.42,1.68-2.4,4.57-2.4S58.94,84.57,58.94,86.24Zm-7.64,0c0,.78.93,1.23,3.08,1.23s3.07-.45,3.07-1.23S56.52,85,54.38,85,51.3,85.46,51.3,86.24Z"/><path d="M63.73,85.21v2.58h3.49V85.21a.74.74,0,0,1,1.47,0V92.1c0,.85-.28,1.12-1.15,1.12H63.4c-.88,0-1.16-.27-1.16-1.12V85.21a.65.65,0,0,1,.73-.64A.68.68,0,0,1,63.73,85.21ZM64,92h2.87c.22,0,.31-.08.31-.32V89.06H63.73v2.57C63.73,91.87,63.8,92,64,92Zm8.36-7.63v3.9h1.66c.39,0,.55.29.55.65s-.16.66-.55.66H72.4V96c0,.44-.36.63-.75.63s-.75-.19-.75-.63V84.32c0-.44.36-.63.75-.63S72.4,83.88,72.4,84.32Z"/><path d="M83,88.94c0,2.92-1.2,4.49-3.52,4.49s-3.52-1.57-3.52-4.49,1.19-4.49,3.52-4.49S83,86,83,88.94Zm-5.58,0c0,2,.58,3.17,2.06,3.17S81.5,91,81.5,88.94s-.59-3.16-2.07-3.16S77.37,86.9,77.37,88.94Zm9.34-4.62V96c0,.44-.36.63-.77.63s-.75-.19-.75-.63V84.32c0-.44.38-.63.75-.63S86.71,83.88,86.71,84.32Z"/><path d="M100,87.88c0,2.1-1.45,3.42-3.88,3.63v2.57h5c.36,0,.53.28.53.63s-.17.65-.53.65H89.57c-.36,0-.53-.3-.53-.65s.17-.63.53-.63h5V91.51c-2.45-.21-3.86-1.53-3.86-3.63,0-2.3,1.71-3.67,4.61-3.67S100,85.58,100,87.88Zm-7.74,0c0,1.35,1,2.39,3.11,2.39s3.11-1,3.11-2.39-1-2.39-3.11-2.39S92.24,86.53,92.24,87.88Z"/><path d="M59.93,102.3v1.29H62.6c.36,0,.53.29.53.63s-.17.65-.53.65h-7c-.36,0-.53-.3-.53-.65s.17-.63.53-.63h2.84V102.3c0-.44.37-.63.75-.63S59.93,101.86,59.93,102.3Zm2.45,6.5a2.88,2.88,0,0,1-3.2,3,3,3,0,1,1,0-5.92A2.89,2.89,0,0,1,62.38,108.8Zm-5,0a1.83,1.83,0,1,0,1.83-1.74A1.67,1.67,0,0,0,57.35,108.8Zm9-6.47V114c0,.44-.36.63-.75.63a.66.66,0,0,1-.74-.63V108H63.2c-.37,0-.54-.29-.54-.65s.17-.65.54-.65h1.62v-4.32a.66.66,0,0,1,.74-.63C66,101.7,66.31,101.89,66.31,102.33Z"/><path d="M81.17,112.72c0,.35-.17.65-.53.65H69.08c-.36,0-.52-.3-.52-.65s.16-.65.52-.65H80.64C81,112.07,81.17,112.36,81.17,112.72ZM71.76,103v1.82H78V103a.67.67,0,0,1,.74-.63c.39,0,.76.21.76.63v5.35c0,.85-.28,1.12-1.15,1.12H71.41c-.87,0-1.14-.27-1.14-1.12V103a.66.66,0,0,1,.73-.63A.68.68,0,0,1,71.76,103Zm.31,5.21h5.59c.22,0,.31-.09.31-.31V106.1H71.76v1.82C71.76,108.14,71.85,108.23,72.07,108.23Z"/><path class="cls-3" d="M65.74,23.79S42.62,41.77,43.23,42,73,49.21,73,49.21l18.9-16.69Z"/><polygon class="cls-4" points="72.98 49.2 72.98 80.17 81.42 68.31 91.88 32.52 72.98 49.2"/><path d="M70.88,49.62h1.29a.7.7,0,0,1,.5.16.54.54,0,0,1,.17.4.52.52,0,0,1-.12.34.57.57,0,0,1-.24.14.66.66,0,0,1,.35.2.59.59,0,0,1,.11.36.55.55,0,0,1-.08.31.66.66,0,0,1-.22.22.68.68,0,0,1-.26.07l-.31,0H70.88Zm.7.88h.3a.32.32,0,0,0,.22-.06.21.21,0,0,0,.06-.16.18.18,0,0,0-.06-.15.32.32,0,0,0-.22-.06h-.3Zm0,.87h.35a.4.4,0,0,0,.25-.06.21.21,0,0,0,.07-.17.19.19,0,0,0-.07-.16.4.4,0,0,0-.25-.06h-.35Z"/><path d="M71.55,52.74h.62v.42h-.62Zm0,.61h.62V55h-.62Z"/><path d="M70.93,57.28a.85.85,0,0,1,.25-.61,1,1,0,0,1,.68-.24.91.91,0,0,1,.73.29.76.76,0,0,1,.2.55.81.81,0,0,1-.25.62.92.92,0,0,1-.68.23,1,1,0,0,1-.63-.19A.81.81,0,0,1,70.93,57.28Zm.63,0a.47.47,0,0,0,.08.32.27.27,0,0,0,.44,0,.45.45,0,0,0,.09-.32.49.49,0,0,0-.09-.32.26.26,0,0,0-.21-.1.3.3,0,0,0-.23.11A.44.44,0,0,0,71.56,57.28Z"/><path d="M70.92,59.59h.64l.31,1,.33-1h.62l-.68,1.62h-.55Z"/><path class="cls-5" d="M65.66,32.92h-3.8a.91.91,0,0,0,0,1.81h3.8a.91.91,0,1,0,0-1.81Z"/><path class="cls-5" d="M70.23,33.44l-1.89-3.3a.91.91,0,0,0-1.24-.33A.9.9,0,0,0,66.77,31l1.89,3.3a.9.9,0,1,0,1.57-.9Z"/><path class="cls-5" d="M72.05,37.55l2-3.25a.9.9,0,0,0-.3-1.24.92.92,0,0,0-1.25.3l-2,3.26a.9.9,0,0,0,1.55.93Z"/><path class="cls-5" d="M62.64,40.8l2-3.25a.92.92,0,0,0-.31-1.24.9.9,0,0,0-1.24.3l-2,3.26a.9.9,0,1,0,1.55.93Z"/><path class="cls-5" d="M69.4,41.24h3.8a.91.91,0,1,0,0-1.81H69.4a.91.91,0,0,0,0,1.81Z"/><path class="cls-5" d="M64.83,40.8l1.93,3.28a.9.9,0,0,0,1.24.31.89.89,0,0,0,.32-1.23l-1.93-3.28a.91.91,0,0,0-1.56.92Z"/><polygon class="cls-6" points="53.9 73.53 72.98 80.17 72.98 49.2 43.23 41.97 53.9 73.53"/></g></svg>