<svg xmlns="http://www.w3.org/2000/svg" viewBox="0 0 136.06 136.06"><defs><style>.cls-1{fill:#c6e0b4;}.cls-2{fill:#009747;}.cls-3{fill:#fff;}</style></defs><title>서울도시건축비엔날레</title><g id="Layer_1" data-name="Layer 1"><circle class="cls-1" cx="68.03" cy="68.03" r="57.59"/><circle class="cls-2" cx="67.55" cy="51.98" r="28.8"/><path class="cls-3" d="M51.6,40.19a.5.5,0,0,1-.35-.15.48.48,0,0,1,0-.7L61.7,28.88a.51.51,0,0,1,.71,0,.5.5,0,0,1,0,.71L52,40A.51.51,0,0,1,51.6,40.19Z"/><path class="cls-3" d="M62.69,43.31a.53.53,0,0,1-.46-.3L56.37,29.44a.5.5,0,1,1,.92-.4l5.86,13.57a.5.5,0,0,1-.26.66A.65.65,0,0,1,62.69,43.31Z"/><path class="cls-3" d="M86.89,57.38a.52.52,0,0,1-.24-.05c-4.34-2.33-6.47-4.74-6.31-7.16.25-3.84,6.12-6.1,6.37-6.19a.5.5,0,1,1,.35.93S81.55,47,81.34,50.23c-.13,2,1.82,4.09,5.78,6.21a.5.5,0,0,1,.21.68A.49.49,0,0,1,86.89,57.38Z"/><path d="M32.61,84.19v2.33a3.72,3.72,0,0,0,1.19,2.94c.6.65,1.21,1.25,1.73,1.71a.65.65,0,0,1-.05.93.67.67,0,0,1-.92.08c-.46-.42-1-.93-1.54-1.53-.87-.92-1.08-1.28-1.16-1.6h0c-.08.35-.29.71-1.16,1.63-.57.6-1.1,1.12-1.74,1.71a.67.67,0,0,1-.95-.12.64.64,0,0,1,0-.93c.66-.62,1.29-1.23,1.89-1.88a3.79,3.79,0,0,0,1.19-2.94V84.19c0-.44.36-.63.75-.63S32.61,83.75,32.61,84.19ZM39,83.48V95.2c0,.43-.36.63-.75.63a.65.65,0,0,1-.73-.63v-7H35.22c-.37,0-.54-.29-.54-.63s.17-.65.54-.65h2.29V83.48a.65.65,0,0,1,.73-.63C38.63,82.85,39,83.05,39,83.48Z"/><path d="M52.14,92.28v1.11c0,.86-.28,1.13-1.16,1.13H44.63c-.16,0-.24.06-.24.23v.61a.21.21,0,0,0,.24.23H52a.51.51,0,0,1,.49.58c0,.32-.16.59-.49.59H44.09c-.87,0-1.15-.27-1.15-1.13V94.52c0-.86.28-1.13,1.15-1.13h6.35c.17,0,.24-.07.24-.22v-.6c0-.17-.07-.24-.24-.24h-7c-.33,0-.48-.27-.48-.59s.15-.58.48-.58h3.42V89.93H41.75c-.34,0-.51-.27-.51-.62s.17-.6.51-.6H53.34c.35,0,.51.27.51.6s-.16.62-.51.62H48.28v1.23H51C51.86,91.16,52.14,91.43,52.14,92.28Zm0-6.87c0,1.68-1.68,2.41-4.56,2.41S43,87.09,43,85.41,44.66,83,47.55,83,52.11,83.74,52.11,85.41Zm-7.64,0c0,.78.93,1.23,3.08,1.23s3.07-.45,3.07-1.23-.93-1.22-3.07-1.22S44.47,84.63,44.47,85.41Z"/><path d="M65.75,84.34c0,.35-.16.65-.52.65h-6.8c-.23,0-.32.07-.32.3v3.4c0,.23.09.31.32.31h6.95c.36,0,.52.29.52.64s-.16.65-.52.65H62v2.95h5c.36,0,.52.29.52.63s-.16.65-.52.65H55.42c-.36,0-.52-.3-.52-.65s.16-.63.52-.63h5V90.29h-2.7c-.87,0-1.14-.27-1.14-1.13V84.82c0-.86.27-1.13,1.14-1.13h7.48C65.59,83.69,65.75,84,65.75,84.34Z"/><path d="M73.74,84.17v2.27a3.75,3.75,0,0,0,1.21,3c.6.65,1.22,1.25,1.73,1.73a.64.64,0,0,1,0,.93.67.67,0,0,1-.93.07c-.47-.43-1-.94-1.55-1.54-.87-.9-1.12-1.3-1.18-1.63h0c-.07.37-.31.76-1.18,1.66-.58.6-1.12,1.12-1.76,1.72a.71.71,0,0,1-1-1c.68-.63,1.32-1.24,1.92-1.89a3.78,3.78,0,0,0,1.2-3V84.17c0-.43.38-.63.77-.63S73.74,83.74,73.74,84.17Zm6.14-.69V95.2c0,.43-.36.63-.77.63a.67.67,0,0,1-.75-.63V83.48a.67.67,0,0,1,.75-.63C79.52,82.85,79.88,83.05,79.88,83.48Z"/><path d="M93.63,83.48v8.89c0,.44-.36.63-.74.63s-.75-.19-.75-.63V87.66h-3.3c-.48,1.11-1.79,1.88-5.08,3.53a.71.71,0,0,1-.9-.35.65.65,0,0,1,.24-.91c4.18-2.06,4.49-2.42,4.49-3.88v-.7c0-.23-.07-.3-.31-.3H83.46c-.37,0-.54-.3-.54-.65s.17-.66.54-.66h4.48c.87,0,1.15.27,1.15,1.13V86.1c0,.1,0,.19,0,.28h3.06v-2.9c0-.43.36-.63.75-.63A.66.66,0,0,1,93.63,83.48Zm-7.32,8.89v2.54c0,.23.08.3.32.3h6.82c.37,0,.54.3.54.66s-.17.65-.54.65H86c-.87,0-1.15-.27-1.15-1.13v-3c0-.43.36-.63.76-.63A.66.66,0,0,1,86.31,92.37Z"/><path d="M106.79,93.44v2.81c0,.43-.38.63-.77.63a.65.65,0,0,1-.73-.63V93.87c0-.22-.09-.31-.32-.31H97.91c-.36,0-.51-.29-.51-.62s.15-.63.51-.63h3.53V90.87H96.38c-.34,0-.51-.28-.51-.61s.17-.63.51-.63H108c.35,0,.52.28.52.63s-.17.61-.52.61h-5.06v1.44h2.72C106.5,92.31,106.79,92.58,106.79,93.44ZM103,83.21V84h3.58c.36,0,.53.29.53.63s-.17.62-.53.62H103v.22c0,.56.33.92,1.3,1.29s1.91.68,2.72.93a.59.59,0,0,1,.33.8.63.63,0,0,1-.81.39c-.74-.23-1.53-.51-2.45-.84-1.28-.47-1.73-.84-1.85-1.2h0c-.11.37-.57.76-1.86,1.23-.9.33-1.7.61-2.45.84a.64.64,0,0,1-.81-.39.6.6,0,0,1,.33-.83c.81-.25,1.7-.55,2.72-.93s1.3-.73,1.3-1.29v-.22H97.83c-.37,0-.53-.29-.53-.62s.16-.63.53-.63h3.58v-.83c0-.43.38-.63.77-.63S103,82.78,103,83.21Z"/><path d="M43.54,102.37V105h3.53v-2.59a.65.65,0,0,1,.73-.63c.38,0,.74.19.74.63v6.92c0,.85-.29,1.12-1.16,1.12H43.21c-.87,0-1.16-.27-1.16-1.12v-6.92c0-.44.36-.63.74-.63S43.54,101.93,43.54,102.37Zm.31,6.77h2.9c.23,0,.32-.08.32-.32v-2.58H43.54v2.58C43.54,109.06,43.61,109.14,43.85,109.14Zm8.71-7.64v11.71c0,.43-.36.63-.76.63s-.76-.2-.76-.63V101.5a.68.68,0,0,1,.76-.64C52.2,100.86,52.56,101.06,52.56,101.5Z"/><path d="M64,101.53v8.27c0,.4-.34.58-.69.58s-.7-.18-.7-.58v-4.06H61a2.85,2.85,0,0,1-3,2.77c-2.09,0-3-1.49-3-3.44s1-3.42,3-3.42a2.86,2.86,0,0,1,3,2.83h1.52v-3c0-.41.34-.59.7-.59A.61.61,0,0,1,64,101.53Zm-7.57,3.54c0,1.17.46,2.15,1.66,2.15s1.65-1,1.65-2.15-.45-2.13-1.65-2.13S56.38,103.91,56.38,105.07ZM59,110.38v2.54c0,.23.07.3.31.3h7.13c.38,0,.55.3.55.66s-.17.65-.55.65h-7.8c-.87,0-1.16-.27-1.16-1.13v-3c0-.43.36-.63.77-.63A.67.67,0,0,1,59,110.38Zm7.63-8.93v9c0,.39-.35.58-.71.58a.62.62,0,0,1-.69-.58v-9a.61.61,0,0,1,.69-.59C66.31,100.86,66.66,101,66.66,101.45Z"/><path d="M70.66,102v3.55c0,.23.09.3.31.3a38.12,38.12,0,0,0,5.21-.31c.35,0,.57.21.61.55s-.1.7-.43.72a42,42,0,0,1-6.06.34c-.87,0-1.16-.27-1.16-1.13v-4a.66.66,0,0,1,.75-.65C70.3,101.33,70.66,101.53,70.66,102Zm7.42,6.62c.87,0,1.15.27,1.15,1.12v1.38c0,.86-.28,1.13-1.15,1.13H72.42c-.23,0-.32.08-.32.32v.64c0,.23.09.32.32.32h6.65c.34,0,.49.28.49.6s-.15.6-.49.6H71.8c-.87,0-1.16-.27-1.16-1.13V112.2c0-.86.29-1.13,1.16-1.13h5.65c.24,0,.31-.07.31-.31v-.65c0-.22-.07-.3-.31-.3H71.11c-.35,0-.5-.28-.5-.61s.15-.6.5-.6Zm1.15-7.1v2.2h1.65c.39,0,.56.3.56.65s-.17.66-.56.66H79.23v2.31c0,.44-.36.63-.75.63s-.75-.19-.75-.63V101.5c0-.44.36-.64.75-.64S79.23,101.06,79.23,101.5Z"/><path d="M87.73,103v2.69c0,.85-.29,1.13-1.16,1.13H84.39c-.24,0-.31.07-.31.3V109c0,.22.07.3.31.3a29.82,29.82,0,0,0,3.82-.23.52.52,0,0,1,.58.54c0,.36-.09.68-.42.74a33.94,33.94,0,0,1-4.59.24c-.87,0-1.16-.27-1.16-1.13v-2.77c0-.86.29-1.12,1.16-1.12H86c.22,0,.31-.09.31-.31v-1.8c0-.23-.09-.3-.31-.3H83.15c-.38,0-.53-.3-.53-.65s.15-.64.53-.64h3.42C87.44,101.89,87.73,102.16,87.73,103Zm3.54-1.41v11a.62.62,0,0,1-.69.59c-.36,0-.71-.18-.71-.59v-5.93H88.78c-.35,0-.5-.27-.5-.65s.15-.64.5-.64h1.09v-3.8c0-.41.35-.59.71-.59A.62.62,0,0,1,91.27,101.6Zm2.7-.15v11.8c0,.41-.34.59-.7.59a.61.61,0,0,1-.69-.59v-11.8a.61.61,0,0,1,.69-.59C93.63,100.86,94,101,94,101.45Z"/><path class="cls-3" d="M56,72.06a.5.5,0,0,1-.39-.18.51.51,0,0,1,.08-.71l8.84-7.06a.5.5,0,0,1,.62.78L56.27,72A.45.45,0,0,1,56,72.06Z"/><path class="cls-3" d="M80,73.5l-.12,0-11-2.87a.5.5,0,0,1-.35-.61.48.48,0,0,1,.61-.35l10.94,2.86a.5.5,0,0,1-.13,1Z"/><path class="cls-3" d="M86.89,48.82a.51.51,0,0,1-.35-.13L78.3,40.93a.49.49,0,0,1,0-.7.5.5,0,0,1,.71,0L87.23,48a.49.49,0,0,1,0,.7A.48.48,0,0,1,86.89,48.82Z"/><path class="cls-3" d="M51.62,59.6h-.09c-3.78-.08-6.32-5.67-6.43-5.91a.5.5,0,0,1,.25-.66.49.49,0,0,1,.66.25s2.4,5.26,5.55,5.32h.06c1.85,0,3.69-1.79,5.46-5.34a.5.5,0,0,1,.9.45C56,57.62,53.88,59.6,51.62,59.6Z"/><path class="cls-3" d="M73.9,75.37a.52.52,0,0,1-.35-.14.5.5,0,0,1,0-.71c.33-.35,8.23-8.55,8.88-9.19a.5.5,0,0,1,.7.71c-.64.63-8.78,9.09-8.86,9.17A.52.52,0,0,1,73.9,75.37Z"/></g></svg>