<svg xmlns="http://www.w3.org/2000/svg" xmlns:xlink="http://www.w3.org/1999/xlink" viewBox="0 0 136.06 136.06"><defs><style>.cls-1{fill:none;}.cls-2{fill:#ffdebb;}.cls-3{fill:#aa7e44;}.cls-4{fill:#f9be7f;}.cls-5{clip-path:url(#clip-path);}.cls-6{fill:#bfbfbf;}.cls-7{fill:#d6d4d4;}.cls-8{fill:#a09c9c;}.cls-9{fill:#4a73af;}.cls-10{fill:#9e9593;}.cls-11{fill:#5793f2;}.cls-12{opacity:0.54;}.cls-13{fill:#dda16b;}</style><clipPath id="clip-path"><path class="cls-1" d="M37.28,69.28l6.2-23.84a10.33,10.33,0,0,1,3.39-5.35c3.49-2.92,10.52-7.41,21.61-6.71h.09c.79,0,12.43.14,19,6.46a5,5,0,0,1,1.23,1.9l9,24.69a1.8,1.8,0,0,1-1.67,2.41c-10.41.09-49.52.92-57.69,1.72A1,1,0,0,1,37.28,69.28Z"/></clipPath></defs><title>문화비축기지</title><g id="Layer_1" data-name="Layer 1"><circle class="cls-2" cx="68.03" cy="68.03" r="57.59"/><path d="M40.19,98.28c0,.33-.16.63-.52.63H34.8V101c0,.39-.33.57-.75.57s-.73-.18-.73-.57v-2.1H28.11c-.36,0-.53-.3-.53-.63s.17-.63.53-.63H39.67C40,97.65,40.19,97.93,40.19,98.28Zm-9.4,2.48v2c0,.22.1.31.32.31h7.1c.36,0,.53.29.53.63s-.17.65-.53.65H30.43c-.87,0-1.14-.27-1.14-1.13v-2.5c0-.44.36-.63.75-.63S30.79,100.32,30.79,100.76Zm7.68-8.44v2.83c0,.86-.29,1.13-1.16,1.13H30.46c-.87,0-1.14-.27-1.14-1.13V92.32c0-.86.27-1.13,1.14-1.13h6.85C38.18,91.19,38.47,91.46,38.47,92.32Zm-7.66.45V94.7c0,.24.08.32.32.32h5.52c.24,0,.32-.08.32-.32V92.77c0-.24-.08-.32-.32-.32H31.13C30.89,92.45,30.81,92.53,30.81,92.77Z"/><path d="M49.93,100.62c0,.35-.12.65-.45.68-2.29.21-5,.28-7.74.28-.37,0-.53-.3-.53-.64s.16-.62.53-.62h3.09V98.83c-1.56-.19-2.48-1-2.48-2.26,0-1.42,1.2-2.32,3.21-2.32s3.22.9,3.22,2.32c0,1.23-.92,2.07-2.48,2.26v1.43c1,0,2-.11,3.08-.2C49.72,100,49.9,100.27,49.93,100.62Zm-3.61-9.28v.87H49c.36,0,.52.3.52.65s-.16.63-.52.63H42c-.36,0-.53-.3-.53-.63s.17-.65.53-.65h2.83v-.87a.67.67,0,0,1,.75-.63C46,90.71,46.32,90.91,46.32,91.34Zm-2.6,5.23c0,.66.6,1.15,1.84,1.15s1.85-.49,1.85-1.15-.6-1.16-1.85-1.16S43.72,95.89,43.72,96.57Zm8.45-5.29v4.37h1.46c.39,0,.55.29.55.65S54,97,53.63,97H52.17V103c0,.42-.36.62-.75.62s-.74-.2-.74-.62V91.28c0-.42.36-.61.74-.61S52.17,90.86,52.17,91.28Z"/><path d="M57.2,92.17v2.6h3.52v-2.6c0-.44.36-.63.74-.63a.66.66,0,0,1,.74.63v6.92c0,.85-.29,1.13-1.16,1.13H56.87c-.88,0-1.16-.28-1.16-1.13V92.17c0-.44.36-.63.74-.63S57.2,91.73,57.2,92.17Zm.31,6.77h2.9c.22,0,.31-.08.31-.32V96H57.2v2.58C57.2,98.86,57.27,98.94,57.51,98.94Zm8.71-7.64V103c0,.43-.36.63-.77.63a.67.67,0,0,1-.75-.63V91.3c0-.44.38-.63.75-.63S66.22,90.86,66.22,91.3Z"/><path d="M79.47,101.25v2.81c0,.43-.37.63-.76.63a.66.66,0,0,1-.74-.63v-2.37c0-.23-.09-.32-.31-.32H70.6c-.36,0-.51-.28-.51-.61s.15-.63.51-.63h3.53V98.68H69.07c-.35,0-.51-.28-.51-.61s.16-.63.51-.63H80.66c.34,0,.51.28.51.63s-.17.61-.51.61H75.6v1.45h2.72C79.19,100.13,79.47,100.39,79.47,101.25ZM75.63,91v.82h3.59c.36,0,.52.29.52.63s-.16.62-.52.62H75.63v.22c0,.56.33.92,1.3,1.29s1.91.68,2.72.94a.57.57,0,0,1,.33.79.62.62,0,0,1-.81.39c-.73-.22-1.53-.51-2.45-.84-1.27-.46-1.72-.84-1.84-1.2h0c-.1.37-.57.77-1.86,1.23-.9.33-1.7.62-2.45.84a.63.63,0,0,1-.81-.39.59.59,0,0,1,.33-.82c.81-.26,1.7-.56,2.72-.94s1.31-.73,1.31-1.29V93.1H70.51c-.36,0-.53-.29-.53-.62s.17-.63.53-.63H74.1V91c0-.44.37-.64.76-.64S75.63,90.59,75.63,91Z"/><path d="M89.27,92.81v1.7c0,2.51-.73,3.33-5.34,6.16a.71.71,0,0,1-.92-.26.68.68,0,0,1,.12-1c4.25-2.58,4.64-3.07,4.64-5V93.29c0-.22-.07-.3-.32-.3h-3.9c-.37,0-.54-.3-.54-.64s.17-.66.54-.66h4.57C89,91.69,89.27,92,89.27,92.81Zm4.27-1.51V103c0,.43-.36.63-.77.63A.66.66,0,0,1,92,103V91.3c0-.44.37-.63.75-.63S93.54,90.86,93.54,91.3Z"/><path d="M104.07,92.35c0,.34-.16.64-.52.64h-2.47v1.44a3.52,3.52,0,0,0,1.16,2.92c.63.64,1.26,1.24,1.76,1.66a.64.64,0,0,1,0,.93.64.64,0,0,1-.92.09c-.43-.39-1-.91-1.59-1.51-.86-.87-1.07-1.23-1.13-1.55h0c-.08.35-.27.71-1.14,1.58-.6.6-1.18,1.15-1.81,1.71a.67.67,0,0,1-.94-.13.65.65,0,0,1,0-.94c.69-.61,1.3-1.2,1.94-1.84a3.54,3.54,0,0,0,1.15-2.92V93H97c-.37,0-.54-.3-.54-.64s.17-.65.54-.65h6.54C103.91,91.7,104.07,92,104.07,92.35Zm3.12-1V103c0,.43-.36.63-.76.63a.66.66,0,0,1-.75-.63V91.3c0-.44.37-.63.75-.63S107.19,90.86,107.19,91.3Z"/><path class="cls-3" d="M97.85,67.68c0,3.86-13.57,8.26-30.3,8.26s-30.27-2.8-30.27-6.66S50.81,62,67.55,62,97.85,63.81,97.85,67.68Z"/><path class="cls-4" d="M37.28,69.28l6.2-23.84a10.33,10.33,0,0,1,3.39-5.35c3.49-2.92,10.52-7.41,21.61-6.71h.09c.79,0,12.43.14,19,6.46a5,5,0,0,1,1.23,1.9l9,24.69a1.8,1.8,0,0,1-1.67,2.41c-10.41.09-22.73-7.3-57.69,1.72A1,1,0,0,1,37.28,69.28Z"/><g class="cls-5"><path class="cls-3" d="M40.36,49.22a38.61,38.61,0,0,1,15.15-9.16,40.26,40.26,0,0,1,15.71-1.79A55.86,55.86,0,0,1,92,44.5l0-.06A55.83,55.83,0,0,0,71.23,38.2,40.46,40.46,0,0,0,55.48,40a38.82,38.82,0,0,0-15.17,9.18l-.27.26,0,.06A2,2,0,0,0,40.36,49.22Z"/><path class="cls-3" d="M40.36,45.76A38.61,38.61,0,0,1,55.51,36.6a40.26,40.26,0,0,1,15.71-1.79A55.86,55.86,0,0,1,92,41L92,41a55.83,55.83,0,0,0-20.78-6.24,40.46,40.46,0,0,0-15.75,1.79,38.82,38.82,0,0,0-15.17,9.18L40,46l0,.06A2,2,0,0,0,40.36,45.76Z"/><path class="cls-3" d="M40.36,52.76a38.69,38.69,0,0,1,15.15-9.15,40.26,40.26,0,0,1,15.71-1.79A55.67,55.67,0,0,1,92,48.05L92,48a56,56,0,0,0-20.78-6.23,40.46,40.46,0,0,0-15.75,1.79,38.82,38.82,0,0,0-15.17,9.18L40,53l0,.07A1.83,1.83,0,0,0,40.36,52.76Z"/><path class="cls-3" d="M53.54,48.65a48.82,48.82,0,0,1,17.77-2.59A62.67,62.67,0,0,1,95,52l0-.06A63,63,0,0,0,71.32,46a49.28,49.28,0,0,0-17.81,2.59,42.55,42.55,0,0,0-15.33,8.94l0,0A42.42,42.42,0,0,1,53.54,48.65Z"/><path class="cls-3" d="M53.09,53.33a51.46,51.46,0,0,1,19.43-3.27,54.21,54.21,0,0,1,24.17,6.72l0-.06A54.34,54.34,0,0,0,72.52,50a51.38,51.38,0,0,0-19.45,3.28A55.76,55.76,0,0,0,35.41,63.75l.05,0A55.77,55.77,0,0,1,53.09,53.33Z"/><path class="cls-3" d="M35.05,67.36A89.2,89.2,0,0,1,58.72,57.6,59.59,59.59,0,0,1,77.62,56a46.8,46.8,0,0,1,20.21,6.47l0,0a46.69,46.69,0,0,0-20.24-6.49,59.73,59.73,0,0,0-18.92,1.6A89.07,89.07,0,0,0,35,67.3a10.4,10.4,0,0,1-1.09.59V68h0A7.18,7.18,0,0,0,35.05,67.36Z"/><path class="cls-3" d="M75.54,62.39a91.54,91.54,0,0,0-22,2.21,87.51,87.51,0,0,0-21,7.34l0,.06a87.8,87.8,0,0,1,21-7.33,91.83,91.83,0,0,1,22-2.21,80.13,80.13,0,0,1,26,4.92l0-.06A79.94,79.94,0,0,0,75.54,62.39Z"/></g><polygon class="cls-6" points="72.93 58.85 71.61 44.47 86.64 49.27 89.7 61.55 72.93 58.85"/><polygon class="cls-7" points="71.61 44.47 66.97 49.12 67.21 61.96 72.93 58.85 71.61 44.47"/><polygon class="cls-8" points="89.7 61.55 86.39 62.45 67.21 61.96 72.93 58.85 89.7 61.55"/><polygon class="cls-9" points="73.34 46.6 74.33 57.06 88.11 59.54 85.78 50.39 73.34 46.6"/><path class="cls-10" d="M86.92,51a.57.57,0,0,1-.18,0L71.88,46.39l-4.49,4.27a.6.6,0,0,1-.86,0,.6.6,0,0,1,0-.86l5-4.76L87.1,49.8a.62.62,0,0,1-.18,1.2Z"/><rect class="cls-10" x="88.07" y="59.07" width="1.22" height="1.18" transform="translate(12.56 134.68) rotate(-78.51)"/><polygon class="cls-10" points="67.45 60.2 66.89 59.11 72.64 56.11 74.44 56.46 74.21 57.66 72.83 57.4 67.45 60.2"/><polygon class="cls-11" points="74.43 48.31 75.27 57.22 87.02 59.34 85.03 51.54 74.43 48.31"/><g class="cls-12"><path class="cls-13" d="M44.18,51.6s-1,1-1.58.79c-.23-.09-.15-.47-.08-.71.42-1.39,1.45-7.06,3.23-9,0,0,3.74-3.89,7.13-4.7a.86.86,0,0,1,1,1.18c-.69,1.54-3.06,5.28-9.65,12.39"/></g><g class="cls-12"><path class="cls-13" d="M94.69,61.13c.19.47.36.95.54,1.42.46,1.24.9,2.47,1.34,3.71a1.27,1.27,0,0,1,.06,1c-.21.38-.71.44-1.14.46L91,67.9a6.74,6.74,0,0,1-1.8-.08.93.93,0,0,1-.74-.53,1,1,0,0,1,.36-.9c.8-.8,1.91-1.22,2.7-2a4.28,4.28,0,0,0,1.19-3.09c0-.46-.08-.93-.07-1.4s.19-1.66.79-1.3a.83.83,0,0,1,.27.29,6.94,6.94,0,0,1,.54,1.05C94.37,60.32,94.53,60.72,94.69,61.13Z"/></g></g></svg>