<svg xmlns="http://www.w3.org/2000/svg" xmlns:xlink="http://www.w3.org/1999/xlink" viewBox="0 0 136.06 136.06"><defs><style>.cls-1{fill:none;clip-rule:evenodd;}.cls-2{clip-path:url(#clip-path);}.cls-3{clip-path:url(#clip-path-2);}.cls-4{clip-path:url(#clip-path-3);}.cls-5{clip-path:url(#clip-path-4);}.cls-6{clip-path:url(#clip-path-5);}.cls-7{clip-path:url(#clip-path-6);}.cls-8{clip-path:url(#clip-path-7);}.cls-9{clip-path:url(#clip-path-8);}.cls-10{clip-path:url(#clip-path-9);}.cls-11{clip-path:url(#clip-path-10);}.cls-12{clip-path:url(#clip-path-11);}.cls-13{clip-path:url(#clip-path-12);}.cls-14{clip-path:url(#clip-path-13);}.cls-15{clip-path:url(#clip-path-14);}.cls-16{clip-path:url(#clip-path-15);}.cls-17{clip-path:url(#clip-path-16);}.cls-18{clip-path:url(#clip-path-17);}.cls-19{clip-path:url(#clip-path-18);}.cls-20{clip-path:url(#clip-path-19);}.cls-21{clip-path:url(#clip-path-20);}.cls-22{clip-path:url(#clip-path-21);}.cls-23{fill:#ffdebb;}.cls-24{fill:#97382a;}.cls-25{fill:#aa5352;}.cls-26{fill:#444;}.cls-27{fill:#de9b76;}</style><clipPath id="clip-path"><polygon class="cls-1" points="-226.32 54.26 -252.31 25.48 -254.78 58.92 -238.06 75.64 -226.32 77.77 -226.32 77.04 -226.32 54.26"/></clipPath><clipPath id="clip-path-2"><polygon class="cls-1" points="-252.31 25.48 -254.78 58.92 -284.52 64.39 -278.25 36.57 -252.31 25.48"/></clipPath><clipPath id="clip-path-3"><polygon class="cls-1" points="-284.52 64.39 -276.8 69.21 -249.31 64.39 -254.78 58.92 -284.52 64.39"/></clipPath><clipPath id="clip-path-4"><polygon class="cls-1" points="-276.8 69.21 -277.52 75.14 -250.77 72.56 -249.31 64.39 -276.8 69.21"/></clipPath><clipPath id="clip-path-5"><polygon class="cls-1" points="-249.31 64.39 -250.77 72.56 -238.06 75.64 -249.31 64.39"/></clipPath><clipPath id="clip-path-6"><path class="cls-1" d="M-257.08,35l.07-1.09c0-.15.13-.2.26-.19s.25.08.24.22l-.06.9c0,.07,0,.09.08.1a7.87,7.87,0,0,0,1.19,0,.19.19,0,0,1,.19.2c0,.11,0,.21-.15.22a13.37,13.37,0,0,1-1.51,0C-257,35.35-257.09,35.27-257.08,35Zm.56,2.14c-.24,0-.32-.1-.3-.34l0-.76c0-.24.11-.31.35-.29l1.62.1c.24,0,.32.1.3.34l-.05.76c0,.24-.1.31-.34.29Zm1.39-.32c.07,0,.09,0,.1-.08l0-.4c0-.07,0-.09-.08-.1l-1.12-.07c-.06,0-.09,0-.09.08l0,.41c0,.06,0,.08.09.09Zm1.09-2.29c.13,0,.17.1.16.22s-.06.21-.19.2l-.35,0,0,.6a.22.22,0,0,1-.26.19c-.13,0-.24-.08-.24-.22l.11-1.61a.22.22,0,0,1,.26-.19c.13,0,.24.08.23.22l0,.58Z"/></clipPath><clipPath id="clip-path-7"><path class="cls-1" d="M-257.38,40.25a.18.18,0,0,1-.16-.22c0-.11.07-.2.19-.19l2.89.19c.12,0,.16.1.16.21s-.07.21-.19.2l-1.2-.08-.06,1a.22.22,0,0,1-.26.19c-.13,0-.24-.08-.23-.22l.06-1Zm2.72-.89c0,.24-.1.31-.35.3l-1.75-.12c-.25,0-.33-.1-.31-.34l.07-1.07a.22.22,0,0,1,.25-.18.21.21,0,0,1,.23.21v.26l1.44.09,0-.25c0-.14.13-.19.25-.19s.24.08.23.22Zm-.53-.13s.06,0,.06,0v-.26l-1.44-.09,0,.26s0,0,.06.06Z"/></clipPath><clipPath id="clip-path-8"><path class="cls-1" d="M-257.43,42.66c-.12,0-.17-.1-.16-.21a.18.18,0,0,1,.18-.19l.9.06c.25,0,.32.1.31.34l0,.38c0,.53-.16.68-1.19,1.12a.21.21,0,0,1-.28-.1.2.2,0,0,1,.07-.29c.59-.24.8-.34.88-.45h-.81a.18.18,0,0,1-.17-.2c0-.1.05-.2.17-.2l.88,0V42.8c0-.06,0-.09-.08-.09Zm.49,3c-.24,0-.32-.1-.3-.34l0-.73c0-.24.11-.32.35-.3l1.75.12c.24,0,.32.1.3.34l0,.73c0,.24-.1.31-.35.29Zm1.53-.31c.06,0,.09,0,.09-.08l0-.38c0-.06,0-.09-.09-.09l-1.25-.08c-.06,0-.09,0-.09.08l0,.37c0,.07,0,.09.08.1Zm-.06-2.33.33,0,0-.63c0-.13.12-.18.23-.18s.23.08.22.21l-.11,1.66c0,.13-.12.18-.24.17s-.22-.07-.21-.2l0-.62-.33,0,0,.6a.21.21,0,0,1-.24.18c-.11,0-.22-.07-.21-.21l.11-1.61a.2.2,0,0,1,.23-.18c.12,0,.22.07.21.2Z"/></clipPath><clipPath id="clip-path-9"><path class="cls-1" d="M-258,48.56c0-.1.07-.2.19-.19l.2,0,.1-1.41-.18,0c-.12,0-.17-.1-.16-.21s.06-.2.18-.19l1.66.11c.12,0,.16.11.16.21s-.07.2-.19.19h-.15l-.1,1.36h.21a.17.17,0,0,1,.18.19.18.18,0,0,1-.15.22,14.55,14.55,0,0,1-1.79,0C-258,48.77-258,48.67-258,48.56Zm1.25-.14.09-1.39-.39,0-.09,1.4A2.54,2.54,0,0,0-256.8,48.42Zm.89-.47a.18.18,0,0,1-.16-.22c0-.11.06-.2.18-.2l.33,0,.06-.92a.22.22,0,0,1,.26-.19c.12,0,.24.08.23.22l-.19,2.93c0,.15-.14.2-.26.2a.22.22,0,0,1-.23-.23l.11-1.6Z"/></clipPath><clipPath id="clip-path-10"><path class="cls-1" d="M-258.26,53.55a.18.18,0,0,1-.16-.22c0-.11.07-.21.19-.2l2.89.19a.18.18,0,0,1,.16.22c0,.11-.07.21-.19.2Zm2.85-.94a.21.21,0,0,1-.29.07,7.32,7.32,0,0,1-.65-.44c-.23-.17-.33-.31-.34-.4h0c0,.1-.14.23-.38.36s-.45.24-.71.36a.22.22,0,0,1-.28-.12.21.21,0,0,1,.07-.29c.22-.11.45-.22.69-.36a.71.71,0,0,0,.41-.62V51c0-.15.14-.2.27-.19a.21.21,0,0,1,.23.22v.2a.69.69,0,0,0,.32.67c.23.17.44.31.65.45S-255.35,52.52-255.41,52.61Z"/></clipPath><clipPath id="clip-path-11"><path class="cls-1" d="M-263.07,31.37c.06.13.05.27-.1.33l-1.54.65.46,1.29a1.41,1.41,0,0,1,.71-.61,1.27,1.27,0,0,1,1.76.73l0,.06a1.41,1.41,0,0,1-.88,1.93,2.38,2.38,0,0,1-1.37.18.29.29,0,0,1-.24-.34.25.25,0,0,1,.32-.23,1.83,1.83,0,0,0,1.06-.13.84.84,0,0,0,.53-1.18l0,0a.79.79,0,0,0-1.16-.44,1.14,1.14,0,0,0-.61.57.4.4,0,0,1-.22.22c-.14.06-.28,0-.32-.1l-.62-1.73c-.12-.37-.07-.49.26-.63l1.65-.69c.14-.06.25,0,.3.16"/></clipPath><clipPath id="clip-path-12"><path class="cls-1" d="M-259.54,33a1.16,1.16,0,0,1-1.16-1.16,1.16,1.16,0,0,1,1.16-1.16,1.16,1.16,0,0,1,1.16,1.16A1.16,1.16,0,0,1-259.54,33m0-1.74a.58.58,0,0,0-.59.58.58.58,0,0,0,.59.58.58.58,0,0,0,.58-.58.58.58,0,0,0-.58-.58"/></clipPath><clipPath id="clip-path-13"><path class="cls-1" d="M-260,34.14h0a2.07,2.07,0,0,1-1.83-1.84.28.28,0,0,1,.25-.32.3.3,0,0,1,.32.26,1.51,1.51,0,0,0,1.33,1.32.29.29,0,0,1,.25.32.29.29,0,0,1-.29.26"/></clipPath><clipPath id="clip-path-14"><path class="cls-1" d="M-261.54,31.73h0a.28.28,0,0,1-.25-.32A2.06,2.06,0,0,1-260,29.58a.28.28,0,0,1,.32.25.29.29,0,0,1-.25.32,1.53,1.53,0,0,0-1.33,1.33.29.29,0,0,1-.29.25"/></clipPath><clipPath id="clip-path-15"><path class="cls-1" d="M-257.55,31.73a.29.29,0,0,1-.29-.25,1.5,1.5,0,0,0-1.32-1.33.29.29,0,0,1-.26-.32.28.28,0,0,1,.32-.25,2.07,2.07,0,0,1,1.84,1.83.3.3,0,0,1-.26.32h0"/></clipPath><clipPath id="clip-path-16"><path class="cls-1" d="M-259.13,34.14a.29.29,0,0,1-.29-.26.3.3,0,0,1,.25-.32,1.49,1.49,0,0,0,1.33-1.32.3.3,0,0,1,.32-.26.3.3,0,0,1,.26.32,2.09,2.09,0,0,1-1.84,1.84h0"/></clipPath><clipPath id="clip-path-17"><path class="cls-1" d="M-256.33,30.94a.29.29,0,0,1-.27-.17.29.29,0,0,1,.15-.38l2.68-1.16a.29.29,0,0,1,.38.15.29.29,0,0,1-.15.38l-2.68,1.16-.11,0"/></clipPath><clipPath id="clip-path-18"><path class="cls-1" d="M-254.9,31.82a.29.29,0,0,1-.29-.27l-.18-2.91a.29.29,0,0,1,.27-.31.28.28,0,0,1,.3.27l.19,2.91a.29.29,0,0,1-.27.31h0"/></clipPath><clipPath id="clip-path-19"><polygon class="cls-1" points="-230.13 58.2 -251.28 38.06 -250.77 32.44 -229.02 55.15 -229.02 58.92 -230.13 58.2"/></clipPath><clipPath id="clip-path-20"><polygon class="cls-1" points="-230.77 66.61 -251.93 46.47 -251.41 40.85 -229.67 63.56 -229.67 67.33 -230.77 66.61"/></clipPath><clipPath id="clip-path-21"><polygon class="cls-1" points="-231.51 74.79 -252.67 54.65 -252.15 49.04 -230.41 71.75 -230.41 75.52 -231.51 74.79"/></clipPath></defs><title>덕수궁돌담길</title><g id="Layer_1" data-name="Layer 1"><circle class="cls-23" cx="68.03" cy="68.03" r="57.59"/><path d="M55.26,83.91c0,.34-.16.65-.52.65H50.65c-.22,0-.31.07-.31.31v3.54c0,.23.09.3.31.3a38.58,38.58,0,0,0,5.26-.31.52.52,0,0,1,.6.52c0,.36-.09.69-.42.74A44.36,44.36,0,0,1,50,90c-.87,0-1.16-.27-1.16-1.13V84.4c0-.85.29-1.12,1.16-1.12h4.75C55.1,83.28,55.26,83.58,55.26,83.91Zm4.22,8.62v3.35c0,.43-.36.63-.75.63s-.75-.2-.75-.63V93c0-.22-.09-.3-.32-.3H50.92c-.37,0-.54-.3-.54-.64s.17-.65.54-.65h7.4C59.19,91.4,59.48,91.67,59.48,92.53Zm0-9.36v7c0,.43-.36.63-.75.63a.66.66,0,0,1-.74-.63v-3H55c-.36,0-.52-.3-.52-.64s.16-.63.52-.63h3V83.17a.66.66,0,0,1,.74-.63C59.12,82.54,59.48,82.74,59.48,83.17Z"/><path d="M74.34,91.09c0,.34-.17.63-.53.63h-5v4.22c0,.43-.36.63-.75.63s-.75-.2-.75-.63V91.72h-5c-.36,0-.52-.29-.52-.63s.16-.65.52-.65H73.81C74.17,90.44,74.34,90.74,74.34,91.09ZM68.8,83.53v.75a2.3,2.3,0,0,0,1.44,2.14c1,.54,1.92,1,2.75,1.36a.65.65,0,0,1,.22.89.64.64,0,0,1-.85.33c-1-.45-1.89-.9-2.78-1.37s-1.46-1-1.53-1.41h0c-.09.41-.51.89-1.54,1.44s-1.8.92-2.78,1.37a.71.71,0,0,1-.63-1.25c.82-.39,1.73-.82,2.75-1.36a2.3,2.3,0,0,0,1.44-2.14v-.75c0-.45.36-.64.76-.64S68.8,83.08,68.8,83.53Z"/><path d="M84.32,88a11.85,11.85,0,0,0,.33-2.8V84.7c0-.22-.08-.3-.32-.3H77.49c-.36,0-.51-.3-.51-.64s.15-.66.51-.66H85c.88,0,1.16.27,1.16,1.12v.89A12.3,12.3,0,0,1,85.78,88h1.69c.36,0,.53.3.53.65a.54.54,0,0,1-.53.61h-5v2c2.44.13,3.86,1,3.86,2.67,0,1.8-1.7,2.7-4.6,2.7s-4.59-.9-4.59-2.7c0-1.64,1.41-2.54,3.86-2.67v-2h-5c-.36,0-.52-.28-.52-.61s.16-.65.52-.65Zm-5.74,5.89c0,.91,1,1.5,3.11,1.5s3.11-.59,3.11-1.5-1-1.5-3.11-1.5S78.58,93,78.58,93.91Z"/><path d="M58.9,101.48c0,.35-.17.62-.5.62H51.63c-.23,0-.32.08-.32.32v1.36c0,.24.09.32.32.32h6.92c.33,0,.49.27.49.6s-.16.63-.49.63H55.11v1.32h5.06c.35,0,.51.27.51.6s-.16.62-.51.62H48.58c-.35,0-.51-.27-.51-.62s.16-.6.51-.6h5.06v-1.32H51c-.87,0-1.14-.27-1.14-1.13V102c0-.85.27-1.12,1.14-1.12H58.4C58.73,100.87,58.9,101.15,58.9,101.48ZM59,110v1.11c0,.86-.29,1.13-1.16,1.13H51.46c-.16,0-.24.06-.24.22v.62a.21.21,0,0,0,.24.23H58.8a.52.52,0,0,1,.5.58c0,.32-.16.59-.5.59H50.92c-.87,0-1.15-.27-1.15-1.13v-1.11c0-.86.28-1.13,1.15-1.13h6.35c.17,0,.24-.07.24-.22v-.6c0-.17-.07-.24-.24-.24H50.22c-.33,0-.48-.27-.48-.59s.15-.58.48-.58h7.59C58.68,108.86,59,109.13,59,110Z"/><path d="M68.77,101.93c0,.35-.17.65-.53.65H64.1c-.23,0-.32.08-.32.3v3c0,.24.09.32.32.32a40.16,40.16,0,0,0,5.26-.32.54.54,0,0,1,.6.54c0,.36-.1.69-.43.72a42.52,42.52,0,0,1-6.09.33c-.87,0-1.16-.27-1.16-1.12v-3.93c0-.86.29-1.13,1.16-1.13h4.8C68.6,101.29,68.77,101.59,68.77,101.93ZM71.25,109c.87,0,1.15.27,1.15,1.13v3c0,.85-.28,1.12-1.15,1.12H64.94c-.87,0-1.16-.27-1.16-1.12v-3c0-.86.29-1.13,1.16-1.13Zm-5.66,1.26c-.23,0-.32.09-.32.32v2.15c0,.22.09.31.32.31h5c.23,0,.32-.09.32-.31V110.6c0-.23-.09-.32-.32-.32Zm6.81-9.1v2.54h1.65c.39,0,.56.3.56.65s-.17.66-.56.66H72.4v2.72c0,.43-.36.63-.75.63s-.75-.2-.75-.63v-6.57c0-.43.36-.63.75-.63S72.4,100.75,72.4,101.18Z"/><path d="M82.44,102.3v.94c0,2-.76,2.48-5.45,4.57a.69.69,0,0,1-.87-.38.65.65,0,0,1,.27-.9c4.22-1.83,4.55-2.13,4.55-3.33v-.44c0-.22-.07-.3-.31-.3H76.71c-.36,0-.53-.3-.53-.65s.17-.64.53-.64h4.58C82.16,101.17,82.44,101.44,82.44,102.3Zm4.27,7.11v1.38c0,.86-.29,1.13-1.16,1.13H79.74c-.23,0-.32.07-.32.31v.65c0,.23.09.32.32.32h6.8c.35,0,.5.28.5.6s-.15.6-.5.6H79.12c-.87,0-1.15-.27-1.15-1.13v-1.38c0-.86.28-1.13,1.15-1.13h5.8c.24,0,.32-.07.32-.31v-.65c0-.22-.08-.3-.32-.3H78.43c-.34,0-.49-.28-.49-.61s.15-.6.49-.6h7.12C86.42,108.29,86.71,108.56,86.71,109.41Zm0-8.23V107c0,.43-.36.63-.75.63s-.76-.2-.76-.63v-5.83c0-.43.37-.63.76-.63S86.71,100.75,86.71,101.18Z"/><rect class="cls-24" x="36.47" y="53.78" width="62.15" height="17.46"/><rect class="cls-25" x="35.64" y="51.06" width="1.67" height="20.18" rx="0.58" ry="0.58"/><rect class="cls-25" x="47.59" y="51.06" width="1.67" height="20.18" rx="0.58" ry="0.58"/><rect class="cls-25" x="59.55" y="51.06" width="1.67" height="20.18" rx="0.58" ry="0.58"/><rect class="cls-25" x="85.83" y="51.06" width="1.67" height="20.18" rx="0.58" ry="0.58" transform="translate(173.34 122.29) rotate(180)"/><rect class="cls-25" x="73.88" y="51.06" width="1.67" height="20.18" rx="0.58" ry="0.58" transform="translate(149.43 122.29) rotate(180)"/><rect class="cls-25" x="97.79" y="51.06" width="1.67" height="20.18" rx="0.58" ry="0.58" transform="translate(197.24 122.29) rotate(180)"/><path class="cls-26" d="M94.6,48.66c-.51-.48-2.53-5.09-3.54-7.45A1.79,1.79,0,0,0,89.17,40a136.32,136.32,0,0,1-21.62,1.5A136.52,136.52,0,0,1,45.92,40,1.78,1.78,0,0,0,44,41.21c-1,2.36-3,7-3.55,7.45l-.08,0c-.69.11-9.2,1.52-15.76.33-.25-.05-.34.36-.11.48,3.92,2,16.42,7.18,43,7.25s39.08-5.21,43-7.25c.23-.12.13-.53-.12-.48-6.56,1.19-15.07-.22-15.76-.33Z"/><rect class="cls-27" x="38.1" y="56.32" width="8.7" height="3.01" rx="0.96" ry="0.96"/><rect class="cls-27" x="50.05" y="57.23" width="8.7" height="3.01" rx="0.96" ry="0.96"/><rect class="cls-27" x="88.29" y="56.32" width="8.7" height="3.01" rx="0.96" ry="0.96" transform="translate(185.28 115.66) rotate(-180)"/><rect class="cls-27" x="76.34" y="57.23" width="8.7" height="3.01" rx="0.96" ry="0.96" transform="translate(161.38 117.48) rotate(-180)"/><rect class="cls-27" x="82.63" y="60.93" width="2.42" height="9.18" rx="0.84" ry="0.84" transform="translate(167.67 131.03) rotate(180)"/><rect class="cls-27" x="79.48" y="60.93" width="2.42" height="9.18" rx="0.84" ry="0.84" transform="translate(161.38 131.03) rotate(180)"/><rect class="cls-27" x="76.35" y="60.93" width="2.42" height="9.18" rx="0.84" ry="0.84" transform="translate(155.11 131.03) rotate(-180)"/><rect class="cls-27" x="94.57" y="59.95" width="2.42" height="10.15" rx="0.84" ry="0.84" transform="translate(191.56 130.06) rotate(-180)"/><rect class="cls-27" x="91.43" y="59.95" width="2.42" height="10.15" rx="0.84" ry="0.84" transform="translate(185.27 130.06) rotate(-180)"/><rect class="cls-27" x="88.29" y="59.95" width="2.42" height="10.15" rx="0.84" ry="0.84" transform="translate(179 130.06) rotate(-180)"/><rect class="cls-27" x="50.05" y="60.93" width="2.42" height="9.18" rx="0.84" ry="0.84"/><rect class="cls-27" x="53.19" y="60.93" width="2.42" height="9.18" rx="0.84" ry="0.84"/><rect class="cls-27" x="56.33" y="60.93" width="2.42" height="9.18" rx="0.84" ry="0.84"/><rect class="cls-27" x="68.19" y="59.34" width="4.92" height="10.75" rx="0.96" ry="0.96"/><rect class="cls-27" x="62.24" y="59.34" width="4.92" height="10.75" rx="0.96" ry="0.96"/><rect class="cls-27" x="38.1" y="59.95" width="2.42" height="10.15" rx="0.84" ry="0.84"/><rect class="cls-27" x="41.25" y="59.95" width="2.42" height="10.15" rx="0.84" ry="0.84"/><rect class="cls-27" x="44.38" y="59.95" width="2.42" height="10.15" rx="0.84" ry="0.84"/></g></svg>