<svg xmlns="http://www.w3.org/2000/svg" xmlns:xlink="http://www.w3.org/1999/xlink" viewBox="0 0 136.06 136.06"><defs><style>.cls-1{fill:none;clip-rule:evenodd;}.cls-2{fill:#bdd7ee;}.cls-3{fill:#6d4612;}.cls-4{fill:#e5a95a;}.cls-5{fill:#d68a1d;}.cls-6{fill:#4897d3;}.cls-7{fill:#fff;}.cls-8{fill:#777;}.cls-9{clip-path:url(#clip-path);}.cls-10{clip-path:url(#clip-path-2);}.cls-11{clip-path:url(#clip-path-3);}.cls-12{clip-path:url(#clip-path-4);}.cls-13{clip-path:url(#clip-path-5);}.cls-14{clip-path:url(#clip-path-6);}.cls-15{clip-path:url(#clip-path-7);}.cls-16{clip-path:url(#clip-path-8);}.cls-17{clip-path:url(#clip-path-9);}.cls-18{clip-path:url(#clip-path-10);}.cls-19{clip-path:url(#clip-path-11);}.cls-20{clip-path:url(#clip-path-12);}.cls-21{clip-path:url(#clip-path-13);}.cls-22{clip-path:url(#clip-path-14);}.cls-23{clip-path:url(#clip-path-15);}.cls-24{clip-path:url(#clip-path-16);}.cls-25{clip-path:url(#clip-path-17);}.cls-26{clip-path:url(#clip-path-18);}.cls-27{clip-path:url(#clip-path-19);}.cls-28{clip-path:url(#clip-path-20);}.cls-29{clip-path:url(#clip-path-21);}</style><clipPath id="clip-path"><polygon class="cls-1" points="-387.71 -146.84 -413.7 -175.62 -416.17 -142.18 -399.45 -125.46 -387.71 -123.33 -387.71 -124.06 -387.71 -146.84"/></clipPath><clipPath id="clip-path-2"><polygon class="cls-1" points="-413.7 -175.62 -416.17 -142.18 -445.91 -136.72 -439.64 -164.53 -413.7 -175.62"/></clipPath><clipPath id="clip-path-3"><polygon class="cls-1" points="-445.91 -136.72 -438.2 -131.89 -410.7 -136.72 -416.17 -142.18 -445.91 -136.72"/></clipPath><clipPath id="clip-path-4"><polygon class="cls-1" points="-438.19 -131.89 -438.91 -125.96 -412.16 -128.54 -410.7 -136.72 -438.19 -131.89"/></clipPath><clipPath id="clip-path-5"><polygon class="cls-1" points="-410.7 -136.72 -412.16 -128.54 -399.45 -125.46 -410.7 -136.72"/></clipPath><clipPath id="clip-path-6"><path class="cls-1" d="M-418.47-166.07l.07-1.09c0-.15.13-.2.26-.2a.22.22,0,0,1,.23.23l-.06.9c0,.07,0,.09.09.1a7.87,7.87,0,0,0,1.19,0c.12,0,.18.08.18.19s0,.22-.15.23a11.82,11.82,0,0,1-1.51,0C-418.41-165.75-418.49-165.83-418.47-166.07Zm.56,2.14c-.25,0-.32-.1-.31-.34l.05-.76c0-.24.1-.31.35-.29l1.61.1c.25,0,.33.1.31.34l-.05.76c0,.24-.1.31-.35.29Zm1.39-.32c.06,0,.09,0,.09-.08l0-.4c0-.07,0-.09-.08-.1l-1.12-.07c-.07,0-.09,0-.09.08l0,.4c0,.07,0,.09.08.1Zm1.09-2.3c.12,0,.17.11.16.23s-.07.21-.19.2l-.36,0,0,.6a.22.22,0,0,1-.26.19.23.23,0,0,1-.23-.23l.11-1.6a.22.22,0,0,1,.26-.19c.12,0,.24.08.23.22l0,.58Z"/></clipPath><clipPath id="clip-path-7"><path class="cls-1" d="M-418.77-160.85a.18.18,0,0,1-.16-.22.18.18,0,0,1,.18-.2l2.89.19a.18.18,0,0,1,.16.22c0,.12-.06.21-.18.2l-1.2-.08-.07,1a.22.22,0,0,1-.26.19c-.12,0-.24-.08-.23-.23l.07-1Zm2.71-.89c0,.24-.1.31-.34.3l-1.76-.12c-.24,0-.32-.1-.3-.34l.07-1.07c0-.14.13-.19.25-.19a.22.22,0,0,1,.23.22l0,.26,1.45.09v-.25a.22.22,0,0,1,.26-.19.22.22,0,0,1,.23.22Zm-.53-.13s.06,0,.06,0l0-.26-1.44-.09,0,.25s0,.06.05.06Z"/></clipPath><clipPath id="clip-path-8"><path class="cls-1" d="M-418.83-158.44c-.12,0-.16-.1-.16-.21s.07-.2.19-.19l.9.06c.24,0,.32.1.3.34l0,.38c0,.52-.17.68-1.19,1.12a.21.21,0,0,1-.28-.1.19.19,0,0,1,.07-.29c.59-.24.8-.34.88-.45h-.81c-.12,0-.17-.09-.17-.2s.05-.2.17-.2l.88,0v-.16c0-.06,0-.09-.09-.09Zm.5,3c-.25,0-.32-.1-.31-.34l.05-.73c0-.25.1-.32.35-.3l1.75.11c.24,0,.32.1.3.35l-.05.73c0,.24-.1.31-.34.29Zm1.52-.31c.07,0,.1,0,.1-.08l0-.38c0-.06,0-.09-.08-.09l-1.25-.09c-.07,0-.09,0-.09.08l0,.38c0,.07,0,.09.09.1Zm-.05-2.33.33,0,0-.63a.21.21,0,0,1,.24-.18c.12,0,.22.08.21.21l-.11,1.65a.2.2,0,0,1-.23.18c-.12,0-.23-.08-.22-.21l0-.61-.33,0,0,.6a.2.2,0,0,1-.23.18.21.21,0,0,1-.21-.21l.1-1.62a.2.2,0,0,1,.24-.17c.11,0,.22.07.21.2Z"/></clipPath><clipPath id="clip-path-9"><path class="cls-1" d="M-419.44-152.54c0-.11.07-.2.19-.19h.2l.09-1.41h-.18c-.12,0-.16-.1-.15-.21s.06-.2.18-.19l1.65.11a.18.18,0,0,1,.16.21c0,.11-.06.2-.18.19h-.16l-.09,1.36h.2a.17.17,0,0,1,.19.18c0,.12,0,.22-.15.23a14.53,14.53,0,0,1-1.79,0A.18.18,0,0,1-419.44-152.54Zm1.25-.14.09-1.39-.39,0-.1,1.4Zm.88-.47c-.12,0-.16-.11-.16-.22s.07-.21.19-.2l.33,0,.06-.91a.22.22,0,0,1,.26-.19c.12,0,.24.08.23.22l-.2,2.93a.21.21,0,0,1-.25.19.21.21,0,0,1-.23-.22l.1-1.6Z"/></clipPath><clipPath id="clip-path-10"><path class="cls-1" d="M-419.65-147.56c-.12,0-.17-.1-.16-.21s.07-.21.18-.2l2.9.19c.12,0,.16.11.15.22s-.06.21-.18.2Zm2.85-.93a.23.23,0,0,1-.3.07c-.24-.15-.45-.3-.65-.44s-.32-.31-.33-.4h0c0,.1-.15.22-.39.36s-.44.23-.7.36a.21.21,0,0,1-.28-.12.22.22,0,0,1,.06-.29l.7-.36a.71.71,0,0,0,.41-.62v-.2a.22.22,0,0,1,.26-.2c.13,0,.25.09.24.23l0,.2a.71.71,0,0,0,.33.67c.22.17.43.31.64.45S-416.75-148.58-416.8-148.49Z"/></clipPath><clipPath id="clip-path-11"><path class="cls-1" d="M-424.46-169.74c0,.14,0,.27-.1.33l-1.55.65.47,1.3a1.41,1.41,0,0,1,.71-.61,1.26,1.26,0,0,1,1.75.73l0,.06a1.4,1.4,0,0,1-.88,1.93,2.37,2.37,0,0,1-1.37.18.28.28,0,0,1-.23-.34.25.25,0,0,1,.31-.23,2,2,0,0,0,1.07-.13.85.85,0,0,0,.53-1.18l0,0a.79.79,0,0,0-1.16-.44,1.11,1.11,0,0,0-.61.57.4.4,0,0,1-.22.22c-.14.06-.28,0-.32-.1l-.62-1.74c-.12-.36-.08-.48.25-.62l1.66-.7c.14-.06.24,0,.3.16"/></clipPath><clipPath id="clip-path-12"><path class="cls-1" d="M-420.94-168.09a1.16,1.16,0,0,1-1.16-1.15,1.16,1.16,0,0,1,1.16-1.16,1.16,1.16,0,0,1,1.16,1.16,1.16,1.16,0,0,1-1.16,1.15m0-1.74a.58.58,0,0,0-.58.59.58.58,0,0,0,.58.58.59.59,0,0,0,.59-.58.59.59,0,0,0-.59-.59"/></clipPath><clipPath id="clip-path-13"><path class="cls-1" d="M-421.35-167h0a2.09,2.09,0,0,1-1.84-1.84.29.29,0,0,1,.26-.32.29.29,0,0,1,.32.26,1.5,1.5,0,0,0,1.32,1.32.28.28,0,0,1,.25.32.28.28,0,0,1-.28.26"/></clipPath><clipPath id="clip-path-14"><path class="cls-1" d="M-422.93-169.37h0a.29.29,0,0,1-.26-.32,2.06,2.06,0,0,1,1.84-1.83.28.28,0,0,1,.32.25.29.29,0,0,1-.26.32,1.52,1.52,0,0,0-1.33,1.33.28.28,0,0,1-.28.25"/></clipPath><clipPath id="clip-path-15"><path class="cls-1" d="M-418.94-169.37a.29.29,0,0,1-.29-.25,1.51,1.51,0,0,0-1.33-1.33.28.28,0,0,1-.25-.32.28.28,0,0,1,.32-.25,2.06,2.06,0,0,1,1.83,1.83.28.28,0,0,1-.25.32h0"/></clipPath><clipPath id="clip-path-16"><path class="cls-1" d="M-420.52-167a.28.28,0,0,1-.29-.26.28.28,0,0,1,.25-.32,1.5,1.5,0,0,0,1.33-1.32.3.3,0,0,1,.32-.26.28.28,0,0,1,.25.32,2.08,2.08,0,0,1-1.83,1.84h0"/></clipPath><clipPath id="clip-path-17"><path class="cls-1" d="M-417.73-170.16a.28.28,0,0,1-.26-.17.29.29,0,0,1,.15-.38l2.68-1.16a.29.29,0,0,1,.38.15.29.29,0,0,1-.15.38l-2.68,1.16-.12,0"/></clipPath><clipPath id="clip-path-18"><path class="cls-1" d="M-416.29-169.28a.29.29,0,0,1-.29-.27l-.19-2.91a.29.29,0,0,1,.27-.31.29.29,0,0,1,.31.27l.18,2.91a.29.29,0,0,1-.26.31h0"/></clipPath><clipPath id="clip-path-19"><polygon class="cls-1" points="-391.52 -142.9 -412.68 -163.04 -412.16 -168.66 -390.41 -145.95 -390.41 -142.18 -391.52 -142.9"/></clipPath><clipPath id="clip-path-20"><polygon class="cls-1" points="-392.17 -134.5 -413.32 -154.64 -412.81 -160.25 -391.06 -137.54 -391.06 -133.78 -392.17 -134.5"/></clipPath><clipPath id="clip-path-21"><polygon class="cls-1" points="-392.91 -126.31 -414.06 -146.45 -413.55 -152.06 -391.8 -129.36 -391.8 -125.58 -392.91 -126.31"/></clipPath></defs><title>장안평자동차산업</title><g id="Layer_1" data-name="Layer 1"><circle class="cls-2" cx="68.03" cy="68.03" r="57.59"/><path class="cls-3" d="M100.51,67,69.77,52.23,34.59,68.55v9.6a1.63,1.63,0,0,0,1.95,1.6Z"/><path class="cls-3" d="M36.22,80a1.87,1.87,0,0,1-1.88-1.88v-9.6a.24.24,0,0,1,.14-.23L69.67,52a.22.22,0,0,1,.21,0L100.61,66.8a.24.24,0,0,1,.14.26.24.24,0,0,1-.19.21L36.59,80ZM34.84,68.71v9.44a1.4,1.4,0,0,0,.5,1.07,1.43,1.43,0,0,0,1.15.29L99.72,66.92,69.77,52.51Z"/><path class="cls-4" d="M68,24.17l1.74,28.06L34.59,68.55V53.18a3.31,3.31,0,0,1,1.2-2.55Z"/><path class="cls-4" d="M34.59,68.8a.23.23,0,0,1-.14,0,.26.26,0,0,1-.11-.21V53.18a3.54,3.54,0,0,1,1.29-2.74L67.87,24a.27.27,0,0,1,.26,0,.27.27,0,0,1,.15.22L70,52.22a.24.24,0,0,1-.14.24L34.69,68.78ZM67.81,24.68,36,50.83a3,3,0,0,0-1.11,2.35v15L69.51,52.08Z"/><path class="cls-5" d="M68,24.17l1.74,28.06L100.51,67,97.79,49.15a3.11,3.11,0,0,0-1.12-1.94Z"/><path class="cls-5" d="M100.51,67.27a.2.2,0,0,1-.11,0L69.67,52.46a.25.25,0,0,1-.15-.21L67.78,24.19a.24.24,0,0,1,.13-.24.26.26,0,0,1,.27,0L96.83,47A3.4,3.4,0,0,1,98,49.12L100.75,67a.21.21,0,0,1-.1.23A.19.19,0,0,1,100.51,67.27ZM70,52.07l30.17,14.52-2.65-17.4a2.81,2.81,0,0,0-1-1.79L68.31,24.72Z"/><path class="cls-6" d="M72,33.81l.6,12.79a2.51,2.51,0,0,0,1.31,2.1C76.28,50,98.42,62.15,98.42,62s-1-6.74-1.49-9.51a3.08,3.08,0,0,0-1.2-2L72.9,33.33A.57.57,0,0,0,72,33.81Z"/><path class="cls-7" d="M49.76,52.28,52.31,57c.85,1.59.36,2.7-1.13,3.5a3.26,3.26,0,0,1-1.7.38.64.64,0,0,1-.55-.73.62.62,0,0,1,.64-.63,2.07,2.07,0,0,0,1-.24c.68-.37.81-.88.27-1.89L48.43,53a.66.66,0,0,1,.35-.93A.68.68,0,0,1,49.76,52.28Z"/><path class="cls-7" d="M55,49.52l5.57,4.79a.65.65,0,0,1,.07,1,.73.73,0,0,1-1.09.1l-1.49-1.34-2.63,1.4.3,2c.08.48-.26.71-.65.78a.62.62,0,0,1-.78-.58l-.92-7.34a.91.91,0,0,1,.47-1A.92.92,0,0,1,55,49.52Zm0,2.85.26,1.81,1.83-1L55.73,52c-.44-.39-.7-.64-1-.95C54.84,51.5,54.9,51.8,55,52.37Z"/><path class="cls-7" d="M63.45,44.86a.67.67,0,0,1,.6.78.65.65,0,0,1-.7.61,3.17,3.17,0,0,0-1.72.44c-1.14.62-1.43,1.66-.47,3.45l.12.22c.93,1.73,1.91,2.15,3.13,1.49a3.17,3.17,0,0,0,1.41-1.37.64.64,0,0,1,.9-.29.73.73,0,0,1,.34,1,4.6,4.6,0,0,1-2,1.92c-2,1-3.69.6-5.05-1.93l-.23-.43c-1.35-2.53-.76-4.22,1.25-5.3A4.28,4.28,0,0,1,63.45,44.86Z"/><path class="cls-8" d="M97.7,57.34h-.07L72.36,43.12a.13.13,0,0,1,.12-.22L97.76,57.11a.13.13,0,0,1,0,.17A.14.14,0,0,1,97.7,57.34Z"/><path class="cls-8" d="M97.84,59.1h-.06L72.51,44.88a.14.14,0,0,1-.05-.18.12.12,0,0,1,.17,0L97.9,58.87A.13.13,0,0,1,98,59,.11.11,0,0,1,97.84,59.1Z"/><path class="cls-8" d="M98.2,61.1l-.07,0L72.86,46.87a.13.13,0,0,1,0-.17.13.13,0,0,1,.17-.05L98.26,60.86a.14.14,0,0,1,0,.18A.14.14,0,0,1,98.2,61.1Z"/><path class="cls-8" d="M78,50.78a.12.12,0,0,1-.12-.12V46.12A.12.12,0,0,1,78,46a.12.12,0,0,1,.13.12v4.54A.12.12,0,0,1,78,50.78Z"/><path class="cls-8" d="M82.88,53.8a.12.12,0,0,1-.12-.13V48.89a.12.12,0,0,1,.12-.13.13.13,0,0,1,.13.13v4.78A.13.13,0,0,1,82.88,53.8Z"/><path class="cls-8" d="M87.14,56.07A.12.12,0,0,1,87,56V51.28a.12.12,0,0,1,.13-.12.12.12,0,0,1,.12.12V56A.12.12,0,0,1,87.14,56.07Z"/><path class="cls-8" d="M91.43,58.4a.12.12,0,0,1-.12-.12V53.61a.12.12,0,0,1,.12-.12.12.12,0,0,1,.13.12v4.67A.12.12,0,0,1,91.43,58.4Z"/><path class="cls-8" d="M95.5,60.74a.13.13,0,0,1-.13-.13V56a.13.13,0,0,1,.13-.13.12.12,0,0,1,.12.13v4.66A.12.12,0,0,1,95.5,60.74Z"/><path d="M33.54,84.51c0,.34-.16.63-.52.63H30.59v.67a2.47,2.47,0,0,0,1,2.17c.69.57,1.33,1,1.81,1.38a.62.62,0,0,1,.12.91.66.66,0,0,1-.93.18c-.36-.25-1-.72-1.62-1.23s-1-.94-1.09-1.24h0c-.07.33-.37.7-1.12,1.3s-1.3,1-1.9,1.41a.66.66,0,0,1-.91-.19.65.65,0,0,1,.12-1c.72-.49,1.36-1,2.07-1.53a2.45,2.45,0,0,0,1-2.16v-.72H26.55c-.38,0-.54-.29-.54-.63s.16-.65.54-.65H33C33.38,83.86,33.54,84.16,33.54,84.51Zm2.92,9.77c0,1.88-1.58,2.84-4.3,2.84s-4.29-1-4.29-2.84,1.58-2.84,4.29-2.84S36.46,92.41,36.46,94.28Zm-7.11,0c0,1,.83,1.62,2.81,1.62S35,95.27,35,94.28s-.84-1.62-2.81-1.62S29.35,93.29,29.35,94.28Zm7-10.57V86.4H38c.39,0,.56.3.56.65s-.17.66-.56.66H36.38v3c0,.42-.36.62-.75.62s-.75-.2-.75-.62v-7c0-.43.36-.63.75-.63S36.38,83.28,36.38,83.71Z"/><path d="M46.56,87.24a3.24,3.24,0,0,1-3.49,3.5,3.49,3.49,0,0,1,0-7A3.23,3.23,0,0,1,46.56,87.24Zm-5.53,0a2.05,2.05,0,1,0,2-2.21A2,2,0,0,0,41,87.24Zm1.91,5.36v2.54c0,.22.07.3.31.3h6.61c.37,0,.54.3.54.66s-.17.64-.54.64H42.58c-.87,0-1.16-.27-1.16-1.12v-3c0-.43.36-.63.77-.63A.67.67,0,0,1,42.94,92.6ZM50,83.71v3.22h1.65c.39,0,.56.3.56.64s-.17.66-.56.66H50V92.6c0,.44-.36.63-.75.63s-.75-.19-.75-.63V83.71c0-.43.36-.63.75-.63S50,83.28,50,83.71Z"/><path d="M61.07,84.52a.55.55,0,0,1-.52.62h-.92v4.22c.42,0,.81-.08,1.19-.12a.52.52,0,0,1,.6.51c0,.36-.09.69-.43.72a64,64,0,0,1-7.19.24c-.36,0-.52-.29-.52-.62a.54.54,0,0,1,.52-.61h1.05V85.14h-.94a.55.55,0,0,1-.54-.62c0-.33.16-.61.54-.61h6.64C60.9,83.91,61.07,84.19,61.07,84.52Zm3.44,9.91c0,1.79-1.62,2.69-4.4,2.69s-4.4-.9-4.4-2.69,1.62-2.68,4.4-2.68S64.51,92.66,64.51,94.43Zm-8.23-5c.65,0,1.28,0,1.92,0V85.14H56.28Zm.92,5c0,.9.87,1.47,2.91,1.47S63,95.33,63,94.43,62.14,93,60.11,93,57.2,93.53,57.2,94.43Zm7.23-10.72V91a.65.65,0,0,1-.73.62c-.38,0-.75-.2-.75-.62V88.85H61.48c-.35,0-.5-.29-.5-.63s.15-.62.5-.62H63v-1H61.48c-.35,0-.5-.28-.5-.63s.15-.61.5-.61H63V83.71a.66.66,0,0,1,.75-.63A.65.65,0,0,1,64.43,83.71Z"/><path d="M78.3,84.78c0,.34-.16.64-.52.64H75.33v1.42a3.5,3.5,0,0,0,1.14,2.91c.63.64,1.26,1.24,1.76,1.66a.65.65,0,0,1,0,.94.66.66,0,0,1-.92.09c-.44-.39-1-.92-1.59-1.52-.86-.87-1-1.23-1.11-1.55h0c-.07.35-.25.71-1.12,1.58-.6.6-1.17,1.16-1.8,1.71a.68.68,0,0,1-1-.13.64.64,0,0,1,0-.93c.69-.62,1.31-1.21,1.94-1.85a3.53,3.53,0,0,0,1.14-2.91V85.42H71.27c-.37,0-.54-.3-.54-.64s.17-.65.54-.65h6.51C78.14,84.13,78.3,84.43,78.3,84.78Zm2.81-1.07v3.91h1.65c.39,0,.56.28.56.64s-.17.66-.56.66H81.11v6.5c0,.44-.36.63-.75.63s-.75-.19-.75-.63V83.71c0-.43.36-.63.75-.63S81.11,83.28,81.11,83.71Z"/><path d="M94.92,84.18c0,.33-.17.61-.51.61H87.65c-.23,0-.32.09-.32.32v1.64c0,.22.09.31.32.31h6.91c.34,0,.51.29.51.62s-.17.63-.51.63H91.13v1.5h5.06c.35,0,.51.28.51.63s-.16.63-.51.63H84.6c-.34,0-.51-.29-.51-.63s.17-.63.51-.63h5.06v-1.5H87c-.88,0-1.15-.27-1.15-1.13V84.67c0-.85.27-1.12,1.15-1.12h7.43C94.75,83.55,94.92,83.83,94.92,84.18ZM95,94.6c0,1.77-1.69,2.58-4.59,2.58s-4.6-.81-4.6-2.58S87.5,92,90.4,92,95,92.83,95,94.6Zm-7.7,0c0,.88.95,1.38,3.11,1.38s3.11-.5,3.11-1.38-1-1.38-3.11-1.38S87.29,93.71,87.29,94.6Z"/><path d="M102.66,83.68v1.26h2.55c.36,0,.53.3.53.65s-.17.64-.53.64h-2.55v.94a3.23,3.23,0,0,0,1.13,2.76c.64.64,1.26,1.21,1.77,1.65a.65.65,0,0,1,0,.93.64.64,0,0,1-.9.08c-.43-.38-1-.91-1.57-1.51-.86-.85-1.06-1.17-1.12-1.47h0c-.08.35-.24.66-1.11,1.52-.6.59-1.16,1.13-1.79,1.67a.68.68,0,0,1-.94-.14.63.63,0,0,1,0-.93c.69-.59,1.29-1.16,1.93-1.8a3.23,3.23,0,0,0,1.13-2.76v-.94H98.53c-.38,0-.54-.3-.54-.64s.16-.65.54-.65h2.63V83.68a.66.66,0,0,1,.75-.63C102.3,83.05,102.66,83.25,102.66,83.68Zm5.77,0v3.91h1.65c.39,0,.55.28.55.64s-.16.66-.55.66h-1.65v6.5c0,.44-.36.63-.76.63s-.75-.19-.75-.63V83.71c0-.43.36-.63.75-.63S108.43,83.28,108.43,83.71Z"/><path d="M59.76,102.29v1.52a2.79,2.79,0,0,0,1,2.31c.69.6,1.29,1.08,1.82,1.47a.7.7,0,0,1-.83,1.11c-.48-.34-1.07-.82-1.7-1.36s-1-1-1-1.28h0c-.07.35-.3.69-1.06,1.35s-1.28,1.07-1.93,1.53a.65.65,0,0,1-.93-.17.66.66,0,0,1,.09-1,25.22,25.22,0,0,0,2-1.63,2.78,2.78,0,0,0,1-2.32v-1.56c0-.43.38-.63.77-.63S59.76,101.86,59.76,102.29Zm-1.29,8.32v2.54c0,.22.08.3.32.3h6.6c.38,0,.54.3.54.66s-.16.65-.54.65H58.11c-.87,0-1.15-.27-1.15-1.13v-3c0-.43.36-.63.76-.63A.66.66,0,0,1,58.47,110.61Zm7.1-8.89v3.22h1.66c.39,0,.55.3.55.64s-.16.66-.55.66H65.57v4.37c0,.44-.36.63-.75.63s-.75-.19-.75-.63v-8.89c0-.43.36-.63.75-.63S65.57,101.29,65.57,101.72Z"/><path d="M80,101.72v6.17c0,.44-.36.63-.74.63s-.75-.19-.75-.63v-2.38H75.84a3.07,3.07,0,0,1-3.39,2.61A3.1,3.1,0,0,1,69,104.86c0-1.85,1.14-3.24,3.46-3.24a3.08,3.08,0,0,1,3.4,2.61h2.63v-2.51c0-.43.36-.63.75-.63A.66.66,0,0,1,80,101.72Zm-9.54,3.14a2,2,0,1,0,2-2A1.83,1.83,0,0,0,70.43,104.86Zm2.18,4.93v1.26H78.5v-1.26a.65.65,0,0,1,.72-.62c.39,0,.75.2.75.62v3.94c0,.86-.29,1.13-1.16,1.13H72.3c-.88,0-1.16-.27-1.16-1.13v-3.94a.65.65,0,0,1,.72-.62A.67.67,0,0,1,72.61,109.79Zm0,3.52c0,.23.08.32.32.32h5.25c.23,0,.32-.09.32-.32v-1.06H72.61Z"/></g></svg>