<svg xmlns="http://www.w3.org/2000/svg" xmlns:xlink="http://www.w3.org/1999/xlink" viewBox="0 0 136.06 136.06"><defs><style>.cls-1{fill:none;clip-rule:evenodd;}.cls-2{fill:#bdd7ee;}.cls-3{fill:#a4af39;}.cls-4{fill:#f89c31;}.cls-5{fill:#5e84b3;}.cls-6{fill:#ce3743;}.cls-7{clip-path:url(#clip-path);}.cls-8{clip-path:url(#clip-path-2);}.cls-9{clip-path:url(#clip-path-3);}.cls-10{clip-path:url(#clip-path-4);}.cls-11{clip-path:url(#clip-path-5);}.cls-12{clip-path:url(#clip-path-6);}.cls-13{clip-path:url(#clip-path-7);}.cls-14{clip-path:url(#clip-path-8);}.cls-15{clip-path:url(#clip-path-9);}.cls-16{clip-path:url(#clip-path-10);}.cls-17{clip-path:url(#clip-path-11);}.cls-18{clip-path:url(#clip-path-12);}.cls-19{clip-path:url(#clip-path-13);}.cls-20{clip-path:url(#clip-path-14);}.cls-21{clip-path:url(#clip-path-15);}.cls-22{clip-path:url(#clip-path-16);}.cls-23{clip-path:url(#clip-path-17);}.cls-24{clip-path:url(#clip-path-18);}.cls-25{clip-path:url(#clip-path-19);}.cls-26{clip-path:url(#clip-path-20);}.cls-27{clip-path:url(#clip-path-21);}</style><clipPath id="clip-path"><polygon class="cls-1" points="408.6 -146.84 382.61 -175.62 380.14 -142.18 396.86 -125.46 408.6 -123.33 408.6 -124.06 408.6 -146.84"/></clipPath><clipPath id="clip-path-2"><polygon class="cls-1" points="382.61 -175.62 380.14 -142.18 350.4 -136.72 356.67 -164.53 382.61 -175.62"/></clipPath><clipPath id="clip-path-3"><polygon class="cls-1" points="350.4 -136.72 358.12 -131.89 385.61 -136.72 380.14 -142.18 350.4 -136.72"/></clipPath><clipPath id="clip-path-4"><polygon class="cls-1" points="358.12 -131.89 357.4 -125.96 384.15 -128.54 385.61 -136.72 358.12 -131.89"/></clipPath><clipPath id="clip-path-5"><polygon class="cls-1" points="385.61 -136.72 384.15 -128.54 396.86 -125.46 385.61 -136.72"/></clipPath><clipPath id="clip-path-6"><path class="cls-1" d="M377.84-166.07l.07-1.09c0-.15.13-.2.26-.2s.25.09.24.23l-.06.9c0,.07,0,.09.08.1a7.87,7.87,0,0,0,1.19,0c.12,0,.18.08.19.19s0,.22-.15.23a11.82,11.82,0,0,1-1.51,0C377.9-165.75,377.83-165.83,377.84-166.07Zm.56,2.14c-.25,0-.32-.1-.31-.34l.05-.76c0-.24.11-.31.35-.29l1.62.1c.24,0,.32.1.3.34l-.05.76c0,.24-.1.31-.35.29Zm1.39-.32c.07,0,.09,0,.1-.08l0-.4c0-.07,0-.09-.08-.1l-1.12-.07c-.06,0-.09,0-.09.08l0,.4c0,.07,0,.09.08.1Zm1.09-2.3c.12,0,.17.11.16.23s-.06.21-.19.2l-.35,0,0,.6a.22.22,0,0,1-.26.19.23.23,0,0,1-.24-.23l.11-1.6a.22.22,0,0,1,.26-.19c.13,0,.24.08.23.22l0,.58Z"/></clipPath><clipPath id="clip-path-7"><path class="cls-1" d="M377.54-160.85a.18.18,0,0,1-.16-.22.19.19,0,0,1,.19-.2l2.89.19c.12,0,.16.11.16.22s-.07.21-.19.2l-1.2-.08-.06,1a.22.22,0,0,1-.26.19c-.13,0-.24-.08-.23-.23l.06-1Zm2.72-.89c0,.24-.1.31-.35.3l-1.75-.12c-.25,0-.33-.1-.31-.34l.07-1.07c0-.14.13-.19.25-.19s.24.09.23.22v.26l1.44.09,0-.25a.21.21,0,0,1,.25-.19c.12,0,.24.08.23.22Zm-.53-.13s.06,0,.06,0v-.26l-1.44-.09,0,.25a.05.05,0,0,0,.06.06Z"/></clipPath><clipPath id="clip-path-8"><path class="cls-1" d="M377.49-158.44a.17.17,0,0,1-.16-.21.17.17,0,0,1,.18-.19l.9.06c.25,0,.32.1.3.34l0,.38c0,.52-.16.68-1.19,1.12a.21.21,0,0,1-.28-.1.2.2,0,0,1,.07-.29c.59-.24.8-.34.88-.45h-.81a.18.18,0,0,1-.17-.2c0-.1.05-.2.17-.2l.88,0v-.16c0-.06,0-.09-.08-.09Zm.49,3c-.24,0-.32-.1-.3-.34l0-.73c0-.25.11-.32.35-.3l1.75.11c.24,0,.32.1.3.35l0,.73c0,.24-.1.31-.35.29Zm1.53-.31c.06,0,.09,0,.09-.08l0-.38c0-.06,0-.09-.09-.09l-1.25-.09c-.06,0-.09,0-.09.08l0,.38c0,.07,0,.09.08.1Zm-.06-2.33.33,0,0-.63a.21.21,0,0,1,.24-.18c.12,0,.23.08.22.21l-.11,1.65a.2.2,0,0,1-.24.18c-.12,0-.22-.08-.21-.21l0-.61-.33,0,0,.6a.21.21,0,0,1-.24.18.21.21,0,0,1-.21-.21l.11-1.62a.19.19,0,0,1,.23-.17c.12,0,.22.07.21.2Z"/></clipPath><clipPath id="clip-path-9"><path class="cls-1" d="M376.87-152.54c0-.11.07-.2.19-.19h.2l.09-1.41h-.17c-.12,0-.17-.1-.16-.21s.06-.2.18-.19l1.66.11c.12,0,.16.11.16.21s-.07.2-.19.19h-.15l-.1,1.36h.21a.16.16,0,0,1,.18.18c0,.12,0,.22-.15.23a14.55,14.55,0,0,1-1.79,0C376.91-152.33,376.87-152.43,376.87-152.54Zm1.25-.14.09-1.39-.39,0-.09,1.4Zm.89-.47a.18.18,0,0,1-.16-.22c0-.12.06-.21.18-.2l.33,0,.06-.91a.22.22,0,0,1,.26-.19c.12,0,.24.08.23.22l-.19,2.93a.21.21,0,0,1-.26.19.21.21,0,0,1-.23-.22l.1-1.6Z"/></clipPath><clipPath id="clip-path-10"><path class="cls-1" d="M376.66-147.56c-.12,0-.17-.1-.16-.21s.07-.21.19-.2l2.89.19a.18.18,0,0,1,.16.22c0,.11-.07.21-.19.2Zm2.85-.93a.22.22,0,0,1-.29.07l-.66-.44c-.22-.17-.32-.31-.33-.4h0c0,.1-.14.22-.38.36l-.71.36a.22.22,0,0,1-.28-.12.21.21,0,0,1,.07-.29l.69-.36a.71.71,0,0,0,.41-.62v-.2a.23.23,0,0,1,.27-.2.22.22,0,0,1,.23.23v.2a.69.69,0,0,0,.32.67c.23.17.44.31.65.45S379.57-148.58,379.51-148.49Z"/></clipPath><clipPath id="clip-path-11"><path class="cls-1" d="M371.85-169.74c.06.14,0,.27-.1.33l-1.55.65.47,1.3a1.41,1.41,0,0,1,.71-.61,1.27,1.27,0,0,1,1.76.73l0,.06a1.4,1.4,0,0,1-.87,1.93,2.38,2.38,0,0,1-1.37.18.29.29,0,0,1-.24-.34.25.25,0,0,1,.32-.23,1.92,1.92,0,0,0,1.06-.13.84.84,0,0,0,.53-1.18l0,0a.78.78,0,0,0-1.16-.44,1.14,1.14,0,0,0-.61.57.4.4,0,0,1-.22.22c-.14.06-.28,0-.32-.1l-.62-1.74c-.12-.36-.07-.48.26-.62l1.65-.7c.14-.06.25,0,.3.16"/></clipPath><clipPath id="clip-path-12"><path class="cls-1" d="M375.38-168.09a1.16,1.16,0,0,1-1.16-1.15,1.16,1.16,0,0,1,1.16-1.16,1.16,1.16,0,0,1,1.16,1.16,1.16,1.16,0,0,1-1.16,1.15m0-1.74a.58.58,0,0,0-.59.59.58.58,0,0,0,.59.58.58.58,0,0,0,.58-.58.58.58,0,0,0-.58-.59"/></clipPath><clipPath id="clip-path-13"><path class="cls-1" d="M375-167h0a2.08,2.08,0,0,1-1.83-1.84.28.28,0,0,1,.25-.32.29.29,0,0,1,.32.26,1.52,1.52,0,0,0,1.33,1.32.28.28,0,0,1,.25.32.29.29,0,0,1-.29.26"/></clipPath><clipPath id="clip-path-14"><path class="cls-1" d="M373.38-169.37h0a.28.28,0,0,1-.25-.32,2.05,2.05,0,0,1,1.83-1.83.28.28,0,0,1,.32.25.29.29,0,0,1-.25.32,1.52,1.52,0,0,0-1.33,1.33.29.29,0,0,1-.29.25"/></clipPath><clipPath id="clip-path-15"><path class="cls-1" d="M377.37-169.37a.29.29,0,0,1-.29-.25,1.5,1.5,0,0,0-1.33-1.33.29.29,0,0,1-.25-.32.28.28,0,0,1,.32-.25,2.08,2.08,0,0,1,1.84,1.83.3.3,0,0,1-.26.32h0"/></clipPath><clipPath id="clip-path-16"><path class="cls-1" d="M375.79-167a.29.29,0,0,1-.29-.26.29.29,0,0,1,.25-.32,1.49,1.49,0,0,0,1.33-1.32.3.3,0,0,1,.32-.26.3.3,0,0,1,.26.32,2.1,2.1,0,0,1-1.84,1.84h0"/></clipPath><clipPath id="clip-path-17"><path class="cls-1" d="M378.59-170.16a.28.28,0,0,1-.27-.17.29.29,0,0,1,.15-.38l2.68-1.16a.29.29,0,0,1,.38.15.29.29,0,0,1-.15.38l-2.68,1.16-.11,0"/></clipPath><clipPath id="clip-path-18"><path class="cls-1" d="M380-169.28a.29.29,0,0,1-.29-.27l-.18-2.91a.28.28,0,0,1,.26-.31.29.29,0,0,1,.31.27l.19,2.91a.29.29,0,0,1-.27.31h0"/></clipPath><clipPath id="clip-path-19"><polygon class="cls-1" points="404.79 -142.9 383.64 -163.04 384.15 -168.66 405.9 -145.95 405.9 -142.18 404.79 -142.9"/></clipPath><clipPath id="clip-path-20"><polygon class="cls-1" points="404.15 -134.5 382.99 -154.64 383.51 -160.25 405.25 -137.54 405.25 -133.78 404.15 -134.5"/></clipPath><clipPath id="clip-path-21"><polygon class="cls-1" points="403.41 -126.31 382.25 -146.45 382.77 -152.06 404.51 -129.36 404.51 -125.58 403.41 -126.31"/></clipPath></defs><title>서울창업허브</title><g id="Layer_1" data-name="Layer 1"><circle class="cls-2" cx="66.09" cy="68.03" r="57.59"/><path class="cls-3" d="M36.21,29.71v41h6.45V55.34s0-4,5.12-4c0,0,4.69-.15,4.69,4.69H58A11.24,11.24,0,0,0,50.87,45.7,8.27,8.27,0,0,0,47.24,45a8.56,8.56,0,0,0-4.87,1.58V29.71Z"/><path class="cls-4" d="M52.47,56.08H58v7.17s.17,5.25,5.37,4.88c0,0,2.81.77,4.51-2.45a6.83,6.83,0,0,0,.75-3.21V59.16h5.41l.15,4.33a10.06,10.06,0,0,1-6.47,9.79S59.7,76.2,54.55,69.62c0,0-2.19-1.65-2.08-9.45Z"/><polygon class="cls-5" points="78.22 29.71 78.22 65.32 84.85 65.48 84.85 29.71 78.22 29.71"/><path class="cls-6" d="M86.44,45.37s-12-1.6-16,4.4c0,0-2.71,2.44-1.75,9.39h5.41s-1-7.58,6.26-7.9c0,0,8-1.22,11.84,5.25,0,0,3.34,9.29-4.94,11.25,0,0-2.39,1-2.39-2.28l-6.63-.16s-.48,7.64,5.84,8.86c0,0,11.83,1.59,14.75-11.67C98.81,62.51,100.56,48.18,86.44,45.37Z"/><path d="M32.61,92v2.33a3.72,3.72,0,0,0,1.19,2.94c.6.65,1.21,1.25,1.73,1.71a.65.65,0,0,1-.05.93.67.67,0,0,1-.92.08c-.46-.42-1-.93-1.54-1.53-.87-.92-1.08-1.28-1.16-1.59h0c-.08.34-.29.7-1.16,1.62-.57.6-1.1,1.12-1.74,1.71a.66.66,0,0,1-.95-.12.64.64,0,0,1,0-.93c.66-.62,1.29-1.23,1.89-1.88a3.75,3.75,0,0,0,1.19-2.94V92c0-.43.36-.63.75-.63S32.61,91.57,32.61,92ZM39,91.3V103c0,.43-.36.63-.75.63a.65.65,0,0,1-.73-.63V96H35.22c-.37,0-.54-.28-.54-.63s.17-.65.54-.65h2.29V91.3a.65.65,0,0,1,.73-.63C38.63,90.67,39,90.86,39,91.3Z"/><path d="M52.14,100.1v1.11c0,.85-.28,1.12-1.16,1.12H44.63c-.16,0-.24.06-.24.23v.61a.21.21,0,0,0,.24.23H52a.51.51,0,0,1,.49.58c0,.32-.16.59-.49.59H44.09c-.87,0-1.15-.27-1.15-1.13v-1.11c0-.85.28-1.12,1.15-1.12h6.35c.17,0,.24-.08.24-.23v-.6c0-.16-.07-.24-.24-.24h-7c-.33,0-.48-.27-.48-.59s.15-.58.48-.58h3.42V97.74H41.75c-.34,0-.51-.27-.51-.62s.17-.6.51-.6H53.34c.35,0,.51.27.51.6s-.16.62-.51.62H48.28V99H51C51.86,99,52.14,99.24,52.14,100.1Zm0-6.88c0,1.68-1.68,2.42-4.56,2.42S43,94.9,43,93.22s1.68-2.4,4.57-2.4S52.11,91.55,52.11,93.22Zm-7.64,0c0,.78.93,1.23,3.08,1.23s3.08-.45,3.08-1.23S49.69,92,47.55,92,44.47,92.44,44.47,93.22Z"/><path d="M59.81,91.15v1.11h2.52c.36,0,.53.3.53.64s-.17.63-.53.63H59.81v.6a2.13,2.13,0,0,0,.94,1.93c.71.51,1.33.93,1.81,1.23a.65.65,0,0,1,.16.93.65.65,0,0,1-.91.19c-.38-.24-1-.63-1.58-1.08-.78-.57-1.08-.91-1.14-1.21h0c-.07.34-.39.72-1.18,1.29-.63.45-1.23.87-1.85,1.26a.65.65,0,0,1-.89-.24.63.63,0,0,1,.15-.92c.69-.45,1.34-.88,2.06-1.42a2.09,2.09,0,0,0,1-1.93v-.63H55.68c-.38,0-.54-.28-.54-.63s.16-.64.54-.64h2.63V91.15c0-.44.37-.63.75-.63S59.81,90.71,59.81,91.15ZM65.65,102c0,1.75-1.58,2.68-4.3,2.68s-4.29-.93-4.29-2.68,1.58-2.69,4.29-2.69S65.65,100.27,65.65,102Zm-7.1,0c0,.88.82,1.47,2.8,1.47s2.81-.59,2.81-1.47-.84-1.47-2.81-1.47S58.55,101.13,58.55,102Zm7-10.72v2.83h1.66c.39,0,.55.3.55.65s-.16.66-.55.66H65.57v3.14c0,.42-.36.61-.75.61s-.75-.19-.75-.61V91.3c0-.44.36-.63.75-.63S65.57,90.86,65.57,91.3Z"/><path d="M80,91.3v6.17a.66.66,0,0,1-.74.63c-.39,0-.75-.2-.75-.63V95.08H75.84a3.07,3.07,0,0,1-3.39,2.61c-2.32,0-3.46-1.39-3.46-3.26s1.14-3.24,3.46-3.24a3.08,3.08,0,0,1,3.4,2.61h2.63V91.3c0-.44.36-.63.75-.63S80,90.86,80,91.3Zm-9.54,3.13a2,2,0,1,0,2-2A1.83,1.83,0,0,0,70.43,94.43Zm2.18,4.93v1.26H78.5V99.36a.65.65,0,0,1,.72-.62c.39,0,.75.2.75.62v4c0,.85-.29,1.12-1.16,1.12H72.3c-.87,0-1.16-.27-1.16-1.12v-4a.65.65,0,0,1,.72-.62C72.24,98.74,72.61,98.94,72.61,99.36Zm0,3.53c0,.22.08.31.32.31h5.25c.23,0,.32-.09.32-.31v-1.07H72.61Z"/><path d="M87.25,91.27v1.29h2.67c.36,0,.52.28.52.63s-.16.64-.52.64h-7c-.36,0-.53-.3-.53-.64s.17-.63.53-.63h2.83V91.27c0-.44.38-.63.75-.63S87.25,90.83,87.25,91.27Zm2.44,6.5a3.2,3.2,0,1,1-3.2-3A2.88,2.88,0,0,1,89.69,97.77Zm-5,0A1.84,1.84,0,1,0,86.49,96,1.68,1.68,0,0,0,84.66,97.77Zm9-6.47V103c0,.43-.36.63-.75.63a.66.66,0,0,1-.74-.63v-6.1H90.52c-.38,0-.54-.28-.54-.64s.16-.65.54-.65h1.62V91.3a.66.66,0,0,1,.74-.63C93.27,90.67,93.63,90.86,93.63,91.3Z"/><path d="M108.49,101.69c0,.34-.17.64-.53.64H96.4c-.36,0-.53-.3-.53-.64s.17-.65.53-.65H108C108.32,101,108.49,101.33,108.49,101.69ZM99.07,92V93.8h6.22V92a.66.66,0,0,1,.73-.63c.39,0,.77.21.77.63v5.34c0,.86-.29,1.13-1.16,1.13h-6.9c-.87,0-1.14-.27-1.14-1.13V92a.66.66,0,0,1,.73-.63A.67.67,0,0,1,99.07,92Zm.32,5.21H105c.23,0,.32-.09.32-.32V95.06H99.07v1.82C99.07,97.11,99.16,97.2,99.39,97.2Z"/></g></svg>