<svg xmlns="http://www.w3.org/2000/svg" xmlns:xlink="http://www.w3.org/1999/xlink" viewBox="0 0 136.06 136.06"><defs><style>.cls-1{fill:none;clip-rule:evenodd;}.cls-2{clip-path:url(#clip-path);}.cls-3{clip-path:url(#clip-path-2);}.cls-4{clip-path:url(#clip-path-3);}.cls-5{clip-path:url(#clip-path-4);}.cls-6{clip-path:url(#clip-path-5);}.cls-7{clip-path:url(#clip-path-6);}.cls-8{clip-path:url(#clip-path-7);}.cls-9{clip-path:url(#clip-path-8);}.cls-10{clip-path:url(#clip-path-9);}.cls-11{clip-path:url(#clip-path-10);}.cls-12{clip-path:url(#clip-path-11);}.cls-13{clip-path:url(#clip-path-12);}.cls-14{clip-path:url(#clip-path-13);}.cls-15{clip-path:url(#clip-path-14);}.cls-16{clip-path:url(#clip-path-15);}.cls-17{clip-path:url(#clip-path-16);}.cls-18{clip-path:url(#clip-path-17);}.cls-19{clip-path:url(#clip-path-18);}.cls-20{clip-path:url(#clip-path-19);}.cls-21{clip-path:url(#clip-path-20);}.cls-22{clip-path:url(#clip-path-21);}.cls-23{fill:#c6e0b4;}.cls-24{fill:#444;}</style><clipPath id="clip-path"><polygon class="cls-1" points="408.6 -342.22 382.61 -371 380.14 -337.56 396.86 -320.83 408.6 -318.7 408.6 -319.43 408.6 -342.22"/></clipPath><clipPath id="clip-path-2"><polygon class="cls-1" points="382.61 -371 380.14 -337.55 350.4 -332.09 356.67 -359.9 382.61 -371"/></clipPath><clipPath id="clip-path-3"><polygon class="cls-1" points="350.4 -332.09 358.12 -327.27 385.61 -332.09 380.14 -337.55 350.4 -332.09"/></clipPath><clipPath id="clip-path-4"><polygon class="cls-1" points="358.12 -327.27 357.4 -321.33 384.15 -323.91 385.61 -332.09 358.12 -327.27"/></clipPath><clipPath id="clip-path-5"><polygon class="cls-1" points="385.61 -332.09 384.15 -323.91 396.86 -320.84 385.61 -332.09"/></clipPath><clipPath id="clip-path-6"><path class="cls-1" d="M377.84-361.45l.07-1.09a.22.22,0,0,1,.26-.19c.13,0,.25.08.24.23l-.06.9c0,.06,0,.09.08.09a9.51,9.51,0,0,0,1.19,0c.12,0,.18.08.19.19s0,.22-.15.22a9.78,9.78,0,0,1-1.51,0C377.9-361.12,377.83-361.21,377.84-361.45Zm.56,2.14c-.25,0-.32-.1-.31-.33l.05-.76c0-.24.11-.31.35-.3l1.62.11c.24,0,.32.1.3.34l-.05.75c0,.24-.1.32-.35.3Zm1.39-.31c.07,0,.09,0,.1-.08l0-.41c0-.06,0-.09-.08-.09l-1.12-.08c-.06,0-.09,0-.09.09l0,.4c0,.07,0,.09.08.09Zm1.09-2.3a.18.18,0,0,1,.16.22.18.18,0,0,1-.19.21l-.35,0,0,.6a.22.22,0,0,1-.26.19c-.13,0-.24-.08-.24-.22l.11-1.6a.22.22,0,0,1,.26-.19c.13,0,.24.08.23.22l0,.58Z"/></clipPath><clipPath id="clip-path-7"><path class="cls-1" d="M377.54-356.23c-.12,0-.17-.1-.16-.21s.07-.21.19-.2l2.89.19c.12,0,.16.11.16.22s-.07.2-.19.19l-1.2-.07-.06,1c0,.15-.14.2-.26.2a.22.22,0,0,1-.23-.23l.06-1Zm2.72-.88c0,.24-.1.31-.35.29l-1.75-.11c-.25,0-.33-.1-.31-.34l.07-1.07a.21.21,0,0,1,.25-.19c.13,0,.24.08.23.22v.25l1.44.1,0-.26a.21.21,0,0,1,.25-.18c.12,0,.24.08.23.21Zm-.53-.13s.06,0,.06-.05v-.26l-1.44-.1,0,.26a.05.05,0,0,0,.06.06Z"/></clipPath><clipPath id="clip-path-8"><path class="cls-1" d="M377.49-353.81a.18.18,0,0,1-.16-.21c0-.11.06-.2.18-.19l.9.06c.25,0,.32.1.3.34l0,.38c0,.52-.16.68-1.19,1.11a.21.21,0,0,1-.28-.1.19.19,0,0,1,.07-.28c.59-.24.8-.34.88-.45h-.81c-.11,0-.17-.09-.17-.21s.05-.2.17-.19l.88,0v-.16c0-.07,0-.09-.08-.1Zm.49,3c-.24,0-.32-.09-.3-.34l0-.73c0-.24.11-.31.35-.3l1.75.12c.24,0,.32.1.3.34l0,.73c0,.24-.1.32-.35.3Zm1.53-.3c.06,0,.09,0,.09-.09l0-.37c0-.07,0-.09-.09-.1l-1.25-.08c-.06,0-.09,0-.09.08l0,.38c0,.06,0,.09.08.09Zm-.06-2.34.33,0,0-.64a.2.2,0,0,1,.24-.17c.12,0,.23.07.22.2l-.11,1.66c0,.13-.12.18-.24.18s-.22-.08-.21-.21l0-.62-.33,0,0,.6a.2.2,0,0,1-.24.17.19.19,0,0,1-.21-.2l.11-1.62a.19.19,0,0,1,.23-.17.19.19,0,0,1,.21.2Z"/></clipPath><clipPath id="clip-path-9"><path class="cls-1" d="M376.87-347.91c0-.11.07-.2.19-.19h.2l.09-1.41h-.17a.18.18,0,0,1-.16-.21c0-.11.06-.2.18-.2l1.66.11c.12,0,.16.11.16.22s-.07.2-.19.19h-.15l-.1,1.36h.21a.16.16,0,0,1,.18.18c0,.12,0,.22-.15.22a11.39,11.39,0,0,1-1.79,0C376.91-347.7,376.87-347.81,376.87-347.91Zm1.25-.14.09-1.39-.39,0-.09,1.41Zm.89-.47a.18.18,0,0,1-.16-.22c0-.12.06-.21.18-.2l.33,0,.06-.92a.22.22,0,0,1,.26-.18c.12,0,.24.08.23.22l-.19,2.93a.22.22,0,0,1-.26.19c-.13,0-.24-.08-.23-.22l.1-1.6Z"/></clipPath><clipPath id="clip-path-10"><path class="cls-1" d="M376.66-342.93a.18.18,0,0,1-.16-.21c0-.12.07-.21.19-.2l2.89.19a.18.18,0,0,1,.16.22c0,.11-.07.2-.19.19Zm2.85-.93a.22.22,0,0,1-.29.07q-.36-.22-.66-.45a.76.76,0,0,1-.33-.39h0c0,.09-.14.22-.38.36s-.45.23-.71.35a.22.22,0,0,1-.28-.11.22.22,0,0,1,.07-.3c.22-.1.45-.22.69-.35a.71.71,0,0,0,.41-.62v-.21a.23.23,0,0,1,.27-.19c.13,0,.24.08.23.23v.2a.7.7,0,0,0,.32.67c.23.17.44.3.65.44A.22.22,0,0,1,379.51-343.86Z"/></clipPath><clipPath id="clip-path-11"><path class="cls-1" d="M371.85-365.11c.06.14,0,.27-.1.33l-1.55.65.47,1.29a1.45,1.45,0,0,1,.71-.6,1.26,1.26,0,0,1,1.76.72l0,.07a1.39,1.39,0,0,1-.87,1.92,2.4,2.4,0,0,1-1.37.19.29.29,0,0,1-.24-.34.27.27,0,0,1,.32-.24,1.76,1.76,0,0,0,1.06-.13.83.83,0,0,0,.53-1.17l0,0a.79.79,0,0,0-1.16-.45,1.19,1.19,0,0,0-.61.58.4.4,0,0,1-.22.22.22.22,0,0,1-.32-.11l-.62-1.73c-.12-.36-.07-.49.26-.63l1.65-.69c.14-.06.25,0,.3.16"/></clipPath><clipPath id="clip-path-12"><path class="cls-1" d="M375.38-363.46a1.16,1.16,0,0,1-1.16-1.16,1.16,1.16,0,0,1,1.16-1.16,1.16,1.16,0,0,1,1.16,1.16,1.16,1.16,0,0,1-1.16,1.16m0-1.74a.58.58,0,0,0-.59.58.58.58,0,0,0,.59.58.58.58,0,0,0,.58-.58.58.58,0,0,0-.58-.58"/></clipPath><clipPath id="clip-path-13"><path class="cls-1" d="M375-362.34h0a2.06,2.06,0,0,1-1.83-1.83.28.28,0,0,1,.25-.32.29.29,0,0,1,.32.25,1.53,1.53,0,0,0,1.33,1.33.28.28,0,0,1,.25.32.29.29,0,0,1-.29.25"/></clipPath><clipPath id="clip-path-14"><path class="cls-1" d="M373.38-364.74h0a.27.27,0,0,1-.25-.31,2.07,2.07,0,0,1,1.83-1.84.3.3,0,0,1,.32.26.3.3,0,0,1-.25.32,1.51,1.51,0,0,0-1.33,1.32.29.29,0,0,1-.29.26"/></clipPath><clipPath id="clip-path-15"><path class="cls-1" d="M377.37-364.74a.29.29,0,0,1-.29-.26,1.49,1.49,0,0,0-1.33-1.32.3.3,0,0,1-.25-.32.3.3,0,0,1,.32-.26,2.09,2.09,0,0,1,1.84,1.84.29.29,0,0,1-.26.31h0"/></clipPath><clipPath id="clip-path-16"><path class="cls-1" d="M375.79-362.34a.29.29,0,0,1-.29-.25.29.29,0,0,1,.25-.32,1.5,1.5,0,0,0,1.33-1.33.29.29,0,0,1,.32-.25.3.3,0,0,1,.26.32,2.08,2.08,0,0,1-1.84,1.83h0"/></clipPath><clipPath id="clip-path-17"><path class="cls-1" d="M378.59-365.53a.29.29,0,0,1-.27-.18.3.3,0,0,1,.15-.38l2.68-1.15a.28.28,0,0,1,.38.15.29.29,0,0,1-.15.38l-2.68,1.15a.23.23,0,0,1-.11,0"/></clipPath><clipPath id="clip-path-18"><path class="cls-1" d="M380-364.65a.29.29,0,0,1-.29-.28l-.18-2.91a.27.27,0,0,1,.26-.3.28.28,0,0,1,.31.26l.19,2.92a.28.28,0,0,1-.27.3h0"/></clipPath><clipPath id="clip-path-19"><polygon class="cls-1" points="404.79 -338.28 383.64 -358.42 384.15 -364.04 405.9 -341.33 405.9 -337.55 404.79 -338.28"/></clipPath><clipPath id="clip-path-20"><polygon class="cls-1" points="404.15 -329.87 382.99 -350.01 383.51 -355.63 405.25 -332.92 405.25 -329.15 404.15 -329.87"/></clipPath><clipPath id="clip-path-21"><polygon class="cls-1" points="403.41 -321.68 382.25 -341.82 382.77 -347.44 404.51 -324.73 404.51 -320.96 403.41 -321.68"/></clipPath></defs><title>돈의문박물관마을</title><g id="Layer_1" data-name="Layer 1"><circle class="cls-23" cx="68.03" cy="68.03" r="57.59"/><path d="M36.53,84c0,.35-.16.65-.52.65H29.26c-.22,0-.31.07-.31.3v1.9c0,.23.09.3.31.3h6.9c.36,0,.52.3.52.63s-.16.65-.52.65H32.75v1.7h5c.36,0,.53.3.53.63s-.17.63-.53.63H26.23c-.36,0-.52-.29-.52-.63s.16-.63.52-.63h5.05v-1.7H28.59c-.87,0-1.14-.27-1.14-1.13V84.5c0-.85.27-1.12,1.14-1.12H36C36.37,83.38,36.53,83.68,36.53,84Zm-7.61,8.93v2c0,.22.09.31.31.31h7.11c.36,0,.52.29.52.63s-.16.65-.52.65H28.56c-.87,0-1.14-.27-1.14-1.13V92.94c0-.43.36-.63.75-.63S28.92,92.51,28.92,92.94Z"/><path d="M48.67,92.46c0,.35-.1.66-.45.69-2.4.23-5.21.32-8.15.32-.36,0-.53-.3-.53-.65s.17-.64.53-.64c2.66,0,5.27,0,8-.29C48.46,91.86,48.66,92.1,48.67,92.46Zm-1.05-5.55c0,1.87-1.23,3.29-3.63,3.29s-3.64-1.42-3.64-3.29,1.24-3.28,3.64-3.28S47.62,85.05,47.62,86.91Zm-5.84,0a2,2,0,0,0,2.21,2,2,2,0,1,0,0-4A2,2,0,0,0,41.78,86.91ZM51,83.48V95.2c0,.43-.37.63-.76.63a.65.65,0,0,1-.73-.63V83.48a.65.65,0,0,1,.73-.63C50.59,82.85,51,83.05,51,83.48Z"/><path d="M65.63,90.47c0,.33-.16.63-.52.63H60.24v2.1c0,.39-.33.57-.75.57s-.73-.18-.73-.57V91.1H53.55c-.36,0-.53-.3-.53-.63s.17-.63.53-.63H65.11C65.47,89.84,65.63,90.12,65.63,90.47Zm-9.4,2.47v2c0,.22.1.31.32.31h7.1c.36,0,.53.29.53.63s-.17.65-.53.65H55.87c-.87,0-1.14-.27-1.14-1.13V92.94c0-.43.36-.63.75-.63S56.23,92.51,56.23,92.94Zm7.68-8.44v2.84c0,.86-.29,1.13-1.16,1.13H55.9c-.87,0-1.14-.27-1.14-1.13V84.5c0-.85.27-1.12,1.14-1.12h6.85C63.62,83.38,63.91,83.65,63.91,84.5ZM56.25,85v1.93c0,.24.08.32.32.32h5.52c.24,0,.32-.08.32-.32V85c0-.24-.08-.32-.32-.32H56.57C56.33,84.64,56.25,84.72,56.25,85Z"/><path d="M72.43,84.1v1.67h3.45V84.1a.66.66,0,0,1,.74-.63.67.67,0,0,1,.75.63V89c0,.86-.29,1.13-1.16,1.13H72.1c-.87,0-1.16-.27-1.16-1.13V84.1a.66.66,0,0,1,.74-.63A.67.67,0,0,1,72.43,84.1Zm8.68,8.74v3.35c0,.43-.36.63-.75.63s-.75-.2-.75-.63V93.3c0-.22-.09-.3-.32-.3H72.76c-.37,0-.54-.3-.54-.64s.17-.65.54-.65H80C80.82,91.71,81.11,92,81.11,92.84Zm-8.36-4h2.82c.22,0,.31-.07.31-.3V87H72.43v1.53C72.43,88.77,72.51,88.84,72.75,88.84Zm8.36-5.36v2.66h1.65c.39,0,.56.3.56.65s-.17.66-.56.66H81.11v3c0,.43-.36.63-.75.63s-.75-.2-.75-.63v-7c0-.43.36-.63.75-.63S81.11,83.05,81.11,83.48Z"/><path d="M95,92.28v1.11c0,.86-.28,1.13-1.15,1.13H87.48c-.16,0-.24.06-.24.23v.61a.21.21,0,0,0,.24.23h7.35a.51.51,0,0,1,.49.58c0,.32-.16.59-.49.59H86.94c-.87,0-1.15-.27-1.15-1.13V94.52c0-.86.28-1.13,1.15-1.13H93.3c.16,0,.24-.07.24-.22v-.6c0-.17-.08-.24-.24-.24H86.24c-.33,0-.48-.27-.48-.59s.15-.58.48-.58h3.42V89.93H84.6c-.34,0-.51-.27-.51-.62s.17-.6.51-.6H96.19c.35,0,.51.27.51.6s-.16.62-.51.62H91.13v1.23h2.71C94.71,91.16,95,91.43,95,92.28Zm0-8v2.24c0,.86-.29,1.13-1.16,1.13H87c-.87,0-1.14-.27-1.14-1.13V84.29c0-.85.27-1.12,1.14-1.12h6.85C94.69,83.17,95,83.44,95,84.29Zm-7.66.41v1.43c0,.24.07.31.32.31h5.52c.24,0,.32-.07.32-.31V84.7c0-.24-.08-.31-.32-.31H87.64C87.39,84.39,87.32,84.46,87.32,84.7Z"/><path d="M101.83,87.39v2.4c1.31,0,2.66-.1,4-.22.34,0,.52.21.55.57a.55.55,0,0,1-.45.67c-2.29.2-4.95.27-7.71.27-.37,0-.53-.28-.53-.63s.16-.63.53-.63h2.11V87.39c0-.42.36-.62.74-.62A.65.65,0,0,1,101.83,87.39Zm2.47-3.77c.87,0,1.15.27,1.15,1.13v1.08a8.75,8.75,0,0,1-.27,2.26.71.71,0,0,1-.91.45.6.6,0,0,1-.53-.76,8.69,8.69,0,0,0,.23-2v-.54c0-.24-.09-.31-.32-.31H99.13c-.36,0-.53-.3-.53-.65s.17-.66.53-.66Zm-3,9.28V95c0,.22.08.31.32.31h6.93c.37,0,.53.29.53.63s-.16.65-.53.65H100.9c-.87,0-1.15-.27-1.15-1.13V92.9c0-.44.36-.63.76-.63S101.26,92.46,101.26,92.9Zm7.42-9.43V87h1.46c.39,0,.55.3.55.66s-.16.66-.55.66h-1.46v4.28c0,.42-.36.61-.75.61s-.74-.19-.74-.61V83.47c0-.42.36-.62.74-.62S108.68,83.05,108.68,83.47Z"/><path d="M61.86,103v6.24c0,.86-.28,1.13-1.15,1.13H56.55c-.87,0-1.16-.27-1.16-1.13V103c0-.86.29-1.13,1.16-1.13h4.16C61.58,101.87,61.86,102.14,61.86,103Zm-5,.46v5.32c0,.22.09.3.31.3h2.87c.23,0,.32-.08.32-.3v-5.32c0-.22-.09-.3-.32-.3H57.19C57,103.16,56.88,103.24,56.88,103.46Zm8.69-2v3.9h1.65c.4,0,.56.28.56.64s-.16.67-.56.67H65.57v6.5c0,.43-.36.63-.75.63s-.75-.2-.75-.63V101.5c0-.44.36-.64.75-.64S65.57,101.06,65.57,101.5Z"/><path d="M81.17,107.38c0,.36-.17.63-.51.63H69.07c-.35,0-.51-.27-.51-.63s.16-.6.51-.6H80.66C81,106.78,81.17,107.05,81.17,107.38Zm-1.71,2.91v1.12c0,.85-.29,1.12-1.16,1.12H72c-.17,0-.24.06-.24.23v.61c0,.15.07.23.24.23h7.34a.52.52,0,0,1,.5.58c0,.32-.17.59-.5.59H71.41c-.87,0-1.16-.27-1.16-1.13v-1.11c0-.86.29-1.12,1.16-1.12h6.35c.17,0,.24-.08.24-.23v-.6c0-.17-.07-.24-.24-.24H70.7c-.33,0-.48-.27-.48-.59s.15-.58.48-.58h7.6C79.17,109.17,79.46,109.44,79.46,110.29Zm0-6.87c0,1.68-1.68,2.41-4.57,2.41s-4.56-.73-4.56-2.41S72,101,74.86,101,79.43,101.75,79.43,103.42Zm-7.65,0c0,.78.94,1.23,3.08,1.23s3.08-.45,3.08-1.23-.93-1.22-3.08-1.22S71.78,102.64,71.78,103.42Z"/><path class="cls-24" d="M59.91,43.39a39.18,39.18,0,0,1-1.35-3.84c-.13-.42-.42-.66-.71-.6a38.1,38.1,0,0,1-8.22.77A38.1,38.1,0,0,1,41.41,39c-.29-.06-.58.18-.71.6a40.18,40.18,0,0,1-1.35,3.84l0,0a15,15,0,0,1-6,.17c-.09,0-.13.19,0,.25,1.49,1.05,6.24,3.7,16.34,3.73S64.48,44.88,66,43.83c.09-.06,0-.27,0-.25a15,15,0,0,1-6-.17Z"/><path class="cls-24" d="M59.91,57.09a40.18,40.18,0,0,1-1.35-3.84c-.13-.43-.42-.67-.71-.6a39.41,39.41,0,0,1-8.22.77,39.41,39.41,0,0,1-8.22-.77c-.29-.07-.58.17-.71.6a40.18,40.18,0,0,1-1.35,3.84l0,0a15.22,15.22,0,0,1-6,.17c-.09,0-.13.18,0,.25,1.49,1,6.24,3.69,16.34,3.73S64.48,58.58,66,57.53c.09-.07,0-.28,0-.25a15.22,15.22,0,0,1-6-.17Z"/><path class="cls-24" d="M59.91,71.29a39.18,39.18,0,0,1-1.35-3.84c-.13-.42-.42-.66-.71-.6a38.1,38.1,0,0,1-8.22.77,38.1,38.1,0,0,1-8.22-.77c-.29-.06-.58.18-.71.6a40.18,40.18,0,0,1-1.35,3.84l0,0a15,15,0,0,1-6,.17c-.09,0-.13.19,0,.25,1.49,1,6.24,3.7,16.34,3.73S64.48,72.78,66,71.73c.09-.06,0-.27,0-.25a15,15,0,0,1-6-.17Z"/><path class="cls-24" d="M95.74,29.44a39.18,39.18,0,0,1-1.35-3.84c-.13-.42-.42-.66-.71-.6a38,38,0,0,1-8.22.77A38,38,0,0,1,77.25,25c-.3-.06-.58.18-.72.6a37.53,37.53,0,0,1-1.35,3.84s0,0,0,0a15,15,0,0,1-6,.17c-.1,0-.14.19,0,.25,1.49,1.05,6.24,3.7,16.34,3.73s14.85-2.68,16.34-3.73c.09-.06,0-.27,0-.25a15,15,0,0,1-6-.17Z"/><path class="cls-24" d="M95.74,43.14a40.18,40.18,0,0,1-1.35-3.84c-.13-.43-.42-.67-.71-.6a39.35,39.35,0,0,1-8.22.77,39.32,39.32,0,0,1-8.21-.77c-.3-.07-.58.17-.72.6a37.53,37.53,0,0,1-1.35,3.84l0,0a15.18,15.18,0,0,1-6,.17c-.1,0-.14.18,0,.25,1.49,1.05,6.24,3.69,16.34,3.73s14.85-2.68,16.34-3.73c.09-.07,0-.28,0-.25a15.24,15.24,0,0,1-6-.17Z"/><path class="cls-24" d="M95.74,57.34a39.18,39.18,0,0,1-1.35-3.84c-.13-.42-.42-.66-.71-.6a38,38,0,0,1-8.22.77,38,38,0,0,1-8.21-.77c-.3-.06-.58.18-.72.6a37.53,37.53,0,0,1-1.35,3.84s0,0,0,0a15,15,0,0,1-6,.17c-.1,0-.14.19,0,.25,1.49,1,6.24,3.7,16.34,3.73s14.85-2.68,16.34-3.73c.09-.06,0-.27,0-.25a15,15,0,0,1-6-.17Z"/><path class="cls-24" d="M95.74,71.29a39.18,39.18,0,0,1-1.35-3.84c-.13-.42-.42-.66-.71-.6a38,38,0,0,1-8.22.77,38,38,0,0,1-8.21-.77c-.3-.06-.58.18-.72.6a37.53,37.53,0,0,1-1.35,3.84s0,0,0,0a15,15,0,0,1-6,.17c-.1,0-.14.19,0,.25,1.49,1,6.24,3.7,16.34,3.73s14.85-2.68,16.34-3.73c.09-.06,0-.27,0-.25a15,15,0,0,1-6-.17Z"/></g></svg>