<svg xmlns="http://www.w3.org/2000/svg" xmlns:xlink="http://www.w3.org/1999/xlink" viewBox="0 0 136.06 136.06"><defs><style>.cls-1{fill:none;clip-rule:evenodd;}.cls-2{clip-path:url(#clip-path);}.cls-3{clip-path:url(#clip-path-2);}.cls-4{clip-path:url(#clip-path-3);}.cls-5{clip-path:url(#clip-path-4);}.cls-6{clip-path:url(#clip-path-5);}.cls-7{clip-path:url(#clip-path-6);}.cls-8{clip-path:url(#clip-path-7);}.cls-9{clip-path:url(#clip-path-8);}.cls-10{clip-path:url(#clip-path-9);}.cls-11{clip-path:url(#clip-path-10);}.cls-12{clip-path:url(#clip-path-11);}.cls-13{clip-path:url(#clip-path-12);}.cls-14{clip-path:url(#clip-path-13);}.cls-15{clip-path:url(#clip-path-14);}.cls-16{clip-path:url(#clip-path-15);}.cls-17{clip-path:url(#clip-path-16);}.cls-18{clip-path:url(#clip-path-17);}.cls-19{clip-path:url(#clip-path-18);}.cls-20{clip-path:url(#clip-path-19);}.cls-21{clip-path:url(#clip-path-20);}.cls-22{clip-path:url(#clip-path-21);}.cls-23{fill:#ffdebb;}.cls-24{fill:#98651a;}.cls-25{fill:#98cb00;}.cls-26,.cls-27,.cls-28{fill:#7c9804;}.cls-27{opacity:0.33;}.cls-28{opacity:0.63;}.cls-29{fill:#725418;}.cls-30{fill:#9f781f;}</style><clipPath id="clip-path"><polygon class="cls-1" points="-537.58 54.26 -563.57 25.48 -566.04 58.92 -549.32 75.64 -537.58 77.77 -537.58 77.04 -537.58 54.26"/></clipPath><clipPath id="clip-path-2"><polygon class="cls-1" points="-563.57 25.48 -566.03 58.92 -595.78 64.39 -589.51 36.57 -563.57 25.48"/></clipPath><clipPath id="clip-path-3"><polygon class="cls-1" points="-595.78 64.39 -588.06 69.21 -560.57 64.39 -566.04 58.92 -595.78 64.39"/></clipPath><clipPath id="clip-path-4"><polygon class="cls-1" points="-588.06 69.21 -588.78 75.14 -562.02 72.56 -560.57 64.39 -588.06 69.21"/></clipPath><clipPath id="clip-path-5"><polygon class="cls-1" points="-560.57 64.39 -562.03 72.56 -549.32 75.64 -560.57 64.39"/></clipPath><clipPath id="clip-path-6"><path class="cls-1" d="M-568.34,35l.07-1.09c0-.15.14-.2.27-.19s.24.08.23.22l-.06.9c0,.07,0,.09.08.1a7.87,7.87,0,0,0,1.19,0,.19.19,0,0,1,.19.2c0,.11,0,.21-.15.22a13.37,13.37,0,0,1-1.51,0C-568.28,35.35-568.35,35.27-568.34,35Zm.56,2.14c-.24,0-.32-.1-.3-.34l0-.76c0-.24.11-.31.35-.29l1.62.1c.24,0,.32.1.3.34l-.05.76c0,.24-.1.31-.34.29Zm1.39-.32c.07,0,.09,0,.1-.08l0-.4c0-.07,0-.09-.08-.1l-1.12-.07c-.06,0-.09,0-.09.08l0,.41c0,.06,0,.08.09.09Zm1.09-2.29c.13,0,.17.1.16.22s-.06.21-.18.2l-.36,0,0,.6a.22.22,0,0,1-.26.19c-.13,0-.24-.08-.23-.22l.1-1.61a.22.22,0,0,1,.26-.19c.13,0,.24.08.23.22l0,.58Z"/></clipPath><clipPath id="clip-path-7"><path class="cls-1" d="M-568.64,40.25a.18.18,0,0,1-.16-.22c0-.11.07-.2.19-.19l2.89.19a.17.17,0,0,1,.16.21c0,.12-.07.21-.19.2l-1.2-.08-.06,1a.22.22,0,0,1-.26.19c-.13,0-.24-.08-.23-.22l.06-1Zm2.72-.89c0,.24-.1.31-.35.3l-1.75-.12c-.25,0-.32-.1-.31-.34l.07-1.07A.22.22,0,0,1-568,38a.21.21,0,0,1,.23.21v.26l1.44.09,0-.25c0-.14.13-.19.25-.19s.24.08.23.22Zm-.53-.13s.06,0,.06,0l0-.26-1.45-.09,0,.26s0,0,.06.06Z"/></clipPath><clipPath id="clip-path-8"><path class="cls-1" d="M-568.69,42.66c-.12,0-.17-.1-.16-.21a.19.19,0,0,1,.18-.19l.9.06c.25,0,.32.1.31.34l0,.38c0,.53-.16.68-1.19,1.12a.21.21,0,0,1-.28-.1.2.2,0,0,1,.08-.29c.58-.24.79-.34.87-.45h-.81a.18.18,0,0,1-.17-.2c0-.1,0-.2.17-.2l.88,0V42.8c0-.06,0-.09-.08-.09Zm.49,3c-.24,0-.32-.1-.3-.34l0-.73c0-.24.11-.32.35-.3l1.75.12c.25,0,.32.1.31.34l-.05.73c0,.24-.1.31-.35.29Zm1.53-.31c.06,0,.09,0,.09-.08l0-.38c0-.06,0-.09-.08-.09l-1.26-.08c-.06,0-.08,0-.09.08l0,.37c0,.07,0,.09.08.1Zm-.06-2.33.34,0,0-.63c0-.13.12-.18.24-.18a.21.21,0,0,1,.21.21l-.11,1.66c0,.13-.12.18-.24.17s-.22-.07-.21-.2l0-.62-.33,0,0,.6a.2.2,0,0,1-.24.18c-.11,0-.22-.07-.21-.21l.11-1.61a.2.2,0,0,1,.23-.18c.12,0,.22.07.22.2Z"/></clipPath><clipPath id="clip-path-9"><path class="cls-1" d="M-569.31,48.56c0-.1.07-.2.19-.19l.21,0,.09-1.41-.18,0c-.12,0-.17-.1-.16-.21s.07-.2.18-.19l1.66.11c.12,0,.16.11.16.21s-.07.2-.19.19h-.15l-.09,1.36h.2a.17.17,0,0,1,.18.19c0,.11,0,.21-.15.22a14.55,14.55,0,0,1-1.79,0C-569.26,48.77-569.31,48.67-569.31,48.56Zm1.25-.14L-568,47l-.39,0-.09,1.4A2.54,2.54,0,0,0-568.06,48.42Zm.89-.47a.18.18,0,0,1-.16-.22c0-.11.06-.2.18-.2l.33,0,.06-.92a.22.22,0,0,1,.26-.19c.13,0,.24.08.23.22l-.19,2.93c0,.15-.14.2-.26.2a.22.22,0,0,1-.23-.23l.11-1.6Z"/></clipPath><clipPath id="clip-path-10"><path class="cls-1" d="M-569.52,53.55c-.12,0-.16-.11-.16-.22s.07-.21.19-.2l2.89.19a.18.18,0,0,1,.16.22c0,.11-.07.21-.19.2Zm2.85-.94a.21.21,0,0,1-.29.07,7.32,7.32,0,0,1-.65-.44c-.22-.17-.33-.31-.34-.4h0c0,.1-.15.23-.39.36l-.7.36a.22.22,0,0,1-.29-.12.21.21,0,0,1,.07-.29c.22-.11.45-.22.69-.36a.71.71,0,0,0,.41-.62V51c0-.15.14-.2.27-.19a.21.21,0,0,1,.23.22v.2a.69.69,0,0,0,.32.67c.23.17.44.31.65.45S-566.61,52.52-566.67,52.61Z"/></clipPath><clipPath id="clip-path-11"><path class="cls-1" d="M-574.33,31.37c.06.13.05.27-.1.33l-1.54.65.46,1.29a1.41,1.41,0,0,1,.71-.61,1.27,1.27,0,0,1,1.76.73l0,.06a1.41,1.41,0,0,1-.88,1.93,2.38,2.38,0,0,1-1.37.18.27.27,0,0,1-.23-.34.24.24,0,0,1,.31-.23,1.83,1.83,0,0,0,1.06-.13.83.83,0,0,0,.53-1.18l0,0a.79.79,0,0,0-1.16-.44,1.14,1.14,0,0,0-.61.57.4.4,0,0,1-.22.22c-.14.06-.28,0-.32-.1l-.62-1.73c-.12-.37-.07-.49.26-.63l1.65-.69c.14-.06.25,0,.3.16"/></clipPath><clipPath id="clip-path-12"><path class="cls-1" d="M-570.8,33A1.16,1.16,0,0,1-572,31.86a1.16,1.16,0,0,1,1.16-1.16,1.16,1.16,0,0,1,1.16,1.16A1.16,1.16,0,0,1-570.8,33m0-1.74a.59.59,0,0,0-.59.58.59.59,0,0,0,.59.58.58.58,0,0,0,.58-.58.58.58,0,0,0-.58-.58"/></clipPath><clipPath id="clip-path-13"><path class="cls-1" d="M-571.22,34.14h0a2.07,2.07,0,0,1-1.83-1.84.28.28,0,0,1,.25-.32.3.3,0,0,1,.32.26,1.51,1.51,0,0,0,1.33,1.32.29.29,0,0,1,.25.32.29.29,0,0,1-.29.26"/></clipPath><clipPath id="clip-path-14"><path class="cls-1" d="M-572.8,31.73h0a.28.28,0,0,1-.25-.32,2.06,2.06,0,0,1,1.83-1.83.28.28,0,0,1,.32.25.28.28,0,0,1-.25.32,1.53,1.53,0,0,0-1.33,1.33.29.29,0,0,1-.29.25"/></clipPath><clipPath id="clip-path-15"><path class="cls-1" d="M-568.81,31.73a.3.3,0,0,1-.29-.25,1.5,1.5,0,0,0-1.32-1.33.3.3,0,0,1-.26-.32.28.28,0,0,1,.32-.25,2.07,2.07,0,0,1,1.84,1.83.3.3,0,0,1-.26.32h0"/></clipPath><clipPath id="clip-path-16"><path class="cls-1" d="M-570.39,34.14a.29.29,0,0,1-.29-.26.3.3,0,0,1,.26-.32,1.49,1.49,0,0,0,1.32-1.32.3.3,0,0,1,.32-.26.29.29,0,0,1,.26.32,2.08,2.08,0,0,1-1.84,1.84h0"/></clipPath><clipPath id="clip-path-17"><path class="cls-1" d="M-567.59,30.94a.29.29,0,0,1-.27-.17.29.29,0,0,1,.15-.38l2.68-1.16a.29.29,0,0,1,.38.15.29.29,0,0,1-.15.38l-2.68,1.16-.11,0"/></clipPath><clipPath id="clip-path-18"><path class="cls-1" d="M-566.16,31.82a.28.28,0,0,1-.28-.27l-.19-2.91a.29.29,0,0,1,.27-.31.28.28,0,0,1,.3.27l.19,2.91a.29.29,0,0,1-.27.31h0"/></clipPath><clipPath id="clip-path-19"><polygon class="cls-1" points="-541.39 58.2 -562.54 38.06 -562.03 32.44 -540.28 55.15 -540.28 58.92 -541.39 58.2"/></clipPath><clipPath id="clip-path-20"><polygon class="cls-1" points="-542.03 66.61 -563.19 46.47 -562.67 40.85 -540.92 63.56 -540.92 67.33 -542.03 66.61"/></clipPath><clipPath id="clip-path-21"><polygon class="cls-1" points="-542.77 74.79 -563.93 54.65 -563.41 49.04 -541.66 71.75 -541.66 75.52 -542.77 74.79"/></clipPath></defs><title>경춘선공원화</title><g id="Layer_1" data-name="Layer 1"><circle class="cls-23" cx="68.03" cy="68.03" r="57.59"/><path d="M53.7,83.31c.87,0,1.16.27,1.16,1.12v1.15c0,2.23-.74,2.74-5.26,4.88a.67.67,0,0,1-.88-.35.64.64,0,0,1,.25-.9c4.14-1.92,4.38-2.22,4.38-3.69v-.61c0-.22-.07-.31-.31-.31H49.3c-.36,0-.52-.29-.52-.63s.16-.66.52-.66Zm5.86,10.43c0,1.88-1.63,2.84-4.4,2.84s-4.4-1-4.4-2.84,1.62-2.83,4.4-2.83S59.56,91.87,59.56,93.74Zm-7.32,0c0,1,.87,1.63,2.92,1.63s2.91-.64,2.91-1.63-.89-1.62-2.91-1.62S52.24,92.75,52.24,93.74Zm7.24-10.57v7c0,.43-.36.62-.73.62s-.76-.19-.76-.62V88.73H55.91c-.36,0-.51-.3-.51-.65s.15-.64.51-.64H58v-1.5H56c-.36,0-.51-.3-.51-.65s.15-.65.51-.65h2V83.17c0-.43.38-.63.76-.63A.65.65,0,0,1,59.48,83.17Z"/><path d="M74.34,90.32c0,.33-.16.62-.53.62H69v2c0,.41-.33.57-.75.57s-.74-.16-.74-.57v-2H62.25c-.36,0-.52-.29-.52-.62s.16-.65.52-.65H73.81C74.18,89.67,74.34,90,74.34,90.32ZM68.8,83v.83h3.59c.36,0,.52.28.52.63s-.16.63-.52.63H68.8v.26c0,.57.34,1,1.37,1.36s1.83.68,2.64.93a.63.63,0,0,1,.34.83.61.61,0,0,1-.82.37c-.72-.22-1.59-.54-2.48-.88-1.25-.47-1.7-.89-1.8-1.25h0c-.12.39-.57.81-1.81,1.28-.89.34-1.76.66-2.48.88a.63.63,0,0,1-.83-.37.64.64,0,0,1,.35-.86c.81-.25,1.7-.57,2.64-.93s1.37-.79,1.37-1.36v-.26H63.68c-.36,0-.53-.28-.53-.63s.17-.63.53-.63h3.59V83c0-.43.37-.63.76-.63S68.8,82.53,68.8,83Zm-3.86,9.79v1.92c0,.23.09.32.32.32h7.1c.36,0,.52.28.52.63s-.16.65-.52.65H64.58c-.87,0-1.14-.27-1.14-1.13V92.75c0-.43.36-.63.75-.63S64.94,92.32,64.94,92.75Z"/><path d="M80.42,83.74v1.61a2.79,2.79,0,0,0,1,2.3c.69.6,1.29,1.08,1.8,1.45a.63.63,0,0,1,.09.93.66.66,0,0,1-.93.19c-.45-.35-1-.82-1.67-1.37s-.93-.93-1-1.25h0c-.08.33-.28.68-1.06,1.34s-1.27,1-1.9,1.52a.71.71,0,0,1-.83-1.15c.69-.49,1.34-1,2-1.62a2.76,2.76,0,0,0,1-2.3V83.74c0-.43.36-.63.75-.63S80.42,83.31,80.42,83.74Zm-.93,8.32V94.6c0,.22.07.3.31.3h6.82c.37,0,.54.3.54.66s-.17.65-.54.65h-7.5c-.87,0-1.15-.27-1.15-1.13v-3c0-.43.36-.63.76-.63S79.49,91.63,79.49,92.06Zm7.31-8.89v8.89c0,.44-.36.63-.74.63s-.75-.19-.75-.63V86.88H83c-.38,0-.54-.3-.54-.64s.16-.65.54-.65h2.28V83.17c0-.43.36-.63.75-.63A.66.66,0,0,1,86.8,83.17Z"/><path d="M54.18,104.8v2h6c.36,0,.52.28.52.61s-.16.65-.52.65H48.6c-.37,0-.53-.3-.53-.65s.16-.61.53-.61h4.09v-2c0-.42.36-.61.74-.61S54.18,104.38,54.18,104.8Zm3.62-3.69c.87,0,1.16.27,1.16,1.12v1a7.17,7.17,0,0,1-.29,2.19.72.72,0,0,1-.92.47.6.6,0,0,1-.52-.77,8,8,0,0,0,.22-1.93v-.48c0-.23-.09-.3-.31-.3h-7c-.36,0-.51-.31-.51-.65s.15-.66.51-.66ZM59,112c0,1.79-1.7,2.66-4.59,2.66s-4.6-.87-4.6-2.66,1.7-2.65,4.6-2.65S59,110.18,59,112Zm-7.7,0c0,.91.94,1.46,3.11,1.46s3.1-.55,3.1-1.46-.94-1.45-3.1-1.45S51.27,111.06,51.27,112Z"/><path d="M71,107a.56.56,0,0,1-.45.68c-1,.14-2.26.23-3.55.29v1.77c0,.4-.33.58-.75.58s-.73-.18-.73-.58V108c-1,0-2.12,0-3.13,0-.36,0-.52-.27-.52-.62s.16-.63.52-.63a71.51,71.51,0,0,0,8-.36C70.81,106.39,71,106.63,71,107ZM70,103.32c0,1.48-1.18,2.5-3.56,2.5s-3.55-1-3.55-2.5,1.17-2.51,3.55-2.51S70,101.83,70,103.32Zm-4.36,7.86v1.47c0,.23.08.32.32.32h7.2c.36,0,.53.29.53.63s-.17.65-.53.65H65.27c-.87,0-1.15-.27-1.15-1.13v-1.94c0-.43.36-.63.76-.63A.66.66,0,0,1,65.63,111.18Zm-1.33-7.86c0,.76.66,1.32,2.13,1.32s2.14-.56,2.14-1.32S67.9,102,66.43,102,64.3,102.55,64.3,103.32Zm9-2.14v9.34c0,.44-.36.63-.75.63s-.74-.19-.74-.63v-.69h-2.4c-.34,0-.51-.27-.51-.6s.17-.61.51-.61h2.4v-7.44a.66.66,0,0,1,.74-.63C73,100.55,73.32,100.75,73.32,101.18Z"/><path d="M84.08,110.51c0,.34-.12.64-.45.67-2.3.21-5,.29-7.75.29-.36,0-.52-.3-.52-.65s.16-.61.52-.61c1,0,2.06,0,3.09,0v-1.47c-1.56-.19-2.47-1-2.47-2.27,0-1.41,1.2-2.31,3.21-2.31s3.21.9,3.21,2.31c0,1.23-.91,2.08-2.47,2.27v1.43c1-.05,2-.11,3.07-.2C83.87,109.92,84.05,110.16,84.08,110.51Zm-3.62-9.28v.87h2.7c.36,0,.53.3.53.65s-.17.63-.53.63h-7c-.36,0-.52-.3-.52-.63s.16-.65.52-.65H79v-.87c0-.44.38-.63.75-.63S80.46,100.79,80.46,101.23Zm-2.6,5.22c0,.66.6,1.16,1.85,1.16s1.85-.5,1.85-1.16-.6-1.15-1.85-1.15S77.86,105.78,77.86,106.45Zm8.46-5.28v4.37h1.45c.39,0,.56.28.56.64s-.17.66-.56.66H86.32v6.07c0,.42-.36.62-.75.62s-.74-.2-.74-.62V101.17c0-.42.36-.62.74-.62S86.32,100.75,86.32,101.17Z"/><path class="cls-24" d="M55.1,37.51c1.27-1.81-.19-4.5-.19-4.5a4.13,4.13,0,0,1,3.29,0s-1.35,2.49-.32,4.29a.87.87,0,0,1-.66,1.3,7.48,7.48,0,0,1-1.64,0A.7.7,0,0,1,55.1,37.51Z"/><path class="cls-25" d="M60.39,34a5.23,5.23,0,0,0,1.22-.38c1.81-.81,1.59-1.88,1.14-2.59s-1.09-.84-1.5-1.4a7,7,0,0,1-.64-2.2,3.34,3.34,0,0,0-3.34-2.66h-.18a3.56,3.56,0,0,0-1.51.32,3.51,3.51,0,0,0-1.83,2.34,7.06,7.06,0,0,1-.65,2.2c-.4.56-1.12.81-1.5,1.4-.49.78-.71,2,1.75,2.83l.29.1C54.12,34.09,56.28,34.74,60.39,34Z"/><path class="cls-26" d="M59.16,31.55a.31.31,0,0,1,.53-.08.27.27,0,0,0,.39,0c.1-.15.25-.22.45.12a.26.26,0,0,1-.1.36,1.12,1.12,0,0,1-1.19,0A.26.26,0,0,1,59.16,31.55Z"/><path class="cls-27" d="M56.2,27.35a.32.32,0,0,1,.54-.08.26.26,0,0,0,.38-.05c.1-.15.25-.22.45.12a.26.26,0,0,1-.1.36,1.12,1.12,0,0,1-1.19,0A.26.26,0,0,1,56.2,27.35Z"/><path class="cls-28" d="M53.33,30.51a.31.31,0,0,1,.53-.08.26.26,0,0,0,.39-.05c.1-.15.25-.22.45.12a.26.26,0,0,1-.1.36,1.12,1.12,0,0,1-1.19,0A.26.26,0,0,1,53.33,30.51Z"/><path class="cls-24" d="M64.59,38.93c1.26-1.8-.19-4.49-.19-4.49a4.13,4.13,0,0,1,3.29,0s-1.35,2.49-.32,4.29a.87.87,0,0,1-.66,1.3,6.94,6.94,0,0,1-1.64,0A.69.69,0,0,1,64.59,38.93Z"/><path class="cls-25" d="M69.88,35.38A5.76,5.76,0,0,0,71.1,35c1.81-.81,1.58-1.88,1.14-2.59s-1.09-.84-1.5-1.41a6.72,6.72,0,0,1-.64-2.2,3.54,3.54,0,0,0-1.84-2.34,3.38,3.38,0,0,0-1.51-.31h-.18a3.37,3.37,0,0,0-1.5.31,3.54,3.54,0,0,0-1.84,2.34,6.72,6.72,0,0,1-.64,2.2c-.41.57-1.13.81-1.5,1.41-.49.78-.71,2,1.75,2.83l.28.1C63.61,35.52,65.77,36.16,69.88,35.38Z"/><path class="cls-26" d="M68.65,33a.31.31,0,0,1,.53-.07.25.25,0,0,0,.38,0c.1-.15.26-.23.46.11a.29.29,0,0,1-.1.37,1.14,1.14,0,0,1-1.19,0A.27.27,0,0,1,68.65,33Z"/><path class="cls-27" d="M65.69,28.77a.31.31,0,0,1,.53-.07.25.25,0,0,0,.38-.05c.11-.15.26-.23.46.11a.26.26,0,0,1-.1.36,1.12,1.12,0,0,1-1.19,0A.27.27,0,0,1,65.69,28.77Z"/><path class="cls-28" d="M62.82,31.94a.31.31,0,0,1,.53-.08.25.25,0,0,0,.38-.05c.1-.15.26-.22.46.12a.27.27,0,0,1-.1.36,1.12,1.12,0,0,1-1.19,0A.26.26,0,0,1,62.82,31.94Z"/><path class="cls-24" d="M58.52,44c.94-1.35-.14-3.35-.14-3.35a3.06,3.06,0,0,1,2.45,0s-1,1.85-.24,3.19a.65.65,0,0,1-.49,1,5.52,5.52,0,0,1-1.22,0A.52.52,0,0,1,58.52,44Z"/><path class="cls-25" d="M62.46,41.33a4,4,0,0,0,.91-.28c1.35-.61,1.18-1.4.85-1.93s-.82-.63-1.12-1a5.36,5.36,0,0,1-.48-1.64,2.61,2.61,0,0,0-1.36-1.74,2.56,2.56,0,0,0-1.12-.23H60a2.56,2.56,0,0,0-1.12.23,2.65,2.65,0,0,0-1.37,1.74A5.08,5.08,0,0,1,57,38.07c-.31.42-.84.6-1.12,1s-.53,1.49,1.3,2.1l.21.08A9.93,9.93,0,0,0,62.46,41.33Z"/><path class="cls-26" d="M61.55,39.54a.23.23,0,0,1,.39-.06.2.2,0,0,0,.29,0c.07-.12.19-.17.33.08a.19.19,0,0,1-.07.27.83.83,0,0,1-.89,0A.19.19,0,0,1,61.55,39.54Z"/><path class="cls-27" d="M59.34,36.41a.23.23,0,0,1,.4-.06.19.19,0,0,0,.28,0c.08-.11.19-.17.34.08a.19.19,0,0,1-.07.27.83.83,0,0,1-.89,0A.19.19,0,0,1,59.34,36.41Z"/><path class="cls-28" d="M57.21,38.77a.23.23,0,0,1,.39-.06.19.19,0,0,0,.29,0c.07-.11.18-.17.33.09a.2.2,0,0,1-.07.27.85.85,0,0,1-.89,0A.19.19,0,0,1,57.21,38.77Z"/><path class="cls-29" d="M44.81,70.9l.3-.38.62-.79.91-1.15,1.13-1.43,1.31-1.64c.49-.62,1-1.21,1.44-1.79L52,61.85,53.61,60c.54-.66,1.08-1.29,1.6-1.91l1.61-1.88,1.64-1.86,1.65-1.83c.55-.61,1.11-1.21,1.68-1.82l1.71-1.81L65.26,47l1.81-1.84c.59-.59,1.2-1.21,1.84-1.84s1.21-1.21,1.85-1.84l1.84-1.82,1.77-1.75c.54-.52,1.09-1.07,1.66-1.63l1.47-1.45,1.22-1.2.88-.89c.16-.17.34-.33.49-.51a.31.31,0,0,0,.07-.09c.41-.7-.21-.77-.21-.77a1.48,1.48,0,0,0-1.31.35c0,.05-3.85,3.54-7.64,7.09s-7.83,7.46-11.43,11.4-6.94,8-10.11,12.16c-3,4-5.93,7.93-5.82,7.73-.57.77,0,1.45.51,1.28A1.66,1.66,0,0,0,44.81,70.9Z"/><path class="cls-29" d="M59,77.46l.23-.3.48-.61.71-.91.87-1.17q.51-.69,1-1.38c.37-.52.72-1,1.07-1.56s.75-1.14,1.11-1.7.76-1.22,1.12-1.83.77-1.29,1.13-1.93.76-1.35,1.12-2,.76-1.4,1.13-2.11.75-1.44,1.13-2.18.77-1.49,1.17-2.25l1.2-2.32,1.26-2.38c.42-.78.86-1.59,1.33-2.41S76,48.79,76.43,48s.93-1.59,1.43-2.41,1-1.55,1.45-2.35.94-1.48,1.44-2.24l1.36-2.05c.4-.59.81-1.19,1.24-1.8s.68-1,1-1.48l.77-1.07c.15-.2.29-.41.46-.6a.27.27,0,0,1,.08-.1c.76-.7,1.13-.47,1.13-.46.25.07.41.36.06.91,0,0-3.23,4.65-6.19,9.67s-5.88,10.69-8.38,15.6a122.75,122.75,0,0,1-7.07,12.7c-2.22,3.4-4.56,6-4.46,6-.45.54-1.74.18-1.91-.21A.59.59,0,0,1,59,77.46Z"/><path class="cls-30" d="M66.33,76.91c-9.63-5.41-15.58-7.34-21.7-12.56-.61-.51-.6-1.88,0-2.92h0c.58-1,1.55-1.34,2.2-.77,6.44,5.66,12.38,8,21.69,13.93.92.59,1.28,1.61.7,2.21h0A2.58,2.58,0,0,1,66.33,76.91Z"/><path class="cls-30" d="M70.31,69.57c-7.49-5.41-12.93-8.36-19-13.56a2.12,2.12,0,0,1-.41-2.55h0A1.36,1.36,0,0,1,53,53.2c6.35,5.36,11.79,8.47,19,14.06a1.84,1.84,0,0,1,.69,2.32h0C72.25,70.21,71.15,70.18,70.31,69.57Z"/><path class="cls-30" d="M73.66,62.07C67.8,57.26,62.87,54.21,57,49.6a1.8,1.8,0,0,1-.56-2.29h0a1.57,1.57,0,0,1,2.24-.12c6.06,4.53,11,7.53,16.63,12.28a2.06,2.06,0,0,1,.51,2.46h0A1.4,1.4,0,0,1,73.66,62.07Z"/><path class="cls-30" d="M77.47,53.66c-4.63-3.79-9-6.33-14.54-9.92a1.46,1.46,0,0,1-.47-2.15h0A2.08,2.08,0,0,1,65,41.27c5.64,3.34,10,5.64,14.49,9.19a2.14,2.14,0,0,1,.16,2.62h0A1.44,1.44,0,0,1,77.47,53.66Z"/><path class="cls-30" d="M82.87,43.52c-3.69-2.5-7.61-4.12-12.64-6.44-.81-.38-.92-1.33-.14-2.11h0a3.26,3.26,0,0,1,3-.88c5.14,1.93,9,3.17,12.58,5.3.57.33.37,1.65-.39,2.82h0C84.53,43.39,83.47,43.92,82.87,43.52Z"/><path class="cls-24" d="M83.73,71.75c1.26-1.81-.19-4.49-.19-4.49a4.13,4.13,0,0,1,3.29,0s-1.35,2.49-.32,4.29a.87.87,0,0,1-.66,1.3,6.94,6.94,0,0,1-1.64,0A.69.69,0,0,1,83.73,71.75Z"/><path class="cls-25" d="M89,68.2a5.76,5.76,0,0,0,1.22-.38c1.81-.81,1.58-1.88,1.14-2.59s-1.1-.84-1.5-1.41a7,7,0,0,1-.65-2.2,3.53,3.53,0,0,0-1.83-2.34A3.41,3.41,0,0,0,85.89,59h-.18a3.37,3.37,0,0,0-1.5.31,3.54,3.54,0,0,0-1.84,2.34,7,7,0,0,1-.64,2.2c-.41.57-1.13.81-1.5,1.41-.49.78-.71,2,1.75,2.82l.28.11C82.75,68.33,84.91,69,89,68.2Z"/><path class="cls-26" d="M87.79,65.79a.31.31,0,0,1,.53-.07.25.25,0,0,0,.38,0c.1-.15.26-.23.46.11a.27.27,0,0,1-.11.36,1.1,1.1,0,0,1-1.18,0A.27.27,0,0,1,87.79,65.79Z"/><path class="cls-27" d="M84.83,61.59a.3.3,0,0,1,.53-.07.25.25,0,0,0,.38-.05c.1-.15.26-.23.46.11a.27.27,0,0,1-.1.36,1.12,1.12,0,0,1-1.19,0A.27.27,0,0,1,84.83,61.59Z"/><path class="cls-28" d="M82,64.75a.31.31,0,0,1,.53-.07.25.25,0,0,0,.38-.05c.1-.15.26-.23.46.11a.28.28,0,0,1-.11.37,1.12,1.12,0,0,1-1.18,0A.27.27,0,0,1,82,64.75Z"/><path class="cls-24" d="M77.55,69.59c1.26-1.8-.19-4.49-.19-4.49a4.13,4.13,0,0,1,3.29,0s-1.35,2.49-.32,4.29a.87.87,0,0,1-.66,1.3,6.94,6.94,0,0,1-1.64,0A.69.69,0,0,1,77.55,69.59Z"/><path class="cls-25" d="M82.84,66a5.23,5.23,0,0,0,1.22-.38c1.81-.81,1.58-1.88,1.14-2.59s-1.09-.84-1.5-1.4a6.85,6.85,0,0,1-.64-2.21,3.31,3.31,0,0,0-3.34-2.65h-.19a3.31,3.31,0,0,0-3.34,2.65,6.85,6.85,0,0,1-.64,2.21c-.41.56-1.13.8-1.5,1.4-.49.78-.71,2,1.75,2.83l.28.1C76.57,66.18,78.73,66.82,82.84,66Z"/><path class="cls-26" d="M81.61,63.64a.31.31,0,0,1,.53-.08.25.25,0,0,0,.38-.05c.1-.15.26-.23.46.12a.26.26,0,0,1-.1.36,1.14,1.14,0,0,1-1.19,0A.26.26,0,0,1,81.61,63.64Z"/><path class="cls-27" d="M78.65,59.44a.31.31,0,0,1,.53-.08.25.25,0,0,0,.38,0c.11-.15.26-.23.46.12a.26.26,0,0,1-.1.36,1.14,1.14,0,0,1-1.19,0A.26.26,0,0,1,78.65,59.44Z"/><path class="cls-28" d="M75.78,62.6a.31.31,0,0,1,.53-.08.25.25,0,0,0,.38-.05c.1-.15.26-.22.46.12a.26.26,0,0,1-.1.36,1.12,1.12,0,0,1-1.19,0A.26.26,0,0,1,75.78,62.6Z"/><path class="cls-24" d="M70.61,75.23c1.27-1.81-.19-4.5-.19-4.5a4.13,4.13,0,0,1,3.29,0s-1.35,2.49-.32,4.29a.87.87,0,0,1-.65,1.3,7,7,0,0,1-1.65,0A.7.7,0,0,1,70.61,75.23Z"/><path class="cls-25" d="M75.9,71.68a5.34,5.34,0,0,0,1.23-.39c1.8-.81,1.58-1.88,1.13-2.59s-1.09-.84-1.5-1.4a7.24,7.24,0,0,1-.64-2.2,3.34,3.34,0,0,0-3.34-2.66.54.54,0,0,1-.18,0,3.59,3.59,0,0,0-1.51.32,3.51,3.51,0,0,0-1.83,2.34,7.24,7.24,0,0,1-.64,2.2c-.41.56-1.13.81-1.51,1.4-.49.78-.71,2,1.75,2.83l.29.1C69.63,71.81,71.79,72.46,75.9,71.68Z"/><path class="cls-26" d="M74.67,69.27a.32.32,0,0,1,.54-.08.25.25,0,0,0,.38,0c.1-.15.25-.22.45.12a.26.26,0,0,1-.1.36,1.12,1.12,0,0,1-1.19,0A.27.27,0,0,1,74.67,69.27Z"/><path class="cls-27" d="M71.71,65.07a.32.32,0,0,1,.54-.08.25.25,0,0,0,.38,0c.1-.15.25-.22.45.12a.25.25,0,0,1-.1.36,1.12,1.12,0,0,1-1.19,0A.27.27,0,0,1,71.71,65.07Z"/><path class="cls-28" d="M68.84,68.23a.32.32,0,0,1,.54-.08.25.25,0,0,0,.38,0c.1-.15.25-.23.45.11a.26.26,0,0,1-.1.36,1.1,1.1,0,0,1-1.19,0A.27.27,0,0,1,68.84,68.23Z"/></g></svg>