<svg xmlns="http://www.w3.org/2000/svg" xmlns:xlink="http://www.w3.org/1999/xlink" viewBox="0 0 136.06 136.06"><defs><style>.cls-1{fill:none;clip-rule:evenodd;}.cls-2{fill:#ffdebb;}.cls-3{fill:#f69;}.cls-4{fill:#5ba519;}.cls-5{fill:#dd578b;}.cls-6{fill:#fff;}.cls-7{fill:#c4c4c4;}.cls-8{clip-path:url(#clip-path);}.cls-9{clip-path:url(#clip-path-2);}.cls-10{clip-path:url(#clip-path-3);}.cls-11{clip-path:url(#clip-path-4);}.cls-12{clip-path:url(#clip-path-5);}.cls-13{clip-path:url(#clip-path-6);}.cls-14{clip-path:url(#clip-path-7);}.cls-15{clip-path:url(#clip-path-8);}.cls-16{clip-path:url(#clip-path-9);}.cls-17{clip-path:url(#clip-path-10);}.cls-18{clip-path:url(#clip-path-11);}.cls-19{clip-path:url(#clip-path-12);}.cls-20{clip-path:url(#clip-path-13);}.cls-21{clip-path:url(#clip-path-14);}.cls-22{clip-path:url(#clip-path-15);}.cls-23{clip-path:url(#clip-path-16);}.cls-24{clip-path:url(#clip-path-17);}.cls-25{clip-path:url(#clip-path-18);}.cls-26{clip-path:url(#clip-path-19);}.cls-27{clip-path:url(#clip-path-20);}.cls-28{clip-path:url(#clip-path-21);}</style><clipPath id="clip-path"><polygon class="cls-1" points="-387.71 54.26 -413.7 25.48 -416.17 58.92 -399.45 75.64 -387.71 77.77 -387.71 77.04 -387.71 54.26"/></clipPath><clipPath id="clip-path-2"><polygon class="cls-1" points="-413.7 25.48 -416.17 58.92 -445.91 64.39 -439.64 36.57 -413.7 25.48"/></clipPath><clipPath id="clip-path-3"><polygon class="cls-1" points="-445.91 64.39 -438.2 69.21 -410.7 64.39 -416.17 58.92 -445.91 64.39"/></clipPath><clipPath id="clip-path-4"><polygon class="cls-1" points="-438.19 69.21 -438.91 75.14 -412.16 72.56 -410.7 64.39 -438.19 69.21"/></clipPath><clipPath id="clip-path-5"><polygon class="cls-1" points="-410.7 64.39 -412.16 72.56 -399.45 75.64 -410.7 64.39"/></clipPath><clipPath id="clip-path-6"><path class="cls-1" d="M-418.47,35l.07-1.09c0-.15.13-.2.26-.19s.24.08.23.22l-.06.9c0,.07,0,.09.09.1a7.87,7.87,0,0,0,1.19,0,.18.18,0,0,1,.18.2.18.18,0,0,1-.15.22,13.37,13.37,0,0,1-1.51,0C-418.41,35.35-418.49,35.27-418.47,35Zm.56,2.14c-.25,0-.32-.1-.31-.34l.05-.76c0-.24.1-.31.35-.29l1.61.1c.25,0,.33.1.31.34l-.05.76c0,.24-.1.31-.35.29Zm1.39-.32c.06,0,.09,0,.09-.08l0-.4c0-.07,0-.09-.08-.1l-1.12-.07c-.07,0-.09,0-.09.08l0,.41c0,.06,0,.08.08.09Zm1.09-2.29c.12,0,.17.1.16.22s-.07.21-.19.2l-.36,0,0,.6a.22.22,0,0,1-.26.19c-.12,0-.24-.08-.23-.22l.11-1.61a.22.22,0,0,1,.26-.19c.12,0,.24.08.23.22l0,.58Z"/></clipPath><clipPath id="clip-path-7"><path class="cls-1" d="M-418.77,40.25a.18.18,0,0,1-.16-.22c0-.11.06-.2.18-.19l2.89.19a.17.17,0,0,1,.16.21c0,.12-.06.21-.18.2l-1.2-.08-.07,1a.22.22,0,0,1-.26.19c-.12,0-.24-.08-.23-.22l.07-1Zm2.71-.89c0,.24-.1.31-.34.3l-1.76-.12c-.24,0-.32-.1-.3-.34l.07-1.07a.21.21,0,0,1,.25-.18.21.21,0,0,1,.23.21l0,.26,1.45.09v-.25c0-.14.14-.19.26-.19a.22.22,0,0,1,.23.22Zm-.53-.13s.06,0,.06,0l0-.26-1.44-.09,0,.26s0,0,.05.06Z"/></clipPath><clipPath id="clip-path-8"><path class="cls-1" d="M-418.83,42.66c-.12,0-.16-.1-.16-.21a.19.19,0,0,1,.19-.19l.9.06c.24,0,.32.1.3.34l0,.38c0,.53-.17.68-1.19,1.12a.21.21,0,0,1-.28-.1.19.19,0,0,1,.07-.29c.59-.24.8-.34.88-.45h-.81c-.12,0-.17-.09-.17-.2s.05-.2.17-.2l.88,0V42.8c0-.06,0-.09-.09-.09Zm.5,3c-.25,0-.32-.1-.31-.34l.05-.73c0-.24.1-.32.35-.3l1.75.12c.24,0,.32.1.3.34l-.05.73c0,.24-.1.31-.34.29Zm1.52-.31c.07,0,.1,0,.1-.08l0-.38c0-.06,0-.09-.08-.09l-1.25-.08c-.07,0-.09,0-.09.08l0,.37c0,.07,0,.09.09.1Zm-.05-2.33.33,0,0-.63a.21.21,0,0,1,.24-.18c.12,0,.22.08.21.21l-.11,1.66a.19.19,0,0,1-.23.17c-.12,0-.23-.07-.22-.2l0-.62-.33,0,0,.6a.2.2,0,0,1-.23.18c-.11,0-.22-.07-.21-.21l.1-1.61a.21.21,0,0,1,.24-.18c.11,0,.22.07.21.2Z"/></clipPath><clipPath id="clip-path-9"><path class="cls-1" d="M-419.44,48.56c0-.1.07-.2.19-.19l.2,0L-419,47l-.18,0c-.12,0-.16-.1-.15-.21s.06-.2.18-.19l1.65.11a.18.18,0,0,1,.16.21c0,.11-.06.2-.18.19h-.16l-.09,1.36h.2a.18.18,0,0,1,.19.19c0,.11,0,.21-.15.22a14.53,14.53,0,0,1-1.79,0A.18.18,0,0,1-419.44,48.56Zm1.25-.14.09-1.39-.39,0-.1,1.4A2.71,2.71,0,0,0-418.19,48.42Zm.88-.47c-.12,0-.16-.11-.16-.22a.19.19,0,0,1,.19-.2l.33,0,.06-.92a.22.22,0,0,1,.26-.19c.12,0,.24.08.23.22l-.2,2.93c0,.15-.13.2-.25.2a.22.22,0,0,1-.23-.23l.1-1.6Z"/></clipPath><clipPath id="clip-path-10"><path class="cls-1" d="M-419.65,53.55a.18.18,0,0,1-.16-.22c0-.11.07-.21.18-.2l2.9.19c.12,0,.16.11.15.22s-.06.21-.18.2Zm2.85-.94a.22.22,0,0,1-.3.07c-.24-.15-.45-.29-.65-.44s-.32-.31-.33-.4h0c0,.1-.15.23-.39.36s-.44.24-.7.36a.21.21,0,0,1-.28-.12.22.22,0,0,1,.06-.29c.22-.11.45-.22.7-.36a.71.71,0,0,0,.41-.62V51c0-.15.13-.2.26-.19a.22.22,0,0,1,.24.22l0,.2a.71.71,0,0,0,.33.67c.22.17.43.31.64.45S-416.75,52.52-416.8,52.61Z"/></clipPath><clipPath id="clip-path-11"><path class="cls-1" d="M-424.46,31.37c0,.13,0,.27-.1.33l-1.55.65.47,1.29a1.41,1.41,0,0,1,.71-.61,1.26,1.26,0,0,1,1.75.73l0,.06a1.4,1.4,0,0,1-.88,1.93,2.37,2.37,0,0,1-1.37.18.28.28,0,0,1-.23-.34.25.25,0,0,1,.31-.23,1.87,1.87,0,0,0,1.07-.13.85.85,0,0,0,.53-1.18l0,0a.79.79,0,0,0-1.16-.44,1.11,1.11,0,0,0-.61.57.4.4,0,0,1-.22.22c-.14.06-.28,0-.32-.1l-.62-1.73c-.12-.37-.08-.49.25-.63l1.66-.69c.14-.06.24,0,.3.16"/></clipPath><clipPath id="clip-path-12"><path class="cls-1" d="M-420.94,33a1.16,1.16,0,0,1-1.16-1.16,1.16,1.16,0,0,1,1.16-1.16,1.16,1.16,0,0,1,1.16,1.16A1.16,1.16,0,0,1-420.94,33m0-1.74a.58.58,0,0,0-.58.58.58.58,0,0,0,.58.58.59.59,0,0,0,.59-.58.59.59,0,0,0-.59-.58"/></clipPath><clipPath id="clip-path-13"><path class="cls-1" d="M-421.35,34.14h0a2.08,2.08,0,0,1-1.84-1.84A.29.29,0,0,1-423,32a.3.3,0,0,1,.32.26,1.49,1.49,0,0,0,1.32,1.32.29.29,0,0,1,.25.32.28.28,0,0,1-.28.26"/></clipPath><clipPath id="clip-path-14"><path class="cls-1" d="M-422.93,31.73h0a.29.29,0,0,1-.26-.32,2.07,2.07,0,0,1,1.84-1.83.28.28,0,0,1,.32.25.29.29,0,0,1-.26.32,1.53,1.53,0,0,0-1.33,1.33.28.28,0,0,1-.28.25"/></clipPath><clipPath id="clip-path-15"><path class="cls-1" d="M-418.94,31.73a.29.29,0,0,1-.29-.25,1.51,1.51,0,0,0-1.33-1.33.28.28,0,0,1-.25-.32.28.28,0,0,1,.32-.25,2.06,2.06,0,0,1,1.83,1.83.28.28,0,0,1-.25.32h0"/></clipPath><clipPath id="clip-path-16"><path class="cls-1" d="M-420.52,34.14a.28.28,0,0,1-.29-.26.29.29,0,0,1,.25-.32,1.5,1.5,0,0,0,1.33-1.32.3.3,0,0,1,.32-.26.28.28,0,0,1,.25.32,2.07,2.07,0,0,1-1.83,1.84h0"/></clipPath><clipPath id="clip-path-17"><path class="cls-1" d="M-417.73,30.94a.28.28,0,0,1-.26-.17.29.29,0,0,1,.15-.38l2.68-1.16a.29.29,0,0,1,.38.15.29.29,0,0,1-.15.38l-2.68,1.16-.12,0"/></clipPath><clipPath id="clip-path-18"><path class="cls-1" d="M-416.29,31.82a.29.29,0,0,1-.29-.27l-.19-2.91a.29.29,0,0,1,.27-.31.29.29,0,0,1,.31.27l.18,2.91a.29.29,0,0,1-.26.31h0"/></clipPath><clipPath id="clip-path-19"><polygon class="cls-1" points="-391.52 58.2 -412.68 38.06 -412.16 32.44 -390.41 55.15 -390.41 58.92 -391.52 58.2"/></clipPath><clipPath id="clip-path-20"><polygon class="cls-1" points="-392.17 66.61 -413.32 46.47 -412.81 40.85 -391.06 63.56 -391.06 67.33 -392.17 66.61"/></clipPath><clipPath id="clip-path-21"><polygon class="cls-1" points="-392.91 74.79 -414.06 54.65 -413.55 49.04 -391.8 71.75 -391.8 75.52 -392.91 74.79"/></clipPath></defs><title>봉제역사관</title><g id="Layer_1" data-name="Layer 1"><circle class="cls-2" cx="68.03" cy="68.03" r="57.59"/><path class="cls-3" d="M82.89,71.91s0-.06,0-.09a3.16,3.16,0,0,0-.08-.68s0-.06,0-.08a3.25,3.25,0,0,0-.08-.69s0-.05,0-.08a3.26,3.26,0,0,0-.09-.69s0,0,0-.08a3.08,3.08,0,0,0-.08-.68s0-.06,0-.08a3.17,3.17,0,0,0-.08-.69s0,0,0-.08a3.25,3.25,0,0,0-.08-.69s0,0,0-.08a3.26,3.26,0,0,0-.09-.69.17.17,0,0,0,0-.07,3.27,3.27,0,0,0-.08-.7s0-.05,0-.07a3.17,3.17,0,0,0-.08-.69s0,0,0-.08a3.25,3.25,0,0,0-.08-.69s0,0,0-.07a3.27,3.27,0,0,0-.08-.7v-.07a3.27,3.27,0,0,0-.08-.7s0,0,0-.07a3.34,3.34,0,0,0-.08-.7s0,0,0-.06a3.27,3.27,0,0,0-.08-.7s0,0,0-.07a3.27,3.27,0,0,0-.08-.7s0,0,0-.07a3.34,3.34,0,0,0-.08-.7v-.06a3.36,3.36,0,0,0-.08-.71s0,0,0-.06a3.43,3.43,0,0,0-.08-.71s0,0,0-.06a3.27,3.27,0,0,0-.08-.7s0,0,0-.06a3.36,3.36,0,0,0-.08-.71v-.06a3.35,3.35,0,0,0-.07-.71v-.06A3.43,3.43,0,0,0,81.3,55a.43.43,0,0,1,0,0,3.45,3.45,0,0,0-.08-.72s0,0,0-.05a3.36,3.36,0,0,0-.08-.71s0,0,0-.06a3.36,3.36,0,0,0-.08-.71v-.05a4.18,4.18,0,0,0-.07-.72v0a3.53,3.53,0,0,0-.08-.72s0,0,0-.05a3.53,3.53,0,0,0-.08-.72v0a3.55,3.55,0,0,0-.08-.73v0a3.38,3.38,0,0,0-.07-.72v0a3.53,3.53,0,0,0-.08-.72s0,0,0,0a3.55,3.55,0,0,0-.08-.73v0a3.55,3.55,0,0,0-.08-.73v0a3.61,3.61,0,0,0-.07-.73v0a4.53,4.53,0,0,0-.07-.74v0a3.55,3.55,0,0,0-.08-.73s0,0,0,0a3.55,3.55,0,0,0-.08-.73s0,0,0,0a3.65,3.65,0,0,0-.08-.74v0a3.64,3.64,0,0,0-.07-.74v0a4.63,4.63,0,0,0-.07-.74v0a3.72,3.72,0,0,0-.08-.74v0a3.65,3.65,0,0,0-.08-.74v0a3.64,3.64,0,0,0-.07-.74v0a3.64,3.64,0,0,0-.07-.74v0a3.82,3.82,0,0,0-.08-.75v0a3.82,3.82,0,0,0-.08-.75v0a3.81,3.81,0,0,0-.07-.75h0a3.67,3.67,0,0,0-.07-.75v0a4.76,4.76,0,0,0-.07-.75v0a3.82,3.82,0,0,0-.08-.75h0c0-4-6.23-7.32-13.9-7.32s-13.9,3.28-13.9,7.32h0a3.82,3.82,0,0,0-.08.75v0a4.76,4.76,0,0,0-.07.75v0a3.67,3.67,0,0,0-.07.75h0a3.81,3.81,0,0,0-.07.75v0a3.82,3.82,0,0,0-.08.75v0a3.82,3.82,0,0,0-.08.75v0a4.53,4.53,0,0,0-.07.74v0a3.64,3.64,0,0,0-.07.74v0a3.81,3.81,0,0,0-.07.75v0a3.72,3.72,0,0,0-.08.74v0a3.72,3.72,0,0,0-.08.74v0a3.64,3.64,0,0,0-.07.74v0a3.64,3.64,0,0,0-.07.74v0a3.55,3.55,0,0,0-.08.73s0,0,0,0a3.55,3.55,0,0,0-.08.73s0,0,0,0a3.65,3.65,0,0,0-.08.74v0a3.61,3.61,0,0,0-.07.73v0a3.55,3.55,0,0,0-.08.73v0a3.55,3.55,0,0,0-.08.73s0,0,0,0a3.53,3.53,0,0,0-.08.72v0a4.18,4.18,0,0,0-.07.72v0a3.54,3.54,0,0,0-.07.73v0a3.53,3.53,0,0,0-.08.72s0,0,0,.05a3.53,3.53,0,0,0-.08.72s0,0,0,0a3.38,3.38,0,0,0-.08.72v.05a3.35,3.35,0,0,0-.07.71v.06a3.36,3.36,0,0,0-.08.71s0,0,0,.05a3.45,3.45,0,0,0-.08.72.43.43,0,0,1,0,0,3.43,3.43,0,0,0-.08.71s0,0,0,.06a3.36,3.36,0,0,0-.08.71v.06a3.35,3.35,0,0,0-.07.71v.06a3.27,3.27,0,0,0-.08.7s0,0,0,.06a3.43,3.43,0,0,0-.08.71s0,0,0,.06a3.36,3.36,0,0,0-.08.71s0,0,0,.06a3.34,3.34,0,0,0-.08.7v.07a3.27,3.27,0,0,0-.08.7s0,0,0,.07a3.27,3.27,0,0,0-.08.7s0,0,0,.06a3.34,3.34,0,0,0-.08.7s0,.05,0,.07a3.27,3.27,0,0,0-.08.7v.07a4.06,4.06,0,0,0-.08.7s0,0,0,.07a3.25,3.25,0,0,0-.08.69s0,0,0,.08a3.25,3.25,0,0,0-.08.69s0,0,0,.07a3.27,3.27,0,0,0-.08.7s0,.05,0,.07a3.25,3.25,0,0,0-.08.69v.08a3.25,3.25,0,0,0-.08.69s0,.05,0,.08a3.17,3.17,0,0,0-.08.69s0,0,0,.08a3.08,3.08,0,0,0-.08.68s0,.06,0,.08a3.25,3.25,0,0,0-.08.69s0,0,0,.08a3.26,3.26,0,0,0-.09.69s0,0,0,.08a3.16,3.16,0,0,0-.08.68s0,.06,0,.09a3.08,3.08,0,0,0-.08.68c0,4,7.87,7.31,17.59,7.31S83,76.63,83,72.59A3.08,3.08,0,0,0,82.89,71.91Z"/><ellipse class="cls-4" cx="65.39" cy="31.26" rx="4.42" ry="2.23"/><ellipse class="cls-5" cx="65.39" cy="31.26" rx="2.26" ry="1.14"/><path class="cls-3" d="M70.9,54.33A103.09,103.09,0,0,1,58,52.6a70.72,70.72,0,0,1-8.39,1.25c0,.11,0,.22,0,.34s0,0,0,.05a3.45,3.45,0,0,0-.08.72.43.43,0,0,1,0,0,3.43,3.43,0,0,0-.08.71s0,0,0,.06a3.55,3.55,0,0,0-.06.47l1.5,0A95,95,0,0,0,70.9,54.33Z"/><path class="cls-3" d="M49.86,50.75c0,.12,0,.25,0,.37s0,0,0,.05a3.53,3.53,0,0,0-.08.72s0,0,0,0a3.38,3.38,0,0,0-.08.72v.05a3.35,3.35,0,0,0-.07.71v.06c0,.07,0,.15,0,.23a67.72,67.72,0,0,0,8-1.18C54.05,51.83,51.24,51.12,49.86,50.75Z"/><path class="cls-3" d="M81.76,59.84c0-.07,0-.15,0-.22v-.06a3.36,3.36,0,0,0-.08-.71s0,0,0-.06a3.43,3.43,0,0,0-.08-.71s0,0,0-.06a3.27,3.27,0,0,0-.08-.7s0,0,0-.06a3.36,3.36,0,0,0-.08-.71v-.06a2.58,2.58,0,0,0,0-.39,116.2,116.2,0,0,1-23.7,4.26A85.45,85.45,0,0,0,81.76,59.84Z"/><path class="cls-3" d="M56.42,60.3a40.14,40.14,0,0,1-7.29-1.76,2.13,2.13,0,0,0,0,.25s0,0,0,.06a3.36,3.36,0,0,0-.08.71s0,0,0,.06a3.34,3.34,0,0,0-.08.7v0A74.19,74.19,0,0,0,56.42,60.3Z"/><path class="cls-3" d="M62.63,51.43A37.38,37.38,0,0,1,57,50.74a25,25,0,0,1-6.88-2.42,4.23,4.23,0,0,0-.05.5v0a4.18,4.18,0,0,0-.07.72v0a3.54,3.54,0,0,0-.07.73v0c0,.07,0,.15,0,.22,1.4.37,4.35,1.11,8.08,1.84C59.49,52.15,61.07,51.8,62.63,51.43Z"/><path class="cls-3" d="M80.72,48.75a2.81,2.81,0,0,0-.07-.65s0,0,0,0a3.55,3.55,0,0,0-.08-.73v0a3.55,3.55,0,0,0-.08-.73h0c-2.18.69-9.36,2.94-16.89,4.78A55.47,55.47,0,0,0,80.72,48.75Z"/><path class="cls-3" d="M67.88,67a61.82,61.82,0,0,0,14.51-.43,0,0,0,0,0,0,0,.17.17,0,0,0,0-.07,3.27,3.27,0,0,0-.08-.7s0-.05,0-.07a3.17,3.17,0,0,0-.08-.69s0,0,0-.08a2.42,2.42,0,0,0,0-.25c-2.29.43-7.85,1.44-14.1,2.29Z"/><path class="cls-3" d="M81.4,56c0-.06,0-.13,0-.19v-.06A3.43,3.43,0,0,0,81.3,55a.43.43,0,0,1,0,0,3.45,3.45,0,0,0-.08-.72s0,0,0-.05,0-.12,0-.18a41.5,41.5,0,0,1-6.34.45q-1.69,0-3.42-.09a95.41,95.41,0,0,1-20.63,2h-1.5s0,.06,0,.1v.06a3.35,3.35,0,0,0-.07.71v.06a3.27,3.27,0,0,0-.08.7s0,0,0,.06,0,.22,0,.32A40.94,40.94,0,0,0,57,60.27,115.93,115.93,0,0,0,81.4,56Z"/><path class="cls-3" d="M62.53,38.47A22.79,22.79,0,0,1,57,37a21.8,21.8,0,0,1-5.56-3.31,4.8,4.8,0,0,0-.05.52v0a4.76,4.76,0,0,0-.07.75v0a3.67,3.67,0,0,0-.07.75h0a3.81,3.81,0,0,0-.07.75v0a3.82,3.82,0,0,0-.08.75v0a3.82,3.82,0,0,0-.08.75v0a4.07,4.07,0,0,0-.06.6A60.33,60.33,0,0,0,62.53,38.47Z"/><path class="cls-3" d="M63.11,51.31c7.73-1.86,15.2-4.2,17.39-4.9a3.18,3.18,0,0,0-.06-.62v0a4,4,0,0,0,0-.5,70.72,70.72,0,0,1-11.94,1.08,55.31,55.31,0,0,1-9.62-.82c-.4-.07-.79-.16-1.18-.25-2.48.28-4.95.47-7.32.51h0a3.61,3.61,0,0,0-.07.73v0a3.55,3.55,0,0,0-.08.73v0a3.55,3.55,0,0,0-.08.73s0,0,0,0a.17.17,0,0,0,0,.07A24.54,24.54,0,0,0,57,50.61,36.21,36.21,0,0,0,63.11,51.31Z"/><path class="cls-3" d="M72,54.25a45.9,45.9,0,0,0,9.25-.37,2.71,2.71,0,0,0,0-.4s0,0,0-.06a3.36,3.36,0,0,0-.08-.71v-.05a4.18,4.18,0,0,0-.07-.72v0A3.93,3.93,0,0,0,81,51.3a41.83,41.83,0,0,1-6.6,2.35C73.63,53.85,72.82,54.05,72,54.25Z"/><path class="cls-3" d="M80.38,45.13a.41.41,0,0,1,0-.11v0a3.55,3.55,0,0,0-.08-.73s0,0,0,0a3.55,3.55,0,0,0-.08-.73s0,0,0,0a3.65,3.65,0,0,0-.08-.74v0a3.64,3.64,0,0,0-.07-.74v0a4.63,4.63,0,0,0-.07-.74v0c0-.12,0-.24,0-.36a151.71,151.71,0,0,1-21.9,4.44A61.62,61.62,0,0,0,80.38,45.13Z"/><path class="cls-3" d="M80.33,71.77q1.24-.57,2.43-1.26c0-.05,0-.09,0-.14s0-.05,0-.08a3.26,3.26,0,0,0-.09-.69s0,0,0-.08a3.08,3.08,0,0,0-.08-.68s0-.06,0-.08a3.38,3.38,0,0,0-.07-.63A63.56,63.56,0,0,1,65.1,72.36,113.39,113.39,0,0,0,80.33,71.77Z"/><path class="cls-3" d="M50.58,43.13c0,.11,0,.22,0,.33v0a3.55,3.55,0,0,0-.08.73s0,0,0,0a3.55,3.55,0,0,0-.08.73s0,0,0,0a3.38,3.38,0,0,0-.07.63c2.23,0,4.55-.21,6.88-.46A36.2,36.2,0,0,1,50.58,43.13Z"/><path class="cls-3" d="M80,40.66a2.13,2.13,0,0,0,0-.25v0a3.65,3.65,0,0,0-.08-.74v0a3.64,3.64,0,0,0-.07-.74v0a3.64,3.64,0,0,0-.07-.74v0a3.82,3.82,0,0,0-.08-.75v0s0-.07,0-.11c-3.85,1.4-14.2,4.8-23.7,4.8a31.82,31.82,0,0,1-5.22-.4c0,.1,0,.21,0,.31v0a3.64,3.64,0,0,0-.07.74v0a2.58,2.58,0,0,0,0,.29,38,38,0,0,0,7.06,2.13A150.6,150.6,0,0,0,80,40.66Z"/><path class="cls-3" d="M82.54,68a3.25,3.25,0,0,0-.08-.69s0,0,0-.08a3.09,3.09,0,0,0-.07-.52,50.54,50.54,0,0,1-8.55.66c-2.19,0-4.43-.11-6.65-.28a130.31,130.31,0,0,1-15.72,1.26c-1.16,0-2.25,0-3.26-.11a3.07,3.07,0,0,0-.06.53s0,0,0,.08a3.5,3.5,0,0,0-.08.65,54.78,54.78,0,0,0,16,2.82A64,64,0,0,0,82.54,68Z"/><path class="cls-3" d="M63.15,51.44c-1.62.39-3.25.76-4.85,1.09a102.91,102.91,0,0,0,13.06,1.7,47.74,47.74,0,0,0,9.58-3.08,0,0,0,0,0,0,0,3.53,3.53,0,0,0-.08-.72v0a3.55,3.55,0,0,0-.08-.73v0a3.42,3.42,0,0,0-.07-.71,56.15,56.15,0,0,1-16.17,2.6C64.07,51.48,63.61,51.45,63.15,51.44Z"/><path class="cls-3" d="M59.27,72.63c1.19,0,2.49-.12,3.85-.23a53,53,0,0,1-15-2.8h0a3.25,3.25,0,0,0-.08.69s0,0,0,.08a3.26,3.26,0,0,0-.09.69s0,0,0,.08a3.16,3.16,0,0,0-.08.68s0,.06,0,.09,0,.26-.05.39A87,87,0,0,0,59.27,72.63Z"/><path class="cls-3" d="M80,72c-2.91.29-7,.6-11.54.6-1.38,0-2.8,0-4.24-.11-1.76.17-3.42.28-4.9.33-1.11,0-2.17,0-3.17,0-3.81,0-6.78-.24-8.29-.39,0,0,0,.11,0,.16a3.33,3.33,0,0,0,.39,1.52C54.71,75.36,68.59,77.05,80,72Z"/><path class="cls-3" d="M66.55,67A149.67,149.67,0,0,1,48.6,64.28a2.74,2.74,0,0,0-.08.64s0,0,0,.08a3.25,3.25,0,0,0-.08.69s0,0,0,.07a3.27,3.27,0,0,0-.08.7s0,.05,0,.07a3.25,3.25,0,0,0-.08.69v.08a3.25,3.25,0,0,0-.08.69s0,.05,0,.08v0C53.28,68.47,60.51,67.8,66.55,67Z"/><path class="cls-3" d="M61.25,75.6a67.68,67.68,0,0,1-13-1.35c1.81,3.24,8.78,5.65,17.12,5.65C75.1,79.9,83,76.63,83,72.59a3.08,3.08,0,0,0-.08-.68s0-.06,0-.09a1.52,1.52,0,0,0,0-.21c-.67.09-1.56.2-2.62.31A46.65,46.65,0,0,1,61.25,75.6Z"/><path class="cls-3" d="M82.08,63.19a2.84,2.84,0,0,0-.06-.5s0,0,0-.07a3.34,3.34,0,0,0-.08-.7s0,0,0-.06a3.27,3.27,0,0,0-.08-.7s0,0,0-.07a3.27,3.27,0,0,0-.08-.7s0,0,0-.07,0-.23,0-.34a100.43,100.43,0,0,1-14.54,1.13,70.3,70.3,0,0,1-10.17-.7h0c-1.58.09-3.19.14-4.8.14-1.09,0-2.19,0-3.29-.08a3.18,3.18,0,0,0-.07.62s0,0,0,.07a3.27,3.27,0,0,0-.08.7s0,0,0,.06,0,.1,0,.14C53.34,63,72.55,66.72,82.08,63.19Z"/><path class="cls-3" d="M68.1,66.82C74.35,66,79.93,65,82.2,64.54a3,3,0,0,0,0-.31s0,0,0-.07a3.27,3.27,0,0,0-.08-.7v-.14a32.91,32.91,0,0,1-11,1.5A120.26,120.26,0,0,1,48.79,62.2a3,3,0,0,0,0,.42s0,.05,0,.07a3.27,3.27,0,0,0-.08.7v.07a3.82,3.82,0,0,0-.07.68,147.46,147.46,0,0,0,18.61,2.8Z"/><path class="cls-3" d="M82.86,71.48c0-.11,0-.23,0-.34s0-.06,0-.08a2.57,2.57,0,0,0,0-.4c-.57.32-1.28.69-2.13,1.08Z"/><path class="cls-6" d="M62.53,38.47l.5-.06a22.42,22.42,0,0,1-6-1.5,21.25,21.25,0,0,1-5.6-3.34c0,.06,0,.11,0,.16A21.8,21.8,0,0,0,57,37,22.79,22.79,0,0,0,62.53,38.47Z"/><path class="cls-6" d="M63.58,38.47l-.56.07a25.83,25.83,0,0,0,2.8.17h.93a34.1,34.1,0,0,0,12.72-3.24s0-.09,0-.13C75.15,37.27,69.5,39,63.58,38.47Z"/><path class="cls-6" d="M79.64,37.21a.78.78,0,0,0,0-.14c-4.53,1.65-18.29,6.16-28.88,4.41,0,0,0,.09,0,.13a31.82,31.82,0,0,0,5.22.4C65.44,42,75.79,38.61,79.64,37.21Z"/><path class="cls-6" d="M63,38.54l-.49-.07A60.33,60.33,0,0,1,51,38.71s0,.08,0,.12c1.62.11,3.18.19,4.64.19A56.42,56.42,0,0,0,63,38.54Z"/><path class="cls-6" d="M63,38.41l.55.06a42,42,0,0,0,9-2.28,25,25,0,0,0,6.55-3.58l0-.13a24.92,24.92,0,0,1-6.56,3.58A42,42,0,0,1,63,38.41Z"/><path class="cls-6" d="M63,38.41l-.5.06.49.07.56-.07Z"/><path class="cls-6" d="M58.07,45.23l-.42,0c.39.09.78.18,1.18.25a55.31,55.31,0,0,0,9.62.82,70.72,70.72,0,0,0,11.94-1.08.57.57,0,0,1,0-.13A61.62,61.62,0,0,1,58.07,45.23Z"/><path class="cls-6" d="M57.65,45.14A38,38,0,0,1,50.59,43s0,.08,0,.12a36.2,36.2,0,0,0,6.64,2.06Z"/><path class="cls-6" d="M57.22,45.19c-2.33.25-4.65.42-6.88.46,0,0,0,.07,0,.11v0c2.37,0,4.84-.23,7.32-.51Z"/><path class="cls-6" d="M58.07,45.23A151.71,151.71,0,0,0,80,40.79s0-.09,0-.13a150.6,150.6,0,0,1-22.31,4.48Z"/><path class="cls-6" d="M57.65,45.14l-.43,0,.43.08.42,0Z"/><path class="cls-6" d="M63.62,51.33l-.47.11c.46,0,.92,0,1.41,0a56.15,56.15,0,0,0,16.17-2.6h0v0s0,0,0-.07A55.47,55.47,0,0,1,63.62,51.33Z"/><path class="cls-6" d="M62.63,51.43l.48-.12a36.21,36.21,0,0,1-6.1-.7,24.54,24.54,0,0,1-6.9-2.44s0,.1,0,.15A25,25,0,0,0,57,50.74,37.38,37.38,0,0,0,62.63,51.43Z"/><path class="cls-6" d="M63.15,51.44h-.52c-1.56.37-3.14.72-4.67,1l.34.07C59.9,52.2,61.53,51.83,63.15,51.44Z"/><path class="cls-6" d="M57.61,52.53a67.72,67.72,0,0,1-8,1.18s0,.09,0,.14A70.72,70.72,0,0,0,58,52.6Z"/><path class="cls-6" d="M63.62,51.33c7.53-1.84,14.71-4.09,16.89-4.78v0s0-.07,0-.11c-2.19.7-9.66,3-17.39,4.9Z"/><path class="cls-6" d="M63.62,51.33l-.51,0-.48.12h.52Z"/><path class="cls-6" d="M58,52.46c-3.73-.73-6.68-1.47-8.08-1.84,0,0,0,.09,0,.13,1.38.37,4.19,1.08,7.75,1.78Z"/><path class="cls-6" d="M58.3,52.53,58,52.6A103.09,103.09,0,0,0,70.9,54.33l.46-.1A102.91,102.91,0,0,1,58.3,52.53Z"/><path class="cls-6" d="M72,54.25l-.49.12q1.73.09,3.42.09A41.5,41.5,0,0,0,81.22,54s0-.09,0-.13A45.9,45.9,0,0,1,72,54.25Z"/><path class="cls-6" d="M58,52.46l-.35.07.35.07.34-.07Z"/><path class="cls-6" d="M71.46,54.37l-.56,0a95,95,0,0,1-20.06,1.94l-1.5,0s0,.09,0,.14h1.5A95.41,95.41,0,0,0,71.46,54.37Z"/><path class="cls-6" d="M72,54.25c.87-.2,1.68-.4,2.41-.6A41.83,41.83,0,0,0,81,51.3s0-.09,0-.13v0a47.74,47.74,0,0,1-9.58,3.08Z"/><path class="cls-6" d="M71.36,54.23l-.46.1.56,0,.49-.12Z"/><path class="cls-6" d="M57,60.27a40.94,40.94,0,0,1-7.9-1.87c0,.05,0,.1,0,.14a40.14,40.14,0,0,0,7.29,1.76Z"/><path class="cls-6" d="M57.71,60.36l-.67,0h0a70.3,70.3,0,0,0,10.17.7A100.43,100.43,0,0,0,81.78,60s0-.09,0-.14A85.45,85.45,0,0,1,57.71,60.36Z"/><path class="cls-6" d="M57,60.41l-.62-.11a74.19,74.19,0,0,1-7.46,0v0a.25.25,0,0,1,0,.08c1.1.05,2.2.08,3.29.08C53.85,60.55,55.46,60.5,57,60.41Z"/><path class="cls-6" d="M57.1,60.28l.61.08a116.2,116.2,0,0,0,23.7-4.26s0-.09,0-.13A115.93,115.93,0,0,1,57,60.27Z"/><path class="cls-6" d="M57.1,60.28H57l-.62,0,.62.11.67,0Z"/><path class="cls-6" d="M82.1,63.32a.59.59,0,0,0,0-.13C72.55,66.72,53.34,63,48.8,62.06c0,0,0,.09,0,.14a120.26,120.26,0,0,0,22.35,2.62A32.91,32.91,0,0,0,82.1,63.32Z"/><path class="cls-6" d="M67.21,66.94a147.46,147.46,0,0,1-18.61-2.8v0s0,0,0,.07v0A149.67,149.67,0,0,0,66.55,67Z"/><path class="cls-6" d="M67.88,67l-.68.09c2.22.17,4.46.28,6.65.28a50.54,50.54,0,0,0,8.55-.66.66.66,0,0,0,0-.14A61.82,61.82,0,0,1,67.88,67Z"/><path class="cls-6" d="M67.21,66.94l.67,0,.24,0c6.25-.85,11.81-1.86,14.1-2.29a.59.59,0,0,0,0-.13C79.93,65,74.35,66,68.1,66.82Z"/><path class="cls-6" d="M67.2,67.08l-.65,0c-6,.77-13.27,1.44-18.31,1.06,0,0,0,.09,0,.14,1,.07,2.1.11,3.26.11A130.31,130.31,0,0,0,67.2,67.08Z"/><path class="cls-6" d="M67.21,66.94l-.66.09.65,0,.68-.09Z"/><path class="cls-6" d="M65.1,72.36a63.56,63.56,0,0,0,17.44-4.23.13.13,0,0,1,0-.06s0,0,0-.08h0a64,64,0,0,1-18.42,4.32Z"/><path class="cls-6" d="M59.28,72.77c1.48,0,3.14-.16,4.9-.33l-1.06,0c-1.36.11-2.66.19-3.85.23a87,87,0,0,1-11.44-.33s0,.09,0,.13c1.51.15,4.48.39,8.29.39C57.11,72.82,58.17,72.81,59.28,72.77Z"/><path class="cls-6" d="M80.65,71.74l-.4.18c1.06-.11,2-.22,2.62-.31,0,0,0-.09,0-.13Z"/><path class="cls-6" d="M64.12,72.31a54.78,54.78,0,0,1-16-2.82v0s0,.06,0,.08a53,53,0,0,0,15,2.8Z"/><path class="cls-6" d="M65.1,72.36l-.92.08c1.44.07,2.86.11,4.24.11,4.54,0,8.63-.31,11.54-.6l.37-.18A113.39,113.39,0,0,1,65.1,72.36Z"/><path class="cls-6" d="M64.12,72.31l-1,.09,1.06,0,.92-.08Z"/><path class="cls-6" d="M80.65,71.74c.85-.39,1.56-.76,2.13-1.08,0,0,0-.1,0-.15q-1.19.69-2.43,1.26Z"/><path class="cls-6" d="M80.25,71.92,80,72c-11.37,5.1-25.25,3.41-31.77,2.16,0,0,.06.09.08.14a67.68,67.68,0,0,0,13,1.35A46.65,46.65,0,0,0,80.25,71.92Z"/><path class="cls-6" d="M80,72l.29,0,.4-.18-.32,0Z"/><path class="cls-7" d="M65.38,23.35S83.6,74.88,87.08,74.41C89.82,72.24,65.38,23.35,65.38,23.35ZM85.91,71.71c-.19.09-.81-.92-1.37-2.24s-.86-2.46-.66-2.55.81.93,1.37,2.25S86.11,71.63,85.91,71.71Z"/><path d="M37.61,91.54v1h6.22v-1a.65.65,0,0,1,.72-.62.67.67,0,0,1,.75.62V95c0,.85-.29,1.12-1.16,1.12H41.45v1.43h5.06c.35,0,.51.28.51.63s-.16.61-.51.61H34.92c-.34,0-.51-.27-.51-.61s.17-.63.51-.63H40V96.13H37.29c-.87,0-1.14-.27-1.14-1.12V91.54a.65.65,0,0,1,.72-.62C37.25,90.92,37.61,91.12,37.61,91.54Zm7.7,10.7c0,1.74-1.69,2.52-4.59,2.52s-4.6-.78-4.6-2.52,1.7-2.52,4.6-2.52S45.31,100.5,45.31,102.24Zm-7.46-7.33h5.74c.16,0,.24-.06.24-.22v-1H37.61v1C37.61,94.85,37.69,94.91,37.85,94.91Zm-.24,7.33c0,.86,1,1.32,3.11,1.32s3.11-.46,3.11-1.32-.95-1.32-3.11-1.32S37.61,101.39,37.61,102.24Z"/><path d="M54.72,92.45c0,.35-.16.65-.52.65H52.27v1.5a3.74,3.74,0,0,0,.91,2.75c.52.63,1.06,1.18,1.44,1.57a.72.72,0,0,1,0,1,.65.65,0,0,1-.93,0c-.26-.26-.74-.78-1.22-1.31a3.23,3.23,0,0,1-.89-1.45h0a3.11,3.11,0,0,1-.9,1.5c-.48.54-1,1-1.44,1.53a.67.67,0,0,1-1,0,.69.69,0,0,1,0-1c.59-.58,1.16-1.18,1.7-1.81a3.73,3.73,0,0,0,.9-2.75V93.1h-2c-.37,0-.54-.3-.54-.65s.17-.64.54-.64H54.2C54.56,91.81,54.72,92.11,54.72,92.45Zm2.4-1v11a.61.61,0,0,1-.69.59c-.36,0-.7-.18-.7-.59V96.33H54.27c-.37,0-.54-.29-.54-.65s.17-.65.54-.65h1.46V91.4c0-.4.34-.58.7-.58S57.12,91,57.12,91.4Zm2.71-.15v11.8c0,.41-.35.59-.71.59a.61.61,0,0,1-.69-.59V91.25c0-.4.34-.58.69-.58S59.83,90.85,59.83,91.25Z"/><path d="M69,94.55a3.41,3.41,0,1,1-3.41-3.33A3.12,3.12,0,0,1,69,94.55Zm-5.37,0a2,2,0,1,0,2-2.07A1.84,1.84,0,0,0,63.61,94.55ZM72,99.43c.87,0,1.16.27,1.16,1.13V104c0,.43-.36.63-.75.63s-.75-.2-.75-.63v-3c0-.23-.09-.31-.32-.31H64.58c-.37,0-.54-.29-.54-.64s.17-.65.54-.65Zm1.16-8.13v6.86a.66.66,0,0,1-.74.63.67.67,0,0,1-.75-.63V96.58H69.91c-.36,0-.51-.3-.51-.64s.15-.65.51-.65h1.74v-1.4H69.91c-.36,0-.51-.28-.51-.64s.15-.63.51-.63h1.74V91.3c0-.44.38-.63.75-.63S73.14,90.86,73.14,91.3Z"/><path d="M80.25,92v2.24a3.74,3.74,0,0,0,1.2,3c.6.64,1.22,1.24,1.73,1.72a.64.64,0,0,1,0,.93.67.67,0,0,1-.93.08c-.47-.44-1-1-1.55-1.55-.87-.9-1.11-1.29-1.17-1.6h0c-.08.36-.3.73-1.18,1.63-.57.6-1.11,1.13-1.75,1.73a.66.66,0,0,1-1-.12.65.65,0,0,1,0-.93c.68-.63,1.32-1.25,1.92-1.89a3.77,3.77,0,0,0,1.19-3V92c0-.43.38-.63.77-.63S80.25,91.57,80.25,92Zm5.81-.7v3.9h1.65c.39,0,.56.29.56.65s-.17.66-.56.66H86.06V103c0,.43-.36.63-.75.63s-.75-.2-.75-.63V91.3c0-.44.36-.63.75-.63S86.06,90.86,86.06,91.3Z"/><path d="M93.13,95.2v2.4c1.31,0,2.66-.1,4-.22.35,0,.53.21.56.57a.55.55,0,0,1-.45.67c-2.3.2-5,.27-7.72.27-.36,0-.53-.28-.53-.63s.17-.63.53-.63h2.12V95.2a.65.65,0,0,1,.73-.62C92.77,94.58,93.13,94.78,93.13,95.2Zm2.46-3.77c.87,0,1.16.27,1.16,1.13v1.08a8.83,8.83,0,0,1-.27,2.27.72.72,0,0,1-.92.45.59.59,0,0,1-.52-.77,8.7,8.7,0,0,0,.22-2v-.54c0-.24-.09-.31-.32-.31H90.43c-.36,0-.53-.3-.53-.65s.17-.66.53-.66Zm-3,9.28v2.06c0,.22.07.31.31.31h6.94c.36,0,.53.29.53.63s-.17.65-.53.65H92.2c-.87,0-1.16-.27-1.16-1.13v-2.52c0-.44.36-.63.77-.63S92.56,100.27,92.56,100.71ZM100,91.28v3.56h1.45c.39,0,.56.3.56.66s-.17.66-.56.66H100v4.28c0,.42-.37.62-.76.62a.65.65,0,0,1-.73-.62V91.28c0-.42.36-.61.73-.61S100,90.86,100,91.28Z"/></g></svg>